<svg xmlns="http://www.w3.org/2000/svg" id="AltamarCAM-Logo" width="225.002" height="48" viewBox="0 0 225.002 48"><path id="Trazado_69" data-name="Trazado 69" d="M106,42.549h4.043c2.24,0,3.688,1.147,3.688,2.978s-1.448,3.005-3.688,3.005h-1.912v2.9h-2.1V42.549Zm3.852,4.4c1.066,0,1.721-.574,1.721-1.421s-.683-1.421-1.721-1.421H108.1v2.841Zm10.355-4.4h3.087l3.087,8.879h-2.158l-.574-1.585h-3.825l-.574,1.585h-2.158Zm2.978,5.764-1.366-3.989h-.137l-1.393,3.989Zm7.978-5.764h4.4c2.158,0,3.579,1.147,3.579,2.923a2.69,2.69,0,0,1-2.541,2.677h-.109l2.951,3.278h-2.459l-2.623-3.114h-1.038v3.114H131.19V42.549Zm4.1,4.289c1.038,0,1.721-.519,1.721-1.366s-.71-1.366-1.721-1.366h-1.967v2.732Zm11.065,4.59h2.131V44.27h2.923V42.549h-8.005V44.27H146.3v7.158Zm9.754,0h2.049V45.254h.137l3.5,6.174h2.486V42.549H162.2v6.174h-.137l-3.47-6.2h-2.486v8.906Zm13.606,0H176.6V49.761h-4.808V47.63h4.344V46.182h-4.344V44.215h4.672V42.549h-6.776ZM181.6,42.549H186c2.158,0,3.579,1.147,3.579,2.923a2.69,2.69,0,0,1-2.541,2.677h-.109l2.951,3.278h-2.459l-2.623-3.114h-1.038v3.114h-2.131V42.549Zm4.125,4.289c1.038,0,1.721-.519,1.721-1.366s-.71-1.366-1.721-1.366h-1.967v2.732Zm8.524,1.666c0,1.885,1.612,3.142,4.1,3.142,2.432,0,3.962-1.12,3.962-2.841,0-2.1-2.022-2.431-3.634-2.677-1.175-.164-2.186-.3-2.186-1.175,0-.656.628-1.093,1.721-1.093,1.147,0,1.885.546,1.858,1.5h1.967c0-1.858-1.53-3.087-3.907-3.087-2.35,0-3.8,1.12-3.8,2.814,0,2.131,2.186,2.431,3.8,2.65,1.093.164,2.049.328,2.049,1.175,0,.71-.656,1.147-1.776,1.147-1.339,0-2.1-.6-2.1-1.585h-2.049m18,7.923a2.316,2.316,0,0,0,2.076-1.284l6.147-12.294a2.3,2.3,0,0,0-4.125-2.049L210.2,53.067a2.281,2.281,0,0,0,1.038,3.087,2.127,2.127,0,0,0,1.011.246M21.142,9.438H16.88L7.7,33.752h3.005l2.076-5.464h12.4l2.076,5.464h3.005ZM13.683,25.72,18.82,12.2h.3L24.229,25.72ZM36.8,8.4H33.928V33.78H36.8Zm9.7,2.295h-2.24L43.6,16.323H40.758V18.59H43.6V29.245c0,3.06,1.858,5.136,4.808,5.136a10.1,10.1,0,0,0,2.841-.437V31.621a7.7,7.7,0,0,1-2.076.355,2.619,2.619,0,0,1-2.7-2.841V18.617h4.481V16.35H46.468Zm15.819,4.972c-4.371,0-7.24,2.349-7.24,6.038h2.9c-.027-2.186,1.694-3.442,4.317-3.442,2.869,0,4.563,1.53,4.563,3.879v.683l-4.836.574c-5.191.574-7.814,2.869-7.814,5.928,0,3.005,2.486,4.972,6.256,4.972a6.631,6.631,0,0,0,6.065-3.114h.3v2.568h2.869V22.2c0-3.961-2.869-6.529-7.377-6.529M60.866,31.922c-2.35,0-3.8-1.011-3.8-2.65,0-1.612,1.393-3.005,4.945-3.442l4.836-.546V26.84c-.027,2.923-2.432,5.081-5.983,5.081M82.832,15.64a5.678,5.678,0,0,0-5.082,3.005H77.4V16.323H74.636v17.43H77.5V23.344c0-3.06,1.858-5.109,4.7-5.109,2.7,0,4.481,2.049,4.481,5.109V33.78h2.869V23.344c0-2.978,1.967-5.109,4.754-5.109,2.623,0,4.535,2.131,4.535,5.109V33.78h2.869V23.4c0-4.535-2.923-7.7-7.049-7.7a6.6,6.6,0,0,0-5.847,3.36h-.3a6.243,6.243,0,0,0-5.683-3.415m30.6.027c-4.371,0-7.24,2.349-7.24,6.038h2.9c-.027-2.186,1.694-3.442,4.317-3.442,2.869,0,4.563,1.53,4.563,3.879v.683l-4.836.574c-5.191.574-7.814,2.869-7.814,5.928,0,3.005,2.486,4.972,6.256,4.972a6.631,6.631,0,0,0,6.065-3.114h.3v2.568h2.869V22.2c0-3.961-2.841-6.529-7.377-6.529m-1.448,16.255c-2.35,0-3.8-1.011-3.8-2.65,0-1.612,1.393-3.005,4.945-3.442l4.836-.546V26.84c0,2.923-2.432,5.081-5.983,5.081m21.583-15.927a5.3,5.3,0,0,0-4.672,2.7h-.3V16.35h-2.787V33.78h2.869v-9.4c0-3.442,1.831-5.792,4.453-5.792a7.15,7.15,0,0,1,2.6.519v-2.65a4.75,4.75,0,0,0-2.158-.464" transform="translate(-7.7 -8.4)" fill="#f7f7f7"/><path id="Trazado_70" data-name="Trazado 70" d="M572.243,48.219a2.311,2.311,0,0,1-2.074-3.33l6.141-12.282a2.3,2.3,0,0,1,3.084-1.037,2.318,2.318,0,0,1,1.037,3.111l-6.113,12.254a2.314,2.314,0,0,1-2.074,1.283M499.181,9C491.867,9,486.6,14.458,486.6,21.991c-.027,7.56,5.267,13.046,12.582,13.046,5.458,0,10.289-3.548,11.49-8.406l-3-.573a8.9,8.9,0,0,1-8.488,6.25c-5.486,0-9.443-4.312-9.443-10.289,0-5.922,3.93-10.235,9.443-10.235a8.683,8.683,0,0,1,8.461,6.5l3.057-.409A11.767,11.767,0,0,0,499.181,9m36.162,25.163h-3l-2.074-5.458H517.877L515.8,34.163h-3l9.17-24.317h4.312Zm-5.95-8.024-5.1-13.51h-.3l-5.131,13.51ZM565.938,9.873H561L552.92,29.8h-.3L544.6,9.873h-4.967V34.191h3.166V13.858h.3l8.16,20.305h3l8.215-20.36h.3v20.36h3.139V9.873Z" transform="translate(-355.674 -8.836)" fill="#008eaa"/></svg>