<svg xmlns="http://www.w3.org/2000/svg" id="logosandtypes_com" viewBox="0 0 150 150.2"><style>.st1{fill:#ff7328}</style><path d="M0 .2h150v150H0V.2z" fill="none" id="Layer_3"/><g id="Antena_3"><path class="st1" d="M34.7 80.7c10.1-16.8 19.6-33.9 30.8-49.9 2.2-3.2 4.5-6.4 6.3-9.9 1.1-2.1.8-3.7-.6-4.7-1.4-1.1-3.3-1-4.5-.9C35.8 17.7 5.1 38.4 4.8 68.1 4.9 78.9 11 92 15.9 95.5c3.7 2.6 7 2.2 10.7-2.2 3.1-3.9 5.5-8.3 8.1-12.6zM122.3 93.2c3.7 4.5 7 4.8 10.7 2.2 5-3.4 11-16.6 11.1-27.4-.3-29.7-30.9-50.3-61.7-52.8-1.2-.1-3.1-.1-4.5.9-1.4 1.1-1.7 2.7-.6 4.7 1.8 3.5 4.1 6.7 6.3 9.9 11.2 16.1 20.7 33.2 30.8 49.9 2.4 4.4 4.7 8.8 7.9 12.6zM80.2 67.9c-2.9-.5-5.1-.5-5.8-.5-.6 0-2.9 0-5.8.5C51.7 70.4 40 80 32.7 95.1c-3.7 7.8-2.1 13.1 4.6 18.4l1.2.9 3.6 2.4c17.5 11.5 24 15.5 26.6 16.7 1.1.5 3 1.4 5.6 1.5h.2c2.6 0 4.5-1 5.6-1.5 2.6-1.2 9-5.3 26.6-16.7l3.6-2.4 1.2-.9c6.7-5.3 8.4-10.6 4.6-18.4-7.2-15.1-18.9-24.7-35.9-27.2z"/></g></svg>