<svg xmlns="http://www.w3.org/2000/svg" width="205" height="45" viewBox="0 0 205 45" fill="none">
<g clip-path="url(#clip0_18_282)">
<path d="M7.02002 13.14H1.70001V19.58H7.02002C9.34002 19.58 11.29 18.83 11.29 16.26C11.29 14.21 9.75002 13.14 7.02002 13.14ZM9.64001 12.26C10.5911 12.3996 11.4574 12.8846 12.0735 13.6225C12.6896 14.3603 13.0123 15.2993 12.98 16.26C12.98 17.85 12.41 21 6.97998 21H-0.0200195V4.47H6.97998C9.74998 4.47 12.32 5.47001 12.32 8.57001C12.3327 9.39223 12.0783 10.1964 11.5951 10.8617C11.1119 11.5271 10.4258 12.0177 9.64001 12.26ZM7.02002 5.92999H1.70001V11.65H7.02002C9.51002 11.65 10.67 10.42 10.67 8.92999C10.67 6.94999 9.44002 5.92999 7.02002 5.92999Z" fill="#468799"/>
<path d="M15.34 21.04H13.52L20.2 4.47H22.04L28.53 21.04H26.72L24.72 15.93H17.33L15.33 21.04H15.34ZM24.13 14.47L21.04 6.26999L17.84 14.47H24.13Z" fill="#468799"/>
<path d="M41.23 18.31V4.47H42.91V21.04H41.07L31.54 7.2V21.04H29.85V4.47H31.7L41.23 18.31Z" fill="#468799"/>
<path d="M53.13 4.13C56.38 4.13 59.39 6.08001 59.8 9.57001H58.12C57.9011 8.41628 57.2767 7.37891 56.3597 6.64532C55.4428 5.91174 54.2936 5.53033 53.12 5.57001C48.81 5.57001 46.98 9.15999 46.98 12.74C46.98 16.32 48.81 19.9 53.12 19.9C56.24 19.9 58.04 17.46 58.33 14.63H60.03C59.6 18.5 57.24 21.36 53.12 21.36C47.89 21.36 45.29 17.25 45.29 12.74C45.29 8.22999 47.89 4.10999 53.12 4.10999" fill="#468799"/>
<path d="M69.25 21.38C64.02 21.38 61.42 17.27 61.42 12.76C61.42 8.24998 64.02 4.13 69.25 4.13C74.48 4.13 77.04 8.23998 77.04 12.76C77.04 17.28 74.45 21.38 69.25 21.38ZM69.25 5.59C64.94 5.59 63.11 9.17998 63.11 12.76C63.11 16.34 64.94 19.92 69.25 19.92C73.56 19.92 75.36 16.33 75.36 12.76C75.36 9.18998 73.52 5.59 69.25 5.59Z" fill="#468799"/>
<path d="M87.21 5.44998H83.04V20.06H87.44C90.44 20.06 93.93 18.39 93.93 12.73C93.93 6.03998 89.66 5.44998 87.23 5.44998H87.21ZM87.35 21.02H81.94V4.48999H87.37C93.28 4.48999 95.01 8.54998 95.01 12.73C95.01 17.4 92.63 21.02 87.33 21.02H87.35Z" fill="#468799"/>
<path d="M98.4 12.91V20.06H108.55V21.02H97.3V4.5H108.44V5.45H98.4V11.96H107.84V12.91H98.4Z" fill="#468799"/>
<path fill-rule="evenodd" clip-rule="evenodd" d="M143 20.98H146.62V15.08H150.44C154.54 15.08 156.12 12.48 156.12 9.81C156.12 7.14 154.54 4.53 150.44 4.53H143.02V20.98H143ZM146.64 7.34H149.44C151.12 7.34 152.61 7.71 152.61 9.81C152.61 11.91 151.12 12.27 149.44 12.27H146.63L146.64 7.34Z" fill="#468799"/>
<path fill-rule="evenodd" clip-rule="evenodd" d="M154.91 20.98H158.57L159.86 17.32H166.01L167.25 20.98H171.01L164.86 4.54001H161.15L154.91 20.98ZM162.91 8.59L164.98 14.59H160.72L162.91 8.59Z" fill="#468799"/>
<path fill-rule="evenodd" clip-rule="evenodd" d="M182.01 0C182.01 0.44 181.73 0.799988 181.01 0.799988C180.481 0.76891 179.963 0.629352 179.49 0.389984C179.028 0.170758 178.53 0.0385649 178.02 0C176.02 0 175.42 1.47 175.12 2.81H176.52C176.66 2.23 176.87 1.81 177.52 1.81C178.075 1.8453 178.62 1.97727 179.13 2.19998C179.735 2.43111 180.373 2.56283 181.02 2.59C181.383 2.61187 181.746 2.5385 182.072 2.37714C182.398 2.21577 182.677 1.97201 182.88 1.66998C183.204 1.14242 183.446 0.569425 183.6 -0.0299988H182.01V0ZM172.43 20.97H175.81V9.97L182.65 20.97H186.26V4.54001H182.88V15.54L176.02 4.54001H172.44L172.43 20.97Z" fill="#468799"/>
<path fill-rule="evenodd" clip-rule="evenodd" d="M187.74 20.98H191.44L192.74 17.32H198.88L200.13 20.98H203.88L197.73 4.54001H194.02L187.78 20.98H187.74ZM195.78 8.59L197.85 14.59H193.64L195.78 8.59Z" fill="#468799"/>
<path fill-rule="evenodd" clip-rule="evenodd" d="M113.17 44.26H121.24V43.32H114.27V38.75H120.72V37.81H114.27V33.63H121.16V32.69H113.17V44.26Z" fill="#468799"/>
<path fill-rule="evenodd" clip-rule="evenodd" d="M130 35.9H129V40.29C129 41.99 128.24 43.64 126.49 43.64C124.74 43.64 124.3 42.85 124.25 41.34V35.9H123.25V41.33C123.25 43.27 124.08 44.5 126.19 44.5C126.787 44.5159 127.377 44.3592 127.888 44.0489C128.398 43.7385 128.809 43.2876 129.07 42.75V44.26H130.01V35.9" fill="#468799"/>
<path fill-rule="evenodd" clip-rule="evenodd" d="M132.57 44.26H133.57V39.8C133.552 39.3917 133.62 38.9841 133.772 38.6044C133.923 38.2247 134.153 37.8816 134.448 37.5978C134.742 37.314 135.093 37.0961 135.478 36.9585C135.863 36.821 136.273 36.7669 136.68 36.8V35.8C135.998 35.7452 135.318 35.9188 134.745 36.2936C134.173 36.6684 133.742 37.2231 133.52 37.87V35.87H132.58V44.23" fill="#468799"/>
<path fill-rule="evenodd" clip-rule="evenodd" d="M141.56 35.65C139 35.65 137.56 37.65 137.56 40.07C137.56 42.49 138.95 44.49 141.56 44.49C144.17 44.49 145.56 42.49 145.56 40.07C145.56 37.65 144.17 35.65 141.56 35.65ZM141.56 36.5C143.56 36.5 144.49 38.29 144.49 40.07C144.49 41.85 143.49 43.63 141.56 43.63C139.63 43.63 138.63 41.85 138.63 40.07C138.63 38.29 139.6 36.51 141.56 36.51V36.5Z" fill="#468799"/>
<path fill-rule="evenodd" clip-rule="evenodd" d="M153.7 38.34C153.696 37.9558 153.61 37.5768 153.45 37.2277C153.29 36.8785 153.058 36.567 152.769 36.3133C152.481 36.0597 152.142 35.8695 151.775 35.7552C151.408 35.6409 151.022 35.6051 150.64 35.65C149.16 35.65 147.5 36.29 147.5 37.99C147.5 39.42 148.5 39.87 149.83 40.23L151.14 40.52C152.06 40.75 152.97 41.07 152.97 42.04C152.97 43.21 151.64 43.63 150.69 43.63C150.389 43.6661 150.084 43.6396 149.794 43.5523C149.504 43.4649 149.235 43.3185 149.004 43.1223C148.773 42.926 148.585 42.6842 148.452 42.4119C148.318 42.1396 148.243 41.8428 148.23 41.54H147.23C147.39 43.54 148.72 44.54 150.66 44.54C152.22 44.54 154.01 43.84 154.01 42.03C153.978 41.4149 153.715 40.8346 153.274 40.4047C152.833 39.9748 152.246 39.7267 151.63 39.71L150.27 39.41C149.57 39.23 148.54 38.9 148.54 38C148.54 36.91 149.61 36.55 150.54 36.55C150.806 36.5136 151.077 36.5331 151.335 36.6073C151.593 36.6816 151.833 36.8089 152.039 36.9812C152.245 37.1534 152.413 37.3668 152.532 37.6077C152.651 37.8485 152.719 38.1116 152.73 38.38H153.73" fill="#468799"/>
<path fill-rule="evenodd" clip-rule="evenodd" d="M156.13 44.26H157.13V35.9H156.13V44.26ZM156.13 34.33H157.13V32.65H156.13V34.33Z" fill="#468799"/>
<path fill-rule="evenodd" clip-rule="evenodd" d="M165.77 38.34C165.71 36.53 164.38 35.66 162.71 35.66C161.24 35.66 159.57 36.3 159.57 38C159.57 39.43 160.57 39.88 161.9 40.24L163.21 40.53C164.14 40.76 165.04 41.08 165.04 42.05C165.04 43.22 163.72 43.64 162.76 43.64C162.459 43.6761 162.154 43.6496 161.864 43.5623C161.574 43.4749 161.305 43.3285 161.074 43.1323C160.843 42.936 160.655 42.6942 160.522 42.4219C160.388 42.1496 160.313 41.8528 160.3 41.55H159.3C159.46 43.55 160.79 44.55 162.73 44.55C164.29 44.55 166.08 43.85 166.08 42.04C166.048 41.4249 165.785 40.8446 165.344 40.4147C164.903 39.9848 164.316 39.7367 163.7 39.72L162.34 39.42C161.65 39.24 160.61 38.91 160.61 38.01C160.61 36.92 161.68 36.56 162.61 36.56C162.876 36.5235 163.146 36.543 163.404 36.6174C163.661 36.6917 163.9 36.8192 164.106 36.9916C164.311 37.164 164.478 37.3775 164.596 37.6183C164.714 37.8592 164.78 38.122 164.79 38.39H165.79" fill="#468799"/>
<path fill-rule="evenodd" clip-rule="evenodd" d="M169.8 33.39H168.8V35.9H167.35V36.76H168.8V42.47C168.8 43.9 169.26 44.35 170.62 44.35C170.93 44.35 171.22 44.35 171.52 44.35V43.48C171.231 43.5116 170.941 43.5283 170.65 43.53C169.92 43.48 169.82 43.09 169.82 42.42V36.79H171.52V35.93H169.82V33.42" fill="#468799"/>
<path fill-rule="evenodd" clip-rule="evenodd" d="M180.65 40.35C180.73 38 179.65 35.66 176.98 35.66C174.31 35.66 173.2 37.87 173.2 40.08C173.2 42.46 174.32 44.5 176.98 44.5C177.856 44.5654 178.724 44.2898 179.402 43.7309C180.081 43.172 180.517 42.3728 180.62 41.5H179.62C179.522 42.1162 179.201 42.6749 178.718 43.0696C178.235 43.4643 177.623 43.6673 177 43.64C175 43.64 174.26 41.84 174.24 40.35H180.67H180.65ZM174.24 39.49C174.4 37.97 175.33 36.49 177 36.49C177.372 36.509 177.737 36.6021 178.073 36.764C178.409 36.9259 178.709 37.1532 178.956 37.4327C179.203 37.7121 179.391 38.038 179.51 38.3913C179.63 38.7446 179.677 39.1181 179.65 39.49H174.24Z" fill="#468799"/>
<path fill-rule="evenodd" clip-rule="evenodd" d="M182.67 44.26H183.67V39.59C183.67 37.84 184.4 36.51 186.16 36.51C187.46 36.51 187.93 37.45 187.91 38.59V44.26H188.91V39.53C188.91 37.97 189.41 36.53 191.17 36.53C192.63 36.53 193.17 37.28 193.17 38.66V44.28H194.17V38.61C194.17 36.61 193.23 35.68 191.4 35.68C190.846 35.6624 190.299 35.8074 189.826 36.0971C189.354 36.3867 188.976 36.8083 188.74 37.31C188.596 36.817 188.291 36.3861 187.875 36.0854C187.458 35.7848 186.953 35.6316 186.44 35.65C185.872 35.6261 185.309 35.7697 184.822 36.0631C184.335 36.3565 183.945 36.7866 183.7 37.3H183.65V35.89H182.71V44.25" fill="#468799"/>
<path fill-rule="evenodd" clip-rule="evenodd" d="M202.15 41.02C202.142 41.3875 202.058 41.7495 201.905 42.0835C201.751 42.4176 201.531 42.7166 201.257 42.9621C200.984 43.2076 200.662 43.3945 200.314 43.511C199.965 43.6276 199.596 43.6715 199.23 43.64C198.999 43.6562 198.767 43.6262 198.548 43.5517C198.329 43.4772 198.126 43.3596 197.953 43.2059C197.78 43.0523 197.639 42.8656 197.539 42.6568C197.439 42.448 197.381 42.2213 197.37 41.99C197.37 40.35 199.53 40.37 201.26 40.06C201.54 40.01 201.99 39.93 202.12 39.69V41.02H202.15ZM197.7 38.46C197.7 37.1 198.7 36.51 199.93 36.51C201.16 36.51 202.12 36.85 202.12 38.23C202.12 39.16 201.65 39.23 200.81 39.37C198.61 39.62 196.32 39.71 196.32 42.05C196.32 43.74 197.58 44.5 199.12 44.5C199.73 44.5339 200.338 44.3917 200.87 44.0903C201.401 43.7889 201.835 43.341 202.12 42.8C202.12 43.67 202.28 44.26 203.32 44.26C203.545 44.2641 203.77 44.2406 203.99 44.19V43.33C203.886 43.3744 203.773 43.3982 203.66 43.4C203.577 43.4083 203.494 43.3977 203.416 43.3692C203.338 43.3407 203.268 43.2949 203.21 43.2352C203.152 43.1756 203.109 43.1036 203.083 43.0248C203.057 42.946 203.049 42.8623 203.06 42.78V38.34C203.06 36.11 201.46 35.66 199.98 35.66C198.07 35.66 196.69 36.5 196.6 38.46H197.7Z" fill="#468799"/>
<path fill-rule="evenodd" clip-rule="evenodd" d="M113.13 20.98H125.61V17.94H116.75V13.91H124.72V11.1H116.75V7.57999H125.43V4.53999H113.13V20.98Z" fill="#468799"/>
<path fill-rule="evenodd" clip-rule="evenodd" d="M127.02 15.52C127.02 19.57 130.38 21.37 134.02 21.37C138.49 21.37 140.86 19.11 140.86 16.09C140.86 12.36 137.18 11.6 135.98 11.31C131.86 10.25 131.07 10.09 131.07 8.82001C131.07 7.55001 132.41 6.94998 133.56 6.94998C135.29 6.94998 136.69 7.46 136.81 9.44H140.31C140.31 5.64 137.15 4.13998 133.72 4.13998C130.72 4.13998 127.57 5.75998 127.57 9.13998C127.57 12.22 130.04 13.14 132.48 13.81C134.92 14.48 137.36 14.76 137.36 16.53C137.36 18.3 135.43 18.58 134.16 18.58C132.23 18.58 130.52 17.73 130.52 15.58H127.02" fill="#468799"/>
</g>
<defs>
<clipPath id="clip0_18_282">
<rect width="204.09" height="44.5" fill="white"/>
</clipPath>
</defs>
</svg>