<?xml version="1.0" encoding="utf-8"?>
<!-- Generator: Adobe Illustrator 26.0.3, SVG Export Plug-In . SVG Version: 6.00 Build 0)  -->
<svg version="1.0" id="Layer_1" xmlns="http://www.w3.org/2000/svg" xmlns:xlink="http://www.w3.org/1999/xlink" x="0px" y="0px"
	 viewBox="0 0 618 500" style="enable-background:new 0 0 618 500;" xml:space="preserve">
<style type="text/css">
	.st0{fill:#0f8094;}
	.st1{fill:#FFFFFF;}
</style>
<g>
	<circle class="st0" cx="301.6" cy="208.5" r="100"/>
	<path class="st1" d="M277.2,170C277.2,169.9,277.1,169.9,277.2,170c-1.1,1.4-4.2,2.7-5.1,5.8c-0.1,0.2-0.3,0.3-0.5,0.3c0,0,0,0,0,0
		c-0.8-0.2-2.2-0.3-3.4,0.4c-0.1,0-0.1,0.1-0.2,0c-1.9-0.2-5.3,0.3-7.2,2.6c0,0.1,0,0.2,0,0.2c0,0,0.1,0,0.1,0
		c5.1-2.4,8.5-0.2,9.5,0.5c4.9,3.6,10.5,13,18.4,15.2c0,0,0.1,0,0.1,0.1c0,0,0.1,0.1,0.1,0.1c0.2,1.4,1.3,2.3,2.5,2.1
		c1-0.2,1.6-1.1,1.6-2.3c0-0.1,0-0.1,0.1-0.1c0,0,0.1,0,0.1,0c4.7-1.5,7.3-11.6,11.2-12.8c0.1,0,0.2-0.1,0.1-0.2c0,0,0,0,0,0
		c-0.4-1.2-2-2.4-4.1-2.5c-0.1,0-0.2,0-0.2-0.1c-0.8-0.8-3.4-1.7-4.4-1.3c-0.1,0-0.1,0.1-0.1,0.1c2.4,5.6,0.7,11.6-3.2,13.9
		c0,0-0.1,0-0.2,0c0-0.1,0-0.1,0-0.2c3.1-3.7,3-10.3,1.5-13.5c0,0,0,0-0.1,0c0,0,0,0,0,0.1c0,1.2-1,2.4-1.6,3.7
		c-0.1,0.1-0.2,0.2-0.3,0.1c-0.1,0-0.1-0.1-0.1-0.2c-0.4-1.6,0.1-2.6,0.3-4.2c0.2-1.7,0.4-3.4,0.4-5.1c1.1-0.1,1.8-0.4,2.2-1.5
		c0.4-0.9,1-2,1.6-3.6c0.5-1.1,0.8-2.4,1-3.6c0.1-1,0-1.6-0.1-2.6c-0.1-1,0.3-1.6,0.3-2.6c0,0,0-0.1-0.1-0.1
		c-0.2-0.2-0.5-0.3-0.7-0.3c-0.6-0.1-1,0.6-0.5,0.9c0.7,0.4,0.6,1.2,0.6,1.5c0,0.1-0.1,0.1-0.1,0.1c-0.3,0-0.3-0.2-0.5-0.2
		c-0.3-0.1-0.6-0.1-0.9-0.1c-0.1,0-0.1,0-0.1,0.1c0,0.3,0.2,1.1-0.5,1.5c-0.1,0-0.1,0-0.2,0c0,0,0,0,0,0c-0.3-0.6-0.5-1.7-0.7-2.3
		c-0.4-1.2,0.4-2,0.8-2.1c0.6-0.3,1.6-0.3,2.2-0.2c0.2,0,0.4,0.1,0.6,0.3c0,0,0.1,0,0.1,0c-0.5-2.2-0.2-3.9-1.4-5.2
		c-0.7-0.7-3.4-1.8-6.9-1.4c-2.2,0.2-3.3,1.2-5.8,0.7c-0.1,0-0.1-0.1-0.1-0.2c0-0.1,0.1-0.1,0.1-0.1c3.7-1,4.5-3.9,10.3-3.4
		c2.3,0.2,2.3,1.8,2.2,2.4c0,0.1,0,0.2,0.1,0.2c1.1,0.6,2,2.1,2.2,3.3c0,0.1,0.1,0.1,0.2,0.1c0,0,0.1,0,0.1-0.1
		c0.3-0.7,0.5-1.5,0.2-2.4c-0.3-0.8-1-0.9-1.3-1.9c-1.1-4.8-8.2-2.7-11.1-3.8c-1.6-0.6-5.5,0.1-9.7,3.4c-1.8,1.4-3,4.1-2.8,8.2
		c0,1.2-0.4,5,1.7,8.4c0.6,1,1.4,1.7,2.4,2.7c0,0,0,0,0.1,0c0,0,0,0,0-0.1c-0.4-2.4-2.7-4.8-2.6-9c0.2-2.2,1.4-4.1,2.5-4.6
		c0.1,0,0.1,0,0.2,0.1c0,0,0,0.1,0,0.1c-0.3,0.9-0.5,2.2-0.2,3.1c0,0.1,0.1,0.1,0.2,0.1c0,0,0,0,0,0c1-0.7,1.2-2.5,2.7-4
		c1-1,2.9-0.8,5.3-1.7c0.1,0,0.2,0,0.2,0.1c0,0,0,0,0,0.1c-0.5,2.6-2.9,3.3-3.7,7c-0.5,2.5-3.8,3.3-3.9,4.1c0,0,0,0.1,0,0.1
		c1.1,1.5,2.8,1,3,1.5c-0.5,0.4-1.3,0.4-1.2,1c0.9,4.4,0.3,7.1-0.5,8.7c-0.6,1.2-2.6,1.7-4.3,1.9c-0.1,0-0.3-0.1-0.3-0.2
		c0,0,0-0.1,0-0.1c0.2-0.7,0.7-1.7,1.5-2.7c0.3-0.4-0.3-0.3-1-0.3c-0.1,0-0.2-0.1-0.3-0.2c0-0.1,0-0.1,0.1-0.2
		C276,172.9,277.1,171.6,277.2,170z M294.9,167.7c0.2,0.1,0.2,0.2,0.1,0.3c0,0-0.3,0.1-0.4,0.2c-0.4,0.5-1,0.8-2,0.6
		c-1.2-0.2-1.9-1.1-3.2-1c-0.2,0-0.1-0.5,0.4-0.5c0.6,0,1.1-0.6,2.4-0.7c0.5,0,0.7,0.4,1.2,0.2C294.1,166.6,294.5,167.5,294.9,167.7
		L294.9,167.7z M293.7,163.5c0.4,0.1,0.7,0.4,0.8,0.8c0.1,0.3-0.7,1.1-1.1,1s-1-0.4-1.7-0.5c-0.3,0-0.2-0.4,0-0.6
		c0.2-0.2,0.4-0.3,0.7-0.4C292.9,163.7,293.1,163.5,293.7,163.5L293.7,163.5z M286.6,159.8c0.4-0.4,0.6-0.6,1.3-0.9
		c0.6-0.2,0.5-0.9-1-0.7c-0.4,0.1-0.3-0.2,0.3-0.6c1-0.7,1.2-0.8,3.3-0.4c0.6,0.1,1.1,0.2,1.6,0.5c0.1,0.1,0.3,0.5,0.1,1
		c-0.5,1.1-0.7,1.8-1.6,1.6c-1-0.2-1.5,0.2-2.6-0.2c-0.7-0.2-0.9,0.1-1.1,0.1C286.3,160.4,286.2,160.1,286.6,159.8L286.6,159.8z
		 M284.5,170.2c1.7,1.2,4.2,2.6,7.2,2.8c0.4,0.1-0.7,2-2.1,2.2c-2.4,0.3-4.7-3-5.4-4.8c0-0.1,0-0.2,0.1-0.2
		C284.4,170.1,284.5,170.1,284.5,170.2L284.5,170.2z M276.9,178.6c7.8,2.9,9.2,9.9,12,13.3c0.1,0.1,0.1,0.2,0,0.2
		c-0.1,0.1-0.2,0.1-0.2,0c-5-2.1-6.5-8.7-12-13.3c-0.1-0.1-0.1-0.2,0-0.2C276.7,178.6,276.8,178.6,276.9,178.6z"/>
	<path class="st1" d="M358.3,260.9c0.1,0.2,0.3,0.2,0.5,0.1c0.2-0.1,0.2-0.3,0.1-0.5l0,0c-14-30.1-40.5-28.4-53.2-50.9
		c-0.1-0.2-0.5,0-0.4,0.2C316.4,237.8,343.4,237.3,358.3,260.9z"/>
	<path class="st1" d="M230.8,230.5c0,0.1,0.1,0.1,0.1,0.1c0.1,0,0.1,0,0.1-0.1c2.7-11.2,9.5-15,15.5-27.3c3.6-7.5,4.1-13.5,9.8-20.2
		c0.1-0.1,0.1-0.1,0-0.2c0,0-0.1-0.1-0.2,0c-7.6,5-8.9,13.3-12.6,19.5C238.3,211.2,230.2,212.6,230.8,230.5z"/>
	<path class="st1" d="M279.8,238.1c2.9-2,7.2-3.4,11.4-3.3c7.7,0.1,11.7-1.7,14-1.7c1.8,0,3.5,0.5,5,1.4c0.3,0.2,0.6,0,0.5-0.4
		c-0.2-1.1-0.7-2.4-1.8-3.2c-1.4-1-5.1-2.4-7.9-4.5c-2.9-2.2-6.7-0.9-11.3-0.7c-4.9,0.2-5.9-0.4-8.5-0.3c-3.4,0.1-5.2,0.6-6.3,1.6
		c-1.4,1.3-0.8,2.9-0.4,3.6c0.1,0.2,0.4,0.3,0.6,0.1c0,0,0,0,0,0c1.2-0.8,5.3-2.7,12.3-0.9c0.1,0,0.2,0.2,0.2,0.3
		c0,0.1-0.1,0.2-0.2,0.2c-6.9,0.4-9.4,1.7-10.7,3.2c-0.1,0.1-0.1,0.4,0,0.5c0.7,1.1,1.2,2.8,2,3.8
		C278.8,238.3,279.4,238.4,279.8,238.1z"/>
	<path class="st1" d="M309.1,239.8c-1.1,0.4-2.1,0.9-3,1.5c-0.1,0.1-0.2,0.3-0.1,0.4c0,0,0,0,0.1,0.1c2.7,2.1,7.5,5.5,8.9,8.7
		c3.6,8.3,9.6,18.5,16.9,27.5c0.1,0.2,0.4,0.2,0.5,0.1c0.1-0.1,0.2-0.2,0.1-0.4c-2-9.5-2.6-22.6-5.1-27.7
		c-1.5-2.9-8.9-8.9-14.6-12.3c-5.3-2.5-10.6-0.6-14.6,0c-0.1,0-0.2,0.1-0.2,0.3c0,0.1,0.1,0.2,0.2,0.2c4,1.3,7.9,0.4,10.8,1
		c0.2,0,0.3,0.2,0.2,0.3C309.3,239.6,309.3,239.7,309.1,239.8z"/>
	<path class="st1" d="M277.6,213.2c1.6,4.5,3.1,6.5,5.6,8.7c2.5,2.2,11,1.5,12.3,0.8c0.9-0.5,1.2-1.6,1.3-2.3
		c0.7-2.4,1.1-8.8,1.8-9.8c2.2-3.2,3.3-5.7,3.4-8.4c0.1-2.4-0.9-4.7-1.7-9.6c0-0.2-0.2-0.3-0.3-0.2c-0.1,0-0.2,0.1-0.2,0.1
		c-1,1.6-2.8,3.7-5.4,4.7c0,0-0.1,0-0.1,0.1c-1.7,1.7-2.2,5.1-2.9,6.8c-0.1,0.3-0.4,0.4-0.6,0.3c-0.1-0.1-0.3-0.2-0.3-0.3
		c-0.5-2-1.4-4.5-3-6.6c0-0.1-0.1-0.1-0.2-0.1c-6.1-1.4-9.6-5.3-12.5-9c-0.1-0.2-0.4-0.2-0.6,0c-0.1,0.1-0.1,0.2-0.1,0.3
		c-0.3,6.7-1.3,12.1-3.5,15.5c-0.1,0.2-0.2,0.4-0.2,0.6c0,2.9,0.7,8.3,2.1,11.5c1.4,3.3,3.3,5.2,4.2,5.4c1.9,0.5-0.2-4-0.3-8.2
		c0-0.3,0.2-0.5,0.5-0.5C277.3,212.8,277.5,213,277.6,213.2z"/>
	<path class="st1" d="M370.1,172.5c0,0-0.1,0.1-0.1,0.1c-2,0.4-4,1-6,1.7c-0.1,0-0.2,0-0.2-0.1c0,0,0-0.1,0-0.1
		c2-2.4,1.1-5.3,2.3-6.9c0-0.1,0-0.2,0-0.2c0,0-0.1,0-0.1,0c-5.9,1.9-5.9,6.4-5.1,8.6c0,0.1,0,0.1-0.1,0.2c-1.5,0.7-2.9,1.5-4.2,2.4
		c-0.1,0-0.2,0-0.2,0c0,0,0-0.1,0-0.1c1.2-2.8-0.4-5.3,0.3-7.2c0-0.1,0-0.2-0.1-0.2c0,0-0.1,0-0.1,0c-5,3.3-4,7.5-2.7,9.4
		c0,0.1,0,0.2,0,0.2c-1.4,1.1-2.7,2.3-3.9,3.6c-0.1-0.1-0.3-0.1-0.4-0.2c-0.6-0.3-1.2-0.4-1.9-0.5c-1,0-1.8,0-3.3,0.1
		c-0.7-0.2-1-0.4-1.9-0.1c-1.4,0.5-2,0.7-2.4,1c-1.3,1-2.2,1.8-2.6,2.5c-0.6,0.9-1,1.8-1.3,2.6c-0.8,1.2-2.6,3.4-5.8,5.9
		c-0.9,0.7-4.2,2.9-6.3,4.5c-1.6-0.5-3.7-2.3-5.5-3.7c-1.8-1.4-3.1-2.7-4.3-4.3c-1.3-1.9-1.8-3.1-3.9-5.4c-0.9-1-2.4-2-3.9-2.7
		c0,0-0.1,0-0.1,0c-0.9,0-3,1.3-3.5,2.9c-0.6,1.6-1,7.1,0.6,10.1c0.1,0.2,0.4,0.4,0.7,0.2c0.5-0.2,1.1-0.2,1.5,0.1
		c1.4,1.1,1.9,1.6,4.7,4.5c3.6,3.8,6.6,5.4,10.3,6.7c0.9,0.3,3.6,1.5,4.4,1.5c0.9-0.1,2.4-1.1,5.3-3.6c3-2.6,4.4-4.8,5.7-6.7
		c0.6-1,4.6-6.1,4.9-6.3c0.3-0.2,1.1-0.2,2-0.3c0.1,0,0.2,0.1,0.2,0.2c0,0,0,0.1,0,0.1c-1.8,3.2-2.9,6-3.5,7.8
		c-0.6,1.9,1.4,1.3,1.7,0.3c0.6-2.3,1.8-5.2,3.5-8.3c0.1-0.1,0.2-0.2,0.4-0.2c1.3-0.1,1.7-0.2,2-0.3c0.5-0.2,0.8-0.6,0.9-1.1
		c0-0.3,0.1-0.3,0.6-0.5c0.3-0.1,0.7-0.7,0.7-1.1c0-0.2-0.1-0.3-0.2-0.4c-0.1-0.1-0.1-0.2,0-0.3c0,0,0,0,0,0
		c0.2-0.2,0.6-0.3,0.8-0.5c0.2-0.3,0.4-0.6,0.4-1c0-0.1,0.1-0.1,0.1-0.1c0.5-0.1,1.1,0,1.4-0.2c0.6-0.4,0.6-0.5,0.7-1.3
		c0-0.3-0.3-0.6-0.5-0.7c-0.1-0.1-0.2-0.1-0.4-0.2c0,0-0.1,0-0.1,0l-0.1,0.1c-0.1,0.1-0.2,0.2-0.4,0.2c-0.2,0-0.4,0-0.5,0
		c-0.1,0-0.1-0.1-0.1-0.1c0,0,0-0.1,0-0.1c1.9-2.1,4.1-4,6.5-5.7c0.1,0,0.2,0,0.2,0c0,0,0,0,0,0c2.4,5.6,9,3.6,11.4,2.6
		c0.1,0,0.1-0.1,0.1-0.2c0-0.1-0.1-0.1-0.1-0.1c-4.1,0.4-5.5-3.3-9.9-3.2c-0.1,0-0.2-0.1-0.2-0.1c0-0.1,0-0.1,0.1-0.1
		c1.6-1,3.3-1.9,5-2.7c0.1,0,0.2,0,0.2,0.1c2.7,5.7,9.3,3.2,11.7,2c0.1,0,0.1-0.1,0.1-0.2c0-0.1-0.1-0.1-0.1-0.1
		c-3.8,0.6-5.5-2.5-9.3-2.5c-0.1,0-0.1-0.1-0.1-0.1c0-0.1,0-0.1,0.1-0.1c1.4-0.5,2.9-1,4.3-1.3c0.1,0,0.2,0,0.2,0
		c4.4,1.9,7.4-1.3,12-1.3c0.1,0,0.2-0.1,0.2-0.1c0,0,0-0.1-0.1-0.1C378.9,169,371.8,168,370.1,172.5z M346.5,186.9
		c-0.5,0-1.9-0.3-2.8-0.4c-0.2,0.4-0.2,0.9,0.2,1.2c0.1,0,0.1,0.1,0,0.2c0,0.1-0.1,0.1-0.2,0c-0.9-0.2-1.3-0.3-1.7,0
		c-0.2,0.2-0.2,0.5-0.1,0.7c0.1,0.1,0,0.3-0.1,0.3c0,0,0,0,0,0c-0.1,0-0.2,0.1-0.2,0.1c-0.2,0.2-0.2,0.4-0.1,0.6
		c0.1,0.3,0.3,0.6,0.5,0.8c0.1,0.1,0.3,0.3,0.5,0.4c0.1,0.1,0.1,0.2,0,0.2c0,0-0.1,0.1-0.1,0.1c-1.4,0-2.8-0.7-3.2-2.1
		c0-0.1,0-0.3,0.1-0.3c1.7-1,2.7-2.7,3.2-3.1c0.5-0.4,1.6-0.1,2.5,0.1c0.8,0.2,2.2,0.6,3.4-0.3c0.1,0,0.1,0,0.2,0c0,0,0,0,0,0.1
		C348.7,186.6,347.3,187,346.5,186.9z"/>
	<path class="st1" d="M274.6,243.7c0-0.2,0.2-0.2,0.3-0.2c0.1,0,0.2,0.1,0.2,0.2c0.3,1.1,0.6,2.7,0.8,3.1c0.2,0.3,0.5,0.6,0.8,0.6
		c0.2,0,0.4-0.1,0.5-0.4c0,0,0-0.1,0-0.1c-0.1-0.8-0.2-2.2-0.2-3.1c0-0.7-0.1-3.6-0.3-4.4c-0.6-2.3-1.1-4.3-2.4-6.2
		c-0.5-0.7-8.8-9.7-9.7-10.6s-3.7-4.8-5.7-7.5c0,0,0-0.1,0-0.1c0,0,0-0.1,0-0.1c0.2-1.5,1.7-4.3,3.2-7.6c0-0.1,0-0.2,0-0.2
		c-1.7-7.3-3.1-13.3-4.1-17.5c0-0.1-0.1-0.1-0.2-0.1c0,0-0.1,0-0.1,0.1c-0.9,3-1.8,7.1-2.2,8.5c-0.7,2.3-3.9,9.6-4.7,13
		c-0.3,1.2-0.5,2.5-0.6,3.8c-0.1,1.3-0.7,3.3,0.2,4.4c0.3,0.4,0.6,0.8,0.9,1.1c1.3,1.7,2.8,3.3,4.3,4.8c3.4,3.2,9.1,7.1,10,7.9
		c1.4,1.4,1.4,1.5,1.7,4c0.1,1,0.1,5.3,0.3,5.7c0.3,0.6,0.7,0.8,1.6,1.8c0,0,0.1,0.1,0.1,0.1c0.6,1.6,0.8,2.1,1,2.9
		c0.2,0.6,0.5,0.8,0.9,0.8c0.2,0,0.3,0.1,0.4,0.3c0,0.4,0.1,0.6,0.1,1c0.2,1.7,0.6,3.5,0.6,3.8c0,0.3,1.2,0.8,1.5-1.3
		c0.2-1.6,0.1-2.7,0.1-3.9C273.8,247.3,274.2,245.3,274.6,243.7z"/>
	<path class="st1" d="M259,172.3l1.2,0.2c0.2,0,0.3-0.1,0.4-0.2c0,0,0-0.1,0-0.1c-0.4-2-2.3-10.3-7.9-17.9c-0.1-0.1-0.2-0.1-0.3-0.1
		c0,0-0.1,0.1-0.1,0.1c-1.6,8.9,0.5,17.5,1,19.5c0,0.2,0.2,0.3,0.4,0.2c0,0,0.1,0,0.1-0.1l1-0.8c0.3-0.2,0.8-0.2,1,0.1
		c0.1,0.1,0.1,0.2,0.1,0.3c1.2,4.9,6.2,26.1,11.7,49c0.6,2.5,1.5,3.6,2.9,4.2c0.2,0.1,0.3,0,0.4-0.2c0-0.1,0-0.1,0-0.2l-6-25.3
		c0-0.1,0-0.1,0-0.2c1.2-3.1,2.3-6.2,2.9-8.8c0-0.1,0.1-0.2,0.3-0.2c0.1,0,0.1,0.1,0.2,0.2c0.2,1,0.5,3-0.3,6
		c-0.4,1.6,0,2.5,0.4,3.3c0,0.1,0.2,0.1,0.3,0.1c0,0,0.1,0,0.1-0.1c2.1-3.4,4.7-10.2,2.4-17.6c-0.8-2.6-5.7-5.8-8.6-3.4v0
		c-0.6,0.6-1.2,1.2-1.5,2c-0.1,0.1-0.2,0.2-0.3,0.1c-0.1,0-0.1-0.1-0.1-0.1c-1-4.2-1.8-7.5-2.2-9.3c-0.1-0.4,0.1-0.8,0.5-0.9
		C258.8,172.3,258.9,172.3,259,172.3z"/>
	<path class="st1" d="M383.2,181.1c0,0-0.2-0.6-0.8-0.4c-0.5,0.2-0.3,0.8-0.3,0.8c3,9,4.4,18.4,4.3,27.9
		c-0.6,35.6-23.5,65.6-55.1,77.1c-0.5,0.2-1.1,0-1.4-0.4c-9.7-12.5-13.6-25.5-18.4-34.1c-2.4-4.3-9.8-7.8-15.9-13.1
		c-0.3-0.3-0.7-0.5-1.6-0.5c-2.4-0.1-9.7-1.4-14.7,6.8c-1.3,2.1,3.8,9.9,6,11c4.5,2.4,11-1.6,14.5-4.1c0.3-0.2,0.7-0.1,0.8,0.2
		c0.1,0.2,0.1,0.4,0,0.6c-2.3,3.8-11.7,19.5-16.4,14c-0.1-0.1-0.3-0.1-0.4,0c-0.1,0.1-0.1,0.2-0.1,0.3c0.7,5.1,4,11.2,8.3,9
		c5.1-2.6,7-7.4,10.3-15.9c0.1-0.3,0.4-0.4,0.6-0.3c0.2,0.1,0.3,0.3,0.3,0.5c-1.1,10.5-4.3,23.4-11.8,29.7c-0.3,0.3-0.7,0.4-1.1,0.3
		c-1.4-0.2-2.7-0.5-4.1-0.7c-0.1,0-0.2-0.1-0.2-0.2c-0.5-2.1-4.7-19.8-9.7-40.8c0-0.1-0.2-0.2-0.3-0.2c-0.1,0-0.1,0.1-0.2,0.1
		c-0.4,0.8-0.8,2.2-1,3.9v0.1c4.3,18,7.8,32.8,8.6,36c0,0.2-0.1,0.3-0.2,0.4c0,0-0.1,0-0.1,0c-2.7-0.7-5.5-1.5-8.1-2.4
		c-0.1-0.1-0.2-0.2-0.2-0.4c1.3-4.5,2.1-9.5,2.5-14.7v-0.1c-1-4.3-2-8.7-3.1-13.3l0,0c-0.1-0.4-0.3-0.6-0.5-0.6s-0.4,0.3-0.4,0.7
		l0,0c0.1,1.1,0.1,2.3,0.1,3.4c0,0.1-0.1,0.2-0.2,0.2c0,0,0,0,0,0c-4.6-0.4-9.6-1.1-14.3-1.9c-0.1,0-0.2-0.1-0.2-0.3
		c0,0,0-0.1,0-0.1c3.1-4.2,6.3-8.2,9.4-12.2c0-0.1,0.1-0.1,0-0.2c-0.1-0.6-0.3-1.1-0.6-1.6l-0.1-0.1c-0.9-0.6-1.7-1-2.1-1.5
		c-0.1-0.1-0.2-0.1-0.3,0c0,0,0,0,0,0c-2.6,3.3-5.5,6.9-8.4,10.7c-0.1,0.1-0.2,0.1-0.3,0c-0.1-0.1-0.1-0.1-0.1-0.2
		c0.1-1.3,0.3-2.7,0.4-4.1c0,0,0-0.1,0.1-0.1c2.8-3.6,5.6-7.2,8.3-10.6c0,0,0.1-0.1,0.1-0.2c0-0.7-0.1-1.4-0.1-2.1
		c0-0.1-0.1-0.2-0.2-0.2c-0.1,0-0.1,0-0.2,0.1c-2.2,2.8-4.6,5.8-7,8.9c-0.1,0.1-0.2,0.1-0.4,0c-0.1-0.1-0.1-0.1-0.1-0.2
		c0.4-3.9,0.9-7.8,1.4-11.5c0-0.1,0.1-0.2,0.3-0.2c1.7,0.2,3.4,0.3,5.1,0.5c0.1,0,0.2,0,0.2-0.2c0-0.1,0-0.2-0.1-0.2
		c-0.2-0.2-0.4-0.3-0.6-0.4c-1.5-1.1-3.4-2.5-5.6-4.3c0,0-0.1-0.1-0.2-0.1c-7.9-0.6-15.8-1.4-19.5-1.8c-1.4-0.1-2.7,0.2-3.3,2
		c-2.4,6.6-3.7,12.6-4.5,17.7c0,0.2-0.2,0.3-0.3,0.3c-0.1,0-0.2-0.1-0.2-0.2c-6.8-12.6-10.3-26.8-10-41.2
		c0.8-46.2,39.4-83.1,85.6-81.9c28.3,0.7,53,15.5,67.6,37.5c0,0,0.4,0.6,0.9,0.3c0.5-0.3,0.1-0.9,0.1-0.9
		c-14.9-22.8-40.4-38-69.6-38.8c-47.4-1.4-86.9,35.9-88.3,83.3c0,0.4,0,0.7,0,1.1c-0.9,48,37.6,87.5,85.7,87.6
		c46.5,0.2,85.7-38.4,86.3-84.9C387.7,199.9,386.2,190.3,383.2,181.1z M254.2,275.6c0.1-0.8,0.1-1.8,0.2-3c0-0.1,0.1-0.2,0.3-0.2
		c0,0,0,0,0,0l0.3,0.1c0.1,0,0.1,0.1,0.2,0.1c0.8,1.7,1.7,3.4,2.7,5.2c0.1,0.1,0,0.3-0.1,0.3c-0.1,0-0.2,0-0.2,0
		c-1.1-0.7-2.1-1.4-3.2-2.2C254.3,275.8,254.2,275.7,254.2,275.6z M261,280c-1.1-2-2.4-4.2-3.6-6.7c-0.1-0.1,0-0.3,0.1-0.3
		c0.1,0,0.1,0,0.2,0c4.8,1.1,9.6,1.8,14.5,2.4c0.1,0,0.2,0.1,0.2,0.3c0,0,0,0,0,0c-0.4,3-1,5.9-1.8,8.8c0,0.2-0.2,0.3-0.4,0.2
		c0,0,0,0,0,0c-3-1.3-6-2.8-8.8-4.4c-0.1,0-0.1-0.1-0.2-0.1C261.1,280.1,261,280.1,261,280z M248.2,233.2c2.3,0.3,4.9,0.5,7.4,0.8
		c0.1,0,0.2,0.1,0.2,0.3c0,0,0,0,0,0c-1.2,8.1-2.2,17.4-2.9,27c0,0.1,0.1,0.2,0.2,0.3c6,1.2,12.8,2.3,19.8,3.1
		c0.1,0,0.2,0.1,0.2,0.3c0,2.9-0.2,5.6-0.5,8.1c0,0.1-0.1,0.2-0.3,0.2c-6.6-0.7-13.5-1.9-19.8-3.5c-0.1,0-0.3,0-0.3,0.2c0,0,0,0,0,0
		c-0.1,1.2-0.2,2.4-0.2,3.6c0,0.2-0.2,0.3-0.3,0.3c-0.1,0-0.1,0-0.2-0.1c-5.9-4.6-11.2-10-15.6-16c-0.1-0.1-0.1-0.3,0.1-0.4
		c0.1-0.1,0.2-0.1,0.3,0c2.3,0.7,5.2,1.5,8.5,2.3c0.1,0,0.3,0,0.3-0.2c0,0,0,0,0,0c0.8-9.3,1.7-17.9,2.9-26
		C247.9,233.2,248.1,233.1,248.2,233.2L248.2,233.2z M240.1,232.2c1.5,0.2,3.4,0.4,5.5,0.7c0.1,0,0.2,0.1,0.2,0.3c0,0,0,0,0,0
		c-0.5,3.6-1,7.2-1.4,10.8c0,0.1-0.1,0.2-0.3,0.2c-0.1,0-0.2-0.1-0.2-0.2c-1.6-4-3-7.9-4.1-11.5
		C239.8,232.3,239.9,232.2,240.1,232.2C240,232.2,240.1,232.2,240.1,232.2L240.1,232.2z M234.7,236c0.1-0.4,0.3-0.9,0.4-1.3
		c0.1-0.5,0.3-0.9,0.5-1.3c0.1-0.1,0.2-0.1,0.3-0.1c0,0,0.1,0.1,0.1,0.1c1.8,5.4,4.8,13.4,7.3,19.6c0,0.1,0,0.1,0,0.2
		c0,0.1,0,0.1,0,0.2c-0.1,0.9-0.2,2.4-0.3,3.3c0,0.1-0.1,0.2-0.2,0.2c0,0,0,0,0,0l-0.2-0.1c-0.1,0-0.1-0.1-0.1-0.1
		c-2.4-5.6-5.7-14.1-7.8-20.5C234.7,236.1,234.7,236,234.7,236L234.7,236z M234,238.6c0-0.1,0.1-0.2,0.2-0.2c0.1,0,0.2,0.1,0.2,0.2
		c1.5,4.7,3.8,10.9,6.4,17.4c0.1,0.1,0,0.3-0.1,0.3c0,0-0.1,0-0.2,0c-3-0.8-5.4-1.5-7-2.1c-0.1,0-0.2-0.1-0.2-0.2
		c-0.5-0.7-1-1.5-1.4-2.2c-0.1-0.1-0.1-0.3-0.1-0.4C232.2,247,232.9,242.8,234,238.6L234,238.6z"/>
</g>
<g>
	<path class="st0" d="M128,362.8c0,6.6-5.3,11.2-12,11.2H99.7v-38.5h15.2c6.5,0,11.7,4.4,11.7,10.8c0.1,3-1.3,5.8-3.6,7.7
		C126.2,355.7,128.1,359.1,128,362.8z M107.3,342.5v8.5h7.6c2.3,0,4.1-1.8,4.1-4c0-0.1,0-0.1,0-0.2c0.1-2.2-1.6-4.1-3.8-4.2
		c-0.1,0-0.2,0-0.4,0H107.3z M116,366.8c2.4,0.1,4.4-1.9,4.5-4.3c0-0.1,0-0.2,0-0.3c0.1-2.4-1.8-4.4-4.2-4.5c-0.1,0-0.2,0-0.3,0
		h-8.7v9.1H116z"/>
	<path class="st0" d="M160,348.1v25.8h-7.1v-3.1c-1.5,2.2-4.1,3.9-8.3,3.9c-6.4,0-13-4.5-13-14.2c0-9.4,6.4-14.8,16.6-14.8
		C153,345.6,157.8,346.8,160,348.1z M152.9,365v-12.1c-1.6-0.4-3.2-0.6-4.8-0.6c-5.8,0-9.5,2.9-9.5,8.2s3.6,7.8,7.6,7.8
		C148.9,368.2,151.4,367,152.9,365z"/>
	<path class="st0" d="M192.2,357v16.9h-7.1v-16c0-3.7-2.2-5.7-5.4-5.7c-3.5,0-6,2-6,6.8v14.8h-7.1v-27.5h7.1v3.1
		c1.6-2.5,4.5-3.9,8.2-3.9C187.7,345.6,192.2,349.7,192.2,357z"/>
	<path class="st0" d="M198.3,373.9v-39l7.1-1.1v24.8l9.5-12.1h8.5l-11,13.6l11.4,13.9h-8.2l-10-12.5v12.5H198.3z"/>
	<path class="st0" d="M235,360.2c0-8,6.5-14.6,14.5-14.6c8,0,14.6,6.5,14.6,14.5c0,8-6.5,14.6-14.5,14.6c0,0,0,0-0.1,0
		c-7.9,0.1-14.4-6.3-14.5-14.2C235,360.4,235,360.3,235,360.2z M257,360.2c0.2-4.1-3.1-7.6-7.2-7.7c-4.1-0.2-7.6,3.1-7.7,7.2
		c0,0.2,0,0.4,0,0.5c-0.2,4.1,3.1,7.6,7.2,7.7c4.1,0.2,7.6-3.1,7.7-7.2C257,360.5,257,360.3,257,360.2z"/>
	<path class="st0" d="M270.1,373.9v-20.7h-4v-6.8h4v-2.1c0-6.8,3.6-10.7,11.3-10.7c0.7,0,1.4,0.1,2.2,0.1v6.9
		c-0.7-0.1-1.3-0.1-1.8-0.1c-2.9,0-4.6,1-4.6,3.8v2.1h6.4v6.8h-6.4v20.6H270.1z"/>
	<path class="st0" d="M324.7,366.7v7.3h-23.8v-38.5h23.5v7.3h-16v8.2H323v7.1h-14.5v8.6H324.7z"/>
	<path class="st0" d="M355.4,357v16.9h-7.1v-16c0-3.7-2.3-5.7-5.4-5.7c-3.5,0-6,2-6,6.8v14.8h-7.2v-27.5h7.1v3.1
		c1.6-2.5,4.5-3.9,8.2-3.9C350.8,345.6,355.4,349.7,355.4,357z"/>
	<path class="st0" d="M388.2,348.1v25.3c0,8.2-5.2,12.9-13.6,12.9c-5.2,0-10-2-12.8-5.5l5.8-3.6c1.8,1.9,4.3,3,6.9,2.8
		c4.2,0,6.8-2,6.8-6.5v-3.2c-1.5,2.2-4.1,3.9-8.3,3.9c-6.4,0-13-4.5-13-13.9c0-9.2,6.4-14.5,16.6-14.5
		C381.3,345.6,386,346.8,388.2,348.1z M381.3,364.3v-11.4c-1.6-0.4-3.2-0.6-4.8-0.6c-5.8,0-9.5,2.8-9.5,7.9c0,4.9,3.6,7.5,7.6,7.5
		C377.3,367.6,379.7,366.4,381.3,364.3L381.3,364.3z"/>
	<path class="st0" d="M394.3,364.7v-29.8l7.1-1.1v30.9c0,2.4,1.4,2.9,4,2.9c0.8,0,1.5,0,2.3-0.1v6.5c-1.2,0.1-2.5,0.2-3.7,0.2
		C396.8,374.2,394.3,371.2,394.3,364.7z"/>
	<path class="st0" d="M438.3,348.1v25.8h-7.1v-3.1c-1.5,2.2-4.1,3.9-8.3,3.9c-6.4,0-13-4.5-13-14.2c0-9.4,6.4-14.8,16.6-14.8
		C431.3,345.6,436.1,346.8,438.3,348.1z M431.2,365v-12.1c-1.6-0.4-3.2-0.6-4.8-0.6c-5.8,0-9.5,2.9-9.5,8.2s3.6,7.8,7.6,7.8
		C427.2,368.2,429.7,367,431.2,365L431.2,365z"/>
	<path class="st0" d="M470.5,357v16.9h-7.1v-16c0-3.7-2.2-5.7-5.4-5.7c-3.5,0-6,2-6,6.8v14.8h-7.1v-27.5h7.1v3.1
		c1.6-2.5,4.5-3.9,8.2-3.9C465.9,345.6,470.5,349.7,470.5,357z"/>
	<path class="st0" d="M496.4,334.9l7.1-1.1v40.1h-7.1v-3.1c-1.5,2.2-4.1,3.9-8.3,3.9c-6.4,0-13-4.5-13-14.2
		c0-9.4,6.4-14.8,16.6-14.8c1.6,0,3.2,0.1,4.7,0.3L496.4,334.9z M496.4,365v-12.1c-1.6-0.4-3.2-0.6-4.8-0.6c-5.8,0-9.5,2.9-9.5,8.2
		s3.6,7.8,7.6,7.8C492.4,368.2,494.8,367,496.4,365z"/>
</g>
</svg>
