<?xml version="1.0" encoding="utf-8"?>
<!-- Generator: Adobe Illustrator 19.2.1, SVG Export Plug-In . SVG Version: 6.00 Build 0)  -->
<svg version="1.1" id="layer" xmlns="http://www.w3.org/2000/svg" xmlns:xlink="http://www.w3.org/1999/xlink" x="0px" y="0px"
	 viewBox="0 0 652 652" style="enable-background:new 0 0 652 652;" xml:space="preserve">
<style type="text/css">
	.st0{fill:#5876B8;}
	.st1{fill:#008CCE;}
	.st2{fill:#009F7A;}
	.st3{fill:#878589;}
</style>
<g>
	<path class="st0" d="M103.2,259.4c-2.1-0.6-4.2-1.1-6.3-1.5l-0.6-0.1l-8,58.9l8.3-5l0-0.3l7-51.8L103.2,259.4z"/>
	<path class="st0" d="M109.5,261.7l-0.7-0.3l-6.4,46.8l8.3-5l0-0.3l5.2-38.2l-0.3-0.2C113.7,263.5,111.6,262.5,109.5,261.7"/>
	<path class="st0" d="M127.7,273.1c-1.9-1.7-3.9-3.3-6-4.7l-0.8-0.5l-4.3,31.8l8.4-5l0-0.3l2.9-21L127.7,273.1z"/>
	<path class="st1" d="M48.3,268.2l-0.4,0.3c-1.8,1.2-3.5,2.6-5.1,4l-0.5,0.4l40.7,43l1.3-9.7l-0.2-0.2L48.3,268.2z"/>
	<path class="st1" d="M60,261.8l-0.4,0.2c-2.1,0.9-4.1,1.9-6.1,3l-0.6,0.4l32.4,34.2l1.3-9.6l-0.2-0.2L60,261.8z"/>
	<path class="st1" d="M88.6,273l-14.6-15.4l-0.3,0c-2.5,0.4-5,1-7.4,1.8l-0.9,0.3l22,23.3l1.3-9.8L88.6,273z"/>
	<path class="st2" d="M148.5,310.4c-0.4-2.2-0.9-4.5-1.5-6.6l-0.2-0.7l-40.3,24.2l9,3.4l0.2-0.1l32.8-19.7L148.5,310.4z"/>
	<path class="st2" d="M144.8,297.4c-0.8-2-1.7-4-2.7-5.9l-0.3-0.5L91,321.3l9.1,3.5l0.2-0.1l44.6-26.8L144.8,297.4z"/>
	<path class="st2" d="M149.4,317.5l-0.1-0.9L121.9,333l9.1,3.5l0.2-0.1l18.1-10.9l0-0.3c0-1.1,0.1-2.2,0.1-3.3
		C149.5,320.4,149.5,319,149.4,317.5"/>
	<path class="st2" d="M60.4,363.9l0.1,0.3l6.5,20.2l0.3,0.1c2.4,0.7,4.9,1.2,7.4,1.7l0.9,0.1l-9.8-30.6L60.4,363.9z"/>
	<path class="st2" d="M84,328l-5.4,8.1l0.1,0.3l16,49.8l0.5-0.1c2.2-0.3,4.3-0.8,6.3-1.4l0.6-0.2L84,328z"/>
	<path class="st2" d="M69.6,350l0.1,0.3l11.8,36.6l0.4,0c1,0,2,0.1,3,0.1c1.3,0,2.5,0,3.7-0.1l0.7,0l-14.4-44.9L69.6,350z"/>
	<path class="st0" d="M37,328.8l-0.2,0.2l-11.7,17.7l0.1,0.3c1,2.4,2.1,4.6,3.4,6.9l0.5,0.8l17.6-26.8L37,328.8z"/>
	<path class="st0" d="M69.9,325.9l-0.1,0.2l-28.7,43.6l0.4,0.3c1.6,1.5,3.3,2.8,5,4.1l0.5,0.4L79.6,325L69.9,325.9z"/>
	<path class="st0" d="M53.5,327.3l-0.1,0.2l-21.1,32.1l0.2,0.3c1.3,1.8,2.7,3.6,4.2,5.3l0.5,0.5l25.9-39.4L53.5,327.3z"/>
	<path class="st2" d="M72.4,312.6l-0.3,0l-51.7,4.6l0,0.5c-0.1,1.3-0.1,2.7-0.1,4.1c0,0.8,0,1.6,0.1,2.4l0,0.6l58.8-5.2L72.4,312.6z
		"/>
	<path class="st2" d="M49.6,288.4l-0.3,0l-21,1.9l-0.1,0.3c-1.2,2.2-2.3,4.5-3.2,6.9l-0.3,0.9l31.8-2.8L49.6,288.4z"/>
	<path class="st2" d="M61.1,300.6l-0.3,0L22.7,304l-0.1,0.4c-0.6,2.2-1.1,4.4-1.5,6.7l-0.1,0.7l46.7-4.2L61.1,300.6z"/>
	<path class="st1" d="M89.1,326.4l3,9.3l0.3,0.1l48.6,18.4l0.2-0.4c1.1-1.9,2-3.8,2.9-5.8l0.2-0.6L89.1,326.4z"/>
	<path class="st1" d="M97.2,351.4l0.3,0.1l35.8,13.6l0.3-0.3c1.5-1.7,2.9-3.5,4.2-5.3l0.4-0.6l-43.8-16.6L97.2,351.4z"/>
	<path class="st1" d="M102.3,367.4l0.3,0.1l19.7,7.5l0.3-0.2c2.1-1.5,4.1-3.1,5.9-4.8l0.7-0.6L99.3,358L102.3,367.4z"/>
	<path class="st3" d="M221.8,348.7c-3.9,0.9-8.1,1.7-12.1,1.7c-17.2,0-29.1-8.6-29.1-26.5c0-18.2,11.1-28.4,29.1-28.3
		c3.5,0,8.1,0.7,12,2.2l-0.8,9c-4-2.3-7.7-2.8-11.5-2.8c-10.9,0-17.8,8.4-17.8,19.2c0,10.8,6.7,18.9,18,18.9c4.2,0,9.1-0.9,11.6-2.2
		L221.8,348.7z"/>
	<polygon class="st3" points="229.2,296.4 258.7,296.4 258.7,304.8 239.9,304.8 239.9,317.9 257.8,317.9 257.8,326.2 239.9,326.2 
		239.9,349.5 229.2,349.5 	"/>
	<path class="st3" d="M276,296.5l12,0l20.8,53.1l-11.8,0l-4.6-12.2l-21.5,0l-4.6,12.2h-11L276,296.5z M281.9,307.1h-0.2L274,329
		l15.5,0L281.9,307.1z"/>
	<rect x="330.6" y="296.5" class="st3" width="10.6" height="53.1"/>
	<path class="st3" d="M352.5,310.4l9.7,0v5.3h0.1c3.2-4.5,7.5-6.2,12.9-6.2c9.3,0,13.3,6.5,13.3,15.4l0,24.7l-10.2,0l0-20.9
		c0-4.8-0.1-11.3-6.6-11.3c-7.4,0-9,8-9,13l0,19.2l-10.2,0L352.5,310.4z"/>
	<path class="st3" d="M422.6,318.6c-3.1-1.1-5.4-1.7-9.1-1.7c-2.7,0-6,1-6,4.3c0,6.2,17.7,2.3,17.7,16.4c0,9.1-8.1,12.8-16.4,12.8
		c-3.9,0-7.8-0.7-11.6-1.7l0.6-8.4c3.2,1.6,6.5,2.6,10,2.6c2.6,0,6.7-1,6.7-4.8c0-7.7-17.7-2.4-17.7-16.6c0-8.4,7.4-12.2,15.4-12.2
		c4.8,0,7.9,0.8,11.1,1.4L422.6,318.6z"/>
	<path class="st3" d="M435.3,317.9l-7.5,0v-7.5l7.5,0v-7.8l10.2-3.3l0,11.1l9.1,0l0,7.5l-9,0l0,18.2c0,3.3,0.9,6.5,4.8,6.5
		c1.8,0,3.6-0.4,4.6-1.1l0.3,8.1c-2.1,0.6-4.5,0.9-7.5,0.9c-8,0-12.4-4.9-12.4-12.7L435.3,317.9z"/>
	<path class="st3" d="M462.9,310.4l10.2,0l0,39.2h-10.2L462.9,310.4z M462.9,293.6l10.2,0l0,9.7l-10.2,0L462.9,293.6z"/>
	<path class="st3" d="M486,317.9l-7.5,0l0-7.5l7.5,0v-7.8l10.2-3.3v11.1l9,0l0,7.4h-9l0,18.2c0,3.3,0.9,6.5,4.8,6.5
		c1.8,0,3.6-0.4,4.6-1.1l0.3,8.1c-2.1,0.6-4.5,0.9-7.5,0.9c-8,0-12.4-4.9-12.4-12.7L486,317.9z"/>
	<path class="st3" d="M548.2,349.6l-9.7,0v-5.3h-0.2c-3.1,3.8-7.5,6.2-12.8,6.2c-9.3,0-13.3-6.5-13.3-15.4l0-24.7l10.2,0l0,20.9
		c0,4.8,0.1,11.3,6.6,11.3c7.4,0,9-8,9-13l0-19.2l10.2,0L548.2,349.6z"/>
	<path class="st3" d="M560.5,317.9l-7.5,0v-7.5l7.5,0v-7.8l10.2-3.3l0,11.1l9.1,0l0,7.5l-9,0l0,18.2c0,3.3,0.9,6.5,4.8,6.5
		c1.8,0,3.6-0.4,4.6-1.1l0.3,8.1c-2.1,0.6-4.5,0.9-7.5,0.9c-8,0-12.4-4.9-12.4-12.7L560.5,317.9z"/>
	<path class="st3" d="M617.3,347.4c-3.7,2.1-8,3.1-13.5,3.1c-12.9,0-20.4-7.5-20.4-20.3c0-11.3,6-20.7,18.2-20.7
		c14.5,0,18.6,10,18.6,23.7l-27.1,0c0.5,6.3,4.9,9.9,11.2,9.9c4.9,0,9.2-1.8,13-4V347.4z M610.5,326.2c-0.3-4.9-2.6-9.2-8.3-9.2
		c-5.7,0-8.6,3.9-9.1,9.2L610.5,326.2z"/>
</g>
</svg>
