<svg xmlns:dc="http://purl.org/dc/elements/1.1/" xmlns:cc="http://creativecommons.org/ns#" xmlns:rdf="http://www.w3.org/1999/02/22-rdf-syntax-ns#" xmlns:svg="http://www.w3.org/2000/svg" xmlns="http://www.w3.org/2000/svg" xmlns:sodipodi="http://sodipodi.sourceforge.net/DTD/sodipodi-0.dtd" xmlns:inkscape="http://www.inkscape.org/namespaces/inkscape" version="1.1" id="svg18" xml:space="preserve" width="152.20601" height="45.669781" viewBox="0 0 152.20601 45.669781" sodipodi:docname="LogoCrealsa.svg" inkscape:version="0.92.2 (5c3e80d, 2017-08-06)"><metadata id="metadata24"><rdf:RDF><cc:Work rdf:about=""><dc:format>image/svg+xml</dc:format><dc:type rdf:resource="http://purl.org/dc/dcmitype/StillImage"/><dc:title/></cc:Work></rdf:RDF></metadata><defs id="defs22"><clipPath clipPathUnits="userSpaceOnUse" id="clipPath34"><path d="M 0,430.288 H 622.008 V 0 H 0 Z" id="path32" inkscape:connector-curvature="0"/></clipPath><clipPath clipPathUnits="userSpaceOnUse" id="clipPath70"><path d="M 94.6558,308.899 H 223.786 V 154.93 H 94.6558 Z" id="path68" inkscape:connector-curvature="0"/></clipPath><linearGradient x1="0" y1="0" x2="1" y2="0" gradientUnits="userSpaceOnUse" gradientTransform="matrix(129.12988,0,0,-129.12988,94.655762,231.91406)" spreadMethod="pad" id="linearGradient86"><stop style="stop-opacity:1;stop-color:#2f8b8d" offset="0" id="stop76"/><stop style="stop-opacity:1;stop-color:#3ebebd" offset="0.355835" id="stop78"/><stop style="stop-opacity:1;stop-color:#127dc5" offset="0.975464" id="stop80"/><stop style="stop-opacity:1;stop-color:#127dc5" offset="0.98826281" id="stop82"/><stop style="stop-opacity:1;stop-color:#127dc5" offset="1" id="stop84"/></linearGradient><clipPath clipPathUnits="userSpaceOnUse" id="clipPath108"><path d="M 72.8984,341.573 H 178.319 V 155.137 H 72.8984 Z" id="path106" inkscape:connector-curvature="0"/></clipPath><linearGradient x1="0" y1="0" x2="1" y2="0" gradientUnits="userSpaceOnUse" gradientTransform="matrix(105.4209,0,0,-105.4209,72.898437,248.35449)" spreadMethod="pad" id="linearGradient124"><stop style="stop-opacity:1;stop-color:#2f8b8d" offset="0" id="stop114"/><stop style="stop-opacity:1;stop-color:#a6dfb8" offset="0.521469" id="stop116"/><stop style="stop-opacity:1;stop-color:#127dc5" offset="0.975464" id="stop118"/><stop style="stop-opacity:1;stop-color:#127dc5" offset="0.98826281" id="stop120"/><stop style="stop-opacity:1;stop-color:#127dc5" offset="1" id="stop122"/></linearGradient><clipPath clipPathUnits="userSpaceOnUse" id="clipPath146"><path d="m 111.031,235.541 h 57.834 v -75.74 h -57.834 z" id="path144" inkscape:connector-curvature="0"/></clipPath><linearGradient x1="0" y1="0" x2="1" y2="0" gradientUnits="userSpaceOnUse" gradientTransform="matrix(61.0009,19.820389,19.820389,-61.0009,109.54492,187.50586)" spreadMethod="pad" id="linearGradient164"><stop style="stop-opacity:1;stop-color:#0c1029" offset="0" id="stop152"/><stop style="stop-opacity:1;stop-color:#0c1029" offset="0.380371" id="stop154"/><stop style="stop-opacity:1;stop-color:#0c1029" offset="0.5823987" id="stop156"/><stop style="stop-opacity:1;stop-color:#137bc9" offset="0.975464" id="stop158"/><stop style="stop-opacity:1;stop-color:#137bc9" offset="0.98826281" id="stop160"/><stop style="stop-opacity:1;stop-color:#137bc9" offset="1" id="stop162"/></linearGradient><clipPath clipPathUnits="userSpaceOnUse" id="clipPath186"><path d="M 75.5371,341.573 H 223.777 V 206.044 H 75.5371 Z" id="path184" inkscape:connector-curvature="0"/></clipPath><clipPath clipPathUnits="userSpaceOnUse" id="clipPath202"><path d="m 105.984,132.38 c 0,-2.502 18.98,-4.504 42.358,-4.504 v 0 c 23.389,0 42.359,2.002 42.359,4.504 v 0 c 0,2.48 -18.97,4.494 -42.359,4.494 v 0 c -23.378,0 -42.358,-2.014 -42.358,-4.494" id="path200" inkscape:connector-curvature="0"/></clipPath><radialGradient fx="0" fy="0" cx="0" cy="0" r="1" gradientUnits="userSpaceOnUse" gradientTransform="matrix(42.38234,0,0,4.4967651,148.34277,132.375)" spreadMethod="pad" id="radialGradient218"><stop style="stop-opacity:1;stop-color:#ffffff" offset="0" id="stop212"/><stop style="stop-opacity:1;stop-color:#ffffff" offset="0.398773" id="stop214"/><stop style="stop-opacity:0;stop-color:#ffffff" offset="1" id="stop216"/></radialGradient><mask maskUnits="userSpaceOnUse" x="0" y="0" width="1" height="1" id="mask220"><g id="g230"><g id="g228"><g id="g226"><g id="g224"><path d="M -32767,32767 H 32767 V -32767 H -32767 Z" style="fill:url(#radialGradient218);stroke:none" id="path222" inkscape:connector-curvature="0"/></g></g></g></g></mask><radialGradient fx="0" fy="0" cx="0" cy="0" r="1" gradientUnits="userSpaceOnUse" gradientTransform="matrix(42.38234,0,0,4.4967651,148.34277,132.375)" spreadMethod="pad" id="radialGradient242"><stop style="stop-opacity:1;stop-color:#d3d2d2" offset="0" id="stop236"/><stop style="stop-opacity:1;stop-color:#d3d2d2" offset="0.398773" id="stop238"/><stop style="stop-opacity:1;stop-color:#ffffff" offset="1" id="stop240"/></radialGradient></defs><sodipodi:namedview pagecolor="#ffffff" bordercolor="#666666" borderopacity="1" objecttolerance="10" gridtolerance="10" guidetolerance="10" inkscape:pageopacity="0" inkscape:pageshadow="2" inkscape:window-width="1680" inkscape:window-height="988" id="namedview20" showgrid="false" inkscape:zoom="1.3752417" inkscape:cx="295.4739" inkscape:cy="131.62175" inkscape:window-x="-8" inkscape:window-y="-8" inkscape:window-maximized="1" inkscape:current-layer="g30"/><g id="g26" inkscape:groupmode="layer" inkscape:label="Logo no claim" transform="matrix(1.3333333,0,0,-1.3333333,-119.1981,248.17111)"><g id="g28"><g id="g30" clip-path="url(#clipPath34)"><g id="g36" transform="matrix(0.2666945,0,0,0.28120445,126.99645,168.18586)"><path d="m 0,0 c 3.073,-2.598 4.642,-5.943 4.642,-10.023 0,-2.184 -0.626,-4.086 -1.845,-5.698 -1.23,-1.605 -2.797,-2.416 -4.706,-2.416 -1.271,0 -2.383,0.369 -3.338,1.117 -1.801,1.313 -2.702,3.709 -2.702,7.186 0,0.359 0.022,0.918 0.053,1.631 0.031,0.723 0.043,1.494 0.043,2.328 0,2.225 -0.402,3.746 -1.23,4.572 -0.836,0.832 -1.812,1.24 -2.903,1.24 -3.106,0 -5.31,-2.158 -6.624,-6.462 -1.314,-4.317 -1.96,-9.264 -1.96,-14.829 0,-7.921 1.25,-14.56 3.729,-19.929 2.492,-5.367 5.839,-8.047 10.069,-8.047 2.67,0 4.918,0.74 6.782,2.228 1.114,0.866 2.49,2.454 4.133,4.764 l 1.865,-2.166 c -3.275,-5.738 -7.11,-9.68 -11.498,-11.822 -2.321,-1.113 -4.791,-1.674 -7.428,-1.674 -6.444,0 -11.722,2.91 -15.823,8.732 -4.102,5.819 -7.049,12.436 -7.049,20.815 0,8.832 3.085,16.83 7.419,23.037 C -24.026,0.795 -18.239,3.9 -10.99,3.9 -6.772,3.9 -3.106,2.609 0,0" style="fill:#125087;fill-opacity:1;fill-rule:nonzero;stroke:none" id="path38" inkscape:connector-curvature="0"/></g><g id="g40" transform="matrix(0.2666945,0,0,0.28120445,129.57395,152.85693)"><path d="m 0,0 c 2.002,0.307 3.371,0.895 4.154,1.789 0.784,0.897 1.208,2.619 1.272,5.174 l 0.095,3.824 v 35.522 c 0,2.744 -0.371,4.611 -1.103,5.595 C 3.667,52.891 2.193,53.57 0,53.898 v 3.125 H 19.648 V 46.756 c 2.205,3.611 4.376,6.484 6.55,8.615 2.171,2.119 4.673,3.184 7.512,3.184 2.143,0 4.06,-0.869 5.766,-2.58 1.716,-1.727 2.575,-4.239 2.575,-7.565 0,-2.543 -0.625,-4.654 -1.811,-6.308 -1.188,-1.659 -2.766,-2.489 -4.697,-2.489 -2.204,0 -4.099,1.303 -5.71,3.889 -1.601,2.596 -2.724,3.9 -3.371,3.9 -1.398,0 -2.788,-1.082 -4.197,-3.232 -1.409,-2.141 -2.109,-5.215 -2.109,-9.232 V 10.203 c 0,-4.312 0.509,-6.994 1.505,-8.08 C 22.646,1.049 24.629,0.338 27.606,0 V -3.129 H 0 Z" style="fill:#125087;fill-opacity:1;fill-rule:nonzero;stroke:none" id="path42" inkscape:connector-curvature="0"/></g><g id="g44" transform="matrix(0.2666945,0,0,0.28120445,148.78739,162.47609)"><path d="m 0,0 c -0.074,7.471 -0.531,12.686 -1.379,15.664 -0.879,2.969 -2.574,4.451 -5.139,4.461 -2.628,-0.01 -4.42,-1.717 -5.395,-5.139 C -12.898,11.563 -13.437,6.566 -13.576,0 Z m -21.398,16.002 c 4.102,5.385 9.084,8.076 14.88,8.076 3.317,0 6.432,-1.092 9.346,-3.285 2.926,-2.182 5.174,-5.215 6.742,-9.098 1.176,-2.92 2.002,-6.722 2.457,-11.381 0.235,-2.187 0.35,-3.863 0.35,-5.013 h -25.699 c 0.223,-5.076 0.879,-9.471 1.96,-13.19 1.972,-6.974 5.437,-10.459 10.397,-10.459 2.373,0 4.6,0.932 6.688,2.785 1.293,1.114 2.882,2.991 4.789,5.635 l 2.31,-1.791 c -3.115,-6.439 -6.728,-10.918 -10.83,-13.443 -2.648,-1.6 -5.701,-2.406 -9.158,-2.406 -4.948,0 -9.59,2.457 -13.913,7.365 -4.335,4.912 -7.535,12.685 -7.535,23.465 0,9.738 3.095,17.357 7.216,22.74" style="fill:#125087;fill-opacity:1;fill-rule:nonzero;stroke:none" id="path46" inkscape:connector-curvature="0"/></g><g id="g48" transform="matrix(0.2666945,0,0,0.28120445,159.88074,155.01703)"><path d="M 0,0 C 0.783,0.742 1.707,1.908 2.797,3.475 V 22.027 C 0.115,21.207 -2.258,19.893 -4.281,18.123 -7.705,15.092 -9.434,11.256 -9.434,6.57 c 0,-2.765 0.498,-4.863 1.496,-6.295 0.985,-1.418 2.12,-2.14 3.37,-2.14 1.642,0 3.158,0.625 4.568,1.865 m -17.539,16.314 c 4.346,3.346 11.18,6.721 20.484,10.106 v 9.225 c 0,3.755 -0.634,6.535 -1.884,8.324 -1.262,1.797 -3.51,2.691 -6.711,2.691 -1.811,0 -3.286,-0.424 -4.45,-1.262 -1.166,-0.851 -1.75,-1.916 -1.75,-3.187 0,-0.498 0.065,-0.912 0.204,-1.24 0.117,-0.33 0.328,-0.69 0.591,-1.061 l 0.584,-0.863 c 0.455,-0.705 0.826,-1.479 1.102,-2.317 0.287,-0.847 0.424,-1.748 0.424,-2.689 0,-2.402 -0.627,-4.24 -1.885,-5.545 -1.274,-1.301 -2.736,-1.959 -4.408,-1.959 -1.932,0 -3.573,0.731 -4.94,2.168 -1.357,1.436 -2.035,3.524 -2.035,6.24 0,4.856 1.822,8.707 5.447,11.535 3.645,2.846 8.118,4.266 13.418,4.266 5.702,0 10.481,-1.383 14.305,-4.148 3.795,-2.803 6.635,-8.012 6.635,-15.526 L 16.66,0.436 c 0,-0.922 0.18,-1.696 0.561,-2.338 0.371,-0.631 0.795,-0.948 1.25,-0.948 0.402,0 0.754,0.09 1.06,0.286 0.307,0.173 0.793,0.677 1.451,1.503 l 1.516,-2.658 c -1.961,-2.894 -4.144,-4.918 -6.527,-6.072 -1.506,-0.73 -3.096,-1.107 -4.77,-1.107 -2.988,0 -5.162,1.089 -6.539,3.285 -0.783,1.244 -1.357,3.078 -1.717,5.525 -2.775,-3.519 -5.933,-5.998 -9.443,-7.449 -2.129,-0.908 -4.219,-1.361 -6.283,-1.361 -2.744,0 -5.321,1.095 -7.715,3.314 -2.397,2.205 -3.594,5.654 -3.594,10.318 0,5.707 2.184,10.239 6.551,13.58" style="fill:#125087;fill-opacity:1;fill-rule:nonzero;stroke:none" id="path50" inkscape:connector-curvature="0"/></g><g id="g52" transform="matrix(0.2666945,0,0,0.28120445,166.31319,152.54659)"><path d="m 0,0 c 1.994,0.074 3.402,0.408 4.25,0.986 1.443,0.944 2.162,2.76 2.162,5.446 v 44.277 c 0,2.66 -0.68,4.457 -2.045,5.367 C 3.563,56.645 2.109,56.994 0,57.143 v 2.32 h 27.619 v -2.32 c -2.957,-0.122 -4.918,-0.637 -5.916,-1.559 -0.986,-0.91 -1.461,-3.18 -1.461,-6.793 V 5.584 c 0,-2.029 0.414,-3.369 1.262,-4.033 0.838,-0.651 2.469,-0.979 4.896,-0.979 4.387,0 5.827,1.219 8.795,3.645 2.957,2.422 5.522,7.148 7.662,14.17 h 2.131 L 44.277,-2.332 H 2.236 Z" style="fill:#125087;fill-opacity:1;fill-rule:nonzero;stroke:none" id="path54" inkscape:connector-curvature="0"/></g><g id="g56" transform="matrix(0.2666945,0,0,0.28120445,180.33495,157.85432)"><path d="m 0,0 h 2.797 c 0.974,-6.072 2.808,-10.354 5.51,-12.85 2.681,-2.496 5.437,-3.742 8.246,-3.742 2.595,0 4.494,0.733 5.711,2.199 1.199,1.463 1.824,3.393 1.824,5.782 0,2.267 -0.668,4.213 -1.983,5.816 C 21.385,-1.93 20.23,-0.996 18.621,0 l -7.463,4.578 c -3.931,2.426 -6.75,5.065 -8.445,7.914 -1.748,2.852 -2.617,6.213 -2.617,10.102 0,4.906 1.355,9.144 4.078,12.715 2.724,3.562 6.519,5.347 11.402,5.347 2.119,0 4.389,-0.439 6.783,-1.33 2.397,-0.89 3.879,-1.334 4.473,-1.334 0.816,0 1.41,0.227 1.75,0.658 0.338,0.428 0.635,1.043 0.857,1.823 h 2.204 V 22.148 h -2.555 c -0.942,4.299 -2.51,7.747 -4.662,10.332 -2.162,2.608 -4.694,3.901 -7.578,3.901 -2.235,0 -3.887,-0.779 -4.991,-2.348 -1.08,-1.562 -1.63,-3.263 -1.63,-5.076 0,-1.488 0.496,-2.973 1.461,-4.455 0.943,-1.527 2.767,-3.094 5.406,-4.707 l 5.521,-3.348 c 3.403,-2.056 5.891,-4.049 7.459,-5.994 2.619,-3.307 4.822,-7.111 4.822,-11.937 0,-4.711 -2.246,-9.348 -4.949,-13.407 -2.691,-4.07 -6.75,-6.097 -12.154,-6.097 -1.346,0 -2.703,0.174 -4.059,0.533 -1.355,0.34 -3.041,0.943 -5.035,1.814 l -1.715,0.752 c -0.625,0.28 -1.007,0.446 -1.156,0.485 -0.16,0.045 -0.34,0.066 -0.572,0.066 -0.563,0 -1.037,-0.275 -1.442,-0.828 -0.423,-0.566 -0.878,-1.504 -1.41,-2.822 H 0 Z" style="fill:#125087;fill-opacity:1;fill-rule:nonzero;stroke:none" id="path58" inkscape:connector-curvature="0"/></g><g id="g60" transform="matrix(0.2666945,0,0,0.28120445,197.54979,155.01703)"><path d="m 0,0 c 0.795,0.742 1.727,1.908 2.809,3.475 v 18.552 c -2.692,-0.82 -5.045,-2.134 -7.08,-3.904 -3.432,-3.021 -5.161,-6.867 -5.161,-11.541 0,-2.777 0.51,-4.875 1.506,-6.307 1.006,-1.418 2.119,-2.14 3.369,-2.14 1.633,0 3.159,0.625 4.557,1.865 m -17.527,16.314 c 4.345,3.346 11.181,6.721 20.484,10.106 v 9.225 c 0,3.755 -0.637,6.535 -1.885,8.324 -1.261,1.797 -3.498,2.691 -6.72,2.691 -1.791,0 -3.274,-0.424 -4.452,-1.262 -1.156,-0.851 -1.736,-1.916 -1.736,-3.187 0,-0.498 0.084,-0.912 0.201,-1.24 0.137,-0.34 0.328,-0.69 0.582,-1.049 l 0.606,-0.875 c 0.453,-0.705 0.826,-1.479 1.09,-2.317 0.275,-0.847 0.412,-1.748 0.412,-2.689 0,-2.402 -0.625,-4.24 -1.885,-5.545 -1.252,-1.301 -2.725,-1.959 -4.399,-1.959 -1.927,0 -3.57,0.731 -4.937,2.168 -1.357,1.436 -2.035,3.524 -2.035,6.24 0,4.856 1.822,8.707 5.447,11.535 3.645,2.846 8.117,4.266 13.416,4.266 5.711,0 10.469,-1.383 14.318,-4.148 3.793,-2.803 6.454,-8.504 6.454,-16.024 L 16.682,0.436 c -0.012,-0.922 0.168,-1.696 0.541,-2.338 0.39,-0.631 0.804,-0.948 1.259,-0.948 0.405,0 0.752,0.09 1.049,0.286 0.33,0.173 0.807,0.677 1.465,1.503 l 1.514,-2.658 c -1.961,-2.894 -4.133,-4.918 -6.539,-6.072 -1.504,-0.73 -3.094,-1.107 -4.746,-1.107 -3,0 -5.162,1.095 -6.541,3.285 -0.793,1.244 -1.377,3.078 -1.727,5.525 -2.789,-3.519 -5.924,-5.998 -9.441,-7.449 -2.131,-0.908 -4.219,-1.361 -6.297,-1.361 -2.733,0 -5.309,1.095 -7.703,3.314 -2.395,2.205 -3.592,5.654 -3.592,10.318 0,5.707 2.181,10.239 6.549,13.58" style="fill:#125087;fill-opacity:1;fill-rule:nonzero;stroke:none" id="path62" inkscape:connector-curvature="0"/></g><g id="g64" transform="matrix(0.17397122,0,0,0.18343641,76.716322,123.47143)"><g id="g66"/><g id="g100"><g clip-path="url(#clipPath70)" id="g98" style="opacity:0.77000397"><g id="g96"><g id="g94"><g id="g92"><g id="g90"><path d="m 198.099,303.208 c 27.447,-15.191 33.922,-56.066 14.445,-91.348 l -8.532,-15.427 c -19.521,-35.258 -57.566,-50.885 -85.013,-35.725 -27.47,15.207 -28.858,53.941 -18.081,80.256 6.74,16.457 13.067,26.844 13.067,26.844 19.32,34.302 56.677,50.561 84.114,35.4" style="fill:url(#linearGradient86);stroke:none" id="path88" inkscape:connector-curvature="0"/></g></g></g></g></g></g></g><g id="g102" transform="matrix(0.17397122,0,0,0.18343641,76.716322,123.47143)"><g id="g104"/><g id="g138"><g clip-path="url(#clipPath108)" id="g136" style="opacity:0.25"><g id="g134"><g id="g132"><g id="g130"><g id="g128"><path d="m 175.388,256.96 c 0.561,-4.897 1.218,-8.451 1.706,-12.285 0.626,-4.983 1.038,-9.699 1.134,-13.981 0.414,-19.191 -0.275,-33.859 -8.447,-53.863 -0.72,-1.695 -3.507,-6.385 -4.799,-8.256 -1.337,-1.881 -2.618,-3.32 -3.997,-4.668 -4.534,-4.424 -11.88,-9.373 -24.342,-8.711 -2.49,0.117 -11.424,1.803 -17.38,5.369 -4.154,2.479 -8.923,5.791 -12.94,10.803 -11.477,14.287 -24.173,38.194 -30.881,67.736 -8.192,45.723 4.536,83.562 22.032,96.792 2.512,1.914 3.105,2.109 4.621,2.873 2.405,1.198 4.07,1.632 6.443,2.114 1.526,0.318 3.74,0.62 4.6,0.641 1.123,0.032 2.246,0.08 3.454,0.021 24.078,-1.144 49.778,-34.134 58.796,-84.585" style="fill:url(#linearGradient124);stroke:none" id="path126" inkscape:connector-curvature="0"/></g></g></g></g></g></g></g><g id="g140" transform="matrix(0.17397122,0,0,0.18343641,76.716322,123.47143)"><g id="g142"/><g id="g178"><g clip-path="url(#clipPath146)" id="g176" style="opacity:0.72000098"><g id="g174"><g id="g172"><g id="g170"><g id="g168"><path d="m 166.57,189.999 c -5.944,-20.166 -21.386,-33.371 -34.494,-29.537 l -5.734,1.719 c -13.12,3.847 -18.917,23.336 -12.983,43.492 5.956,20.156 23.464,31.931 34.529,29.568 0,0 1.026,-0.191 2.764,-0.609 2.555,-0.627 2.078,-0.611 2.958,-0.918 12.908,-4.471 18.885,-23.547 12.96,-43.715" style="fill:url(#linearGradient164);stroke:none" id="path166" inkscape:connector-curvature="0"/></g></g></g></g></g></g></g><g id="g180" transform="matrix(0.17397122,0,0,0.18343641,76.716322,123.47143)"><g id="g182"/><g id="g194"><g clip-path="url(#clipPath186)" id="g192" style="opacity:0.16999799"><g transform="translate(152.2632,206.0439)" id="g190"><path d="m 0,0 c 32.376,0 60.079,19.924 71.514,48.166 -0.107,21.133 -9.009,39.783 -25.678,48.998 -11.871,6.577 -25.754,7.239 -39.244,3.004 -11.817,21.715 -27.352,34.628 -42.242,35.333 -1.208,0.059 -2.342,0.011 -3.466,-0.021 -0.815,-0.021 -3.051,-0.323 -4.599,-0.641 -2.373,-0.482 -4.027,-0.916 -6.432,-2.114 -1.516,-0.764 -2.12,-0.959 -4.621,-2.872 C -67.411,120.294 -76.027,98.188 -76.726,69.41 -72.858,30.426 -39.985,0 0,0" style="fill:#f4f4f4;fill-opacity:1;fill-rule:nonzero;stroke:none" id="path188" inkscape:connector-curvature="0"/></g></g></g></g></g></g></g></svg>