<svg xmlns="http://www.w3.org/2000/svg" id="Calque_2" data-name="Calque 2" viewBox="0 0 423.56 424.12">
  <defs>
    <style>
      .cls-1 {
        fill: #fece00;
      }

      .cls-1, .cls-2 {
        stroke-width: 0px;
      }

      .cls-2 {
        fill: #fff;
      }
    </style>
  </defs>
  <g id="Calque_2-2" data-name="Calque 2">
    <g id="Layer_1" data-name="Layer 1">
      <g>
        <g>
          <path class="cls-2" d="M209.88.68c-.64.07-1.28.14-1.91.21-.85.09-1.17.12-1.36.13.17-.08,2.39-.35,5.59-.62.45-.04.9-.08,1.35-.11-.22.04-.45.05-.68.08-1,.1-1.99.21-2.98.32"/>
          <path class="cls-2" d="M194.94,3.64c-1.26.27-1.79.38-2.31.48-.95.18-1.58.29-1.78.27.26-.27,3.41-1,6.61-1.55,1.07-.18,1.59-.24,1.75-.23-.12.07-.13.08-.78.24-1.11.27-2.52.58-3.5.79"/>
          <path class="cls-2" d="M181.81,8.54c-1.32.45-2.01.65-2.57.81-1.18.33-2,.52-2.18.4.22-.48,3.59-1.73,7.08-2.63,1.24-.3,1.85-.42,2.1-.38,0,.02,0,.04.02.06-.11.1-.25.17-.72.38-1.19.5-2.69,1.02-3.73,1.37"/>
          <path class="cls-2" d="M170.85,15.22c-1.36.65-2.2.98-2.76,1.19-2.47.92-2.71.67-2.63.44.19-.56,3.09-2.3,7.22-3.75,2.44-.81,2.62-.6,2.51-.41-.08.14-.33.32-.58.49-.93.61-2.19,1.29-3.77,2.03"/>
          <path class="cls-2" d="M162.35,23.48c-1.35.85-2.25,1.29-2.85,1.59-3.14,1.45-3.19.72-3.13.46.18-.8,2.77-2.99,6.96-4.85,2.99-1.25,3.07-.72,2.96-.44-.06.16-.25.38-.38.53-.8.81-2,1.73-3.56,2.71"/>
          <path class="cls-2" d="M156.51,33.15c-1.29,1.06-2.23,1.62-2.84,1.99-3.44,1.91-3.9.94-3.67.16.38-1.25,2.75-3.64,6.37-5.61,3.08-1.56,3.77-1.07,3.42-.18-.03.08-.08.18-.12.25-.6,1.02-1.66,2.16-3.16,3.39"/>
          <path class="cls-2" d="M153.49,44.06c-1.19,1.26-2.15,1.93-2.78,2.38-3.63,2.34-4.63,1.21-4.41-.06.18-1.05,1.61-3.74,5.7-6.38,2.84-1.68,4.37-1.67,4.1.03-.34,1.21-1.22,2.56-2.61,4.03"/>
          <path class="cls-2" d="M153.37,56.04c-1.07,1.45-2.03,2.24-2.66,2.76-3.88,2.86-5.67,1.46-5.25-.81.1-.55.83-3.48,4.9-6.55,2.9-1.98,4.75-2,4.96-.04-.04,1.39-.69,2.95-1.94,4.64"/>
          <path class="cls-2" d="M156.13,68.89c-.92,1.62-1.88,2.52-2.51,3.11-4.2,3.48-6.57,1.54-6.3-1.28.08-.83.62-3.77,4.17-6.85,2.93-2.27,5.11-2.33,5.83-.16.29,1.54-.12,3.28-1.2,5.18"/>
          <path class="cls-2" d="M161.74,82.47c-.77,1.77-1.7,2.76-2.31,3.42-3.98,3.67-7.58,2.09-7.46-1.8.04-1.36.55-4.06,3.5-6.96,2.93-2.54,5.43-2.65,6.68-.31.63,1.67.49,3.57-.41,5.65"/>
          <path class="cls-2" d="M170.09,96.6c-.61,1.91-1.52,2.99-2.12,3.7-4.22,4.27-8.61,2.21-8.68-2.38-.03-1.65.46-4.18,2.91-6.89,2.92-2.79,5.73-2.97,7.52-.48.96,1.76,1.09,3.8.38,6.05"/>
          <path class="cls-2" d="M180.98,111.13c-.45,2.01-1.33,3.16-1.91,3.92-4.31,4.74-9.64,2.25-9.86-2.94-.1-2.3.71-4.53,2.41-6.61,2.83-2.96,5.99-3.23,8.23-.69,1.28,1.83,1.66,3.96,1.13,6.33"/>
          <path class="cls-2" d="M194.21,125.9c-.3,2.09-1.15,3.31-1.71,4.11-4.49,5.33-10.68,2.41-10.99-3.51-.17-3.24,1.48-5.48,2.02-6.21,2.78-3.15,6.18-3.51,8.86-.93,1.56,1.86,2.17,4.06,1.81,6.53"/>
          <path class="cls-2" d="M209.51,140.78c-.17,2.14-.98,3.4-1.52,4.24-4.35,5.51-11.12,2.7-11.89-3.3-.43-3.32,1.15-5.64,1.66-6.4,2.71-3.3,6.29-3.75,9.34-1.17,1.79,1.87,2.6,4.1,2.4,6.64"/>
          <path class="cls-2" d="M226.54,155.62c-.07,2.16-.84,3.46-1.36,4.31-4.43,5.95-11.97,2.67-12.63-3.76-.3-2.96.93-4.92,1.46-5.76,2.63-3.41,6.34-3.96,9.67-1.43,1.97,1.84,2.94,4.07,2.86,6.64"/>
          <path class="cls-2" d="M244.98,170.32c0,2.16-.73,3.47-1.22,4.34-4.26,6.01-12.08,2.94-13.03-3.41-.44-2.95.73-4.95,1.23-5.8,2.55-3.49,6.32-4.14,9.85-1.69,2.09,1.78,3.15,3.99,3.17,6.56"/>
          <path class="cls-2" d="M264.4,184.76c.06,2.12-.65,3.44-1.12,4.3-4.16,6.11-11.89,3.33-13.05-3-.53-2.89.58-4.88,1.06-5.73,2.44-3.52,6.19-4.26,9.79-1.94,2.13,1.7,3.25,3.84,3.32,6.37"/>
          <path class="cls-2" d="M284.42,198.85c.08,2.06-.59,3.36-1.04,4.21-3.96,6.02-11.54,3.54-12.76-2.54-.56-2.8.49-4.77.94-5.61,2.34-3.5,5.99-4.33,9.54-2.16,2.1,1.59,3.22,3.64,3.32,6.1"/>
          <path class="cls-2" d="M304.6,212.52c.08,1.97-.57,3.23-1,4.07-3.75,5.84-10.97,3.69-12.15-2.07-.55-2.67.45-4.59.88-5.41,2.22-3.43,5.71-4.33,9.1-2.35.75.55,3.03,2.21,3.17,5.76"/>
          <path class="cls-2" d="M324.25,225.73c.05,1.85-.54,3.05-.93,3.84-3.43,5.59-9.97,3.76-11.01-1.62-.48-2.49.45-4.32.85-5.11,2.04-3.24,5.31-4.2,8.32-2.45.66.49,2.69,1.99,2.77,5.33"/>
          <path class="cls-2" d="M342.41,238.56c0,1.7-.53,2.82-.88,3.56-2.88,4.93-8.12,3.77-9.23-.69-.63-2.54.37-4.6.7-5.28,1.81-3.04,4.61-3.99,7.15-2.44.56.44,2.26,1.78,2.26,4.85"/>
          <path class="cls-2" d="M358.66,251.03c-.06,1.52-.55,2.57-.84,3.19-2.38,4.22-6.36,3.64-7.37.06-.69-2.44.3-4.53.63-5.21,1.57-2.76,3.89-3.68,5.92-2.34.44.38,1.78,1.55,1.67,4.3"/>
          <path class="cls-2" d="M372.69,262.98c-.12,1.27-.54,2.16-.8,2.69-2.08,3.66-4.86,2.99-5.58.62-.29-.97-.43-2.59.62-4.78,1.34-2.37,3.17-3.2,4.67-2.12.32.31,1.3,1.27,1.09,3.58"/>
          <path class="cls-2" d="M384.27,274.14c-.16,1.01-.5,1.7-.72,2.16-1.54,2.69-3.42,2.7-3.96.91-.19-.65-.37-2.04.65-4.09,1.09-1.92,2.45-2.62,3.46-1.8.21.24.86.98.58,2.82"/>
          <path class="cls-2" d="M393.21,284.57c-.17.74-.44,1.27-.6,1.58-1.08,1.86-2.22,2.03-2.52.94-.08-.29-.27-1.39.65-3.17.82-1.42,1.72-1.96,2.31-1.38.12.17.48.68.17,2.03"/>
          <path class="cls-2" d="M399.4,294.34c-.14.44-.31.76-.41.95-.65,1.1-1.18,1.22-1.3.71-.03-.12-.13-.78.53-2,.51-.86.99-1.2,1.24-.87.05.1.19.4-.06,1.21"/>
          <path class="cls-2" d="M402.81,303.55c-.05.13-.11.23-.14.28-.21.34-.3.32-.32.26-.02-.07.02-.3.21-.63.15-.25.28-.36.32-.26,0,.03.02.11-.07.35"/>
          <path class="cls-2" d="M209.27.38c-.47.03-.95.06-1.42.09-.33.02-.67.05-1,.05.17-.05,1.98-.18,4.15-.28.33-.01.67-.03,1-.04-.17.03-.34.03-.51.04-1.56.09-1.73.1-2.22.14"/>
          <path class="cls-2" d="M193.44,2.69c-.64.11-1.27.21-1.91.3-.77.11-1.28.18-1.42.15.11-.15,2.74-.65,5.54-1.01,1.31-.16,1.37-.14,1.41-.12-.12.04-.15.05-.67.16-1.04.2-2.41.43-2.95.52"/>
          <path class="cls-2" d="M178.92,6.98c-1.2.33-1.85.48-2.32.6-.96.22-1.6.34-1.83.29v-.06c.44-.37,3.33-1.28,6.53-1.95,1.09-.22,1.62-.29,1.8-.26v.05c-.13.08-.27.14-.72.3-1.13.38-2.5.77-3.46,1.03"/>
          <path class="cls-2" d="M166.19,13.16c-1.3.51-2.08.77-2.59.93-2.25.7-2.36.47-2.23.28.33-.49,3.21-1.9,6.97-3,.98-.27,2.02-.53,2.21-.38,0,.12-.15.23-.68.53-.94.5-2.18,1.05-3.68,1.64"/>
          <path class="cls-2" d="M155.7,21.08c-1.36.72-2.23,1.08-2.8,1.32-2.99,1.18-2.84.52-2.73.28.36-.73,3.11-2.62,7.12-4.14,2.5-.89,2.75-.62,2.67-.39-.06.17-.3.38-.53.58-.89.71-2.15,1.49-3.73,2.33"/>
          <path class="cls-2" d="M147.68,30.53c-1.36.93-2.29,1.41-2.9,1.73-3.74,1.79-3.33.39-3.27.22.4-1.13,3.15-3.43,6.88-5.18,3.48-1.52,3.25-.55,3.1-.22-.06.14-.19.31-.28.44-.76.92-1.95,1.94-3.53,3.02"/>
          <path class="cls-2" d="M142.32,41.33c-1.31,1.14-2.27,1.73-2.91,2.13-3.55,2-4.11.92-3.92.06.32-1.39,2.67-4,6.38-6.09,3.2-1.66,3.99-1.08,3.69-.08-.03.09-.07.2-.11.28-.56,1.13-1.61,2.37-3.14,3.7"/>
          <path class="cls-2" d="M139.78,53.3c-1.22,1.34-2.21,2.05-2.86,2.52-3.9,2.53-5.07,1.15-4.63-.58.31-1.21,1.85-3.93,5.66-6.45,2.96-1.78,4.61-1.72,4.43.16-.3,1.32-1.17,2.78-2.59,4.35"/>
          <path class="cls-2" d="M140.12,66.27c-1.1,1.53-2.1,2.35-2.76,2.89-4.18,3.06-5.96,1.35-5.6-1,.09-.6.77-3.73,4.98-6.93,3.03-2.07,5.02-2.04,5.31.09,0,1.49-.64,3.16-1.93,4.95"/>
          <path class="cls-2" d="M143.34,80.07c-.96,1.7-1.96,2.62-2.62,3.24-4.03,3.28-6.95,1.86-6.68-1.5.07-.88.59-4,4.28-7.19,3.08-2.36,5.4-2.37,6.21-.03.33,1.64-.07,3.49-1.2,5.48"/>
          <path class="cls-2" d="M149.38,94.53c-.81,1.85-1.79,2.86-2.44,3.54-4.28,3.84-7.96,2.05-7.86-2.05.03-1.43.55-4.27,3.63-7.25,3.05-2.58,5.76-2.65,7.08-.18.67,1.77.53,3.76-.42,5.94"/>
          <path class="cls-2" d="M158.15,109.48c-.65,1.98-1.62,3.08-2.26,3.81-4.43,4.33-9.03,2.12-9.1-2.64-.02-1.73.49-4.36,3.07-7.14,3.05-2.82,6.08-2.96,7.93-.35,1,1.86,1.12,3.99.35,6.32"/>
          <path class="cls-2" d="M169.41,124.77c-.5,2.07-1.43,3.24-2.05,4.02-4.64,4.89-10.07,2.25-10.26-3.23-.08-2.39.79-4.68,2.58-6.81,3-3.02,6.32-3.24,8.64-.56,1.31,1.92,1.68,4.13,1.09,6.57"/>
          <path class="cls-2" d="M182.99,140.25c-.36,2.15-1.26,3.38-1.87,4.2-4.75,5.36-11.15,2.26-11.38-3.8-.13-3.35,1.63-5.62,2.2-6.36,2.96-3.21,6.52-3.52,9.29-.8,1.59,1.95,2.18,4.22,1.76,6.76"/>
          <path class="cls-2" d="M198.57,155.79c-.23,2.19-1.11,3.47-1.68,4.31-4.62,5.53-11.58,2.55-12.26-3.58-.38-3.41,1.3-5.76,1.86-6.53,2.9-3.35,6.64-3.75,9.76-1.05,1.82,1.94,2.6,4.25,2.32,6.84"/>
          <path class="cls-2" d="M215.84,171.24c-.13,2.2-.97,3.51-1.53,4.38-4.72,5.96-12.43,2.5-12.96-4.03-.25-3.03,1.08-5.01,1.65-5.86,2.82-3.45,6.68-3.95,10.08-1.31,1.99,1.91,2.92,4.2,2.77,6.82"/>
          <path class="cls-2" d="M234.46,186.5c-.06,2.19-.87,3.52-1.4,4.39-4.66,6.14-12.5,2.93-13.33-3.67-.38-3.01.89-5.02,1.44-5.88,2.74-3.52,6.66-4.12,10.24-1.56,2.1,1.84,3.13,4.1,3.06,6.72"/>
          <path class="cls-2" d="M253.98,201.46c0,2.15-.79,3.47-1.3,4.34-4.46,6.08-12.32,3.15-13.31-3.24-.46-2.94.75-4.94,1.26-5.79,2.64-3.53,6.53-4.22,10.15-1.81,2.13,1.75,3.21,3.94,3.19,6.5"/>
          <path class="cls-2" d="M274.03,216.03c0,2.08-.74,3.38-1.23,4.23-4.26,5.98-11.94,3.36-12.98-2.77-.48-2.84.67-4.81,1.16-5.65,2.53-3.5,6.31-4.28,9.89-2.03.78.61,3.16,2.47,3.17,6.22"/>
          <path class="cls-2" d="M294.15,230.14c0,1.98-.71,3.24-1.18,4.07-4.05,5.79-11.34,3.5-12.33-2.29-.46-2.69.63-4.61,1.1-5.43,2.41-3.42,6.02-4.27,9.42-2.21.74.56,3.01,2.28,3,5.86"/>
          <path class="cls-2" d="M313.86,243.74c-.04,1.86-.71,3.05-1.15,3.84-3.79,5.49-10.47,3.56-11.32-1.8-.39-2.51.64-4.33,1.08-5.11,2.23-3.22,5.66-4.14,8.73-2.33.67.51,2.72,2.04,2.66,5.4"/>
          <path class="cls-2" d="M332.27,256.86c-.08,1.7-.71,2.86-1.09,3.54-3.23,4.86-8.65,3.63-9.61-.82-.55-2.55.59-4.6.97-5.28,2.03-3.02,5.01-3.94,7.6-2.34.56.45,2.27,1.82,2.13,4.9"/>
          <path class="cls-2" d="M348.62,269.36c-.14,1.47-.68,2.44-1.03,3.08-2.82,4.25-7.17,3.32-7.78-.47-.35-2.18.66-3.99.99-4.59,1.77-2.69,4.24-3.56,6.29-2.23.44.38,1.78,1.53,1.53,4.21"/>
          <path class="cls-2" d="M362.66,280.96c-.18,1.22-.67,2.07-.96,2.58-2.33,3.5-5.41,3.06-5.92.19-.23-1.29.09-2.71.95-4.22,1.51-2.27,3.46-3.06,4.97-2.01.32.3,1.3,1.23.96,3.45"/>
          <path class="cls-2" d="M374.21,291.73c-.21.97-.62,1.65-.86,2.06-1.91,2.83-3.92,2.38-4.23.58-.13-.74-.07-1.97.92-3.65,1.23-1.83,2.68-2.5,3.69-1.7.21.23.85.94.47,2.71"/>
          <path class="cls-2" d="M383.06,301.74c-.21.71-.52,1.21-.7,1.51-1.3,1.89-2.54,1.93-2.71.71-.06-.44-.03-1.41.85-2.85.92-1.35,1.89-1.86,2.48-1.31.12.16.47.66.09,1.94"/>
          <path class="cls-2" d="M389.14,311.08c-.16.42-.35.71-.48.91-.73,1.05-1.29,1.16-1.4.67-.02-.11-.1-.74.64-1.9.57-.82,1.1-1.14,1.34-.82.04.09.18.38-.12,1.15"/>
          <path class="cls-2" d="M392.42,319.82c-.06.12-.12.21-.16.27-.21.29-.34.34-.35.23,0-.07.04-.27.25-.58.17-.24.31-.34.35-.25,0,.03.02.11-.09.33"/>
          <path class="cls-2" d="M208.85.04c-.26,0-.52.01-.77.02-.18,0-.37,0-.55,0,.11-.02,1.31-.05,2.28-.06h.54c-.09,0-.19,0-.28,0-.41,0-.81.02-1.22.03"/>
          <path class="cls-2" d="M192.53,1.68c-.47.06-.93.11-1.4.16-.95.1-.98.08-1.01.06.19-.09,2-.36,4.11-.55.58-.05.84-.06.99-.06-.05.03-.21.06-.5.11-.28.04-.87.13-2.18.29"/>
          <path class="cls-2" d="M177.02,5.34c-.98.22-1.49.32-1.89.39-.9.17-1.29.21-1.42.17.1-.24,2.9-.94,5.45-1.38.87-.14,1.28-.18,1.41-.15-.03.05-.05.08-.65.25-.77.21-1.75.45-2.9.71"/>
          <path class="cls-2" d="M162.83,10.93c-1.17.39-1.85.58-2.3.7-.92.24-1.59.39-1.83.31v-.08c.41-.45,3.3-1.59,6.43-2.37,1.09-.26,1.61-.34,1.81-.28v.07c-.12.11-.25.18-.69.38-.89.39-2.04.81-3.41,1.27"/>
          <path class="cls-2" d="M150.43,18.34c-1.28.58-2.06.86-2.58,1.05-2.25.77-2.38.49-2.26.26.31-.58,3.14-2.21,6.88-3.46,2.23-.7,2.34-.45,2.2-.25-.1.15-.35.32-.6.49-.92.59-2.14,1.22-3.64,1.9"/>
          <path class="cls-2" d="M140.28,27.45c-1.35.79-2.23,1.18-2.81,1.44-3.02,1.26-2.91.49-2.8.23.33-.83,3.03-2.95,7.04-4.61,2.88-1.11,2.84-.53,2.69-.22-.08.17-.29.39-.44.54-.86.81-2.1,1.69-3.68,2.61"/>
          <path class="cls-2" d="M132.66,38.06c-1.35,1-2.3,1.51-2.92,1.85-3.79,1.89-3.44.32-3.39.14.35-1.27,3.06-3.79,6.81-5.65,3.54-1.62,3.38-.52,3.24-.14-.06.16-.17.35-.26.49-.72,1.03-1.89,2.14-3.48,3.32"/>
          <path class="cls-2" d="M127.72,49.95c-1.31,1.21-2.29,1.84-2.95,2.25-3.69,2.13-4.41.9-4.01-.38.34-1.08,2.1-3.78,6.26-6.22,2.9-1.56,4.32-1.43,3.79.34-.52,1.23-1.56,2.58-3.09,4"/>
          <path class="cls-2" d="M125.6,62.96c-1.22,1.41-2.24,2.15-2.91,2.64-3.98,2.61-5.25,1.1-4.85-.75.28-1.31,1.78-4.22,5.66-6.84,3.03-1.86,4.77-1.74,4.66.3-.25,1.42-1.11,2.99-2.55,4.64"/>
          <path class="cls-2" d="M126.37,76.9c-1.11,1.6-2.14,2.45-2.82,3.01-4.27,3.14-6.17,1.28-5.85-1.21.08-.64.71-3.97,4.99-7.28,3.12-2.15,5.2-2.06,5.58.23.05,1.6-.59,3.36-1.9,5.24"/>
          <path class="cls-2" d="M130.01,91.6c-.98,1.77-2.01,2.72-2.69,3.35-4.12,3.35-7.18,1.79-6.96-1.73.06-.93.54-4.22,4.32-7.5,3.13-2.39,5.62-2.35,6.5.11.38,1.74-.02,3.68-1.17,5.77"/>
          <path class="cls-2" d="M136.45,106.9c-.83,1.91-1.85,2.95-2.52,3.64-4.59,4.07-8.6,1.71-8.12-2.95.17-1.69.95-4.25,3.66-6.87,3.15-2.65,5.98-2.66,7.39-.03.71,1.86.58,3.95-.41,6.21"/>
          <path class="cls-2" d="M145.59,122.64c-.68,2.03-1.68,3.16-2.35,3.91-4.57,4.37-9.33,1.99-9.42-2.91-.03-1.79.49-4.53,3.16-7.36,3.16-2.88,6.32-2.96,8.25-.21,1.04,1.95,1.16,4.16.35,6.57"/>
          <path class="cls-2" d="M157.2,138.66c-.53,2.12-1.51,3.32-2.15,4.11-4.79,4.92-10.4,2.1-10.58-3.51-.08-2.47.82-4.82,2.68-6.98,3.13-3.08,6.57-3.23,8.97-.42,1.35,2,1.71,4.29,1.08,6.8"/>
          <path class="cls-2" d="M171.09,154.8c-.4,2.19-1.35,3.44-1.98,4.27-4.93,5.38-11.49,2.09-11.69-4.09-.11-3.44,1.72-5.74,2.32-6.49,3.1-3.25,6.78-3.5,9.61-.66,1.62,2.02,2.2,4.37,1.73,6.97"/>
          <path class="cls-2" d="M186.93,170.96c-.28,2.23-1.2,3.52-1.8,4.37-4.81,5.53-11.92,2.38-12.55-3.85-.35-3.49,1.41-5.86,1.99-6.64,3.03-3.38,6.9-3.73,10.08-.91,1.84,2.01,2.61,4.38,2.28,7.03"/>
          <path class="cls-2" d="M204.41,186.97c-.18,2.23-1.07,3.55-1.66,4.42-4.93,5.94-12.77,2.3-13.22-4.31-.21-3.08,1.19-5.08,1.79-5.93,2.96-3.47,6.94-3.92,10.39-1.16,2.01,1.97,2.92,4.32,2.7,6.98"/>
          <path class="cls-2" d="M223.17,202.74c-.11,2.22-.97,3.54-1.54,4.42-4.88,6.1-12.83,2.73-13.55-3.93-.33-3.05,1.01-5.07,1.58-5.93,2.88-3.53,6.92-4.07,10.54-1.42,2.11,1.9,3.11,4.21,2.97,6.85"/>
          <path class="cls-2" d="M242.77,218.17c-.07,2.17-.89,3.48-1.44,4.35-4.69,6.04-12.63,2.97-13.5-3.48-.4-2.97.88-4.98,1.43-5.83,2.78-3.53,6.78-4.17,10.43-1.66.79.67,3.21,2.72,3.09,6.62"/>
          <path class="cls-2" d="M262.8,233.16c-.06,2.09-.85,3.38-1.37,4.23-4.48,5.91-12.22,3.16-13.13-2.99-.42-2.86.8-4.82,1.32-5.66,2.67-3.49,6.56-4.21,10.14-1.88.78.63,3.14,2.54,3.04,6.31"/>
          <path class="cls-2" d="M282.84,247.67c-.07,1.99-.83,3.23-1.33,4.06-4.27,5.7-11.6,3.3-12.44-2.5-.39-2.71.77-4.61,1.27-5.42,2.51-3.34,6.3-4.15,9.65-2.06.74.58,2.98,2.34,2.86,5.92"/>
          <path class="cls-2" d="M302.37,261.61c-.1,1.86-.86,3.08-1.31,3.81-4.11,5.49-10.69,3.47-11.39-1.99-.32-2.52.78-4.32,1.26-5.09,2.37-3.19,5.88-4.04,8.94-2.18.67.52,2.69,2.09,2.5,5.45"/>
          <path class="cls-2" d="M320.89,274.77c-.15,1.64-.82,2.7-1.27,3.4-3.7,4.86-9.55,3.27-10-1.42-.21-2.22.83-3.86,1.27-4.56,2.22-2.93,5.35-3.8,7.98-2.2.57.45,2.29,1.8,2.02,4.78"/>
          <path class="cls-2" d="M337.37,286.92c-.2,1.41-.82,2.37-1.19,2.94-3.13,4.12-7.53,3.2-8.03-.51-.28-2.09.83-3.82,1.19-4.39,1.94-2.57,4.53-3.39,6.61-2.09.44.37,1.78,1.48,1.42,4.05"/>
          <path class="cls-2" d="M351.46,298.13c-.24,1.17-.77,1.97-1.09,2.46-2.55,3.33-5.71,2.89-6.13.15-.19-1.24.2-2.6,1.14-4.03,1.65-2.17,3.7-2.91,5.22-1.88.32.29,1.29,1.18.86,3.31"/>
          <path class="cls-2" d="M362.98,308.48c-.26.92-.7,1.57-.97,1.96-2.08,2.67-4.14,2.23-4.39.53-.1-.7,0-1.87,1.09-3.47,1.34-1.74,2.87-2.37,3.89-1.6.21.22.85.9.38,2.58"/>
          <path class="cls-2" d="M371.76,318.05c-.24.67-.58,1.14-.79,1.43-1.41,1.78-2.71,1.82-2.84.66-.05-.42.02-1.33.99-2.7,1-1.28,2.03-1.76,2.62-1.23.11.15.46.62.01,1.84"/>
          <path class="cls-2" d="M377.73,326.91c-.18.4-.4.68-.53.85-.82,1.01-1.47,1.12-1.49.54,0-.16.03-.74.75-1.71.62-.77,1.18-1.07,1.43-.77.04.09.17.36-.16,1.09"/>
          <path class="cls-2" d="M380.88,335.15c-.07.12-.13.2-.17.25-.25.3-.38.31-.38.22,0-.06.05-.25.28-.55.19-.23.33-.32.37-.23,0,.03.02.1-.1.31"/>
          <path class="cls-2" d="M192.23.64c-.25.02-.51.04-.76.05-.28.02-.44.02-.52.02.03-.05,1.29-.17,2.23-.22.32-.02.45-.02.53,0h0c-.09.03-.18.04-.28.05-.4.04-.8.08-1.2.11"/>
          <path class="cls-2" d="M176.13,3.66c-.46.08-.91.16-1.37.23-.58.08-.82.1-.95.09,0,0,0-.02-.02-.02.22-.15,2.15-.56,4.02-.82.93-.12.96-.09.98-.06-.07.04-.19.08-.51.15-.73.17-1.57.32-2.14.43"/>
          <path class="cls-2" d="M160.85,8.62c-.95.27-1.47.39-1.86.48-.72.16-1.23.26-1.37.19.12-.31,2.86-1.2,5.34-1.73.86-.17,1.26-.22,1.38-.17-.03.07-.05.11-.64.34-.77.28-1.72.58-2.85.9"/>
          <path class="cls-2" d="M146.91,15.46c-1.14.44-1.82.66-2.27.81-1.31.4-1.91.47-1.79.23.2-.42,3-1.8,6.3-2.77.84-.23,1.71-.44,1.8-.26-.05.13-.22.25-.7.52-.88.46-2.01.96-3.35,1.49"/>
          <path class="cls-2" d="M134.75,24.05c-1.25.64-2.04.95-2.55,1.16-2.21.84-2.34.51-2.21.24.3-.65,3.14-2.54,6.75-3.88,2.21-.77,2.32-.48,2.18-.23-.1.17-.35.38-.59.57-.9.67-2.1,1.39-3.58,2.14"/>
          <path class="cls-2" d="M124.83,34.29c-1.33.85-2.21,1.28-2.79,1.56-2.97,1.34-2.87.48-2.77.18.32-.93,2.97-3.27,6.91-5.05,2.86-1.2,2.84-.53,2.69-.19-.08.19-.28.44-.43.61-.84.9-2.06,1.87-3.62,2.88"/>
          <path class="cls-2" d="M117.53,46.01c-1.33,1.07-2.28,1.61-2.91,1.97-3.77,1.97-3.48.24-3.43.04.32-1.4,2.96-4.13,6.69-6.1,3.63-1.76,3.39-.34,3.3-.04-.05.17-.16.38-.24.54-.69,1.13-1.84,2.34-3.41,3.59"/>
          <path class="cls-2" d="M112.94,58.97c-1.3,1.28-2.29,1.94-2.95,2.37-3.68,2.2-4.46.84-4.08-.54.32-1.17,2.01-4.07,6.15-6.61,2.92-1.63,4.38-1.45,3.91.49-.48,1.34-1.5,2.78-3.03,4.29"/>
          <path class="cls-2" d="M111.19,72.97c-1.22,1.48-2.24,2.25-2.92,2.76-3.98,2.68-5.32,1.02-4.97-.94.25-1.4,1.7-4.49,5.57-7.2,3.06-1.93,4.86-1.76,4.81.45-.22,1.53-1.05,3.18-2.49,4.93"/>
          <path class="cls-2" d="M112.33,87.85c-1.11,1.66-2.15,2.54-2.84,3.13-4.29,3.2-6.27,1.18-6-1.43.07-.67.64-4.2,4.93-7.6,3.11-2.19,5.32-2.04,5.75.38.09,1.7-.53,3.56-1.84,5.52"/>
          <path class="cls-2" d="M116.34,103.42c-.98,1.83-2.03,2.8-2.72,3.45-4.42,3.6-7.65,1.56-7.09-2.58.2-1.46,1-4.32,4.23-7.17,3.18-2.45,5.74-2.35,6.69.27.42,1.84.04,3.87-1.12,6.03"/>
          <path class="cls-2" d="M123.14,119.53c-.84,1.97-1.88,3.03-2.56,3.74-4.64,4.1-8.76,1.57-8.33-3.24.16-1.76.91-4.41,3.65-7.07,3.21-2.7,6.13-2.66,7.61.11.75,1.95.63,4.13-.36,6.45"/>
          <path class="cls-2" d="M132.63,136.02c-.69,2.09-1.72,3.23-2.4,3.99-4.94,4.69-9.95,1.67-9.62-3.91.14-2.46,1.2-4.75,3.15-6.82,3.23-2.93,6.48-2.96,8.48-.06,1.08,2.04,1.21,4.32.39,6.8"/>
          <path class="cls-2" d="M144.55,152.72c-.55,2.17-1.55,3.38-2.21,4.18-4.86,4.92-10.59,1.93-10.8-3.8-.09-2.54.82-4.94,2.71-7.12,3.21-3.12,6.73-3.22,9.21-.27,1.38,2.08,1.75,4.44,1.1,7.01"/>
          <path class="cls-2" d="M158.71,169.49c-.42,2.23-1.4,3.49-2.04,4.33-5.02,5.37-11.7,1.91-11.9-4.38-.11-3.52,1.75-5.83,2.37-6.59,3.17-3.28,6.95-3.47,9.84-.5,1.65,2.1,2.23,4.5,1.74,7.15"/>
          <path class="cls-2" d="M174.79,186.21c-.3,2.26-1.25,3.56-1.88,4.42-5.05,5.66-12.12,2.27-12.74-4.13-.35-3.56,1.45-5.93,2.04-6.71,3.12-3.4,7.08-3.69,10.32-.76,1.86,2.08,2.63,4.5,2.26,7.19"/>
          <path class="cls-2" d="M192.45,202.74c-.21,2.26-1.13,3.58-1.74,4.45-5.16,6.03-12.97,2.25-13.39-4.58-.19-3.12,1.24-5.12,1.85-5.97,3.05-3.48,7.12-3.87,10.61-1.02.75.76,3.05,3.06,2.67,7.12"/>
          <path class="cls-2" d="M211.33,218.97c-.15,2.24-1.04,3.56-1.63,4.44-5,6.03-13.03,2.51-13.69-4.18-.31-3.09,1.07-5.09,1.66-5.95,2.98-3.53,7.1-4.01,10.74-1.27.79.73,3.18,2.94,2.92,6.97"/>
          <path class="cls-2" d="M230.97,234.82c-.11,2.18-.97,3.49-1.54,4.35-4.81,5.95-12.81,2.74-13.61-3.71-.37-2.99.95-4.98,1.52-5.83,2.88-3.52,6.95-4.1,10.62-1.52.79.69,3.21,2.78,3.01,6.71"/>
          <path class="cls-2" d="M250.97,250.18c-.1,2.09-.93,3.37-1.48,4.22-4.62,5.8-12.38,2.93-13.2-3.22-.38-2.87.88-4.81,1.43-5.64,2.73-3.41,6.78-4.09,10.31-1.73.77.64,3.13,2.59,2.94,6.37"/>
          <path class="cls-2" d="M270.89,265.01c-.12,1.99-.92,3.21-1.45,4.03-4.41,5.55-11.74,3.04-12.47-2.7-.35-2.71.87-4.58,1.38-5.38,2.62-3.31,6.46-4.06,9.8-1.91.73.59,2.95,2.38,2.74,5.97"/>
          <path class="cls-2" d="M290.2,279.01c-.16,1.78-.92,2.91-1.42,3.65-4.25,5.19-10.81,3.15-11.38-2.07-.27-2.43.88-4.16,1.37-4.9,2.48-3.09,6.04-3.87,9.06-2,.66.52,2.65,2.08,2.37,5.32"/>
          <path class="cls-2" d="M308.53,291.86c-.2,1.57-.92,2.58-1.4,3.25-3.94,4.65-9.71,3.06-10.05-1.49-.16-2.12.92-3.68,1.38-4.34,2.31-2.78,5.5-3.58,8.14-2.02.57.43,2.29,1.75,1.92,4.6"/>
          <path class="cls-2" d="M325.13,303.62c-.25,1.34-.91,2.25-1.31,2.8-3.33,3.89-7.82,2.98-8.24-.56-.24-2,.95-3.64,1.34-4.18,2.07-2.44,4.77-3.2,6.86-1.93.44.35,1.79,1.43,1.34,3.87"/>
          <path class="cls-2" d="M339.29,314.41c-.28,1.11-.86,1.88-1.21,2.33-2.82,3.26-6.23,2.62-6.32-.27-.05-1.64.97-3.01,1.31-3.46,1.76-2.05,3.9-2.74,5.44-1.76.32.28,1.29,1.14.78,3.16"/>
          <path class="cls-2" d="M350.8,324.31c-.29.87-.77,1.49-1.06,1.85-2.2,2.5-4.5,2.23-4.53.2-.02-.92.4-1.93,1.24-3.01,1.44-1.64,3.03-2.23,4.05-1.5.21.21.84.86.3,2.45"/>
          <path class="cls-2" d="M359.52,333.4c-.27.63-.64,1.08-.86,1.34-1.5,1.66-2.83,1.68-2.92.6-.04-.4.06-1.25,1.09-2.52,1.08-1.2,2.15-1.66,2.74-1.15.11.15.45.59-.05,1.74"/>
          <path class="cls-2" d="M365.38,341.75c-.2.37-.43.64-.57.8-.87.94-1.54,1.03-1.55.49,0-.15.05-.69.82-1.59.68-.73,1.25-1.01,1.5-.72.04.08.17.34-.2,1.01"/>
          <path class="cls-2" d="M368.39,349.45c-.07.11-.14.18-.19.23-.25.26-.39.29-.4.2,0,0,0-.16.3-.5.2-.21.36-.29.39-.22,0,.02.02.09-.11.29"/>
          <path class="cls-2" d="M176.23,1.95c-.24.03-.49.06-.73.09-.3.03-.43.04-.49.03.06-.09,1.37-.29,2.18-.37.31-.03.43-.04.5-.03t-.29.09c-.12.02-.49.09-1.17.19"/>
          <path class="cls-2" d="M160.26,6.27c-.68.16-1.05.24-1.32.29-.55.1-.78.13-.9.11v-.03c.24-.2,2.13-.74,3.92-1.07.55-.09.79-.12.9-.1v.03c-.07.05-.18.1-.52.21-.58.18-1.28.37-2.09.56"/>
          <path class="cls-2" d="M145.15,12.5c-.92.31-1.45.47-1.8.56-.69.19-1.18.29-1.3.2,0-.29,2.64-1.39,5.22-2.07.7-.17,1.19-.27,1.31-.19-.04.09-.06.14-.65.42-.76.34-1.69.7-2.79,1.08"/>
          <path class="cls-2" d="M131.38,20.53c-1.11.5-1.79.75-2.2.9-1.26.44-1.84.51-1.7.23.23-.5,3.08-2.11,6.15-3.16,1.58-.51,1.8-.4,1.7-.21-.08.15-.47.41-.67.55-.87.54-1.97,1.11-3.28,1.7"/>
          <path class="cls-2" d="M119.39,30.26c-1.22.7-1.98,1.04-2.48,1.27-2.14.9-2.25.52-2.12.22.31-.74,3.1-2.83,6.59-4.3,2.14-.84,2.24-.49,2.1-.21-.1.2-.34.43-.58.65-.89.75-2.06,1.55-3.5,2.38"/>
          <path class="cls-2" d="M109.63,41.58c-1.29.92-2.15,1.37-2.72,1.67-2.89,1.42-2.78.46-2.67.14.33-1.03,2.92-3.57,6.75-5.47,2.79-1.28,2.76-.53,2.61-.14-.08.22-.28.48-.42.68-.83.99-2.02,2.05-3.55,3.13"/>
          <path class="cls-2" d="M102.5,54.33c-1.3,1.13-2.24,1.7-2.86,2.07-3.7,2.05-3.41.18-3.36-.05.31-1.52,2.9-4.44,6.53-6.51,3.55-1.85,3.32-.3,3.24.04-.05.18-.15.42-.23.59-.67,1.23-1.79,2.53-3.33,3.86"/>
          <path class="cls-2" d="M98.2,68.33c-1.27,1.34-2.25,2.02-2.9,2.47-3.65,2.28-4.44.83-4.08-.7.35-1.47,2.23-4.54,5.99-6.98,2.88-1.69,4.35-1.44,3.92.66-.45,1.44-1.44,2.97-2.93,4.55"/>
          <path class="cls-2" d="M96.76,83.3c-1.19,1.54-2.21,2.33-2.88,2.86-3.93,2.73-5.31.94-5-1.13.22-1.49,1.62-4.75,5.43-7.54,3.03-1.99,4.84-1.75,4.85.62-.18,1.63-.99,3.37-2.4,5.19"/>
          <path class="cls-2" d="M98.22,99.08c-1.09,1.72-2.13,2.62-2.81,3.22-4.12,3.15-6.6,1.39-5.99-2.22.16-.94.98-4.26,4.73-7.33,3.1-2.24,5.33-2.03,5.82.55.12,1.8-.47,3.74-1.76,5.78"/>
          <path class="cls-2" d="M102.55,115.48c-.96,1.88-2.01,2.88-2.7,3.54-4.39,3.64-7.67,1.44-7.19-2.85.17-1.52.94-4.5,4.14-7.39,3.17-2.5,5.77-2.34,6.78.44.45,1.93.1,4.04-1.04,6.27"/>
          <path class="cls-2" d="M109.68,132.36c-.83,2.02-1.86,3.1-2.55,3.82-4.7,4.2-8.81,1.53-8.45-3.52.13-1.82.86-4.56,3.58-7.25,3.22-2.74,6.17-2.64,7.71.28.79,2.04.69,4.29-.29,6.68"/>
          <path class="cls-2" d="M119.47,149.55c-.68,2.13-1.71,3.29-2.39,4.06-4.92,4.69-10.02,1.5-9.76-4.21.11-2.53,1.16-4.87,3.1-6.96,3.24-2.96,6.53-2.92,8.59.11,1.11,2.12,1.27,4.47.45,7"/>
          <path class="cls-2" d="M131.68,166.89c-.55,2.2-1.55,3.42-2.21,4.23-4.86,4.91-10.67,1.76-10.94-4.08-.12-2.6.78-5.04,2.67-7.24,3.22-3.14,6.8-3.18,9.33-.11,1.41,2.15,1.8,4.58,1.15,7.2"/>
          <path class="cls-2" d="M146.09,184.24c-.42,2.26-1.4,3.53-2.05,4.36-5.17,5.49-11.79,1.81-12.04-4.66-.14-3.59,1.73-5.91,2.35-6.67,3.2-3.29,7.02-3.42,9.97-.34,1.67,2.16,2.27,4.62,1.77,7.31"/>
          <path class="cls-2" d="M162.38,201.48c-.31,2.28-1.27,3.58-1.9,4.44-5.33,5.9-12.8,1.76-12.91-5.19-.05-3.18,1.45-5.14,2.09-5.97,3.15-3.4,7.15-3.63,10.44-.6,1.89,2.14,2.65,4.6,2.28,7.32"/>
          <path class="cls-2" d="M180.19,218.47c-.22,2.27-1.16,3.59-1.77,4.46-5.19,5.96-13.05,2.03-13.48-4.83-.2-3.16,1.25-5.15,1.86-6,3.09-3.47,7.2-3.8,10.73-.86.76.78,3.07,3.14,2.67,7.23"/>
          <path class="cls-2" d="M199.16,235.11c-.17,2.24-1.07,3.56-1.67,4.43-5.04,5.95-13.1,2.28-13.76-4.42-.31-3.11,1.09-5.1,1.68-5.96,3.02-3.51,7.18-3.93,10.85-1.11.79.74,3.19,3.01,2.89,7.05"/>
          <path class="cls-2" d="M218.81,251.32c-.13,2.17-1,3.47-1.58,4.33-4.86,5.85-12.87,2.51-13.64-3.93-.36-3.01.98-4.98,1.55-5.82,2.88-3.43,7.08-3.95,10.7-1.34.79.7,3.2,2.84,2.97,6.76"/>
          <path class="cls-2" d="M238.76,266.99c-.13,2.09-.97,3.34-1.53,4.17-4.67,5.64-12.43,2.67-13.2-3.41-.36-2.87.93-4.79,1.47-5.61,2.78-3.37,6.85-3.98,10.38-1.57.77.65,3.11,2.64,2.88,6.41"/>
          <path class="cls-2" d="M258.52,281.83c-.15,1.9-.97,3.07-1.51,3.84-4.57,5.36-11.75,2.87-12.43-2.77-.32-2.61.92-4.41,1.45-5.18,2.67-3.19,6.53-3.86,9.85-1.71.72.59,2.92,2.37,2.65,5.82"/>
          <path class="cls-2" d="M277.61,295.51c-.19,1.7-.97,2.77-1.48,3.47-4.3,4.88-10.82,2.85-11.32-2.14-.23-2.32.94-3.97,1.44-4.67,2.53-2.92,6.1-3.63,9.09-1.79.65.5,2.61,2.03,2.27,5.12"/>
          <path class="cls-2" d="M295.63,308.03c-.23,1.49-1,2.48-1.45,3.07-4,4.36-9.71,2.77-9.97-1.56-.12-2.02.98-3.49,1.45-4.12,2.36-2.63,5.56-3.34,8.15-1.82.55.42,2.24,1.7,1.82,4.42"/>
          <path class="cls-2" d="M312.16,319.4c-.28,1.27-.98,2.13-1.4,2.64-3.63,3.82-8.4,2.63-8.38-1.04,0-1.71,1.02-2.98,1.46-3.53,2.15-2.29,4.91-2.99,7.03-1.77.45.34,1.8,1.38,1.29,3.69"/>
          <path class="cls-2" d="M326.38,329.75c-.31,1.04-.92,1.76-1.28,2.19-2.94,3.05-6.4,2.41-6.43-.31-.02-1.55,1.05-2.84,1.41-3.26,1.84-1.92,4.03-2.55,5.58-1.61.32.27,1.29,1.08.73,2.98"/>
          <path class="cls-2" d="M337.89,339.16c-.32.82-.82,1.39-1.13,1.73-2.3,2.33-4.62,2.05-4.62.16,0-.86.45-1.81,1.33-2.82,1.5-1.54,3.14-2.08,4.17-1.38.21.2.83.81.25,2.3"/>
          <path class="cls-2" d="M346.54,347.73c-.29.59-.68,1-.91,1.25-1.61,1.58-3.05,1.56-2.99.38.02-.44.25-1.18,1.17-2.19,1.13-1.12,2.23-1.54,2.82-1.06.11.14.44.56-.09,1.62"/>
          <path class="cls-2" d="M352.29,355.53c-.22.34-.46.59-.61.74-.91.86-1.59.95-1.59.45,0-.14.07-.64.88-1.47.7-.66,1.3-.92,1.55-.66.04.08.16.32-.23.94"/>
          <path class="cls-2" d="M355.16,362.64c-.08.1-.15.17-.2.21-.26.24-.4.27-.41.18,0-.05.06-.21.32-.46.21-.19.37-.27.41-.2,0,.02.01.09-.12.27"/>
          <path class="cls-2" d="M161.04,3.93c-.23.05-.46.09-.69.13-.28.04-.4.05-.44.04.03-.09,1.28-.38,2.13-.51.29-.04.4-.05.45-.04,0,.02,0,.04-.31.12-.43.11-.89.21-1.13.26"/>
          <path class="cls-2" d="M145.13,9.52c-.65.2-1.03.29-1.26.35-.53.13-.73.16-.83.13.02-.2,2.13-.95,3.83-1.36.52-.12.74-.15.83-.12v.04c-.09.07-.22.13-.53.26-.58.22-1.26.46-2.04.69"/>
          <path class="cls-2" d="M130.11,16.95c-.88.36-1.39.53-1.72.65-.66.21-1.11.33-1.2.22.06-.34,2.71-1.64,5.09-2.4.66-.2,1.12-.31,1.21-.21-.02.1-.18.22-.67.49-.75.4-1.66.82-2.72,1.25"/>
          <path class="cls-2" d="M116.44,26.13c-1.06.55-1.69.82-2.11,1-1.2.48-1.73.55-1.57.23.27-.56,3.06-2.37,5.99-3.54,1.51-.56,1.69-.43,1.58-.21-.09.18-.48.47-.68.62-.86.61-1.93,1.25-3.19,1.9"/>
          <path class="cls-2" d="M104.56,36.95c-1.18.76-1.91,1.12-2.39,1.37-2.05.96-2.12.54-1.98.21.34-.82,3.07-3.11,6.41-4.7,2.05-.91,2.11-.51,1.96-.2-.11.23-.35.48-.58.72-.87.83-2.02,1.71-3.41,2.6"/>
          <path class="cls-2" d="M94.91,49.3c-1.25.98-2.07,1.46-2.62,1.78-2.77,1.49-2.62.45-2.51.1.36-1.15,3.02-3.94,6.54-5.87,2.74-1.39,2.58-.43,2.47-.1-.08.24-.28.53-.42.74-.81,1.08-1.98,2.21-3.45,3.37"/>
          <path class="cls-2" d="M87.85,63.02c-1.26,1.19-2.16,1.78-2.76,2.18-3.55,2.13-3.23.12-3.19-.11.33-1.63,2.84-4.73,6.32-6.91,3.41-1.94,3.17-.25,3.09.1-.05.2-.15.45-.23.64-.66,1.32-1.75,2.7-3.24,4.1"/>
          <path class="cls-2" d="M83.72,77.98c-1.23,1.4-2.18,2.1-2.81,2.57-3.52,2.32-4.31.7-3.97-.86.33-1.56,2.15-4.8,5.78-7.33,2.76-1.72,4.23-1.41,3.83.81-.42,1.53-1.37,3.15-2.82,4.81"/>
          <path class="cls-2" d="M82.53,93.88c-1.15,1.6-2.14,2.41-2.8,2.95-3.87,2.81-5.21.92-4.93-1.32.2-1.57,1.52-4.99,5.21-7.85,2.92-2,4.75-1.7,4.8.79-.15,1.72-.92,3.55-2.29,5.44"/>
          <path class="cls-2" d="M84.27,110.52c-1.05,1.78-2.07,2.7-2.74,3.3-4.35,3.44-6.43.84-5.96-2.46.14-.99.89-4.45,4.54-7.58,3.04-2.28,5.26-2.01,5.8.72.16,1.89-.4,3.91-1.64,6.02"/>
          <path class="cls-2" d="M88.88,127.73c-.93,1.93-1.95,2.94-2.62,3.61-4.28,3.66-7.59,1.31-7.19-3.11.14-1.58.85-4.66,3.97-7.6,3.12-2.54,5.71-2.31,6.78.61.49,2.02.17,4.21-.93,6.5"/>
          <path class="cls-2" d="M96.29,145.33c-.79,2.06-1.81,3.15-2.48,3.88-4.6,4.2-8.74,1.38-8.48-3.8.1-1.88.77-4.69,3.43-7.41,3.16-2.77,6.12-2.6,7.71.46.82,2.12.76,4.44-.18,6.88"/>
          <path class="cls-2" d="M106.36,163.18c-.66,2.17-1.67,3.33-2.34,4.11-4.82,4.68-9.96,1.32-9.8-4.49.07-2.59,1.07-4.98,2.97-7.08,3.2-2.99,6.5-2.88,8.61.28,1.15,2.19,1.33,4.61.55,7.18"/>
          <path class="cls-2" d="M118.82,181.12c-.52,2.24-1.51,3.46-2.17,4.26-5.01,5.12-11.13,1.23-11-5.13.07-3.58,1.96-5.82,2.58-6.55,3.19-3.15,6.77-3.13,9.36.06,1.44,2.22,1.85,4.7,1.23,7.36"/>
          <path class="cls-2" d="M133.45,199.01c-.4,2.28-1.37,3.55-2.01,4.38-5.09,5.45-11.75,1.6-12.08-4.93-.19-3.65,1.65-5.97,2.26-6.73,3.17-3.29,7-3.36,10-.17,1.7,2.22,2.32,4.73,1.84,7.45"/>
          <path class="cls-2" d="M149.92,216.71c-.3,2.3-1.24,3.59-1.87,4.45-5.25,5.83-12.76,1.53-12.95-5.45-.08-3.21,1.39-5.17,2.02-6,3.13-3.4,7.14-3.56,10.46-.43.71.82,2.87,3.3,2.34,7.44"/>
          <path class="cls-2" d="M167.87,234.11c-.21,2.28-1.14,3.59-1.75,4.45-5.12,5.87-13.01,1.8-13.5-5.07-.23-3.18,1.2-5.16,1.81-6,3.07-3.45,7.18-3.72,10.74-.69.76.79,3.09,3.21,2.7,7.32"/>
          <path class="cls-2" d="M186.9,251.11c-.16,2.24-1.06,3.55-1.65,4.41-4.98,5.84-13.04,2.05-13.75-4.64-.33-3.12,1.05-5.1,1.64-5.94,2.96-3.42,7.22-3.79,10.85-.94.79.76,3.2,3.07,2.91,7.11"/>
          <path class="cls-2" d="M206.55,267.62c-.13,2.17-1,3.43-1.58,4.27-4.82,5.68-12.81,2.25-13.6-4.12-.37-3.01.96-4.95,1.53-5.78,2.87-3.38,7.06-3.84,10.69-1.17.79.71,3.2,2.88,2.96,6.8"/>
          <path class="cls-2" d="M226.4,283.27c-.13,2-.98,3.19-1.54,3.98-4.91,5.63-12.96,2.05-13.18-4.16-.08-2.39,1-3.95,1.52-4.7,2.77-3.24,6.83-3.77,10.35-1.36,2.05,1.74,3.01,3.84,2.85,6.24"/>
          <path class="cls-2" d="M246,297.77c-.16,1.82-.98,2.92-1.52,3.65-4.7,5.21-12.24,2.16-12.37-3.45-.05-2.17.99-3.61,1.49-4.3,2.67-3.02,6.51-3.6,9.8-1.5.71.57,2.89,2.31,2.59,5.6"/>
          <path class="cls-2" d="M264.84,311.08c-.2,1.62-.98,2.62-1.5,3.28-4.54,4.84-11.25,2.34-11.22-2.75,0-1.93,1-3.23,1.48-3.86,2.53-2.75,6.08-3.37,9.04-1.58.64.49,2.57,1.97,2.2,4.91"/>
          <path class="cls-2" d="M282.56,323.22c-.25,1.41-1.02,2.34-1.47,2.89-3.99,4.06-9.61,2.47-9.84-1.61-.1-1.92,1-3.3,1.47-3.88,2.36-2.46,5.54-3.09,8.09-1.61.54.41,2.2,1.64,1.74,4.22"/>
          <path class="cls-2" d="M298.76,334.19c-.3,1.19-1,1.99-1.43,2.47-3.63,3.52-8.31,2.34-8.26-1.09.02-1.61,1.05-2.8,1.48-3.31,2.15-2.14,4.89-2.75,6.98-1.57.44.33,1.77,1.32,1.23,3.5"/>
          <path class="cls-2" d="M312.98,344.06c-.33.97-.95,1.64-1.32,2.04-3.01,2.82-6.5,2.19-6.5-.35,0-1.45,1.1-2.65,1.46-3.04,1.89-1.79,4.12-2.36,5.68-1.46.32.25,1.29,1.03.69,2.81"/>
          <path class="cls-2" d="M324.47,352.95c-.34.76-.86,1.29-1.17,1.6-2.35,2.14-4.7,1.87-4.66.11.02-.8.48-1.68,1.38-2.61,1.54-1.42,3.21-1.91,4.24-1.25.21.19.83.76.21,2.15"/>
          <path class="cls-2" d="M333.05,360.97c-.31.54-.7.92-.94,1.15-1.7,1.49-3.11,1.43-3.02.33.03-.41.27-1.09,1.22-2.02,1.16-1.02,2.28-1.4,2.86-.96.11.13.44.52-.12,1.5"/>
          <path class="cls-2" d="M338.68,368.18c-.23.31-.48.54-.63.68-.94.79-1.62.86-1.61.41,0-.12.08-.59.92-1.34.72-.61,1.34-.84,1.57-.6.04.07.16.29-.25.86"/>
          <path class="cls-2" d="M341.39,374.67c-.08.09-.16.15-.2.19-.28.22-.43.25-.41.15,0-.01.03-.15.33-.4.22-.17.38-.24.42-.18,0,.02.01.08-.13.24"/>
          <path class="cls-2" d="M146.84,6.57c-.22.06-.43.11-.65.16-.2.04-.32.06-.39.06h0c.11-.11,1.21-.47,2.08-.66.2-.04.32-.06.39-.06h0c-.04.05-.14.09-.33.15-.4.14-.82.26-1.1.34"/>
          <path class="cls-2" d="M130.93,13.38c-.62.23-.95.34-1.19.41-.49.15-.67.18-.74.15.1-.24,2.15-1.13,3.74-1.6.48-.14.68-.17.75-.14-.02.06-.04.1-.57.36-.57.27-1.24.54-1.98.82"/>
          <path class="cls-2" d="M115.93,21.96c-.84.4-1.31.6-1.63.72-.68.26-.94.33-1.06.27-.1-.29,2.59-1.85,4.95-2.75.67-.24.95-.31,1.07-.26.04.09-.14.24-.69.6-.74.46-1.63.93-2.63,1.41"/>
          <path class="cls-2" d="M102.3,32.24c-1.02.6-1.61.89-2,1.09-.42.19-1.52.7-1.44.32.11-.53,2.98-2.66,5.83-3.98.38-.16,1.52-.66,1.44-.3-.04.19-.48.56-.73.78-.85.67-1.89,1.38-3.1,2.1"/>
          <path class="cls-2" d="M90.48,44.1c-1.12.81-1.81,1.2-2.27,1.46-1.64.88-1.9.66-1.83.33.18-.82,3.04-3.49,6.23-5.22,1.65-.83,1.9-.63,1.82-.32-.07.27-.44.69-.65.92-.86.91-1.98,1.85-3.31,2.82"/>
          <path class="cls-2" d="M80.87,57.42c-1.19,1.04-1.97,1.54-2.49,1.88-2.21,1.32-2.41.74-2.34.27.18-1.13,2.8-4.28,6.34-6.47,2.2-1.25,2.39-.7,2.31-.27-.06.32-.27.66-.48,1-.8,1.16-1.93,2.37-3.34,3.59"/>
          <path class="cls-2" d="M73.85,72.07c-1.2,1.25-2.06,1.87-2.62,2.27-3.35,2.21-2.99.07-2.94-.18.36-1.74,2.78-5.01,6.06-7.28,3.22-2.03,2.95-.22,2.86.17-.05.21-.15.48-.23.68-.65,1.4-1.7,2.86-3.13,4.34"/>
          <path class="cls-2" d="M69.74,87.89c-1.17,1.46-2.08,2.18-2.68,2.66-3.35,2.38-4.06.72-3.71-.98.33-1.65,2.08-5.04,5.51-7.65,2.61-1.78,3.98-1.42,3.59.93-.41,1.62-1.32,3.32-2.71,5.04"/>
          <path class="cls-2" d="M68.74,104.69c-1.1,1.65-2.05,2.48-2.68,3.03-3.7,2.85-5.01.83-4.76-1.52.18-1.65,1.41-5.23,4.94-8.15,2.8-2.05,4.58-1.68,4.65.96-.13,1.81-.85,3.72-2.15,5.68"/>
          <path class="cls-2" d="M70.69,122.15c-1,1.83-1.97,2.76-2.62,3.38-4.18,3.48-6.25.72-5.84-2.7.12-1.03.8-4.63,4.29-7.81,2.92-2.32,5.09-1.98,5.67.89.19,1.98-.32,4.08-1.51,6.24"/>
          <path class="cls-2" d="M75.54,140.12c-.88,1.97-1.86,3-2.51,3.67-4.18,3.74-7.4,1.27-7.09-3.38.11-1.63.73-4.81,3.73-7.78,3.01-2.57,5.56-2.27,6.67.78.52,2.1.25,4.36-.79,6.71"/>
          <path class="cls-2" d="M83.2,158.41c-.74,2.1-1.72,3.2-2.37,3.93-4.42,4.2-8.55,1.22-8.41-4.07.05-1.93.65-4.81,3.21-7.56,3.06-2.79,5.98-2.55,7.62.63.85,2.2.84,4.58-.05,7.07"/>
          <path class="cls-2" d="M93.51,176.87c-.61,2.2-1.58,3.37-2.23,4.15-4.74,4.76-9.78,1.27-9.75-4.77.01-2.65.95-5.07,2.78-7.18,3.1-3,6.37-2.82,8.53.46,1.18,2.26,1.4,4.74.68,7.35"/>
          <path class="cls-2" d="M106.2,195.36c-.48,2.26-1.43,3.48-2.07,4.29-4.97,5.23-10.96,1.12-10.97-5.4,0-3.64,1.81-5.88,2.41-6.62,3.09-3.15,6.65-3.07,9.28.23,1.47,2.28,1.92,4.81,1.35,7.5"/>
          <path class="cls-2" d="M121.03,213.73c-.36,2.3-1.3,3.56-1.92,4.39-4.92,5.39-11.58,1.39-12.04-5.19-.26-3.7,1.51-6.01,2.1-6.77,3.08-3.29,6.88-3.29,9.92,0,1.72,2.28,2.38,4.82,1.95,7.57"/>
          <path class="cls-2" d="M137.66,231.86c-.26,2.31-1.18,3.59-1.78,4.44-5.07,5.75-12.59,1.3-12.91-5.69-.15-3.24,1.28-5.18,1.88-6.01,3-3.32,7.07-3.43,10.38-.26.72.83,2.9,3.37,2.43,7.53"/>
          <path class="cls-2" d="M155.71,249.62c-.18,2.28-1.08,3.57-1.67,4.43-4.96,5.77-12.83,1.57-13.44-5.3-.28-3.19,1.1-5.15,1.69-5.99,2.95-3.37,7.12-3.57,10.65-.52.77.81,3.1,3.26,2.77,7.38"/>
          <path class="cls-2" d="M174.8,266.91c-.14,2.23-1.01,3.5-1.58,4.35-4.83,5.66-12.86,1.78-13.65-4.82-.38-3.12.96-5.07,1.53-5.91,2.88-3.38,7.1-3.68,10.75-.77.79.77,3.2,3.11,2.96,7.15"/>
          <path class="cls-2" d="M194.42,283.38c-.11,2.07-.96,3.27-1.52,4.07-4.96,5.66-13.24,1.59-13.54-4.89-.11-2.49.98-4.07,1.5-4.83,2.8-3.25,6.95-3.64,10.57-.97,2.12,1.9,3.12,4.13,2.98,6.62"/>
          <path class="cls-2" d="M214.16,298.67c-.12,1.9-.94,3.03-1.49,3.77-4.78,5.27-12.75,1.74-13.03-4.18-.11-2.29.95-3.76,1.45-4.47,2.71-3.06,6.72-3.5,10.22-1.14,2.03,1.69,2.99,3.71,2.84,6.01"/>
          <path class="cls-2" d="M233.56,312.78c-.15,1.72-.95,2.76-1.48,3.44-4.59,4.85-12.03,1.85-12.2-3.47-.07-2.06.95-3.42,1.44-4.07,2.61-2.84,6.41-3.34,9.67-1.28.71.55,2.85,2.24,2.57,5.38"/>
          <path class="cls-2" d="M252.15,325.68c-.2,1.53-.96,2.46-1.47,3.08-4.44,4.49-11.04,2.03-11.04-2.76,0-1.83.97-3.05,1.44-3.64,2.48-2.57,5.97-3.11,8.9-1.36.63.47,2.53,1.9,2.17,4.68"/>
          <path class="cls-2" d="M269.55,337.39c-.25,1.32-1,2.19-1.46,2.7-4.14,3.97-9.86,2.02-9.64-2.11.08-1.58,1-2.66,1.45-3.18,2.32-2.29,5.45-2.84,7.96-1.41.53.39,2.15,1.58,1.69,4"/>
          <path class="cls-2" d="M285.38,347.92c-.3,1.11-1,1.85-1.41,2.29-3.56,3.23-8.14,2.07-8.08-1.13.03-1.51,1.04-2.61,1.46-3.08,2.12-1.98,4.81-2.52,6.85-1.38.43.31,1.73,1.27,1.18,3.3"/>
          <path class="cls-2" d="M299.32,357.3c-.34.9-.96,1.52-1.34,1.88-3.14,2.69-6.73,1.88-6.42-.69.15-1.22,1.05-2.13,1.44-2.51,1.87-1.64,4.09-2.15,5.64-1.29.32.24,1.29.97.68,2.62"/>
          <path class="cls-2" d="M310.79,365.64c-.35.7-.87,1.18-1.18,1.47-2.47,2.03-4.92,1.64-4.65-.16.15-1.03,1.08-1.89,1.38-2.18,1.56-1.3,3.23-1.74,4.26-1.12.2.18.83.71.19,1.99"/>
          <path class="cls-2" d="M319.29,373.06c-.31.49-.72.84-.95,1.04-1.71,1.35-3.12,1.28-3.02.28.04-.37.28-.99,1.25-1.84,1.17-.93,2.29-1.27,2.87-.86.11.12.43.48-.14,1.37"/>
          <path class="cls-2" d="M324.78,379.64c-.23.28-.49.49-.64.61-.95.71-1.63.77-1.61.36,0-.11.09-.53.94-1.21.73-.55,1.35-.76,1.58-.54.04.06.15.26-.27.78"/>
          <path class="cls-2" d="M327.3,385.47c-.06.06-.13.12-.21.17-.28.2-.44.22-.42.13,0-.01.04-.13.34-.36.22-.15.38-.22.42-.16,0,.02,0,.07-.14.21"/>
          <path class="cls-2" d="M133.79,9.87c-.2.07-.4.14-.61.2-.21.06-.29.08-.33.07.02-.09,1.21-.56,2.03-.8.18-.05.29-.08.33-.07,0,.02,0,.04-.35.19-.4.17-.8.31-1.07.41"/>
          <path class="cls-2" d="M117.81,17.84c-.59.27-.9.39-1.11.47-.39.15-.54.19-.63.18v-.04c.25-.27,2.16-1.26,3.63-1.82.33-.12.53-.18.63-.17v.03c-.07.08-.22.18-.6.39-.57.31-1.21.62-1.92.94"/>
          <path class="cls-2" d="M102.78,27.53c-.8.45-1.25.67-1.52.8-.62.29-.85.36-.93.3.02-.33,2.65-2.06,4.81-3.06.61-.27.85-.34.93-.28,0,.11-.19.28-.75.67-.74.51-1.6,1.04-2.55,1.57"/>
          <path class="cls-2" d="M89.13,38.85c-.96.65-1.51.97-1.87,1.17-.38.21-1.39.75-1.24.33.2-.59,3.01-2.9,5.63-4.33.35-.18,1.4-.72,1.25-.31-.08.22-.51.62-.77.85-.84.74-1.85,1.51-3,2.29"/>
          <path class="cls-2" d="M77.32,51.69c-1.06.87-1.7,1.28-2.12,1.56-1.51.93-1.7.69-1.6.33.26-.89,3.05-3.75,5.99-5.59,1.51-.88,1.7-.66,1.59-.32-.09.29-.47.75-.67,1-.86.97-1.93,1.99-3.2,3.02"/>
          <path class="cls-2" d="M67.72,65.95c-1.13,1.09-1.85,1.62-2.33,1.97-2.03,1.38-2.17.75-2.07.25.24-1.2,2.79-4.55,6.06-6.86,2.03-1.31,2.15-.72,2.05-.25-.08.34-.29.71-.5,1.07-.8,1.23-1.88,2.52-3.22,3.81"/>
          <path class="cls-2" d="M60.7,81.46c-1.13,1.3-1.92,1.94-2.45,2.37-2.67,1.97-2.73.56-2.68.08.16-1.56,2.44-5.34,5.79-7.94,2.64-1.87,2.67-.53,2.62-.07-.04.33-.18.73-.29,1.02-.64,1.48-1.65,3.01-3,4.56"/>
          <path class="cls-2" d="M56.57,98.09c-1.1,1.51-1.95,2.25-2.51,2.75-3.03,2.39-3.57.63-3.44-.63.2-1.81,1.96-5.62,5.25-8.41,2.95-2.24,3.49-.67,3.34.6-.02.13-.05.31-.07.44-.41,1.7-1.28,3.47-2.58,5.26"/>
          <path class="cls-2" d="M55.59,115.67c-1.03,1.7-1.92,2.54-2.51,3.1-3.47,2.88-4.7.74-4.46-1.69.17-1.72,1.33-5.43,4.6-8.42,2.6-2.09,4.28-1.67,4.37,1.11-.1,1.9-.77,3.88-1.99,5.9"/>
          <path class="cls-2" d="M57.72,133.94c-.93,1.87-1.84,2.81-2.45,3.44-3.79,3.38-5.72.83-5.65-2.3.02-.81.29-5.01,4-8.66,2.76-2.35,4.84-1.94,5.45,1.07.21,2.06-.24,4.23-1.35,6.45"/>
          <path class="cls-2" d="M62.77,152.61c-.81,2.01-1.73,3.04-2.35,3.73-3.94,3.74-7.09,1.13-6.9-3.63.07-1.68.6-4.95,3.41-7.95,2.85-2.59,5.32-2.22,6.46.96.54,2.18.33,4.5-.63,6.9"/>
          <path class="cls-2" d="M70.64,171.55c-.67,2.13-1.6,3.24-2.21,3.97-4.17,4.19-8.25,1.06-8.25-4.34,0-1.98.51-4.92,2.92-7.68,2.9-2.81,5.75-2.5,7.42.8.88,2.27.92,4.71.12,7.24"/>
          <path class="cls-2" d="M81.16,190.59c-.54,2.22-1.46,3.4-2.07,4.17-4.48,4.72-9.48,1.08-9.62-5.04-.06-2.7.78-5.15,2.51-7.26,2.94-3,6.14-2.76,8.34.63,1.2,2.33,1.49,4.85.84,7.5"/>
          <path class="cls-2" d="M94.05,209.57c-.41,2.28-1.32,3.5-1.92,4.3-4.7,5.18-10.66.92-10.85-5.66-.11-3.7,1.6-5.93,2.17-6.66,2.94-3.15,6.43-3,9.09.4.56.87,2.25,3.53,1.51,7.62"/>
          <path class="cls-2" d="M109.06,228.38c-.3,2.31-1.18,3.56-1.77,4.39-4.65,5.32-11.27,1.19-11.92-5.43-.36-3.73,1.31-6.04,1.86-6.8,2.89-3.22,6.71-3.16,9.73.17.65.87,2.63,3.5,2.09,7.66"/>
          <path class="cls-2" d="M125.84,246.87c-.2,2.31-1.07,3.58-1.64,4.42-4.8,5.65-12.28,1.08-12.79-5.92-.24-3.25,1.11-5.18,1.68-6.01,2.85-3.29,6.85-3.33,10.18-.09.72.85,2.93,3.43,2.57,7.59"/>
          <path class="cls-2" d="M143.98,264.94c-.13,2.27-.98,3.53-1.54,4.36-4.71,5.59-12.52,1.31-13.3-5.47-.36-3.2.94-5.14,1.5-5.97,2.81-3.33,6.91-3.47,10.45-.35.77.82,3.12,3.31,2.88,7.42"/>
          <path class="cls-2" d="M163.1,282.17c-.09,2.14-.92,3.34-1.47,4.14-4.87,5.64-13.17,1.09-13.56-5.62-.15-2.58.92-4.16,1.44-4.92,2.76-3.25,6.9-3.47,10.54-.56,2.13,2.05,3.15,4.39,3.05,6.96"/>
          <path class="cls-2" d="M182.66,298.26c-.08,1.98-.88,3.11-1.42,3.86-4.73,5.29-12.91,1.27-13.35-4.9-.17-2.39.87-3.88,1.37-4.59,2.68-3.07,6.75-3.37,10.36-.75,2.11,1.85,3.13,4,3.04,6.38"/>
          <path class="cls-2" d="M202.26,313.16c-.09,1.81-.88,2.86-1.4,3.56-4.57,4.91-12.42,1.43-12.81-4.18-.15-2.18.85-3.56,1.34-4.23,2.61-2.87,6.53-3.23,10-.92.75.61,3.04,2.47,2.88,5.77"/>
          <path class="cls-2" d="M221.45,326.84c-.13,1.63-.9,2.59-1.4,3.23-4.51,4.62-11.71,1.69-11.97-3.46-.1-1.96.87-3.23,1.34-3.84,2.52-2.65,6.22-3.07,9.45-1.07.7.53,2.82,2.16,2.58,5.13"/>
          <path class="cls-2" d="M239.77,339.28c-.18,1.43-.92,2.3-1.4,2.87-4.26,4.14-10.73,1.73-10.79-2.76-.03-1.72.91-2.86,1.35-3.4,2.39-2.39,5.8-2.84,8.68-1.15.62.45,2.49,1.83,2.16,4.44"/>
          <path class="cls-2" d="M256.84,350.52c-.24,1.23-.96,2.03-1.4,2.5-3.99,3.65-9.58,1.74-9.4-2.1.07-1.48.95-2.48,1.38-2.96,2.25-2.12,5.29-2.59,7.75-1.21.52.37,2.11,1.51,1.67,3.77"/>
          <path class="cls-2" d="M272.28,360.54c-.29,1.03-.97,1.71-1.37,2.11-3.63,3.11-8.24,1.68-7.82-1.51.16-1.23.98-2.08,1.38-2.49,2.05-1.81,4.66-2.28,6.66-1.19.42.3,1.68,1.2,1.15,3.08"/>
          <path class="cls-2" d="M285.79,369.41c-.33.83-.94,1.38-1.3,1.72-3.1,2.48-6.52,1.69-6.21-.72.14-1.12,1.02-1.95,1.39-2.3,1.82-1.5,3.97-1.94,5.47-1.12.31.23,1.25.91.65,2.42"/>
          <path class="cls-2" d="M297.08,377.17c-.34.63-.86,1.07-1.17,1.33-2.45,1.83-4.88,1.45-4.62-.18.15-.94,1.07-1.72,1.37-1.98,1.55-1.18,3.21-1.57,4.23-.99.2.16.82.66.19,1.82"/>
          <path class="cls-2" d="M305.47,383.95c-.31.44-.71.75-.95.93-1.7,1.2-3.08,1.13-2.98.24.04-.33.28-.89,1.24-1.65,1.16-.83,2.28-1.13,2.84-.76.1.11.42.43-.15,1.23"/>
          <path class="cls-2" d="M310.8,389.86c-.23.25-.49.43-.64.54-1.01.66-1.68.68-1.57.25.03-.13.19-.48.93-1.01.72-.48,1.34-.67,1.56-.47.04.06.14.23-.28.69"/>
          <path class="cls-2" d="M313.12,394.98c-.07.06-.14.1-.21.15-.28.17-.43.19-.41.11,0-.01.04-.12.35-.31.22-.13.38-.19.41-.14,0,.02,0,.06-.14.19"/>
          <path class="cls-2" d="M122.05,13.82c-.18.08-.37.16-.56.23-.09.03-.17.08-.27.09.04-.09,1.27-.66,1.97-.93.15-.06.22-.08.27-.09,0,.03-.02.04-.38.22-.32.16-.67.32-1.03.47"/>
          <path class="cls-2" d="M105.94,22.89c-.55.3-.88.46-1.02.53-.31.15-.41.19-.5.21,0,0-.01-.01-.02-.02.19-.23,2.15-1.4,3.53-2.07.27-.13.41-.18.51-.2,0,0,.01.01.02.02-.06.08-.23.19-.66.46-.56.34-1.19.7-1.85,1.06"/>
          <path class="cls-2" d="M90.82,33.63c-.75.49-1.16.73-1.4.87-.49.27-.67.36-.76.35.05-.33,2.79-2.32,4.65-3.38.41-.22.66-.34.77-.33,0,.08-.01.15-.8.76-.27.21-1.11.84-2.46,1.73"/>
          <path class="cls-2" d="M77.12,45.96c-.9.7-1.39,1.04-1.72,1.26-.7.45-.96.57-1.05.48.01-.5,2.99-3.21,5.45-4.81.69-.43.96-.54,1.06-.45,0,.16-.22.43-.85,1.05-.84.8-1.81,1.63-2.88,2.47"/>
          <path class="cls-2" d="M65.27,59.73c-.99.92-1.57,1.36-1.95,1.65-.36.26-1.48,1.06-1.37.47.15-.81,2.99-4.06,5.76-6.08.37-.25,1.48-1.02,1.37-.45-.06.3-.49.86-.75,1.2-.85,1.04-1.88,2.12-3.06,3.22"/>
          <path class="cls-2" d="M55.65,74.86c-1.05,1.14-1.71,1.7-2.14,2.07-1.57,1.23-1.84.92-1.79.45.12-1.17,2.76-4.97,5.79-7.43,1.57-1.18,1.83-.89,1.78-.43-.05.39-.38,1-.57,1.32-.79,1.3-1.82,2.66-3.07,4.02"/>
          <path class="cls-2" d="M48.59,91.19c-1.05,1.36-1.77,2.02-2.25,2.46-2.42,2.03-2.38.55-2.31.04.22-1.64,2.4-5.59,5.44-8.3,2.39-1.94,2.34-.52,2.27-.04-.05.35-.2.77-.31,1.07-.64,1.55-1.6,3.15-2.85,4.77"/>
          <path class="cls-2" d="M44.41,108.56c-1.01,1.56-1.78,2.32-2.29,2.83-3.06,2.72-3.07.03-3.06-.29.05-1.91,1.79-6.15,4.89-9.14,2.94-2.53,3.01-.22,2.99.27,0,.26-.07.61-.11.86-.41,1.77-1.22,3.61-2.42,5.46"/>
          <path class="cls-2" d="M43.35,126.84c-.94,1.74-1.75,2.6-2.29,3.17-3.03,2.82-4.08.8-4.05-1.24.03-2,1.19-6.11,4.23-9.23,2.37-2.14,3.88-1.68,3.95,1.21-.1,1.97-.72,4.02-1.84,6.09"/>
          <path class="cls-2" d="M45.57,145.83c-.84,1.91-1.68,2.86-2.24,3.49-3.5,3.4-5.33.72-5.32-2.51,0-.51.12-5.1,3.59-8.87,2.54-2.38,4.5-1.9,5.12,1.24.23,2.14-.16,4.38-1.16,6.65"/>
          <path class="cls-2" d="M50.78,165.18c-.72,2.05-1.57,3.09-2.14,3.77-3.63,3.74-6.67.99-6.61-3.88.02-1.73.44-5.08,3.02-8.1,2.63-2.61,4.99-2.18,6.15,1.13.57,2.25.43,4.64-.43,7.08"/>
          <path class="cls-2" d="M58.83,184.72c-.58,2.16-1.44,3.27-2,4-4.13,4.47-7.84.36-7.99-4.59-.06-2.02.33-5.01,2.55-7.79,2.69-2.82,5.42-2.44,7.13.97.91,2.34,1.02,4.83.32,7.4"/>
          <path class="cls-2" d="M69.54,204.29c-.45,2.24-1.3,3.42-1.86,4.19-4.13,4.68-9.05.9-9.39-5.29-.23-4.14,1.57-6.54,2.16-7.33,2.73-3,5.82-2.7,8.05.8,1.23,2.39,1.58,4.95,1.04,7.63"/>
          <path class="cls-2" d="M82.61,223.73c-.33,2.29-1.16,3.5-1.71,4.31-4.34,5.11-10.23.72-10.65-5.91-.24-3.74,1.34-5.97,1.85-6.7,2.7-3.09,6.15-2.87,8.81.57.57.89,2.29,3.6,1.71,7.73"/>
          <path class="cls-2" d="M97.79,242.92c-.21,2.31-1.03,3.56-1.57,4.38-4.3,5.24-10.85.98-11.71-5.65-.49-3.76,1.05-6.05,1.55-6.8,2.69-3.2,6.4-3.07,9.45.33.66.88,2.66,3.57,2.28,7.74"/>
          <path class="cls-2" d="M114.69,261.72c-.12,2.29-.92,3.54-1.45,4.36-4.44,5.47-11.85.81-12.59-6.08-.35-3.26.88-5.17,1.41-5.99,2.66-3.26,6.54-3.23,9.89.08.73.86,2.95,3.48,2.74,7.63"/>
          <path class="cls-2" d="M132.92,279.71c-.06,2.18-.84,3.37-1.35,4.16-4.63,5.57-12.7.59-13.16-6.28-.17-2.64.84-4.21,1.33-4.96,2.62-3.2,6.61-3.26,10.15-.15,2.08,2.18,3.1,4.61,3.03,7.23"/>
          <path class="cls-2" d="M152.03,296.58c-.02,2.04-.79,3.18-1.3,3.93-4.53,5.28-12.73.79-13.33-5.61-.23-2.47.76-3.97,1.23-4.69,2.58-3.07,6.6-3.2,10.23-.35,2.13,2,3.19,4.26,3.16,6.72"/>
          <path class="cls-2" d="M171.51,312.26c-.02,1.88-.77,2.94-1.27,3.65-4.71,5.26-13.09.67-13.13-5.55,0-1.89.73-2.97,1.22-3.69,2.52-2.89,6.46-3.1,10.05-.54,2.1,1.8,3.15,3.86,3.13,6.13"/>
          <path class="cls-2" d="M190.94,326.71c-.04,1.71-.78,2.69-1.26,3.34-4.56,4.85-12.57.87-12.56-4.76,0-1.72.72-2.72,1.2-3.38,2.45-2.69,6.25-2.96,9.69-.71.75.59,3.02,2.39,2.94,5.51"/>
          <path class="cls-2" d="M209.9,339.92c-.09,1.53-.81,2.42-1.28,3.02-4.4,4.42-11.83,1.04-11.69-3.97.04-1.54.75-2.45,1.21-3.06,2.37-2.46,5.96-2.8,9.14-.86.69.51,2.78,2.08,2.62,4.87"/>
          <path class="cls-2" d="M227.91,351.87c-.15,1.34-.84,2.13-1.3,2.66-4.17,3.93-10.81,1.15-10.49-3.21.1-1.35.77-2.16,1.22-2.7,2.26-2.21,5.55-2.58,8.38-.95.61.43,2.45,1.75,2.18,4.19"/>
          <path class="cls-2" d="M244.64,362.57c-.21,1.14-.9,1.87-1.31,2.3-3.77,3.31-9.2,1.47-9.11-2.08.03-1.37.87-2.29,1.27-2.73,2.13-1.94,5.06-2.34,7.47-1.01.51.35,2.06,1.43,1.68,3.52"/>
          <path class="cls-2" d="M259.68,372.04c-.27.94-.91,1.56-1.29,1.92-3.44,2.8-7.89,1.42-7.54-1.49.13-1.13.91-1.9,1.29-2.27,1.95-1.65,4.47-2.04,6.4-1.01.4.28,1.64,1.13,1.15,2.85"/>
          <path class="cls-2" d="M272.75,380.34c-.31.75-.89,1.25-1.24,1.55-2.95,2.21-6.23,1.45-5.95-.73.13-1.02.96-1.76,1.31-2.08,1.74-1.34,3.8-1.72,5.25-.95.3.21,1.2.85.63,2.22"/>
          <path class="cls-2" d="M283.6,387.49c-.33.56-.83.95-1.13,1.18-2.39,1.64-4.68,1.28-4.43-.21.14-.84,1.02-1.54,1.31-1.77,1.48-1.04,3.07-1.38,4.07-.85.2.15.8.6.19,1.64"/>
          <path class="cls-2" d="M291.83,393.6c-.31.39-.7.66-.93.82-1.72,1.09-3.13.96-2.89.08.11-.4.51-.85,1.19-1.33,1.13-.73,2.23-.99,2.78-.66.1.1.41.38-.15,1.09"/>
          <path class="cls-2" d="M296.97,398.79c-.23.22-.48.37-.63.46-1,.58-1.64.59-1.53.22.04-.14.22-.43.92-.87.71-.42,1.31-.58,1.52-.41.03.05.13.2-.28.6"/>
          <path class="cls-2" d="M299.06,403.16c-.07.05-.13.09-.2.13-.28.15-.42.16-.4.1,0,0,.05-.1.34-.26.22-.12.37-.16.4-.12,0,.01,0,.05-.14.16"/>
          <path class="cls-2" d="M111.74,18.43c-.17.09-.33.18-.5.27-.07.03-.13.07-.2.1.09-.07,1.33-.75,1.92-1.06.07-.03.13-.07.2-.1-.12.11-.28.17-.42.25-.33.18-.66.36-.99.54"/>
          <path class="cls-2" d="M95.46,28.55c-.31.2-.61.4-.92.59-.27.17-.35.21-.4.23.07-.11,2.2-1.55,3.43-2.3.24-.14.34-.2.4-.23-.01.03-.02.05-.73.53-.59.4-1.19.79-1.78,1.17"/>
          <path class="cls-2" d="M80.21,40.28c-.7.54-1.04.78-1.27.95-.38.27-.5.35-.59.38v-.03c.29-.37,2.72-2.39,4.51-3.64.33-.23.49-.33.59-.36v.03c-.1.13-.32.33-.89.8-.72.59-1.52,1.23-2.36,1.87"/>
          <path class="cls-2" d="M66.41,53.55c-.83.75-1.25,1.09-1.56,1.34-.54.42-.74.56-.83.54-.06-.31,3.01-3.41,5.24-5.17.46-.35.73-.53.84-.52.03.12-.33.54-.93,1.16-.83.85-1.76,1.74-2.76,2.64"/>
          <path class="cls-2" d="M54.49,68.2c-.92.97-1.43,1.43-1.76,1.74-.64.55-.89.72-1.07.71-.32-.38,2.85-4.35,5.48-6.65.31-.26,1.15-.96,1.11-.57-.03.28-.59,1.05-.83,1.37-.84,1.1-1.83,2.25-2.92,3.41"/>
          <path class="cls-2" d="M44.81,84.16c-.96,1.2-1.54,1.77-1.93,2.15-.37.34-1.49,1.39-1.47.62.03-1.04,2.7-5.28,5.48-7.96.37-.33,1.49-1.34,1.46-.6-.02.4-.4,1.13-.64,1.56-.78,1.37-1.76,2.79-2.91,4.21"/>
          <path class="cls-2" d="M37.71,101.24c-.96,1.41-1.59,2.09-2.02,2.54-1.54,1.52-1.91,1.15-1.94.56-.09-1.44,2.16-6.12,5.09-9.17,1.53-1.46,1.89-1.1,1.92-.53.03.48-.23,1.24-.37,1.64-.63,1.62-1.53,3.29-2.67,4.96"/>
          <path class="cls-2" d="M33.47,119.32c-.91,1.61-1.6,2.39-2.05,2.91-2.33,2.41-2.58.65-2.6.05-.07-1.94,1.59-6.62,4.46-9.84,2.3-2.31,2.54-.62,2.55-.05,0,.42-.07.91-.13,1.27-.4,1.84-1.16,3.74-2.24,5.65"/>
          <path class="cls-2" d="M32.32,138.23c-.84,1.79-1.56,2.66-2.03,3.24-2.61,2.8-3.45.71-3.53-.79-.11-2.17.98-6.72,3.76-10.03,2.55-2.67,3.37-.77,3.45.77v.53c-.1,2.04-.66,4.15-1.66,6.27"/>
          <path class="cls-2" d="M34.47,157.83c-.74,1.95-1.49,2.91-1.99,3.55-2.98,3.26-4.59.79-4.79-2-.14-2,.36-6.3,3.09-9.73,2.24-2.41,4.02-1.9,4.63,1.35.25,2.21-.07,4.51-.95,6.83"/>
          <path class="cls-2" d="M39.81,177.81c-.61,2.08-1.37,3.12-1.88,3.81-3.38,3.87-5.89.65-6.2-3.37-.09-1.2-.18-5.39,2.53-8.97,2.37-2.62,4.58-2.13,5.75,1.29.59,2.32.53,4.76-.2,7.24"/>
          <path class="cls-2" d="M48.01,197.91c-.48,2.18-1.24,3.29-1.75,4.03-3.77,4.52-7.33.32-7.65-4.83-.13-2.06.13-5.1,2.1-7.88,2.43-2.82,5.01-2.38,6.74,1.14.94,2.4,1.12,4.94.55,7.54"/>
          <path class="cls-2" d="M58.88,217.96c-.34,2.26-1.1,3.43-1.6,4.2-3.96,4.95-8.56.17-9.08-5.52-.39-4.2,1.21-6.6,1.74-7.39,2.43-2.95,5.44-2.57,7.66.96,1.26,2.44,1.69,5.05,1.28,7.75"/>
          <path class="cls-2" d="M72.12,237.8c-.22,2.3-.96,3.51-1.45,4.3-3.89,5.05-9.68.52-10.38-6.13-.39-3.77,1.01-5.99,1.47-6.72,2.44-3.08,5.74-2.79,8.42.73.58.91,2.33,3.67,1.94,7.81"/>
          <path class="cls-2" d="M87.46,257.31c-.11,2.3-.83,3.52-1.31,4.32-4.06,5.32-10.84.33-11.53-6.64-.33-3.29.8-5.17,1.28-5.97,2.43-3.17,5.99-2.98,9.06.49,1.79,2.4,2.64,5.02,2.51,7.8"/>
          <path class="cls-2" d="M104.47,276.04c-.02,2.2-.73,3.38-1.2,4.16-4,5.14-11.29.5-12.31-6.12-.49-3.14.61-4.98,1.08-5.76,2.41-3.13,6.14-3.03,9.5.27,1.98,2.29,2.97,4.8,2.94,7.45"/>
          <path class="cls-2" d="M122.73,293.67c.03,2.08-.67,3.21-1.13,3.95-4.19,5.21-12.14.29-12.88-6.27-.29-2.53.62-4.02,1.05-4.73,2.38-3.02,6.21-3,9.76.05,2.09,2.13,3.17,4.48,3.21,6.99"/>
          <path class="cls-2" d="M141.79,310.13c.06,1.94-.63,3.01-1.09,3.71-4.4,5.25-12.8.17-13.09-6.27-.09-1.96.59-3.04,1.04-3.76,2.35-2.88,6.21-2.93,9.83-.14,2.13,1.94,3.24,4.11,3.31,6.46"/>
          <path class="cls-2" d="M161.16,325.35c.05,1.78-.63,2.77-1.08,3.43-4.29,4.87-12.53.39-12.83-5.48-.09-1.8.57-2.81,1.01-3.47,2.31-2.7,6.1-2.83,9.66-.34,2.09,1.74,3.18,3.71,3.24,5.86"/>
          <path class="cls-2" d="M180.41,339.32c.02,1.61-.65,2.52-1.09,3.12-4.17,4.46-12.02.59-12.25-4.68-.07-1.62.58-2.55,1.01-3.17,2.25-2.5,5.9-2.7,9.3-.51.74.57,2.99,2.3,3.02,5.24"/>
          <path class="cls-2" d="M199.11,352.01c-.03,1.43-.69,2.25-1.13,2.8-4.04,4.04-11.3.77-11.36-3.9-.02-1.44.62-2.28,1.04-2.84,2.19-2.28,5.63-2.54,8.76-.66.68.49,2.75,1.99,2.68,4.6"/>
          <path class="cls-2" d="M216.81,363.4c-.1,1.24-.74,1.96-1.16,2.45-3.84,3.56-10.3.89-10.16-3.13.04-1.25.66-1.99,1.07-2.48,2.1-2.02,5.24-2.32,8.02-.76.59.41,2.4,1.66,2.22,3.92"/>
          <path class="cls-2" d="M233.16,373.53c-.17,1.05-.81,1.7-1.19,2.09-3.72,3.16-9.15,1.06-8.76-2.41.12-1.06.71-1.7,1.1-2.13,1.98-1.76,4.78-2.08,7.13-.83.5.33,2.02,1.35,1.71,3.27"/>
          <path class="cls-2" d="M247.79,382.4c-.23.85-.83,1.4-1.19,1.73-3.19,2.48-7.47,1.17-7.23-1.45.1-1.02.82-1.72,1.16-2.05,1.82-1.48,4.21-1.8,6.09-.84.39.26,1.59,1.05,1.16,2.62"/>
          <path class="cls-2" d="M260.41,390.06c-.28.67-.83,1.11-1.15,1.37-2.74,1.93-5.87,1.21-5.67-.73.1-.91.87-1.57,1.2-1.85,1.63-1.19,3.58-1.5,4.98-.79.29.19,1.16.78.63,2.01"/>
          <path class="cls-2" d="M270.77,396.56c-.31.49-.78.83-1.06,1.03-2.24,1.41-4.4,1.07-4.18-.23.13-.74.95-1.35,1.21-1.55,1.39-.91,2.9-1.19,3.84-.71.19.13.76.54.19,1.45"/>
          <path class="cls-2" d="M278.62,401.97c-.29.33-.67.56-.89.7-1.67.94-3,.83-2.77.05.1-.35.48-.73,1.13-1.15,1.08-.63,2.13-.84,2.67-.55.1.08.4.34-.14.94"/>
          <path class="cls-2" d="M283.54,406.4c-.22.18-.46.31-.61.39-.96.48-1.57.5-1.46.18.03-.09.19-.34.89-.73.68-.35,1.25-.48,1.46-.34.03.04.13.17-.28.5"/>
          <path class="cls-2" d="M285.35,409.97c-.06.04-.13.07-.2.1-.26.11-.39.13-.38.09,0-.02.08-.1.34-.22.21-.09.36-.13.38-.1,0,.01,0,.04-.14.13"/>
          <path class="cls-2" d="M71.06,47.48c-.38.34-.75.68-1.12,1.02l-.1.09.38-.35,4.11-3.67c-.34.3-.67.59-1.01.89-.76.67-1.51,1.34-2.26,2.02"/>
          <path class="cls-2" d="M57.14,61.63c-.46.48-.91.95-1.38,1.43-.4.4-.53.52-.61.58.05-.22,3.19-3.65,5.05-5.5.35-.34.52-.5.62-.56,0,.05-.02.1-1.05,1.24-.29.32-1.19,1.3-2.63,2.81"/>
          <path class="cls-2" d="M45.13,77.11c-.83,1.02-1.27,1.5-1.56,1.82-.45.48-.63.67-.8.75,0-.01-.03-.03-.04-.05.21-.72,3.12-4.64,5.27-6.96.42-.44.63-.64.8-.72,0,.01.03.03.04.04-.06.23-.3.62-.95,1.52-.83,1.15-1.76,2.36-2.77,3.59"/>
          <path class="cls-2" d="M35.37,93.84c-.87,1.25-1.36,1.85-1.69,2.24-.55.63-.86.94-1.08.93-.39-.46,2.55-5.59,5.11-8.59.31-.34,1.12-1.24,1.12-.75,0,.36-.51,1.35-.73,1.77-.78,1.43-1.7,2.91-2.74,4.4"/>
          <path class="cls-2" d="M28.21,111.63c-.86,1.46-1.4,2.16-1.76,2.63-.35.42-1.42,1.71-1.52.78-.14-1.25,2.08-6.43,4.68-9.72.35-.41,1.41-1.65,1.51-.74.05.49-.25,1.38-.43,1.91-.63,1.68-1.46,3.41-2.48,5.15"/>
          <path class="cls-2" d="M23.9,130.35c-.8,1.65-1.38,2.46-1.77,2.99-1.67,2.09-2.03,1.13-2.09.38-.17-2.08,1.56-7.22,3.98-10.49,1.66-2.02,2-1.09,2.06-.36.04.53-.05,1.07-.14,1.65-.4,1.9-1.08,3.87-2.04,5.84"/>
          <path class="cls-2" d="M22.67,149.85c-.72,1.83-1.33,2.72-1.74,3.32-2.42,3.11-2.87.26-2.93-.35-.24-2.26.74-7.26,3.2-10.78,2.39-3,2.82-.24,2.88.35.03.31.03.72.04,1.03-.1,2.1-.59,4.26-1.45,6.44"/>
          <path class="cls-2" d="M24.7,169.96c-.61,1.98-1.25,2.96-1.68,3.61-2.44,3.18-3.79.88-4.1-1.45-.31-2.29.1-7,2.47-10.57,1.92-2.46,3.46-1.91,4.04,1.43.24,2.27,0,4.62-.73,6.98"/>
          <path class="cls-2" d="M30.05,190.48c-.49,2.11-1.14,3.16-1.58,3.85-2.8,3.7-5.05.73-5.61-2.83-.09-.57-.78-5.68,1.89-9.85,2.01-2.61,4.07-2.04,5.24,1.44.62,2.39.64,4.87.05,7.39"/>
          <path class="cls-2" d="M38.38,211.08c-.35,2.2-1.01,3.32-1.44,4.05-3.09,4.26-6.4.42-7.13-4.25-.29-1.88-.48-5.51,1.49-8.76,2.09-2.78,4.54-2.27,6.25,1.29.36.91,1.45,3.7.82,7.67"/>
          <path class="cls-2" d="M49.41,231.57c-.22,2.27-.86,3.44-1.29,4.21-3.3,4.71-7.54.4-8.56-4.91-.41-2.15-.56-5.33,1.12-8.26,2.12-2.94,4.94-2.51,7.18,1.11.48.93,1.94,3.74,1.55,7.85"/>
          <path class="cls-2" d="M62.81,251.76c-.09,2.29-.72,3.47-1.14,4.25-3.42,4.96-8.66.21-9.87-5.46-.61-2.83-.32-5.37.86-7.54,2.13-3.06,5.24-2.71,7.94.88,1.57,2.47,2.32,5.12,2.21,7.88"/>
          <path class="cls-2" d="M78.28,271.2c.02,2.22-.6,3.37-1.02,4.13-3.52,5-10.17.04-11.2-6.67-.49-3.18.47-4.98.88-5.75,2.13-3.05,5.49-2.79,8.57.67,1.82,2.38,2.75,4.94,2.77,7.61"/>
          <path class="cls-2" d="M95.36,289.58c.09,2.11-.52,3.22-.92,3.96-3.7,5.1-11.2-.21-12.09-6.88-.34-2.58.45-4.04.83-4.75,2.11-2.96,5.65-2.78,9.01.47,1.99,2.24,3.06,4.67,3.17,7.21"/>
          <path class="cls-2" d="M113.62,306.81c.14,1.98-.47,3.04-.87,3.74-3.67,4.85-11.48.01-12.54-6.23-.41-2.42.36-3.82.73-4.5,2.1-2.84,5.74-2.74,9.27.26,2.09,2.07,3.24,4.33,3.41,6.73"/>
          <path class="cls-2" d="M132.6,322.81c.15,1.84-.45,2.84-.84,3.49-3.88,4.86-12.13-.11-12.76-6.19-.19-1.86.39-2.88.78-3.55,2.08-2.69,5.75-2.67,9.35.06,2.12,1.88,3.29,3.96,3.47,6.19"/>
          <path class="cls-2" d="M151.82,337.54c.14,1.68-.46,2.6-.85,3.21-3.8,4.48-11.87.12-12.48-5.39-.19-1.7.39-2.64.77-3.26,2.05-2.51,5.66-2.57,9.18-.15,2.08,1.68,3.21,3.56,3.38,5.58"/>
          <path class="cls-2" d="M170.85,350.98c.1,1.5-.49,2.34-.88,2.9-3.95,4.33-11.96-.11-11.91-5.11,0-1.21.52-1.97.82-2.42,2.02-2.31,5.49-2.43,8.84-.32.73.55,2.96,2.21,3.13,4.96"/>
          <path class="cls-2" d="M189.28,363.09c.04,1.32-.55,2.08-.93,2.57-3.84,3.88-11.21.13-10.99-4.26.05-1.07.55-1.75.85-2.16,1.97-2.08,5.23-2.27,8.31-.48.67.47,2.71,1.89,2.77,4.32"/>
          <path class="cls-2" d="M206.64,373.89c-.04,1.13-.61,1.79-.98,2.23-3.56,3.28-9.71.75-9.79-3.02-.02-1.15.53-1.83.89-2.27,1.89-1.83,4.87-2.06,7.59-.58.58.39,2.36,1.57,2.29,3.64"/>
          <path class="cls-2" d="M222.61,383.38c-.12.95-.69,1.53-1.03,1.88-3.36,2.8-8.59.82-8.39-2.31.06-.96.59-1.54.94-1.92,1.8-1.58,4.44-1.83,6.73-.65.49.31,1.97,1.26,1.76,3"/>
          <path class="cls-2" d="M236.8,391.59c-.19.76-.73,1.24-1.05,1.53-3.09,2.31-7.31.84-6.84-1.67.14-.77.65-1.25.98-1.56,1.66-1.31,3.91-1.57,5.73-.67.38.24,1.54.97,1.19,2.37"/>
          <path class="cls-2" d="M248.95,398.57c-.25.58-.74.96-1.04,1.19-2.65,1.75-5.7.91-5.31-.91.15-.7.75-1.19,1.04-1.42,1.49-1.03,3.32-1.29,4.66-.64.27.17,1.11.7.66,1.78"/>
          <path class="cls-2" d="M258.81,404.36c-.28.42-.71.71-.97.88-2.14,1.24-4.24.83-3.86-.38.18-.58.8-1,1.06-1.18,1.28-.77,2.68-1,3.57-.57.18.12.71.48.2,1.26"/>
          <path class="cls-2" d="M266.13,409.03c-.27.28-.62.47-.82.58-1.54.77-2.76.67-2.55.03.1-.29.45-.61,1.04-.95,1-.52,1.97-.69,2.47-.45.09.07.37.28-.13.79"/>
          <path class="cls-2" d="M270.72,412.66c-.21.14-.44.25-.57.31-.9.39-1.47.4-1.36.15.03-.07.18-.27.84-.58.64-.28,1.18-.39,1.37-.28.03.03.12.14-.27.4"/>
          <path class="cls-2" d="M272.23,415.37c-.06.03-.13.05-.19.08-.24.09-.36.1-.35.07,0-.02.08-.07.33-.17.2-.07.34-.1.35-.08,0,0,0,.03-.14.09"/>
          <path class="cls-2" d="M37.3,86.47c-.44.64-.89,1.28-1.33,1.91-.19.26-.36.54-.57.79.1-.2.23-.37.35-.55l4.42-6.42c.08-.11.18-.25.26-.36.34-.46.49-.67.57-.76-.03.08-.12.23-1.09,1.64-.86,1.26-1.73,2.51-2.6,3.76"/>
          <path class="cls-2" d="M27.46,103.91c-.77,1.3-1.19,1.94-1.44,2.33-.42.62-.59.86-.75.97-.01-.02-.03-.04-.04-.06.17-.88,2.84-5.89,4.84-8.88.39-.57.58-.82.74-.93.01.02.03.04.04.05-.05.29-.27.78-.86,1.93-.77,1.48-1.62,3.02-2.54,4.58"/>
          <path class="cls-2" d="M20.23,122.35c-.74,1.5-1.19,2.23-1.48,2.72-.49.76-.78,1.14-1.02,1.13-.51-.58,2.07-6.98,4.19-10.39.28-.42,1.01-1.52,1.09-.92.06.43-.35,1.63-.52,2.14-.62,1.73-1.38,3.53-2.27,5.33"/>
          <path class="cls-2" d="M15.86,141.67c-.68,1.7-1.15,2.52-1.47,3.07-.31.49-1.26,1.99-1.52.92-.36-1.44,1.17-7.46,3.43-11.33.31-.48,1.25-1.93,1.51-.88.14.57-.03,1.6-.14,2.22-.39,1.96-1,3.98-1.81,6.01"/>
          <path class="cls-2" d="M14.56,161.69c-.59,1.87-1.09,2.78-1.41,3.38-1.47,2.37-2.02,1.31-2.22.46-.55-2.33.46-8.14,2.52-11.87,1.45-2.3,1.99-1.26,2.19-.44.14.6.14,1.22.14,1.87-.1,2.15-.51,4.37-1.21,6.6"/>
          <path class="cls-2" d="M16.49,182.26c-.48,2.02-.99,3.01-1.33,3.67-2.11,3.44-3.06.31-3.23-.35-.64-2.48-.42-8.01,1.65-11.92,2.08-3.34,3.02-.29,3.19.36.09.33.16.79.21,1.13.24,2.32.08,4.71-.49,7.12"/>
          <path class="cls-2" d="M21.73,203.19c-.34,2.13-.88,3.19-1.23,3.89-2.18,3.55-4.1.85-4.77-2.19-.48-2.2-.79-6.94,1.12-10.71,1.66-2.68,3.4-2.1,4.56,1.5.62,2.44.73,4.97.32,7.51"/>
          <path class="cls-2" d="M30.17,224.25c-.2,2.22-.74,3.33-1.09,4.07-2.46,4.09-5.41.63-6.43-3.65-.31-1.29-1.17-5.81.71-9.64,1.73-2.78,3.96-2.22,5.69,1.43.37.93,1.49,3.77,1.12,7.78"/>
          <path class="cls-2" d="M41.34,245.11c-.07,2.27-.59,3.41-.94,4.17-2.72,4.58-6.83.21-8.07-5.07-.51-2.16-.83-5.35.52-8.27,1.76-2.94,4.36-2.45,6.62,1.25,1.32,2.53,1.94,5.19,1.86,7.92"/>
          <path class="cls-2" d="M54.89,265.24c.05,2.21-.46,3.33-.8,4.07-2.83,4.68-7.94-.05-9.41-5.54-1.11-4.14-.04-6.51.32-7.29,1.77-2.94,4.67-2.53,7.37,1.05,1.6,2.45,2.45,5.05,2.51,7.71"/>
          <path class="cls-2" d="M70.44,284.35c.15,2.13-.35,3.22-.69,3.94-3,4.8-9.37-.07-10.8-6.68-.66-3.07.11-4.78.44-5.51,1.78-2.89,4.92-2.55,8.01.86,1.83,2.33,2.86,4.82,3.04,7.38"/>
          <path class="cls-2" d="M87.54,302.34c.22,2.02-.28,3.06-.61,3.76-3.11,4.77-10.44-.46-11.71-6.84-.49-2.48.15-3.86.46-4.53,1.78-2.79,5.1-2.53,8.45.65,2,2.18,3.15,4.53,3.41,6.96"/>
          <path class="cls-2" d="M105.75,319.12c.25,1.88-.24,2.87-.57,3.53-3.32,4.82-11.31-.6-12.27-6.84-.29-1.91.19-2.92.51-3.59,1.78-2.66,5.2-2.49,8.71.44,2.09,2.01,3.31,4.19,3.62,6.46"/>
          <path class="cls-2" d="M124.62,334.63c.26,1.74-.24,2.66-.56,3.28-3.3,4.49-11.37-.36-12.38-6.08-.31-1.76.17-2.71.49-3.34,1.78-2.51,5.23-2.42,8.8.24,2.11,1.82,3.34,3.8,3.66,5.91"/>
          <path class="cls-2" d="M143.66,348.82c.24,1.57-.26,2.42-.59,2.98-3.46,4.36-11.74-.6-12.16-5.82-.1-1.26.32-2.03.57-2.49,1.76-2.32,5.15-2.31,8.64.03,2.06,1.61,3.25,3.39,3.53,5.3"/>
          <path class="cls-2" d="M162.45,361.68c.19,1.4-.31,2.16-.64,2.67-3.4,3.92-11.24-.33-11.53-4.95-.07-1.13.35-1.82.6-2.24,1.74-2.12,5-2.17,8.3-.15,1.94,1.4,3.04,2.96,3.27,4.66"/>
          <path class="cls-2" d="M180.57,373.18c.12,1.21-.38,1.9-.71,2.35-3.33,3.48-10.5-.08-10.61-4.09-.03-.99.39-1.6.65-1.97,1.71-1.89,4.77-2.01,7.79-.3.66.44,2.67,1.79,2.88,4.02"/>
          <path class="cls-2" d="M197.59,383.32c.04,1.03-.46,1.62-.78,2.01-3.27,3.06-9.51.26-9.39-3.26.03-.84.45-1.37.69-1.69,1.66-1.65,4.45-1.8,7.1-.41.57.36,2.31,1.46,2.38,3.35"/>
          <path class="cls-2" d="M213.15,392.13c-.05.85-.53,1.34-.85,1.67-3.1,2.57-8.36.39-7.98-2.49.09-.69.5-1.14.74-1.41,1.59-1.39,4.04-1.58,6.27-.48.47.29,1.92,1.16,1.83,2.72"/>
          <path class="cls-2" d="M226.91,399.62c-.13.67-.61,1.08-.9,1.33-2.73,1.97-6.75.62-6.47-1.56.08-.68.52-1.09.81-1.36,1.48-1.13,3.56-1.34,5.31-.52.37.22,1.49.88,1.24,2.1"/>
          <path class="cls-2" d="M238.57,405.85c-.2.5-.64.82-.9,1.01-2.35,1.46-5.23.71-4.97-.84.1-.6.63-1.01.88-1.21,1.33-.88,3.02-1.07,4.3-.5.26.15,1.06.62.69,1.55"/>
          <path class="cls-2" d="M247.91,410.87c-.24.35-.63.58-.86.72-1.91,1.01-3.86.65-3.56-.35.14-.48.69-.83.93-.98,1.15-.64,2.43-.81,3.27-.44.17.1.67.41.23,1.05"/>
          <path class="cls-2" d="M254.69,414.73c-.25.22-.56.37-.74.46-1.38.6-2.49.51-2.31.01.08-.23.4-.48.93-.75.91-.41,1.78-.55,2.24-.34.08.06.34.23-.12.63"/>
          <path class="cls-2" d="M258.75,417.52c-.19.11-.41.19-.52.23-.82.29-1.34.3-1.23.12.03-.05.17-.2.77-.43.59-.21,1.08-.3,1.24-.21.02.02.1.1-.26.3"/>
          <path class="cls-2" d="M259.91,419.33c-.06.02-.12.04-.18.05-.17.05-.29.07-.32.06h0s.14-.06.31-.11c.19-.05.31-.07.32-.06,0,.01-.05.03-.14.06"/>
          <path class="cls-2" d="M21.18,114.38c-.39.81-.78,1.61-1.17,2.42-.14.29-.28.58-.41.87,1.46-3.03,3.4-7.08,4.94-10.07-.35.67-.68,1.35-1.02,2.03-.78,1.56-1.36,2.74-2.34,4.75"/>
          <path class="cls-2" d="M13.9,133.42c-.62,1.55-.94,2.27-1.18,2.8-.35.75-.49,1.04-.64,1.17-.27-.36,2.28-7.33,3.83-10.71.33-.69.49-1,.63-1.13.06.08.13.17-.6,2.38-.61,1.78-1.29,3.62-2.04,5.49"/>
          <path class="cls-2" d="M9.48,153.27c-.55,1.74-.91,2.59-1.14,3.15-.24.52-.73,1.61-.96,1.25-.44-.7.98-7.52,2.88-11.93.23-.48.83-1.77,1-1.09.13.5-.11,1.87-.21,2.46-.38,2.01-.91,4.08-1.57,6.16"/>
          <path class="cls-2" d="M8.14,173.77c-.45,1.91-.82,2.84-1.06,3.45-.25.56-1.01,2.25-1.48,1.06-.62-1.59.02-8.34,1.79-12.72.25-.54,1.01-2.2,1.46-1.03.25.64.24,1.8.23,2.5-.09,2.2-.41,4.46-.94,6.74"/>
          <path class="cls-2" d="M10,194.74c-.32,2.05-.7,3.05-.96,3.72-1.18,2.62-1.94,1.46-2.28.54-.85-2.25-.92-8.72.73-13.04,1.16-2.55,1.92-1.42,2.26-.51.25.66.35,1.33.45,2.05.09.88.38,3.55-.21,7.24"/>
          <path class="cls-2" d="M15.14,216.01c-.19,2.16-.57,3.22-.83,3.93-1.68,3.7-3.16.39-3.44-.31-1.06-2.65-1.7-8.56-.16-12.78,1.66-3.63,3.14-.36,3.42.33.14.35.29.84.4,1.21.23.92.94,3.73.6,7.62"/>
          <path class="cls-2" d="M23.56,237.4c-.04,2.22-.44,3.31-.7,4.03-1.73,3.65-4.12.89-5.27-2.24-.84-2.28-1.87-7.2-.46-11.19,1.3-2.8,3.25-2.21,4.98,1.52,1.01,2.55,1.5,5.2,1.45,7.87"/>
          <path class="cls-2" d="M34.86,258.21c.09,2.19-.29,3.28-.55,4-1.9,3.92-5.52.82-7.25-4.37-.63-1.89-1.52-5.54-.36-8.81,1.36-2.83,3.71-2.28,5.97,1.41,1.34,2.51,2.08,5.12,2.19,7.76"/>
          <path class="cls-2" d="M48.49,278.04c.21,2.13-.17,3.19-.42,3.9-2.12,4.23-6.95.31-8.87-5.59-1.31-4.03-.52-6.28-.26-7.02,1.38-2.79,4.02-2.32,6.74,1.22,1.62,2.41,2.57,4.93,2.82,7.49"/>
          <path class="cls-2" d="M64.08,296.77c.3,2.04-.08,3.07-.33,3.75-2.36,4.5-8.53-.32-10.33-6.66-.85-2.96-.27-4.58-.03-5.27,1.4-2.73,4.29-2.33,7.37,1.02,1.85,2.28,2.96,4.69,3.32,7.15"/>
          <path class="cls-2" d="M81.15,314.33c.35,1.92-.02,2.9-.27,3.55-2.47,4.44-9.6-.7-11.27-6.77-.65-2.37-.18-3.68.05-4.3,1.41-2.62,4.48-2.3,7.82.81,2,2.12,3.24,4.38,3.67,6.71"/>
          <path class="cls-2" d="M99.27,330.62c.38,1.78,0,2.71-.25,3.32-2.65,4.45-10.46-.82-11.86-6.72-.43-1.81-.07-2.76.18-3.39,1.43-2.49,4.6-2.25,8.08.6,2.09,1.95,3.39,4.03,3.85,6.19"/>
          <path class="cls-2" d="M117.99,345.59c.38,1.63,0,2.49-.26,3.06-2.83,4.38-11.16-1.1-12.08-6.52-.22-1.31.1-2.09.3-2.56,1.44-2.33,4.65-2.17,8.18.4,2.1,1.75,3.4,3.64,3.86,5.62"/>
          <path class="cls-2" d="M136.82,359.2c.35,1.46-.04,2.24-.3,2.76-2.83,3.96-10.92-.8-11.76-5.63-.2-1.18.12-1.89.32-2.31,1.44-2.14,4.59-2.06,8.03.19,2.04,1.54,3.29,3.22,3.71,5"/>
          <path class="cls-2" d="M155.35,371.42c.29,1.29-.11,1.98-.37,2.44-2.81,3.54-10.44-.51-11.12-4.75-.17-1.04.17-1.68.36-2.06,1.44-1.93,4.47-1.92,7.71.01,1.92,1.32,3.07,2.79,3.42,4.35"/>
          <path class="cls-2" d="M173.16,382.26c.21,1.11-.19,1.72-.46,2.12-2.96,3.29-10.25-.55-10.22-4.28,0-.67.22-1.03.45-1.41,1.43-1.7,4.26-1.75,7.22-.14.65.41,2.62,1.68,3.01,3.71"/>
          <path class="cls-2" d="M189.81,391.7c.12.92-.29,1.44-.55,1.78-2.86,2.78-9.22-.29-8.98-3.39.04-.56.26-.87.49-1.19,1.4-1.46,3.97-1.56,6.56-.25,1.5.9,2.34,1.92,2.48,3.05"/>
          <path class="cls-2" d="M204.96,399.76c.02.74-.38,1.17-.64,1.45-2.63,2.19-7.67.2-7.58-2.31.02-.61.36-1,.56-1.23,1.35-1.21,3.61-1.34,5.76-.33.46.26,1.87,1.06,1.91,2.43"/>
          <path class="cls-2" d="M218.26,406.48c-.07.57-.47.92-.71,1.13-2.44,1.72-6.42.29-6.05-1.63.09-.47.41-.78.61-.96,1.27-.96,3.17-1.11,4.85-.37.36.19,1.44.78,1.31,1.83"/>
          <path class="cls-2" d="M229.43,411.9c-.15.41-.53.67-.75.83-2.15,1.25-4.91.46-4.57-.9.11-.42.47-.69.68-.86,1.15-.72,2.68-.87,3.9-.37.25.13,1.02.53.74,1.3"/>
          <path class="cls-2" d="M238.25,416.08c-.2.27-.54.45-.74.56-1.75.81-3.57.44-3.2-.4.14-.33.55-.56.74-.68,1-.5,2.15-.63,2.93-.33.16.08.63.33.26.84"/>
          <path class="cls-2" d="M244.47,419.08c-.21.16-.49.27-.65.33-1.21.43-2.2.37-2.05,0,.07-.17.34-.36.81-.55.8-.3,1.58-.4,1.98-.25.08.04.3.17-.09.47"/>
          <path class="cls-2" d="M247.96,420.97c-.17.07-.36.12-.47.15-.69.18-1.12.2-1.07.11,0-.02.08-.12.71-.29.52-.14.95-.2,1.08-.15.05.04-.03.1-.25.19"/>
          <path class="cls-2" d="M248.61,421.84c-.05,0-.11.02-.16.03-.09.01-.18.04-.28.04.09-.04.19-.04.29-.05.07-.01.13-.02.2-.03.03,0,.05-.03.08,0-.04.01-.09.02-.13.03"/>
          <path class="cls-2" d="M9.31,144.84c-.48,1.56-.7,2.33-.85,2.84.93-2.99,2.13-6.98,3.13-9.94-.16.48-.33.97-.49,1.45-.82,2.51-1.48,4.62-1.8,5.65"/>
          <path class="cls-2" d="M4.87,165.18c-.41,1.79-.64,2.65-.8,3.23-.24.86-.35,1.19-.47,1.36-.3-.38,1.31-8.38,2.38-12.28.23-.8.35-1.16.47-1.32.07.09.14.18-.29,2.71-.37,2.04-.8,4.16-1.29,6.31"/>
          <path class="cls-2" d="M3.51,186.09c-.3,1.94-.53,2.89-.69,3.52-.16.59-.51,1.81-.8,1.43-.57-.75-.17-8.34,1.1-13.31.17-.58.51-1.77.8-1.4.28.37.25,2.13.24,2.88-.08,2.23-.3,4.55-.65,6.88"/>
          <path class="cls-2" d="M5.36,207.42c-.16,2.08-.4,3.1-.55,3.78-.17.61-.7,2.47-1.37,1.2-.9-1.71-1.33-9.06-.19-13.89.17-.6.7-2.42,1.36-1.16.36.69.54,1.95.64,2.71.1.89.39,3.6.1,7.35"/>
          <path class="cls-2" d="M10.46,228.95c-.01,2.16-.25,3.22-.4,3.92-.8,2.73-1.76,1.54-2.26.59-1.39-2.64-2.29-9.37-1.32-13.77.8-2.76,1.76-1.57,2.26-.61.37.7.58,1.41.8,2.17.63,2.5.94,5.09.93,7.7"/>
          <path class="cls-2" d="M18.77,250.17c.13,2.15-.11,3.2-.27,3.9-1.06,3.3-2.92.96-3.86-.95-1.28-2.62-2.69-8.15-1.8-12.24,1.14-3.7,3.17-.36,3.56.34.2.36.43.86.6,1.23,1.02,2.52,1.61,5.12,1.77,7.71"/>
          <path class="cls-2" d="M30.09,270.68c.26,2.12.01,3.16-.15,3.84-1.27,3.6-4.27.6-5.95-2.94-.45-.94-2.63-5.87-1.69-10.03.93-2.71,2.99-2.09,5.26,1.56,1.36,2.47,2.21,5.02,2.52,7.57"/>
          <path class="cls-2" d="M43.75,290.16c.37,2.04.13,3.05-.03,3.72-1.48,3.98-5.88-.1-7.96-4.87-.86-1.98-1.77-4.89-1.17-7.5.96-2.65,3.33-2.11,6.03,1.38,1.64,2.36,2.69,4.8,3.13,7.27"/>
          <path class="cls-2" d="M59.31,308.47c.45,1.95.21,2.92.05,3.56-1.59,4-7.13-.16-9.53-5.89-1.38-3.29-.95-5.14-.8-5.74,1-2.57,3.62-2.11,6.68,1.17,1.85,2.22,3.07,4.55,3.61,6.9"/>
          <path class="cls-2" d="M76.31,325.55c.5,1.83.26,2.75.1,3.35-1.83,4.23-8.64-.75-10.79-6.67-.82-2.26-.52-3.49-.37-4.08,1.02-2.46,3.82-2.08,7.13.96,2,2.06,3.33,4.23,3.93,6.44"/>
          <path class="cls-2" d="M94.31,341.31c.52,1.68.27,2.54.1,3.11-1.95,4.11-9.54-1.02-11.41-6.57-.58-1.71-.34-2.6-.18-3.18,1.05-2.32,3.95-2.02,7.4.74,2.08,1.87,3.46,3.86,4.09,5.9"/>
          <path class="cls-2" d="M112.85,355.7c.51,1.53.25,2.32.08,2.84-2.12,4-10.26-1.26-11.66-6.31-.34-1.23-.13-1.95,0-2.38,1.08-2.15,4.02-1.94,7.5.54,2.09,1.67,3.46,3.46,4.08,5.32"/>
          <path class="cls-2" d="M131.46,368.67c.47,1.35.19,2.06,0,2.53-2.15,3.58-10.04-.96-11.32-5.42-.31-1.09-.09-1.74.04-2.13,1.1-1.95,3.99-1.82,7.37.33,2.02,1.46,3.33,3.03,3.9,4.68"/>
          <path class="cls-2" d="M149.71,380.22c.4,1.18.11,1.8-.07,2.21-2.32,3.37-10.14-.99-10.77-4.94-.11-.71.04-1.08.19-1.47,1.11-1.74,3.88-1.68,7.06.16,1.89,1.24,3.1,2.6,3.58,4.04"/>
          <path class="cls-2" d="M167.18,390.33c.31,1,0,1.53-.18,1.89-2.32,2.89-9.41-.68-9.81-4.02-.07-.61.08-.92.25-1.26,1.12-1.51,3.71-1.51,6.6,0,.64.38,2.58,1.55,3.15,3.39"/>
          <path class="cls-2" d="M183.45,399.01c.21.81-.1,1.26-.3,1.56-2.27,2.38-8.43-.43-8.58-3.14-.03-.5.13-.76.31-1.04,1.11-1.27,3.45-1.31,5.97-.11,1.47.82,2.35,1.74,2.6,2.74"/>
          <path class="cls-2" d="M198.18,406.28c.1.64-.21,1-.42,1.23-2.27,1.97-7.29-.14-7.17-2.33.02-.39.19-.61.36-.83,1.07-1.01,3.16-1.09,5.21-.19,1.21.63,1.88,1.34,2.01,2.12"/>
          <path class="cls-2" d="M211.01,412.17c0,.47-.31.74-.52.92-2.13,1.48-6.02,0-5.64-1.61.07-.29.23-.46.41-.63,1.02-.78,2.77-.88,4.36-.24.34.17,1.39.67,1.39,1.55"/>
          <path class="cls-2" d="M221.68,416.72c-.09.32-.4.52-.58.64-1.86.99-4.52.21-4.17-.88.09-.27.34-.45.48-.56.94-.56,2.33-.66,3.46-.25.24.11.97.44.8,1.05"/>
          <path class="cls-2" d="M229.96,420.01c-.15.2-.43.33-.6.4-1.48.58-3.1.3-2.86-.31.09-.24.43-.41.59-.49.84-.37,1.85-.45,2.57-.22.15.06.59.25.31.62"/>
          <path class="cls-2" d="M235.63,422.07c-.18.1-.41.17-.55.21-1.03.27-1.87.23-1.77.01.05-.1.27-.22.67-.35.68-.2,1.35-.26,1.71-.16.18.07.16.17-.06.3"/>
          <path class="cls-2" d="M238.53,423c-.13.03-.27.05-.41.07-.39.06-.83.1-.89.08h0c.06-.03.28-.07.62-.13.46-.07.8-.11.91-.09h0s0,.03-.24.07"/>
          <path class="cls-2" d="M2.12,177.41c-.08.53-.15,1.07-.22,1.6l1.22-8.05c-.36,2.14-.7,4.31-1,6.44"/>
          <path class="cls-2" d="M.79,198.69c-.13,1.98-.24,3.03-.3,3.6-.11.96-.16,1.34-.25,1.54-.33-.36.06-9.23.52-13.61.11-.94.17-1.31.26-1.51.08.08.16.18.1,2.98-.02.84-.09,3.39-.33,7"/>
          <path class="cls-2" d="M2.66,220.29c0,2.09-.07,3.11-.13,3.78-.07.63-.22,1.93-.57,1.53-.68-.78-1.49-8.93-1.02-14.31.07-.63.23-1.95.58-1.55.34.39.6,2.36.7,3.1.28,2.42.43,4.92.44,7.44"/>
          <path class="cls-2" d="M7.76,241.66c.16,2.11.08,3.13.03,3.81-.08.6-.28,2.2-1.03,1.38-1.17-1.29-2.94-9.16-2.55-14.34.08-.61.28-2.25,1.03-1.43.55.6,1.04,2.3,1.25,3.03.64,2.47,1.07,5.01,1.27,7.55"/>
          <path class="cls-2" d="M15.97,262.46c.3,2.09.22,3.1.17,3.77-.4,2.6-1.54,1.42-2.19.48-1.78-2.6-3.69-9.15-3.39-13.39.33-2.3,1.23-1.75,1.93-.89.6.75,1.1,1.85,1.4,2.51,1.01,2.47,1.71,5,2.08,7.51"/>
          <path class="cls-2" d="M27.12,282.54c.43,2.04.33,3.03.27,3.69-.6,3.09-2.78.83-3.97-.99-1.66-2.53-3.85-7.83-3.55-11.69.61-3.51,3.13-.26,3.63.43.25.35.55.83.78,1.2,1.37,2.42,2.33,4.9,2.84,7.37"/>
          <path class="cls-2" d="M40.74,301.62c.53,1.96.44,2.91.37,3.55-.76,3.43-4.08.37-6.09-2.78-.56-.88-3.36-5.48-3.01-9.32.53-2.51,2.61-1.92,5.29,1.51,1.64,2.3,2.8,4.67,3.44,7.04"/>
          <path class="cls-2" d="M56.23,319.47c.61,1.86.51,2.77.44,3.38-.91,3.69-5.59-.17-8.17-4.47-1.09-1.81-2.34-4.47-2.11-6.85.57-2.42,2.9-1.92,5.94,1.3,1.86,2.16,3.17,4.4,3.9,6.65"/>
          <path class="cls-2" d="M73.13,336.03c.65,1.73.55,2.59.48,3.15-1.05,3.75-6.92-.67-9.6-5.28-1.71-2.94-1.54-4.58-1.48-5.12.61-2.3,3.12-1.88,6.4,1.08,2,1.99,3.41,4.06,4.2,6.16"/>
          <path class="cls-2" d="M90.97,351.2c.66,1.58.55,2.37.47,2.9-1.17,3.62-7.98-.72-10.64-5.82-1.03-1.97-.9-3.04-.84-3.55.65-2.15,3.27-1.81,6.67.87,2.07,1.8,3.53,3.68,4.34,5.6"/>
          <path class="cls-2" d="M109.31,364.96c.64,1.42.51,2.14.43,2.62-1.29,3.42-8.68-.93-10.98-5.58-.72-1.46-.61-2.21-.53-2.7.69-1.97,3.35-1.71,6.78.66,2.07,1.59,3.52,3.27,4.3,5"/>
          <path class="cls-2" d="M127.67,377.25c.59,1.24.45,1.88.35,2.31-1.44,3.22-9.11-1.08-10.86-5.17-.43-1.01-.32-1.6-.25-1.95.72-1.77,3.34-1.59,6.66.46,2,1.37,3.38,2.84,4.1,4.36"/>
          <path class="cls-2" d="M145.62,388.07c.52,1.06.35,1.62.24,1.98-1.6,2.98-9.22-1.09-10.35-4.65-.2-.64-.13-.96-.03-1.32.75-1.53,3.31-1.42,6.38.28,1.86,1.16,3.13,2.4,3.76,3.71"/>
          <path class="cls-2" d="M162.75,397.41c.42.88.23,1.35.11,1.66-1.75,2.66-9.05-1.17-9.45-4.03-.05-.36.03-.6.1-.81.77-1.3,3.16-1.25,5.93.13,1.68.95,2.79,1.97,3.31,3.06"/>
          <path class="cls-2" d="M178.63,405.27c.31.7.11,1.08-.03,1.33-1.76,2.13-8.03-.83-8.2-3.1-.02-.29.07-.49.15-.66.79-1.07,2.94-1.06,5.34.01,1.44.74,2.36,1.55,2.74,2.41"/>
          <path class="cls-2" d="M192.92,411.69c.19.53-.03.82-.17,1.01-1.8,1.69-6.86-.48-6.77-2.24,0-.22.11-.38.19-.51.79-.84,2.65-.87,4.63-.07,1.17.55,1.89,1.15,2.12,1.81"/>
          <path class="cls-2" d="M205.29,416.69c.08.37-.15.58-.3.72-1.71,1.18-5.55-.27-5.24-1.49.04-.16.15-.27.23-.37.77-.61,2.31-.66,3.83-.12.89.37,1.39.8,1.48,1.26"/>
          <path class="cls-2" d="M215.46,420.32c-.02.24-.26.37-.4.46-1.51.72-4.08.03-3.78-.78.06-.15.17-.23.3-.32.73-.4,1.93-.46,3-.14.61.23.91.49.88.78"/>
          <path class="cls-2" d="M223.19,422.64c-.1.12-.32.2-.45.24-1.22.35-2.7.13-2.5-.25.07-.13.27-.21.4-.26.67-.23,1.52-.28,2.18-.12.36.11.49.24.36.4"/>
          <path class="cls-2" d="M228.29,423.71c-.14.04-.32.06-.44.08-.63.08-1.42.11-1.47.04,0-.04.18-.09.52-.15.56-.09,1.1-.12,1.41-.09.05,0,.17.03.09.08-.03.02-.07.03-.11.04"/>
          <path class="cls-2" d="M0,207.47c0,.94,0,1.87,0,2.81v-2.81"/>
          <path class="cls-2" d="M1.98,232.99c.19,2.05.25,3.08.29,3.7.07,1.4.04,1.45,0,1.54-.32-.68-1.32-9.08-1.62-14.11-.05-.95-.06-1.38,0-1.59.08.09.17.18.56,3.14.3,2.37.56,4.83.79,7.31"/>
          <path class="cls-2" d="M7.06,253.96c.34,2.05.41,3.05.46,3.71.04.97.03,1.35-.15,1.53-.84-.03-3.04-9.21-3.41-14.23-.04-1-.03-1.39.15-1.59.38,0,.88,1.54,1.36,3.21.65,2.42,1.19,4.9,1.6,7.37"/>
          <path class="cls-2" d="M15.15,274.3c.48,2.02.55,3,.6,3.65.01.57.05,2.08-.8,1.26-1.49-1.42-4.31-9.25-4.69-13.87-.02-.59-.07-2.16.8-1.33.64.61,1.38,2.26,1.7,2.97,1.01,2.41,1.82,4.87,2.39,7.31"/>
          <path class="cls-2" d="M26.07,293.85c.6,1.97.67,2.92.71,3.55-.01,2.08-.96,1.54-1.75.73-1.96-2.01-5.25-8.66-5.62-13.06-.02-2.17.95-1.62,1.77-.78.71.73,1.36,1.79,1.75,2.43,1.35,2.35,2.41,4.75,3.13,7.14"/>
          <path class="cls-2" d="M39.53,312.44c.69,1.88.75,2.78.79,3.38-.13,3.07-2.93.13-3.48-.49-2.14-2.37-5.25-7.62-5.53-11.29.08-2.86,2.41-.72,3.13,0,.52.53.98,1.11,1.35,1.58,1.65,2.24,2.91,4.53,3.75,6.81"/>
          <path class="cls-2" d="M54.92,329.79c.77,1.77.82,2.63.85,3.19-.2,2.96-3.5.38-5.53-1.94-1.63-1.87-4.46-5.88-4.67-9.03.14-2.28,2.16-1.73,5.16,1.4,1.85,2.09,3.26,4.24,4.19,6.38"/>
          <path class="cls-2" d="M71.67,345.77c.81,1.63.84,2.43.87,2.96-.29,3.05-4.76-.02-7.58-3.38-1.2-1.43-3.24-4.2-3.39-6.63.18-2.15,2.39-1.69,5.62,1.18,1.99,1.91,3.5,3.89,4.48,5.88"/>
          <path class="cls-2" d="M89.34,360.32c.81,1.48.83,2.21.85,2.69-.42,3.16-6.27-.64-9.3-4.56-1.95-2.52-2.02-3.88-2.05-4.39.23-1.99,2.55-1.61,5.91.96.77.64,3.1,2.58,4.59,5.3"/>
          <path class="cls-2" d="M107.46,373.39c.78,1.31.79,1.97.79,2.4-.53,2.96-7.1-.67-10.13-4.88-1.18-1.64-1.21-2.53-1.23-2.96.28-1.81,2.65-1.51,6.03.76,2.05,1.5,3.58,3.08,4.54,4.68"/>
          <path class="cls-2" d="M125.55,384.95c.73,1.13.71,1.7.7,2.08-.69,2.87-8.14-1.18-10.38-4.9-.55-.92-.56-1.45-.56-1.77.33-1.57,2.71-1.35,5.92.56,1.97,1.28,3.43,2.64,4.32,4.03"/>
          <path class="cls-2" d="M143.19,394.98c.64.95.6,1.44.57,1.76-.84,2.6-8.27-1.16-9.91-4.33-.3-.58-.29-.85-.27-1.17.38-1.35,2.65-1.2,5.66.38,1.83,1.07,3.16,2.2,3.95,3.37"/>
          <path class="cls-2" d="M159.96,403.5c.54.77.47,1.17.42,1.43-1,2.27-8.14-1.19-9.07-3.68-.12-.31-.09-.52-.07-.7.43-1.13,2.53-1.03,5.24.23,1.65.85,2.82,1.77,3.48,2.72"/>
          <path class="cls-2" d="M175.45,410.49c.42.59.32.9.26,1.1-1.2,1.94-7.62-1.15-7.86-2.94,0-.11,0-.25.03-.36.47-.89,2.35-.84,4.68.12,1.4.65,2.37,1.35,2.89,2.08"/>
          <path class="cls-2" d="M189.31,415.99c.29.43.17.65.09.8-1.23,1.37-6.4-.79-6.42-2.05,0-.08.04-.19.07-.26.5-.66,2.11-.65,4.01.03,1.14.46,1.89.96,2.25,1.49"/>
          <path class="cls-2" d="M201.2,420.04c.16.27.02.42-.07.51-1.26.9-5.06-.45-4.88-1.28,0-.06.06-.13.1-.17.51-.45,1.82-.45,3.27-.02.85.29,1.39.62,1.59.96"/>
          <path class="cls-2" d="M210.86,422.69c.05.15-.1.22-.2.27-1.03.4-3.61-.05-3.42-.59.02-.06.09-.11.15-.15.51-.25,1.51-.27,2.51-.04.58.16.9.33.96.51"/>
          <path class="cls-2" d="M218.06,423.99s-.19.07-.29.08c-.73.09-2.27.05-2.14-.12.03-.04.16-.07.22-.09.48-.1,1.18-.11,1.78-.04.33.05.48.11.43.16"/>
          <path class="cls-2" d="M8.32,265.87c.51,2,.74,3,.88,3.6.19.86.25,1.13.28,1.41-.14-.18-.2-.26-.89-2.61l-1.87-6.83-.7-2.83c-.12-.51-.24-1.03-.36-1.54-.19-.87-.25-1.17-.28-1.46.15.18.22.26,1.02,3.08.81,2.89,1.49,5.51,1.92,7.19"/>
          <path class="cls-2" d="M16.3,285.7c.65,1.96.88,2.9,1.03,3.53.2.92.24,1.27.11,1.43-.81-.09-4.37-8.92-5.53-13.7-.2-.95-.25-1.32-.12-1.5.37.03,1.09,1.52,1.81,3.13.37.87,1.52,3.51,2.7,7.1"/>
          <path class="cls-2" d="M27.01,304.68c.77,1.9,1,2.81,1.14,3.41.11.55.33,1.7-.36,1.28-1.37-.83-5.64-8.41-6.86-13.23-.12-.58-.36-1.79.36-1.36.71.42,1.82,2.23,2.3,3,1.34,2.27,2.49,4.59,3.42,6.9"/>
          <path class="cls-2" d="M40.18,322.65c.86,1.79,1.07,2.65,1.21,3.22.08.5.34,2.03-1.2.86-2.09-1.59-6.55-8.1-7.61-12.22-.09-.52-.34-1.92.93-1.13.94.58,2.13,2.08,2.64,2.73,1.63,2.17,2.99,4.37,4.03,6.55"/>
          <path class="cls-2" d="M55.41,339.44c.93,1.68,1.13,2.48,1.26,3.01.29,2.03-1.33,1.06-2.32.29-2.49-1.92-6.86-7.24-7.78-10.89-.32-2.25,1.59-.97,2.43-.31.75.59,1.32,1.17,1.93,1.79,1.84,2.01,3.35,4.07,4.48,6.11"/>
          <path class="cls-2" d="M72,354.8c.96,1.53,1.15,2.27,1.27,2.76.3,2.42-2.66.34-3.57-.35-2.56-1.94-6.51-6.24-7.28-9.25-.35-2.76,3.32.02,3.74.35.34.26.77.63,1.09.91,1.98,1.83,3.58,3.7,4.75,5.58"/>
          <path class="cls-2" d="M89.46,368.67c.96,1.37,1.13,2.04,1.24,2.48.23,2.28-3.23.32-5.47-1.46-1.83-1.45-5.1-4.56-5.74-7.05-.2-1.83,1.82-1.42,5.12,1.04.76.61,3.07,2.45,4.85,4.98"/>
          <path class="cls-2" d="M107.34,381.01c.93,1.2,1.08,1.79,1.17,2.18.17,2.34-4.57-.13-7.72-2.87-1.36-1.18-3.07-2.92-3.48-4.49-.13-1.61,1.98-1.28,5.25.84,2.03,1.41,3.63,2.87,4.78,4.35"/>
          <path class="cls-2" d="M125.16,391.78c.87,1.02.98,1.52,1.06,1.85.08,2.27-5.78-.63-8.83-3.48-1.63-1.52-1.83-2.34-1.92-2.7-.07-1.4,2.01-1.14,5.16.64,1.94,1.19,3.47,2.42,4.54,3.68"/>
          <path class="cls-2" d="M142.49,400.97c.77.84.86,1.25.92,1.52-.04,1.96-6.21-.66-8.94-3.39-.87-.87-.98-1.32-1.05-1.61,0-1.18,1.97-.99,4.91.47,1.8.97,3.2,1.98,4.15,3.02"/>
          <path class="cls-2" d="M158.91,408.6c.66.65.71.98.75,1.2-.19,1.73-6.74-.98-8.5-3.06-.34-.4-.38-.59-.42-.81.07-.95,1.88-.82,4.52.32,1.61.75,2.84,1.55,3.66,2.36"/>
          <path class="cls-2" d="M174,414.67c.53.48.55.72.56.87-.37,1.49-6.8-1.13-7.52-2.53-.04-.08-.07-.2-.08-.29.13-.71,1.74-.63,4,.21,1.36.55,2.38,1.13,3.04,1.73"/>
          <path class="cls-2" d="M187.43,419.2c.39.32.37.47.37.57-.48.92-5.92-.64-6.12-1.76v-.09c.19-.49,1.54-.44,3.38.12,1.09.37,1.89.76,2.38,1.16"/>
          <path class="cls-2" d="M198.85,422.25c.25.17.21.25.18.31-.57.47-4.6-.38-4.58-.96,0-.02,0-.04,0-.05.23-.28,1.32-.25,2.69.07.81.21,1.38.43,1.7.65"/>
          <path class="cls-2" d="M208,423.84c.05.02.06.04.07.05,0,.01-.04.03-.06.03-.45.07-3.01-.08-3.1-.31,0-.01.02-.03.04-.04.21-.08.86-.11,2,.04.7.11.96.19,1.06.23"/>
        </g>
        <g>
          <polyline class="cls-1" points="328.54 49.78 339.75 58.49 344.25 67.86 346.79 64.33 357.01 73.37 348.09 62.08 349.54 58.8 341.88 54.86 331.9 44.17 336.69 52.63 328.54 49.78"/>
          <polyline class="cls-1" points="409.7 217.57 415.13 227.87 414.68 239.45 418.41 234.57 422.97 244.68 420.61 231.39 423.56 226.6 418.75 222.65 415.45 209.34 415.32 220.42 409.7 217.57"/>
          <polyline class="cls-1" points="389.95 129.58 397.58 140.02 399.71 150.63 402.27 146.9 408.95 157.41 403.66 144.51 405.31 140.92 399.85 136.1 393.54 123.46 396.05 133.3 389.95 129.58"/>
          <polyline class="cls-1" points="243.37 7.55 256.46 12.58 261.49 20.66 264.95 16.08 277.66 21.73 266.85 13.19 269.17 8.93 259.52 7.9 248.01 .37 253.13 7.57 243.37 7.55"/>
        </g>
      </g>
    </g>
  </g>
</svg>