<?xml version="1.0" encoding="utf-8"?>
<!-- Generator: Adobe Illustrator 19.2.1, SVG Export Plug-In . SVG Version: 6.00 Build 0)  -->
<svg version="1.1" id="layer" xmlns="http://www.w3.org/2000/svg" xmlns:xlink="http://www.w3.org/1999/xlink" x="0px" y="0px"
	 viewBox="0 0 652 652" style="enable-background:new 0 0 652 652;" xml:space="preserve">
<style type="text/css">
	.st0{fill:#B5A26A;}
	.st1{fill:#004282;}
</style>
<g>
	<path class="st0" d="M73.3,420.1L73.3,420.1l-29-92.7H30.2L60.5,424c0,0,0,0.1,0,0.1c1.1,3.5,4.9,5.5,8.4,4.4
		C72.4,427.4,74.4,423.6,73.3,420.1"/>
	<path class="st0" d="M93.7,393.8L93.7,393.8l-20.8-66.4H58.8l22,70.3c0,0,0,0.1,0,0.1c1.1,3.5,4.9,5.5,8.4,4.4
		C92.8,401.1,94.7,397.3,93.7,393.8"/>
	<path class="st0" d="M114,367.5L114,367.5l-12.6-40.1H87.4l13.8,44.1c0,0,0,0.1,0,0.1c1.1,3.5,4.9,5.5,8.4,4.4
		C113.2,374.8,115.1,371.1,114,367.5"/>
	<path class="st0" d="M134.4,341.3l-4.3-13.9H116l5.6,17.8c0,0,0,0,0,0.1c1.1,3.5,4.9,5.5,8.4,4.4
		C133.5,348.5,135.5,344.8,134.4,341.3L134.4,341.3z"/>
</g>
<rect x="164.4" y="282.1" class="st1" width="5.1" height="45.3"/>
<g>
	<path class="st1" d="M213.6,325.4c-1.9,0.8-5.3,2.7-12,2.7c-13.7,0-17.4-13.2-17.4-24.2c0-11.7,4.1-22.5,17.1-22.5
		c9.1,0,14.1,5.7,14.1,13.1h-5.8c0-5.1-3-8.8-8.3-8.8c-9.6,0-11.5,9.9-11.5,18.5c0,7.6,1.9,19.7,13.1,19.7c5.7,0,9.4-2.7,10.8-3.7
		V325.4z"/>
</g>
<polygon class="st1" points="229.7,282.1 237.4,282.1 250.3,320.6 250.4,320.6 263.3,282.1 270.9,282.1 270.9,327.4 266.3,327.4 
	266.3,287.5 266.2,287.5 252.8,327.4 247.8,327.4 234.4,287.5 234.3,287.5 234.3,327.4 229.7,327.4 "/>
<path class="st1" d="M298.1,282.1h6.2l14.7,45.3h-5.1l-4.5-14h-16.2l-4.4,14h-5.1L298.1,282.1z M294.6,309.1H308l-6.6-22.4h-0.1
	L294.6,309.1z"/>
<g>
	<path class="st1" d="M25.8,313.2l4.4,14.1h14.1l-5.7-18.2h0c0,0,0,0,0,0c-1.1-3.5-4.9-5.5-8.4-4.4
		C26.6,305.8,24.6,309.6,25.8,313.2C25.7,313.2,25.8,313.2,25.8,313.2"/>
	<path class="st1" d="M46.1,286.9l12.7,40.4h14.1l-13.9-44.5l0,0c0,0,0,0,0,0c-1.1-3.5-4.9-5.5-8.4-4.4
		C47,279.6,45,283.3,46.1,286.9C46.1,286.9,46.1,286.9,46.1,286.9"/>
	<path class="st1" d="M101.4,327.3l-22.2-70.8l0,0c0,0,0,0,0,0c-1.1-3.5-4.9-5.5-8.4-4.4c-3.5,1.1-5.5,4.9-4.4,8.4c0,0,0,0,0,0.1
		l20.9,66.7H101.4z"/>
	<path class="st1" d="M130,327.3l-30.4-97l0,0c0,0,0,0,0,0c-1.1-3.5-4.9-5.5-8.4-4.4c-3.5,1.1-5.5,4.9-4.4,8.4c0,0,0,0,0,0.1
		l29.1,93H130z"/>
</g>
<rect x="164.9" y="361.5" class="st1" width="2.4" height="20.3"/>
<g>
	<path class="st1" d="M172.1,367.8h2.1v3.4h0.1c0.9-1.8,2.3-3.8,5-3.8c2.4,0,3.4,2.1,3.4,3.7v10.7h-2.2v-9.1c0-1.5,0-3.5-1.9-3.5
		c-2.9,0-4.3,3.8-4.3,6.5v6h-2.2V367.8z"/>
	<path class="st1" d="M194.1,382c-0.7,0.1-1.2,0.1-1.7,0.1c-2.9,0-4.2-1-4.2-3.5v-9.5h-2.5v-1.4h2.5v-3.3l2.2-1.3v4.6h3.8v1.4h-3.8
		v8.3c0,1.7,0,3.3,2.4,3.3c0.7,0,1.1-0.1,1.3-0.2V382z"/>
	<path class="st1" d="M204.3,371.8c0-1.2-0.4-3.2-2.9-3.2c-2.5,0-3,2.4-3,3.2H204.3z M206.3,381.6c-1.2,0.3-1.9,0.6-3.5,0.6
		c-4.2,0-6.9-2.6-6.9-7.8c0-4,1.6-6.9,5.7-6.9c5,0,5,4.5,5,5.7h-8.2c0,3.1,1.1,7.6,5.4,7.6c1.3,0,1.7-0.2,2.6-0.4V381.6z"/>
	<path class="st1" d="M209.9,367.8h2.2v3.3h0.1c0.7-1.5,2.2-3.7,4.5-3.7v2.6h-0.6c-3.1,0-4,2.6-4,5.2v6.6h-2.2V367.8z"/>
	<path class="st1" d="M219.5,367.8h2.1v3.4h0.1c0.9-1.8,2.3-3.8,5-3.8c2.4,0,3.4,2.1,3.4,3.7v10.7h-2.2v-9.1c0-1.5,0-3.5-1.9-3.5
		c-2.9,0-4.3,3.8-4.3,6.5v6h-2.2V367.8z"/>
	<path class="st1" d="M241.3,375.3c-0.8,0.1-5.5,0-5.5,3c0,1.5,0.9,2.4,2.2,2.4c1.8,0,3.3-1.7,3.3-3.8V375.3z M241.3,379.9
		L241.3,379.9c-0.5,0.7-1.8,2.3-4.1,2.3c-2.3,0-3.8-1.7-3.8-3.5c0-4.1,5.3-4.3,7.9-4.5v-1.9c0-1.5-0.2-3.6-2.5-3.6
		c-2.2,0-2.4,1.7-2.5,2.8h-2.5c0.1-1.7,1-4,5.1-4c4.1,0,4.6,2.7,4.6,4.7v9.7h-2.2V379.9z"/>
	<path class="st1" d="M255,382c-0.7,0.1-1.2,0.1-1.7,0.1c-2.9,0-4.2-1-4.2-3.5v-9.5h-2.5v-1.4h2.5v-3.3l2.2-1.3v4.6h3.8v1.4h-3.8
		v8.3c0,1.7,0,3.3,2.4,3.3c0.7,0,1.1-0.1,1.3-0.2V382z"/>
</g>
<path class="st1" d="M257.9,381.8h2.2v-14h-2.2V381.8z M257.8,364.2h2.5v-2.7h-2.5V364.2z"/>
<g>
	<path class="st1" d="M269.6,381c3,0,3.7-3,3.7-5.9c0-3.1-0.6-6.4-3.7-6.4c-3,0-3.5,3.3-3.5,6.4C266.1,377.9,266.6,381,269.6,381
		 M263.6,375c0-4.5,1.8-7.5,6-7.5c4.2,0,6.1,3,6.1,7.5c0,4.5-1.9,7.2-6.1,7.2C265.4,382.2,263.6,379.5,263.6,375"/>
	<path class="st1" d="M279.1,367.8h2.1v3.4h0.1c0.9-1.8,2.3-3.8,5-3.8c2.4,0,3.4,2.1,3.4,3.7v10.7h-2.2v-9.1c0-1.5,0-3.5-1.9-3.5
		c-2.9,0-4.3,3.8-4.3,6.5v6h-2.2V367.8z"/>
	<path class="st1" d="M300.9,375.3c-0.8,0.1-5.5,0-5.5,3c0,1.5,0.9,2.4,2.2,2.4c1.8,0,3.3-1.7,3.3-3.8V375.3z M300.9,379.9
		L300.9,379.9c-0.5,0.7-1.8,2.3-4.1,2.3c-2.3,0-3.8-1.7-3.8-3.5c0-4.1,5.3-4.3,7.9-4.5v-1.9c0-1.5-0.2-3.6-2.5-3.6
		c-2.2,0-2.4,1.7-2.5,2.8h-2.5c0.1-1.7,1-4,5.1-4c4.1,0,4.6,2.7,4.6,4.7v9.7h-2.2V379.9z"/>
</g>
<rect x="307.6" y="361.5" class="st1" width="2.2" height="20.3"/>
<g>
	<path class="st1" d="M335,380.6c-1,0.6-2.7,1.3-5,1.3c-6.3,0-8.2-5.5-8.2-10.9c0-3.9,1.4-10.1,7.6-10.1c4.2,0,6.4,2.7,6.4,5.8h-2.9
		c0-1.9-0.8-4.3-3.7-4.3c-4.2,0-4.8,5.2-4.8,8.2c0,4.8,1.4,9.5,5.8,9.5c2.5,0,3.6-1.1,4.7-1.9V380.6z"/>
	<path class="st1" d="M345.1,375.1c-0.8,0.1-5.5,0-5.5,3c0,1.5,0.9,2.4,2.2,2.4c1.8,0,3.3-1.7,3.3-3.8V375.1z M345.1,379.6
		L345.1,379.6c-0.5,0.7-1.8,2.3-4.1,2.3c-2.3,0-3.8-1.7-3.8-3.5c0-4.1,5.3-4.3,7.9-4.5V372c0-1.5-0.2-3.6-2.5-3.6
		c-2.2,0-2.4,1.7-2.5,2.8h-2.5c0.1-1.7,1-4,5.1-4c4.1,0,4.6,2.7,4.6,4.7v9.7h-2.2V379.6z"/>
	<path class="st1" d="M357.3,380.5c2.4,0,3-3.2,3-5.8c0-3.5-1-6.1-3-6.1c-2,0-3.4,2.9-3.4,5.8C353.9,376.5,354.6,380.5,357.3,380.5
		 M351.7,367.5h2.2v2.7h0.1c0.3-1,1.6-3,3.9-3c3.4,0,4.9,3.1,4.9,7.5c0,3.9-1.4,7.2-5.1,7.2c-2.6,0-3.4-1.9-3.7-2.8h-0.1v8.8h-2.2
		V367.5z"/>
</g>
<path class="st1" d="M366.3,381.6h2.2v-14h-2.2V381.6z M366.1,363.9h2.5v-2.7h-2.5V363.9z"/>
<g>
	<path class="st1" d="M380,381.8c-0.7,0.1-1.2,0.1-1.7,0.1c-2.9,0-4.2-1-4.2-3.5v-9.5h-2.5v-1.4h2.5v-3.3l2.2-1.3v4.6h3.8v1.4h-3.8
		v8.3c0,1.7,0,3.3,2.4,3.3c0.7,0,1.1-0.1,1.3-0.2V381.8z"/>
	<path class="st1" d="M389.6,375.1c-0.8,0.1-5.5,0-5.5,3c0,1.5,0.9,2.4,2.2,2.4c1.8,0,3.3-1.7,3.3-3.8V375.1z M389.6,379.6
		L389.6,379.6c-0.5,0.7-1.8,2.3-4.1,2.3c-2.3,0-3.8-1.7-3.8-3.5c0-4.1,5.3-4.3,7.9-4.5V372c0-1.5-0.2-3.6-2.5-3.6
		c-2.2,0-2.4,1.7-2.5,2.8h-2.5c0.1-1.7,1-4,5.1-4c4.1,0,4.6,2.7,4.6,4.7v9.7h-2.2V379.6z"/>
</g>
<rect x="396.3" y="361.2" class="st1" width="2.2" height="20.3"/>
<polygon class="st1" points="411.4,361.3 414.8,361.3 420.6,378.7 420.7,378.7 426.4,361.3 429.9,361.3 429.9,381.6 427.6,381.6 
	427.6,363.4 427.5,363.4 421.5,381.6 419.4,381.6 413.4,363.5 413.3,363.5 413.3,381.6 411.4,381.6 "/>
<g>
	<path class="st1" d="M441.2,375.1c-0.8,0.1-5.5,0-5.5,3c0,1.5,0.9,2.4,2.2,2.4c1.8,0,3.3-1.7,3.3-3.8V375.1z M441.2,379.7
		L441.2,379.7c-0.5,0.7-1.8,2.3-4.1,2.3c-2.3,0-3.8-1.7-3.8-3.5c0-4.1,5.3-4.3,7.9-4.5v-1.9c0-1.5-0.2-3.6-2.5-3.6
		c-2.2,0-2.4,1.7-2.5,2.8h-2.5c0.1-1.7,1-4,5.1-4c4.1,0,4.6,2.7,4.6,4.7v9.7h-2.2V379.7z"/>
	<path class="st1" d="M447.8,367.6h2.2v3.3h0.1c0.7-1.5,2.2-3.7,4.5-3.7v2.6H454c-3.1,0-4,2.6-4,5.2v6.6h-2.2V367.6z"/>
</g>
<polygon class="st1" points="457.4,361.3 459.6,361.3 459.6,373.7 464.8,367.6 467.3,367.6 461.8,373.8 467.9,381.6 465.2,381.6 
	459.7,374.4 459.6,374.4 459.6,381.6 457.4,381.6 "/>
<g>
	<path class="st1" d="M477.6,371.6c0-1.2-0.4-3.2-2.9-3.2c-2.5,0-3,2.4-3,3.2H477.6z M479.7,381.4c-1.2,0.3-1.9,0.6-3.5,0.6
		c-4.2,0-6.9-2.6-6.9-7.8c0-4,1.6-6.9,5.7-6.9c5,0,5,4.5,5,5.7h-8.2c0,3.1,1.1,7.6,5.4,7.6c1.3,0,1.7-0.2,2.6-0.4V381.4z"/>
	<path class="st1" d="M490.3,381.8c-0.7,0.1-1.2,0.1-1.7,0.1c-2.9,0-4.2-1-4.2-3.5V369h-2.5v-1.4h2.5v-3.3l2.2-1.3v4.6h3.8v1.4h-3.8
		v8.3c0,1.7,0,3.3,2.4,3.3c0.7,0,1.1-0.1,1.3-0.2V381.8z"/>
</g>
<path class="st1" d="M502.4,373.7h6.5l-3.2-10h-0.1L502.4,373.7z M504.5,361.4h2.7l6.9,20.3h-2.5l-2.1-6.4h-7.5l-2.1,6.4h-2.2
	L504.5,361.4z"/>
<g>
	<path class="st1" d="M523,369.9c-0.5-0.3-1.9-1.1-3.6-1.1c-1.3,0-2.4,0.5-2.4,1.7c0,1.7,2,2.2,4.5,3.6c1.4,0.8,2.4,1.8,2.4,3.7
		c0,2.2-1.6,4.2-5.2,4.2c-1.9,0-3.1-0.3-3.8-0.6v-2.2c0.3,0.2,2.1,1.3,3.9,1.3c1.6,0,2.9-0.7,2.9-2.3c0-1.4-1.4-2-3-2.9
		c-1.8-1-3.8-1.8-3.8-4.2c0-2.4,1.6-3.8,4.8-3.8c1.5,0,2.7,0.4,3.3,0.5V369.9z"/>
	<path class="st1" d="M533.1,369.9c-0.5-0.3-1.9-1.1-3.6-1.1c-1.3,0-2.4,0.5-2.4,1.7c0,1.7,2,2.2,4.5,3.6c1.4,0.8,2.4,1.8,2.4,3.7
		c0,2.2-1.6,4.2-5.2,4.2c-1.9,0-3.1-0.3-3.8-0.6v-2.2c0.3,0.2,2.1,1.3,3.9,1.3c1.6,0,2.9-0.7,2.9-2.3c0-1.4-1.4-2-3-2.9
		c-1.8-1-3.8-1.8-3.8-4.2c0-2.4,1.6-3.8,4.8-3.8c1.5,0,2.7,0.4,3.3,0.5V369.9z"/>
	<path class="st1" d="M541.6,380.9c3,0,3.7-3,3.7-5.9c0-3.1-0.6-6.4-3.7-6.4c-3,0-3.5,3.3-3.5,6.4
		C538.1,377.8,538.6,380.9,541.6,380.9 M535.6,374.8c0-4.5,1.8-7.5,6-7.5c4.2,0,6.1,3,6.1,7.5c0,4.5-1.9,7.2-6.1,7.2
		C537.4,382,535.6,379.4,535.6,374.8"/>
	<path class="st1" d="M560.3,381.5c-1,0.3-1.9,0.5-3.2,0.5c-5.2,0-7-3.4-7-7.8c0-4.6,2.3-6.9,5.7-6.9c3.5,0,4.8,2.1,4.8,4.7h-2.5
		c0-1.1,0-3.5-2.4-3.5c-2.5,0-3.1,2.9-3.1,5.2c0,3,1.3,6.9,5.3,6.9c1.1,0,1.6-0.2,2.4-0.4V381.5z"/>
</g>
<path class="st1" d="M563.6,381.7h2.2v-14h-2.2V381.7z M563.4,364h2.5v-2.7h-2.5V364z"/>
<g>
	<path class="st1" d="M577.1,375.2c-0.8,0.1-5.5,0-5.5,3c0,1.5,0.9,2.4,2.2,2.4c1.8,0,3.3-1.7,3.3-3.8V375.2z M577.1,379.7
		L577.1,379.7c-0.5,0.7-1.8,2.3-4.1,2.3c-2.3,0-3.8-1.7-3.8-3.5c0-4.1,5.3-4.3,7.9-4.5v-1.9c0-1.5-0.2-3.6-2.5-3.6
		c-2.2,0-2.4,1.7-2.5,2.8h-2.5c0.1-1.7,1-4,5.1-4c4.1,0,4.6,2.7,4.6,4.7v9.7h-2.2V379.7z"/>
	<path class="st1" d="M590.7,381.9c-0.7,0.1-1.2,0.1-1.7,0.1c-2.9,0-4.2-1-4.2-3.5V369h-2.5v-1.4h2.5v-3.3l2.2-1.3v4.6h3.8v1.4h-3.8
		v8.3c0,1.7,0,3.3,2.4,3.3c0.7,0,1.1-0.1,1.3-0.2V381.9z"/>
</g>
<path class="st1" d="M593.6,381.7h2.2v-14h-2.2V381.7z M593.5,364h2.5v-2.7h-2.5V364z"/>
<g>
	<path class="st1" d="M605.3,380.9c3,0,3.7-3,3.7-5.9c0-3.1-0.6-6.4-3.7-6.4c-3,0-3.5,3.3-3.5,6.4
		C601.8,377.8,602.3,380.9,605.3,380.9 M599.3,374.8c0-4.5,1.8-7.5,6-7.5c4.2,0,6.1,3,6.1,7.5c0,4.5-1.9,7.2-6.1,7.2
		C601.1,382,599.3,379.4,599.3,374.8"/>
	<path class="st1" d="M614.8,367.7h2.1v3.4h0.1c0.9-1.8,2.3-3.8,5-3.8c2.4,0,3.4,2.1,3.4,3.7v10.7h-2.2v-9.1c0-1.5,0-3.5-1.9-3.5
		c-2.9,0-4.3,3.8-4.3,6.5v6h-2.2V367.7z"/>
</g>
</svg>
