<svg width="100" height="38" viewBox="0 0 100 38" xmlns="http://www.w3.org/2000/svg" xmlns:xlink="http://www.w3.org/1999/xlink">
  <defs>
    <path id="a" d="M0 37.131h99.955V0H0z"></path>
  </defs>
  <g transform="matrix(1 0 0 -1 0 37.225)" fill="none" fill-rule="evenodd">
    <g>
      <path d="M84.773 21.584v4.288h4.8c1.396 0 3.062-.359 3.062-2.075v-.068c0-1.423-1.146-2.145-3.404-2.145h-4.458Zm5.854-9.595h-5.854v4.492h5.683c2.326 0 3.505-.744 3.505-2.212v-.068c0-1.468-1.121-2.212-3.334-2.212Zm5.275 7.552c1.807 1.224 2.687 2.89 2.687 5.072v.068c0 1.731-.57 3.142-1.743 4.315-1.452 1.452-3.697 2.219-6.491 2.219H78.92l.001-24.568h11.705c5.903 0 9.289 2.518 9.289 6.908v.067c0 2.823-1.244 4.672-4.014 5.919Zm-24.963-.61v-.068c0-4.03-2.735-6.739-6.806-6.739h-3.676v13.612h3.676c4.07 0 6.806-2.734 6.806-6.805m-6.806 12.284H54.47l.006-24.57 9.658.002c3.678 0 7.013 1.26 9.396 3.545 2.346 2.251 3.636 5.355 3.636 8.74V19c0 7.077-5.481 12.215-13.032 12.215" fill="#4D4C4E" fill-rule="nonzero"></path>
      <path d="M49.1 31.254a2.995 2.995 0 0 0 2.996-2.994V6.642h-5.99v24.613H49.1Z" fill="#444443"></path>
      <path d="M29.258 22.335c-.858.036-1.01-.482.277-.754 1.818-.384.58.718-.277.754m-2.69 2.02c-2.577.834-.881-1.229.345-1.365 1.226-.136 1.481.772-.345 1.364m-7.589 1.866c-.751-.394.593-2.14 4.032-2.233 3.44-.095-.994 3.828-4.032 2.233M25.588.96c1.081 2.012 3.436 4.946 8.47 10.86 7.529 8.847-14.78 5.876-18.604 12.57-3.148 5.517 8.57 9.482 15.65 12.55 4.603-3.033 7.943-7.94 8.803-13.824C41.38 13.062 35.104 3.666 25.587.96M21.11 15.218c-3.16-5.115 6.99-5.192 2.294-14.75-.138-.023-.274-.05-.415-.07C12.044-1.204 1.873 6.37.27 17.315a19.965 19.965 0 0 0 3.295 14.216C3.054 19.98 24.06 19.994 21.11 15.218" fill="#195974" fill-rule="nonzero"></path>
      <path d="M29.232 22.29c-.857.035-1.01-.482.276-.754 1.816-.384.58.717-.276.753m-2.688 2.018c-2.575.833-.88-1.227.345-1.364 1.224-.135 1.48.772-.345 1.364m-7.582 1.864c-.75-.394.593-2.137 4.028-2.23 3.437-.096-.993 3.824-4.028 2.23M25.565.934c1.08 2.01 3.433 4.94 8.463 10.85 7.521 8.838-14.768 5.87-18.588 12.56-3.145 5.51 8.562 9.472 15.636 12.538 4.6-3.031 7.936-7.933 8.795-13.813C41.342 13.025 35.073 3.637 25.565.934M21.09 15.179c-3.157-5.11 6.983-5.187 2.292-14.737-.138-.023-.274-.05-.415-.07C12.033-1.228 1.871 6.34.27 17.274a19.947 19.947 0 0 0 3.291 14.203c-.51-11.54 20.478-11.527 17.53-16.298" fill="#195974" fill-rule="nonzero"></path>
    </g>
  </g>
</svg>