<svg xmlns="http://www.w3.org/2000/svg" xmlns:xlink="http://www.w3.org/1999/xlink" version="1.1" id="ISMS_x5F_Logo" x="0px" y="0px" viewBox="0 0 882.4 265" style="enable-background:new 0 0 882.4 265;" xml:space="preserve">
<style type="text/css">
	.st0{fill:none;stroke:#a63533;stroke-miterlimit:10;}
	.st1{fill:#4d7db0;}
	.st2{display:none;fill:#FFFFFF;}
</style>
<g>
	<line class="st0" x1="375" y1="10.3" x2="375" y2="254.3"/>
	<g id="Denominación">
		<path class="st1" d="M423.4,69.1V39h2.7v30.1H423.4z"/>
		<path class="st1" d="M446.2,69.1V37.7l21.3,25.2V39h2.5v31l-21.3-25.2v24.3H446.2z"/>
		<path class="st1" d="M495.5,69.1V41.6h-8.3V39h19.3v2.6h-8.3v27.5H495.5z"/>
		<path class="st1" d="M523.6,69.1V39h14.9v2.6h-12.2V51h12.2v2.6h-12.2v13h12.2v2.6L523.6,69.1L523.6,69.1z"/>
		<path class="st1" d="M576,69.1h-3.3l-10.6-14.4h-1.6v14.4h-2.7V39h5.5c3.3,0,5.7,0.7,7.3,2c1.6,1.4,2.4,3.4,2.4,6.2    c0,2.3-0.7,4.2-2.1,5.5c-1.4,1.3-3.3,2-5.7,2L576,69.1z M560.5,41.4v11.1h2.8c2.5,0,4.3-0.4,5.3-1.2s1.5-2.2,1.5-4.2    c0-2.1-0.5-3.5-1.6-4.4c-1-0.9-2.8-1.3-5.3-1.3L560.5,41.4L560.5,41.4z"/>
		<path class="st1" d="M592.5,69.1V37.7l21.3,25.2V39h2.5v31l-21.3-25.2v24.3H592.5z"/>
		<path class="st1" d="M632.3,69.1l13.2-31.3l12.7,31.3h-3l-3.8-10.2h-12.3l-4,10.2H632.3z M640,56.6h10.5l-5.1-13.1L640,56.6z"/>
		<path class="st1" d="M677.2,69.1V41.6h-8.3V39h19.3v2.6h-8.3v27.5H677.2z"/>
		<path class="st1" d="M705.3,69.1V39h2.7v30.1H705.3z"/>
		<path class="st1" d="M758.9,54.1c0,2.1-0.4,4.1-1.2,6.1c-0.8,1.9-2,3.6-3.5,5.1c-1.6,1.5-3.3,2.7-5.2,3.4c-1.9,0.8-4,1.2-6.2,1.2    s-4.2-0.4-6.2-1.2c-1.9-0.8-3.7-1.9-5.2-3.4c-1.5-1.5-2.7-3.2-3.5-5.1c-0.8-1.9-1.2-3.9-1.2-6c0-2.2,0.4-4.2,1.2-6.1    c0.8-1.9,2-3.6,3.5-5.1c1.5-1.5,3.2-2.6,5.2-3.4c1.9-0.8,4-1.1,6.2-1.1c2.2,0,4.3,0.4,6.2,1.2c1.9,0.8,3.7,1.9,5.2,3.4    c1.5,1.5,2.7,3.2,3.5,5.1C758.5,49.9,758.9,52,758.9,54.1z M742.8,67.5c1.8,0,3.5-0.3,5.1-1c1.6-0.7,3-1.6,4.3-2.9    c1.2-1.3,2.2-2.7,2.9-4.3c0.7-1.6,1-3.3,1-5.1c0-1.8-0.3-3.5-1-5.1c-0.7-1.6-1.6-3.1-2.9-4.3c-1.2-1.3-2.7-2.2-4.3-2.9    s-3.3-1-5.1-1c-1.8,0-3.5,0.3-5,1c-1.6,0.7-3,1.6-4.3,2.9c-1.3,1.3-2.2,2.8-2.9,4.3c-0.7,1.6-1,3.3-1,5.1c0,1.8,0.3,3.5,1,5.1    c0.7,1.6,1.6,3.1,2.9,4.3c1.3,1.3,2.7,2.2,4.2,2.9C739.3,67.1,740.9,67.5,742.8,67.5z"/>
		<path class="st1" d="M777.5,69.1V37.7l21.3,25.2V39h2.5v31l-21.3-25.2v24.3H777.5z"/>
		<path class="st1" d="M817.3,69.1l13.2-31.3l12.7,31.3h-3l-3.8-10.2h-12.3l-4,10.2H817.3z M825,56.6h10.5l-5.1-13.1L825,56.6z"/>
		<path class="st1" d="M859.1,69.1V39h2.7v27.5h10.3v2.6H859.1z"/>
		<path class="st1" d="M423.4,120.2V90.1h2.7v30.1H423.4z"/>
		<path class="st1" d="M451.4,120.2V88.9l21.3,25.2V90.1h2.5v31l-21.3-25.2v24.3L451.4,120.2L451.4,120.2z"/>
		<path class="st1" d="M500.5,120.2V90.1h14.9v2.6h-12.2v9.4h11.7v2.6h-11.7v15.5L500.5,120.2L500.5,120.2z"/>
		<path class="st1" d="M570.1,105.2c0,2.1-0.4,4.1-1.2,6.1c-0.8,1.9-2,3.6-3.5,5.1c-1.6,1.5-3.3,2.7-5.2,3.4s-4,1.2-6.2,1.2    s-4.2-0.4-6.2-1.2c-1.9-0.8-3.7-1.9-5.2-3.4c-1.5-1.5-2.7-3.2-3.5-5.1s-1.2-3.9-1.2-6c0-2.2,0.4-4.2,1.2-6.1    c0.8-1.9,2-3.6,3.5-5.1c1.5-1.5,3.2-2.6,5.2-3.4c1.9-0.8,4-1.1,6.2-1.1c2.2,0,4.3,0.4,6.2,1.2c1.9,0.8,3.7,1.9,5.2,3.4    c1.5,1.5,2.7,3.2,3.5,5.1C569.7,101.1,570.1,103.1,570.1,105.2z M554,118.6c1.8,0,3.5-0.3,5.1-1c1.6-0.7,3-1.6,4.3-2.9    c1.2-1.3,2.2-2.7,2.9-4.3c0.7-1.6,1-3.3,1-5.1c0-1.8-0.3-3.5-1-5.1c-0.7-1.6-1.6-3.1-2.9-4.3c-1.2-1.3-2.7-2.2-4.3-2.9    c-1.6-0.7-3.3-1-5.1-1c-1.8,0-3.5,0.3-5,1c-1.6,0.7-3,1.6-4.3,2.9c-1.3,1.3-2.2,2.8-2.9,4.3c-0.7,1.6-1,3.3-1,5.1    c0,1.8,0.3,3.5,1,5.1c0.7,1.6,1.6,3.1,2.9,4.3c1.3,1.3,2.7,2.2,4.2,2.9C550.4,118.3,552.1,118.6,554,118.6z"/>
		<path class="st1" d="M612.1,120.2h-3.3l-10.6-14.4h-1.6v14.4h-2.7V90.1h5.5c3.3,0,5.7,0.7,7.3,2c1.6,1.4,2.4,3.4,2.4,6.2    c0,2.3-0.7,4.2-2.1,5.5c-1.4,1.3-3.3,2-5.7,2L612.1,120.2z M596.6,92.5v11.1h2.8c2.5,0,4.3-0.4,5.3-1.2s1.5-2.2,1.5-4.2    c0-2.1-0.5-3.5-1.6-4.4c-1-0.9-2.8-1.3-5.3-1.3L596.6,92.5L596.6,92.5z"/>
		<path class="st1" d="M647.5,121.4L637,97.2l-2.3,23h-2.8l4.1-31.4l11.5,26.8l12-26.8l3.9,31.4h-2.8l-2.2-23L647.5,121.4z"/>
		<path class="st1" d="M682.6,120.2l13.2-31.3l12.7,31.3h-3l-3.8-10.2h-12.3l-4,10.2H682.6z M690.3,107.7h10.5l-5.1-13.1    L690.3,107.7z"/>
		<path class="st1" d="M732.7,120.2V92.7h-8.3v-2.6h19.3v2.6h-8.3v27.5H732.7z"/>
		<path class="st1" d="M766,120.2V90.1h2.7v30.1H766z"/>
		<path class="st1" d="M824.7,105.2c0,2.1-0.4,4.1-1.2,6.1c-0.8,1.9-2,3.6-3.5,5.1c-1.6,1.5-3.3,2.7-5.2,3.4c-1.9,0.8-4,1.2-6.2,1.2    s-4.2-0.4-6.2-1.2c-1.9-0.8-3.7-1.9-5.2-3.4c-1.5-1.5-2.7-3.2-3.5-5.1c-0.8-1.9-1.2-3.9-1.2-6c0-2.2,0.4-4.2,1.2-6.1    s2-3.6,3.5-5.1c1.5-1.5,3.2-2.6,5.2-3.4c1.9-0.8,4-1.1,6.2-1.1c2.2,0,4.3,0.4,6.2,1.2c1.9,0.8,3.7,1.9,5.2,3.4    c1.5,1.5,2.7,3.2,3.5,5.1C824.3,101.1,824.7,103.1,824.7,105.2z M808.6,118.6c1.8,0,3.5-0.3,5.1-1c1.6-0.7,3-1.6,4.3-2.9    c1.2-1.3,2.2-2.7,2.9-4.3c0.7-1.6,1-3.3,1-5.1c0-1.8-0.3-3.5-1-5.1c-0.7-1.6-1.6-3.1-2.9-4.3c-1.2-1.3-2.7-2.2-4.3-2.9    s-3.3-1-5.1-1c-1.8,0-3.5,0.3-5,1c-1.6,0.7-3,1.6-4.3,2.9c-1.3,1.3-2.2,2.8-2.9,4.3c-0.7,1.6-1,3.3-1,5.1c0,1.8,0.3,3.5,1,5.1    c0.7,1.6,1.6,3.1,2.9,4.3c1.3,1.3,2.7,2.2,4.2,2.9C805.1,118.3,806.8,118.6,808.6,118.6z"/>
		<path class="st1" d="M848.5,120.2V88.9l21.3,25.2V90.1h2.5v31l-21.3-25.2v24.3L848.5,120.2L848.5,120.2z"/>
		<g>
			<path class="st1" d="M418.1,166.1l2.3-1.3c0.4,1.5,1.2,2.6,2.3,3.4s2.4,1.2,3.9,1.2c1.9,0,3.4-0.6,4.5-1.7     c1.1-1.1,1.6-2.7,1.6-4.7c0-1.5-0.4-2.7-1.1-3.6s-2.3-2.1-4.6-3.3c-3-1.6-5-3-6-4.2c-1-1.2-1.5-2.7-1.5-4.4     c0-2.1,0.7-3.9,2.2-5.2c1.4-1.3,3.3-2,5.6-2c1.5,0,2.8,0.3,3.9,1c1.1,0.6,2,1.6,2.7,2.9l-2.1,1.3c-0.4-0.9-1.1-1.5-1.9-2     s-1.8-0.7-2.8-0.7c-1.5,0-2.7,0.4-3.5,1.3c-0.9,0.9-1.3,2-1.3,3.5c0,2.1,1.7,4.1,5.2,5.9c0.6,0.3,1.1,0.6,1.4,0.8     c2.6,1.4,4.3,2.7,5.1,4c0.9,1.3,1.3,2.9,1.3,4.9c0,2.7-0.8,4.8-2.4,6.4c-1.6,1.6-3.7,2.4-6.4,2.4c-2,0-3.7-0.5-5.1-1.5     C420,169.5,418.9,168,418.1,166.1z"/>
			<path class="st1" d="M466.7,171.2v-30.1h14.9v2.6h-12.2v9.4h12.2v2.6h-12.2v13h12.2v2.6L466.7,171.2L466.7,171.2z"/>
			<path class="st1" d="M537.7,146.6c-1.5-1.3-3-2.2-4.6-2.9c-1.6-0.6-3.2-0.9-4.9-0.9c-3.9,0-7.1,1.2-9.5,3.7     c-2.4,2.5-3.6,5.7-3.6,9.6c0,2,0.3,3.8,0.9,5.4c0.6,1.6,1.5,3,2.7,4.2c1.2,1.2,2.6,2.1,4.1,2.8c1.6,0.6,3.2,0.9,5,0.9     c1.7,0,3.4-0.3,5.1-0.9s3.2-1.5,4.7-2.6v3.2c-1.5,0.9-3,1.6-4.7,2.1c-1.7,0.5-3.3,0.7-4.9,0.7c-2.2,0-4.3-0.4-6.2-1.2     c-2-0.8-3.7-1.9-5.1-3.3c-1.5-1.5-2.6-3.1-3.3-5.1c-0.8-1.9-1.1-4-1.1-6.3c0-2.2,0.4-4.3,1.2-6.3c0.8-1.9,1.9-3.6,3.3-5     c1.4-1.4,3.1-2.5,5.1-3.2s4.1-1.2,6.2-1.2c1.9,0,3.7,0.3,5.3,0.8c1.6,0.5,3.1,1.3,4.5,2.4L537.7,146.6z"/>
			<path class="st1" d="M568.8,141.1h2.7v19.7c0,3,0.7,5.2,2,6.6c1.4,1.4,3.4,2.2,6.2,2.2c2.8,0,4.8-0.7,6.2-2.2     c1.4-1.4,2-3.7,2-6.6v-19.7h2.7v18.8c0,4.1-0.9,7.1-2.7,9.1c-1.8,2-4.6,3-8.2,3c-3.7,0-6.4-1-8.2-3s-2.7-5-2.7-9.1V141.1     L568.8,141.1z"/>
			<path class="st1" d="M641.6,171.2h-3.3l-10.6-14.4H626v14.4h-2.7v-30.1h5.5c3.3,0,5.7,0.7,7.3,2s2.4,3.4,2.4,6.2     c0,2.3-0.7,4.2-2.1,5.5c-1.4,1.3-3.3,2-5.7,2L641.6,171.2z M626.1,143.4v11.1h2.8c2.5,0,4.3-0.4,5.3-1.2c1-0.8,1.5-2.2,1.5-4.2     c0-2.1-0.5-3.5-1.6-4.4c-1-0.9-2.8-1.3-5.3-1.3L626.1,143.4L626.1,143.4z"/>
			<path class="st1" d="M670.8,171.2v-30.1h2.7v30.1H670.8z"/>
			<path class="st1" d="M711.7,171.2v-27.5h-8.3v-2.6h19.3v2.6h-8.3v27.5H711.7z"/>
			<path class="st1" d="M759,171.2v-13.9l-10-16.2h3.3l8.1,13.8l8.1-13.8h3.1l-9.9,16.2v13.9H759z"/>
		</g>
		<g>
			<path class="st1" d="M441.1,198.5c-1.5-1.3-3-2.2-4.6-2.9c-1.6-0.6-3.2-0.9-4.9-0.9c-3.9,0-7.1,1.2-9.5,3.7     c-2.4,2.5-3.6,5.7-3.6,9.6c0,2,0.3,3.8,0.9,5.4c0.6,1.6,1.5,3,2.7,4.2c1.2,1.2,2.6,2.1,4.1,2.8c1.6,0.6,3.2,0.9,5,0.9     c1.7,0,3.4-0.3,5.1-0.9c1.6-0.6,3.2-1.5,4.7-2.6v3.2c-1.5,0.9-3,1.6-4.7,2.1c-1.7,0.5-3.3,0.7-4.9,0.7c-2.2,0-4.3-0.4-6.2-1.2     c-2-0.8-3.7-1.9-5.1-3.3c-1.5-1.5-2.6-3.1-3.3-5.1c-0.8-1.9-1.1-4-1.1-6.3c0-2.2,0.4-4.3,1.2-6.3c0.8-1.9,1.9-3.6,3.3-5     c1.4-1.4,3.1-2.5,5.1-3.2s4.1-1.2,6.2-1.2c1.9,0,3.7,0.3,5.3,0.8c1.6,0.5,3.1,1.3,4.5,2.4L441.1,198.5z"/>
			<path class="st1" d="M491.1,208.1c0,2.1-0.4,4.1-1.2,6.1c-0.8,1.9-2,3.6-3.5,5.1c-1.6,1.5-3.3,2.7-5.2,3.4     c-1.9,0.8-4,1.2-6.2,1.2s-4.2-0.4-6.2-1.2s-3.7-1.9-5.2-3.4c-1.5-1.5-2.7-3.2-3.5-5.1c-0.8-1.9-1.2-3.9-1.2-6     c0-2.2,0.4-4.2,1.2-6.1c0.8-1.9,2-3.6,3.5-5.1c1.5-1.5,3.2-2.6,5.2-3.4c1.9-0.8,4-1.1,6.2-1.1c2.2,0,4.3,0.4,6.2,1.2     s3.7,1.9,5.2,3.4c1.5,1.5,2.7,3.2,3.5,5.1C490.7,204,491.1,206,491.1,208.1z M475,221.5c1.8,0,3.5-0.3,5.1-1     c1.6-0.7,3-1.6,4.3-2.9c1.2-1.3,2.2-2.7,2.9-4.3c0.7-1.6,1-3.3,1-5.1c0-1.8-0.3-3.5-1-5.1c-0.7-1.6-1.6-3.1-2.9-4.3     c-1.2-1.3-2.7-2.2-4.3-2.9c-1.6-0.7-3.3-1-5.1-1c-1.8,0-3.5,0.3-5,1c-1.6,0.7-3,1.6-4.3,2.9c-1.3,1.3-2.2,2.8-2.9,4.3     c-0.7,1.6-1,3.3-1,5.1c0,1.8,0.3,3.5,1,5.1c0.7,1.6,1.6,3.1,2.9,4.3c1.3,1.3,2.7,2.2,4.2,2.9C471.5,221.2,473.2,221.5,475,221.5z     "/>
			<path class="st1" d="M524.2,224.3l-10.6-24.2l-2.3,23h-2.8l4.1-31.4l11.5,26.8l12-26.8l3.9,31.4h-2.8l-2.2-23L524.2,224.3z"/>
			<path class="st1" d="M572.7,224.3l-10.6-24.2l-2.3,23h-2.8l4.1-31.4l11.5,26.8l12-26.8l3.9,31.4h-2.8l-2.2-23L572.7,224.3z"/>
			<path class="st1" d="M607.4,193h2.7v19.7c0,3,0.7,5.2,2,6.6s3.4,2.2,6.2,2.2c2.8,0,4.8-0.7,6.2-2.2c1.4-1.4,2-3.7,2-6.6V193h2.7     v18.8c0,4.1-0.9,7.1-2.7,9.1c-1.8,2-4.6,3-8.2,3c-3.7,0-6.4-1-8.2-3c-1.8-2-2.7-5-2.7-9.1V193L607.4,193z"/>
			<path class="st1" d="M649.9,223.1v-31.4l21.3,25.2V193h2.5v31l-21.3-25.2v24.3H649.9z"/>
			<path class="st1" d="M694.6,223.1V193h2.7v30.1H694.6z"/>
			<path class="st1" d="M723.5,223.1v-27.5h-8.3V193h19.3v2.6h-8.3v27.5H723.5z"/>
			<path class="st1" d="M758.9,223.1v-13.9l-10-16.2h3.3l8.1,13.8l8.1-13.8h3.1l-9.9,16.2v13.9H758.9z"/>
		</g>
	</g>
	<g id="Forum">
		<path class="st2" d="M49.7,155.8c2,1.2,3.7,2.8,5.1,4.6c-0.4,0.8-1.3,2.2-2.9,3.4c-1.6,1.2-3.2,1.7-4.1,1.9    c-1-1.4-2.3-2.5-3.9-3.3c-1.6-0.8-3.3-1.2-5.2-1.2c-1.5,0-2.9,0.3-4.3,0.8c-1.3,0.6-2.5,1.3-3.5,2.2c-1,0.9-1.8,2-2.4,3.3    c-0.6,1.3-0.9,2.6-0.9,4.1v15.8v8.9c-1,0.4-2.7,0.9-4.9,0.8c-1.8-0.1-3.2-0.5-4.1-0.8c0-8.2,0-16.5,0-24.7v-19    c0.9-0.4,2.6-0.9,4.7-0.9c1.9,0,3.4,0.5,4.3,0.9c0,1.1,0,2.1,0,3.2c1.6-1,3.3-1.8,5.1-2.4c1.9-0.6,3.8-0.8,5.8-0.8s4,0.3,5.8,0.8    C46.4,154,48.1,154.8,49.7,155.8z"/>
		<path class="st1" d="M87.3,152.3c3.2,0,6.2,0.6,9,1.8c2.8,1.2,5.2,2.8,7.3,4.9c2.1,2.1,3.7,4.5,4.9,7.3c1.2,2.8,1.8,5.8,1.8,9    c0,3.2-0.6,6.2-1.8,9c-1.2,2.8-2.8,5.2-4.9,7.3c-2.1,2.1-4.5,3.7-7.3,4.9c-2.8,1.2-5.8,1.8-9,1.8c-3.2,0-6.2-0.6-9-1.8    c-2.8-1.2-5.2-2.8-7.3-4.9c-2.1-2.1-3.7-4.5-4.9-7.3c-1.2-2.8-1.8-5.8-1.8-9c0-3.2,0.6-6.2,1.8-9c1.2-2.8,2.8-5.2,4.9-7.3    c2.1-2.1,4.5-3.7,7.3-4.9C81.1,152.9,84.1,152.3,87.3,152.3z M87.3,189.3c1.9,0,3.7-0.4,5.4-1.1c1.7-0.7,3.2-1.7,4.5-3    c1.3-1.3,2.3-2.8,3-4.5c0.7-1.7,1.1-3.5,1.1-5.4c0-1.9-0.4-3.7-1.1-5.4c-0.7-1.7-1.7-3.2-3-4.5c-1.3-1.3-2.8-2.3-4.5-3    c-1.7-0.7-3.5-1.1-5.4-1.1c-1.9,0-3.7,0.4-5.4,1.1c-1.7,0.7-3.2,1.7-4.5,3c-1.3,1.3-2.3,2.8-3,4.5c-0.8,1.7-1.1,3.5-1.1,5.4    c0,1.9,0.4,3.7,1.1,5.4c0.8,1.7,1.8,3.2,3,4.5c1.3,1.3,2.8,2.3,4.5,3C83.6,189,85.4,189.3,87.3,189.3z"/>
		<path class="st1" d="M164.9,156.8c2,1.2,3.7,2.8,5.1,4.6c-0.4,0.8-1.3,2.2-2.9,3.4c-1.6,1.2-3.2,1.7-4.1,1.9    c-1-1.4-2.3-2.5-3.9-3.3c-1.6-0.8-3.3-1.2-5.2-1.2c-1.5,0-2.9,0.3-4.3,0.8c-1.3,0.6-2.5,1.3-3.5,2.2c-1,0.9-1.8,2-2.4,3.3    s-0.9,2.6-0.9,4.1v15.8v8.9c-1,0.4-2.7,0.9-4.9,0.8c-1.8-0.1-3.2-0.5-4.1-0.8c0-8.2,0-16.5,0-24.7v-19c0.7-0.4,2.3-1.3,4.6-1.3    c2.1,0,3.7,0.8,4.4,1.3c0,1.1,0,2.1,0,3.2c1.6-1,3.3-1.8,5.1-2.4s3.8-0.8,5.8-0.8s4,0.3,5.8,0.8    C161.6,155,163.3,155.8,164.9,156.8z"/>
		<path class="st1" d="M232.2,153.3v25.4c0,3.4-0.8,6.5-2.4,9.3c-1.6,2.8-3.8,5.1-6.6,6.9c-1.6,1-3.4,1.8-5.2,2.4    c-1.9,0.6-3.8,0.9-5.8,0.9c-2,0-4-0.3-5.8-0.9c-1.9-0.6-3.6-1.4-5.2-2.4c-2.7-1.8-4.9-4-6.5-6.9c-1.6-2.8-2.5-5.9-2.5-9.3v-25.4    c0.9-0.4,2.6-0.9,4.7-0.9c1.9,0,3.3,0.5,4.3,0.9c0,3.1,0,6.1,0,9.2v16.2c0,1.5,0.3,2.9,0.9,4.2c0.6,1.3,1.4,2.4,2.3,3.4    c1,1,2.2,1.7,3.5,2.3c1.4,0.6,2.8,0.9,4.3,0.9s2.9-0.3,4.3-0.9c1.3-0.6,2.5-1.3,3.5-2.3c1-1,1.8-2.1,2.4-3.4    c0.6-1.3,0.9-2.7,0.9-4.2v-16.2v-9.2c0.9-0.4,2.4-1,4.4-1C229.7,152.3,231.3,152.9,232.2,153.3z"/>
		<path class="st1" d="M321.7,156.2c2.7,1.7,4.9,4,6.5,6.8c1.6,2.8,2.4,5.9,2.4,9.3v25.2c-1,0.3-2.6,0.7-4.5,0.7    c-1.9,0-3.5-0.4-4.5-0.7c0-3,0-6,0-9.1v-16.2c0-1.5-0.3-2.8-0.9-4.1c-0.6-1.3-1.4-2.4-2.4-3.4c-1-1-2.2-1.7-3.5-2.3    c-1.3-0.6-2.8-0.8-4.3-0.8c-1.5,0-3,0.3-4.3,0.8c-1.4,0.6-2.6,1.3-3.6,2.3c-1,1-1.8,2.1-2.4,3.4c-0.6,1.3-0.9,2.7-0.9,4.1v16.2    v9.1c-1,0.4-2.5,0.8-4.4,0.8c-2,0-3.6-0.5-4.6-0.8c0-3,0-6,0-9.1v-16.2c0-1.5-0.3-2.8-0.9-4.1c-0.6-1.3-1.4-2.4-2.4-3.4    c-1-1-2.2-1.7-3.5-2.3c-1.3-0.6-2.8-0.8-4.3-0.8c-1.5,0-3,0.3-4.3,0.8c-1.4,0.6-2.6,1.3-3.6,2.3c-1,1-1.8,2.1-2.4,3.4    c-0.6,1.3-0.9,2.7-0.9,4.1v16.2v9.1c-1.1,0.4-2.7,0.8-4.8,0.7c-1.8,0-3.2-0.4-4.2-0.7c0-8.4,0-16.8,0-25.2c0-6.3,0-12.7,0-19    c1-0.4,2.7-0.9,4.8-0.8c1.8,0,3.2,0.4,4.2,0.8c0,1,0,1.9,0,2.9c1.6-1,3.4-1.8,5.3-2.3c1.9-0.6,3.9-0.8,5.9-0.8s4,0.3,5.9,0.8    c1.9,0.6,3.6,1.3,5.2,2.3c1.7,1.1,3.2,2.4,4.5,4c1.3-1.6,2.8-2.9,4.5-4c1.6-1,3.4-1.8,5.3-2.3c1.9-0.6,3.9-0.8,5.9-0.8    s4,0.3,5.9,0.8C318.4,154.4,320.1,155.2,321.7,156.2z"/>
		<g>
			<path class="st1" d="M30.8,179.7c-3.3,0-6.7,0-10.1,0c0,6.2-0.1,12.3-0.1,18.5c-0.5,0.3-2,1.3-4.1,1.3c-2,0-3.4-0.9-3.9-1.3     c0.1-10.2,0-15.5,0-18.5c0-2.6,0.1-5.2,0-7.9c0-1,0-2.2,0.1-3.4c0.1-1.5,0.3-2.8,0.6-4c0.6-1.5,1.6-3.8,3.6-6     c2.8-3.1,5.8-4.2,7.3-4.8c1.6-0.6,6.5-2.4,12.6-0.6c6.1,1.8,9.6,6,10.7,7.5c-0.4,0.9-1.3,2.3-2.9,3.6c-1.1,0.9-2.2,1.4-3,1.7     c-0.2-0.4-3.9-6.1-10.3-6c-0.4,0-6.2,0.2-9.3,5.1c-1.8,2.9-1.7,5.9-1.6,7c3.4,0,6.9,0,10.3,0c0.3,0.3,1.5,1.8,1.4,3.9     C32.4,178,31.1,179.4,30.8,179.7z"/>
		</g>
	</g>
	<g id="ISMS">
		<path class="st1" d="M41.3,65.6v77c-2.4,1.3-7.6,3.7-14.6,3.6c-6.5-0.1-11.4-2.3-13.7-3.6c0-25.7,0-51.4,0-77    c2.2-1.3,7.3-3.7,14.2-3.7C34,61.9,39.1,64.4,41.3,65.6z"/>
		<path class="st1" d="M84.1,146.2c-7.4,0.1-12.9-1.7-16.6-3c-6.7-2.3-11.7-5.5-15-8c-0.3-1.5-1-5.8,1.1-10.6    c2.1-4.7,5.6-7.1,6.9-7.8c4.3,1.8,8,3.1,11,3.9c4.3,1.1,7.8,1.6,10.5,1.6c1.9,0,3.4-0.3,4.7-1c1.2-0.6,1.9-1.5,1.9-2.6    c0-0.6-0.7-1.4-2.1-2.3c-1.4-0.9-3.2-1.7-5.4-2.5c-7.9-2.9-14.4-6.3-19.4-10.3c-5-4-7.6-9.2-7.6-15.6c0-8.1,3-14.5,8.9-19.1    c5.9-4.6,14.1-6.9,24.6-6.9c4.5,0,9.4,0.6,14.7,1.8c5.4,1.2,9.9,3.4,13.8,6.5c0.3,1.3,1.3,5.8-0.9,10.7c-2.1,4.8-5.9,7.1-7.1,7.8    c-1.7-0.7-4.1-1.7-7.1-2.7c-0.8-0.3-1.7-0.5-2.5-0.7c-3.3-0.9-6.3-1.3-9-1.3c-2.3,0-4.2,0.3-5.6,1c-1.5,0.6-2.2,1.5-2.2,2.6    c0,0.6,0.7,1.4,2.2,2.2s3.4,1.7,5.8,2.6c7.8,2.8,14.1,6.2,19.1,10.2c4.9,4,7.4,9.2,7.4,15.7c0,5.9-1.4,10.9-4.1,14.9    c-0.4,0.5-1.6,2.3-3.8,4.3C99.6,145.4,88,146.2,84.1,146.2z"/>
		<path class="st1" d="M298.2,146.3c-7.4,0.1-12.9-1.7-16.6-3c-6.7-2.3-11.7-5.5-15-8c-0.3-1.5-1-5.8,1.1-10.7    c2.1-4.7,5.6-7.1,6.9-7.8c4.3,1.8,8,3.1,11,3.9c4.3,1.1,7.8,1.6,10.5,1.6c1.9,0,3.4-0.3,4.7-1c1.2-0.6,1.9-1.5,1.9-2.6    c0-0.6-0.7-1.4-2.1-2.3c-1.4-0.9-3.2-1.7-5.4-2.5c-7.9-2.9-14.4-6.3-19.4-10.3c-5-4-7.6-9.2-7.6-15.6c0-8.1,3-14.5,8.9-19.1    c5.9-4.6,14.1-6.9,24.6-6.9c4.5,0,9.4,0.6,14.7,1.8c5.4,1.2,9.9,3.4,13.8,6.5c0.3,1.3,1.3,5.8-0.9,10.7c-2.1,4.8-5.9,7.1-7.1,7.8    c-1.7-0.7-4.1-1.7-7.1-2.7c-0.8-0.3-1.7-0.5-2.5-0.7c-3.3-0.9-6.3-1.3-9-1.3c-2.3,0-4.2,0.3-5.6,1c-1.5,0.6-2.2,1.5-2.2,2.6    c0,0.6,0.7,1.4,2.2,2.2c1.5,0.9,3.4,1.7,5.8,2.6c7.8,2.8,14.1,6.2,19.1,10.2c4.9,4,7.4,9.2,7.4,15.7c0,5.9-1.4,10.9-4.1,15    c-0.4,0.5-1.6,2.3-3.8,4.3C313.6,145.5,302,146.2,298.2,146.3z"/>
		<path class="st1" d="M255.6,92.3v50.4c-2.4,1.3-7.3,3.6-14,3.6c-6.9,0-12-2.3-14.4-3.6c0-15.9,0-31.8,0-47.6c0-3-0.4-5.3-1.3-6.9    c-0.9-1.6-2.9-2.4-6-2.4c-1.3,0-3.5,0.5-6.4,1.4c-2.9,1-5.6,2-7.9,3.1v2.1v50.4c-2.4,1.3-7.4,3.6-14.2,3.6    c-6.8,0-11.8-2.3-14.2-3.6c0-15.9,0-31.8,0-47.6c0-3-0.4-5.3-1.3-6.9c-0.9-1.6-2.9-2.4-6-2.4c-1.3,0-3.5,0.5-6.5,1.4    c-3,1-5.6,2-8,3.1v52.5c-2.4,1.3-7.4,3.6-14.3,3.6c-6.7,0-11.7-2.3-14.1-3.6c0-26,0-52,0-78.1c1.1-0.7,4.5-2.9,9.3-2.7    c3.8,0.2,6.4,1.9,7.5,2.7c0.9,0.7,2,1.8,3.1,3.4c1.1,1.8,1.7,3.5,1.9,4.6c2.7-2.1,6.8-5,12.4-7.2c3.5-1.4,9.8-3.9,17.7-3.4    c10.9,0.7,18.5,6.9,21.5,9.7c10.3-6.4,19.8-9.7,28.5-9.7C246.8,62,255.6,72.1,255.6,92.3z"/>
		<path class="st1" d="M38.1,59.3c-2.4-0.9-6.1-1.9-10.8-1.9c-4.8,0-8.7,1.1-11.1,2c-1.2-1.3-6.1-6.9-6.3-15.7    c-0.1-9.2,5.1-15.2,6.2-16.4c1.2-1,4.8-3.8,10.3-4c6.2-0.3,10.5,3,11.6,3.9c1,1,6.6,6.8,6.6,16C44.8,52.4,39.2,58.3,38.1,59.3z"/>
	</g>
</g>
</svg>