<?xml version="1.0" encoding="UTF-8" standalone="no"?>
<svg
   xmlns:dc="http://purl.org/dc/elements/1.1/"
   xmlns:cc="http://creativecommons.org/ns#"
   xmlns:rdf="http://www.w3.org/1999/02/22-rdf-syntax-ns#"
   xmlns:svg="http://www.w3.org/2000/svg"
   xmlns="http://www.w3.org/2000/svg"
   xmlns:sodipodi="http://sodipodi.sourceforge.net/DTD/sodipodi-0.dtd"
   xmlns:inkscape="http://www.inkscape.org/namespaces/inkscape"
   version="1.0"
   width="2152.000000pt"
   height="668.000000pt"
   viewBox="0 0 2152.000000 668.000000"
   preserveAspectRatio="xMidYMid meet"
   id="svg24"
   sodipodi:docname="Logo-vozpopuli.svg"
   inkscape:version="1.0.1 (3bc2e813f5, 2020-09-07)">
  <metadata
     id="metadata30">
    <rdf:RDF>
      <cc:Work
         rdf:about="">
        <dc:format>image/svg+xml</dc:format>
        <dc:type
           rdf:resource="http://purl.org/dc/dcmitype/StillImage" />
        <dc:title></dc:title>
      </cc:Work>
    </rdf:RDF>
  </metadata>
  <defs
     id="defs28" />
  <sodipodi:namedview
     pagecolor="#ffffff"
     bordercolor="#666666"
     borderopacity="1"
     objecttolerance="10"
     gridtolerance="10"
     guidetolerance="10"
     inkscape:pageopacity="0"
     inkscape:pageshadow="2"
     inkscape:window-width="1366"
     inkscape:window-height="705"
     id="namedview26"
     showgrid="false"
     inkscape:zoom="1.3593132"
     inkscape:cx="1767.2261"
     inkscape:cy="329.75201"
     inkscape:window-x="-8"
     inkscape:window-y="-8"
     inkscape:window-maximized="1"
     inkscape:current-layer="svg24" />
  <g
     transform="translate(0.000000,668.000000) scale(0.100000,-0.100000)"
     fill="#666"
     stroke="none"
     id="g22">
    <path
       d="M17700 5080 l0 -190 178 -2 177 -3 5 -1110 5 -1110 23 -70 c71 -209 190 -318 393 -361 100 -21 365 -17 379 6 5 8 10 98 10 200 l0 185 -107 0 c-128 0 -163 15 -203 86 l-25 44 -3 1258 -2 1257 -415 0 -415 0 0 -190z"
       id="path2" />
    <path
       d="M19270 5030 l0 -240 245 0 245 0 0 240 0 240 -245 0 -245 0 0 -240z"
       id="path4" />
    <path
       d="M4425 4470 c-375 -43 -707 -252 -886 -556 -56 -96 -93 -187 -126 -313 -33 -126 -38 -368 -9 -499 51 -238 146 -415 310 -578 215 -215 476 -326 796 -341 594 -27 1091 347 1212 912 24 114 26 336 4 447 -55 279 -185 499 -395 669 -94 76 -256 164 -374 203 -153 50 -374 74 -532 56z m319 -435 c244 -65 431 -257 496 -511 28 -109 28 -279 0 -388 -83 -324 -352 -536 -678 -536 -117 0 -201 19 -311 72 -116 55 -239 176 -299 295 -100 194 -117 428 -46 624 87 242 290 413 542 459 65 12 225 4 296 -15z"
       id="path6" />
    <path
       d="M9180 4470 c-203 -26 -387 -115 -515 -251 l-50 -53 -8 53 c-14 98 -64 158 -162 192 -31 11 -108 14 -335 14 l-295 0 -3 -187 -2 -187 166 -3 c150 -3 167 -5 180 -22 12 -17 14 -189 14 -1138 l0 -1118 -165 0 -165 0 0 -190 0 -190 570 0 570 0 0 190 0 190 -170 0 -170 0 0 346 0 346 69 -64 c173 -159 375 -229 620 -214 182 11 318 55 466 152 300 196 465 547 465 990 0 352 -92 636 -278 853 -114 134 -293 236 -481 276 -88 18 -241 25 -321 15z m192 -440 c283 -87 451 -422 408 -816 -28 -265 -147 -466 -330 -558 -92 -46 -164 -60 -280 -54 -205 11 -357 122 -457 335 -85 183 -104 445 -47 668 55 217 204 378 397 430 80 21 232 19 309 -5z"
       id="path8" />
    <path
       d="M11413 4470 c-546 -62 -951 -428 -1039 -940 -22 -128 -15 -359 15 -479 109 -436 441 -748 903 -847 117 -26 380 -25 498 0 235 51 420 148 583 305 174 168 274 354 328 606 22 100 17 362 -9 472 -88 383 -356 682 -730 817 -156 56 -391 84 -549 66z m322 -440 c216 -67 397 -241 463 -445 59 -184 52 -390 -19 -560 -63 -148 -195 -289 -333 -355 -120 -57 -202 -74 -338 -68 -190 8 -333 71 -464 203 -319 324 -256 918 122 1147 171 104 386 134 569 78z"
       id="path10" />
    <path
       d="M14145 4474 c-246 -32 -379 -91 -526 -231 l-76 -72 -11 61 c-20 108 -91 169 -218 188 -38 5 -183 10 -321 10 l-253 0 0 -189 0 -190 165 -3 c118 -2 168 -7 177 -16 10 -10 14 -232 16 -1137 l2 -1125 -170 0 -170 0 0 -190 0 -190 570 0 570 0 0 190 0 190 -165 0 -165 0 0 347 0 346 58 -56 c101 -100 217 -166 357 -203 108 -28 331 -26 450 5 387 100 642 395 731 846 22 112 25 410 5 530 -77 465 -352 788 -739 869 -71 15 -237 27 -287 20z m140 -439 c87 -23 152 -62 227 -136 52 -52 76 -87 111 -160 72 -149 82 -203 81 -419 0 -173 -2 -191 -28 -275 -86 -282 -285 -445 -545 -445 -153 0 -258 44 -366 154 -82 83 -141 191 -177 326 -32 121 -33 373 0 503 59 236 202 398 399 452 67 18 226 18 298 0z"
       id="path12" />
    <path
       d="M1010 4240 l0 -189 141 -3 141 -3 343 -905 342 -905 254 0 253 0 341 895 c187 492 344 901 348 908 6 8 46 12 143 12 l134 0 0 190 0 190 -510 0 -510 0 0 -190 0 -190 130 0 c72 0 130 -3 130 -7 -1 -22 -458 -1254 -463 -1247 -10 18 -447 1230 -447 1242 0 9 34 12 125 12 l125 0 0 190 0 190 -510 0 -510 0 0 -190z"
       id="path14" />
    <path
       d="M5885 4417 c-3 -6 -4 -170 -3 -362 l3 -350 210 0 210 0 3 173 2 172 395 0 c217 0 395 -3 395 -7 0 -4 -11 -18 -24 -32 -13 -15 -292 -351 -620 -749 l-596 -723 0 -154 0 -155 940 0 940 0 0 360 0 360 -210 0 -210 0 0 -170 0 -170 -420 0 -420 0 98 118 c54 64 331 401 615 748 l517 632 0 161 0 161 -910 0 c-722 0 -912 -3 -915 -13z"
       id="path16" />
    <path
       d="M15200 4240 l0 -190 178 -2 177 -3 6 -625 c5 -524 8 -636 22 -690 72 -295 208 -448 462 -522 69 -20 102 -23 240 -23 184 1 270 18 412 85 134 63 252 157 330 263 l38 52 6 -91 c10 -134 44 -190 144 -236 48 -22 62 -23 343 -26 l292 -3 -2 188 -3 188 -145 3 c-122 2 -147 5 -157 19 -10 13 -13 211 -13 910 l0 893 -415 0 -415 0 0 -190 0 -190 178 -2 177 -3 0 -375 c0 -329 -2 -385 -19 -455 -71 -310 -258 -526 -506 -586 -30 -7 -95 -13 -145 -12 -187 2 -279 70 -333 248 -14 43 -17 157 -19 808 l-4 757 -414 0 -415 0 0 -190z"
       id="path18" />
    <path
       d="M18927 4423 c-4 -3 -7 -89 -7 -189 l0 -184 178 -2 177 -3 3 -717 2 -718 -165 0 -165 0 0 -190 0 -190 570 0 570 0 0 190 0 190 -170 0 -170 0 0 910 0 910 -408 0 c-225 0 -412 -3 -415 -7z"
       id="path20" />
  </g>
  <path
     style="fill:#00a940;fill-opacity:1;stroke:#00a940;stroke-width:2.76347px;stroke-linecap:butt;stroke-linejoin:miter;stroke-opacity:1"
     d="m 1065.1786,191.51165 h 163.9223 v -66.74067 h -6.1625 z"
     id="path46" />
</svg>
