<?xml version="1.0" encoding="utf-8"?>
<!-- Generator: $$$/GeneralStr/196=Adobe Illustrator 27.6.0, SVG Export Plug-In . SVG Version: 6.00 Build 0)  -->
<svg version="1.1" id="Capa_1" xmlns="http://www.w3.org/2000/svg" xmlns:xlink="http://www.w3.org/1999/xlink" x="0px" y="0px"
	 viewBox="0 0 302.3 90" style="enable-background:new 0 0 302.3 90;" xml:space="preserve">
<style type="text/css">
	.st0{clip-path:url(#SVGID_00000160873614296867730720000003727369449906238633_);}
	.st1{fill-rule:evenodd;clip-rule:evenodd;fill:#B60027;stroke:#1A171B;stroke-width:0.12;stroke-miterlimit:3.86;}
	.st2{fill-rule:evenodd;clip-rule:evenodd;fill:#A07E00;stroke:#1A171B;stroke-width:0.12;stroke-miterlimit:3.86;}
	.st3{fill-rule:evenodd;clip-rule:evenodd;fill:#A07E00;}
	.st4{fill-rule:evenodd;clip-rule:evenodd;fill:#A07E00;stroke:#1A171B;stroke-width:0.13;stroke-miterlimit:3.86;}
	.st5{fill:#FFFFFF;filter:url(#Adobe_OpacityMaskFilter);}
	.st6{mask:url(#mask0_49_2_00000067938414222010722600000016639561561088847795_);}
	.st7{fill:none;stroke:#1A171B;stroke-width:0.12;stroke-miterlimit:3.86;}
	.st8{fill-rule:evenodd;clip-rule:evenodd;fill:#F6DD21;stroke:#1A171B;stroke-width:0.12;stroke-miterlimit:3.86;}
	.st9{fill-rule:evenodd;clip-rule:evenodd;fill:#006F46;stroke:#1A171B;stroke-width:0.12;stroke-miterlimit:3.86;}
	.st10{fill-rule:evenodd;clip-rule:evenodd;fill:#B60027;}
	.st11{fill:#FFFFFF;filter:url(#Adobe_OpacityMaskFilter_00000149368859826873646620000002633408445635811763_);}
	.st12{mask:url(#mask1_49_2_00000078040565383821567740000013309958236182331322_);}
	.st13{fill:none;stroke:#1A171B;stroke-width:0.14;stroke-miterlimit:3.86;}
	.st14{fill:none;stroke:#1A171B;stroke-width:0.17;stroke-miterlimit:3.86;}
	.st15{fill:none;stroke:#1A171B;stroke-width:0.2;stroke-miterlimit:3.86;}
	.st16{fill:none;stroke:#1A171B;stroke-width:0.23;stroke-miterlimit:3.86;}
	.st17{fill:none;stroke:#1A171B;stroke-width:0.26;stroke-miterlimit:3.86;}
	.st18{fill:none;stroke:#1A171B;stroke-width:0.28;stroke-miterlimit:3.86;}
	.st19{fill:#A07E00;stroke:#1A171B;stroke-width:0.12;stroke-miterlimit:3.86;}
	.st20{fill:#A07E00;stroke:#1A171B;stroke-width:0.17;stroke-miterlimit:3.86;}
	.st21{fill-rule:evenodd;clip-rule:evenodd;fill:#A07E00;stroke:#1A171B;stroke-width:0.17;stroke-miterlimit:3.86;}
	.st22{fill-rule:evenodd;clip-rule:evenodd;fill:#0044AE;stroke:#1A171B;stroke-width:0.17;stroke-miterlimit:3.86;}
	.st23{fill-rule:evenodd;clip-rule:evenodd;fill:#BABABB;stroke:#1A171B;stroke-width:0.17;stroke-miterlimit:3.86;}
	.st24{fill-rule:evenodd;clip-rule:evenodd;fill:#B60027;stroke:#1A171B;stroke-width:0.17;stroke-miterlimit:3.86;}
	.st25{fill:#BABABB;}
	.st26{fill:#FFFFFF;filter:url(#Adobe_OpacityMaskFilter_00000001634118555409119880000004565796452395145113_);}
	.st27{mask:url(#mask2_49_2_00000154394751109162144090000009321946828667322548_);}
	.st28{fill:#F6DD21;stroke:#1A171B;stroke-width:0.1;stroke-miterlimit:3.86;}
	.st29{fill:none;stroke:#1A171B;stroke-width:0.1;stroke-miterlimit:3.86;}
	.st30{fill:none;stroke:#1A171B;stroke-width:0.12;stroke-linecap:round;stroke-miterlimit:3.86;}
	.st31{fill-rule:evenodd;clip-rule:evenodd;fill:#F6DD21;stroke:#1A171B;stroke-width:0.1;stroke-miterlimit:3.86;}
	.st32{fill:#FFFFFF;filter:url(#Adobe_OpacityMaskFilter_00000123414589789128469120000002741161421728590486_);}
	.st33{mask:url(#mask3_49_2_00000026871012690338302970000016854820930259080086_);}
	.st34{fill:#A07E00;}
	.st35{fill:#FFFFFF;filter:url(#Adobe_OpacityMaskFilter_00000084520997990659102760000000868620322827730604_);}
	.st36{mask:url(#mask4_49_2_00000044148281880489318390000010559364179485694091_);}
	.st37{fill:#FFFFFF;filter:url(#Adobe_OpacityMaskFilter_00000144324275516843947860000000796745834151459769_);}
	.st38{mask:url(#mask5_49_2_00000063600289675573105190000000181769738141172115_);}
	.st39{fill:none;stroke:#1A171B;stroke-width:2.000000e-02;stroke-miterlimit:3.86;}
	.st40{fill:#FFFFFF;filter:url(#Adobe_OpacityMaskFilter_00000090287539100670962770000017178227513664540328_);}
	.st41{mask:url(#mask6_49_2_00000174560944350619248420000015533898033466536354_);}
	.st42{fill:#FFFFFF;filter:url(#Adobe_OpacityMaskFilter_00000158734557246261128490000006931113666862722700_);}
	.st43{mask:url(#mask7_49_2_00000173124937920135856820000015078959029228366481_);}
	.st44{fill:none;}
	.st45{fill:#FFFFFF;filter:url(#Adobe_OpacityMaskFilter_00000141431127091282549910000000433764141818238090_);}
	.st46{mask:url(#mask8_49_2_00000088106571679303004040000013799209824343025292_);}
	.st47{fill:none;stroke:#1A171B;stroke-width:5.000000e-02;stroke-miterlimit:3.86;}
	.st48{fill:none;stroke:#1A171B;stroke-width:0.29;stroke-miterlimit:3.86;}
	.st49{fill:none;stroke:#1A171B;stroke-width:0.32;stroke-miterlimit:3.86;}
	.st50{fill:none;stroke:#1A171B;stroke-width:0.35;stroke-miterlimit:3.86;}
	.st51{fill:none;stroke:#1A171B;stroke-width:0.38;stroke-miterlimit:3.86;}
	.st52{fill:none;stroke:#1A171B;stroke-width:0.41;stroke-miterlimit:3.86;}
	.st53{fill:none;stroke:#1A171B;stroke-width:0.44;stroke-miterlimit:3.86;}
	.st54{fill:none;stroke:#1A171B;stroke-width:0.46;stroke-miterlimit:3.86;}
	.st55{fill:none;stroke:#1A171B;stroke-width:0.49;stroke-miterlimit:3.86;}
	.st56{fill:none;stroke:#1A171B;stroke-width:0.58;stroke-miterlimit:3.86;}
	.st57{fill:none;stroke:#1A171B;stroke-width:4.000000e-02;stroke-miterlimit:3.86;}
	.st58{fill-rule:evenodd;clip-rule:evenodd;fill:#F6DD21;stroke:#1A171B;stroke-width:0.17;stroke-miterlimit:3.86;}
	.st59{fill-rule:evenodd;clip-rule:evenodd;fill:#006F46;stroke:#1A171B;stroke-width:0.17;stroke-miterlimit:3.86;}
	.st60{fill-rule:evenodd;clip-rule:evenodd;fill:#0044AE;}
	.st61{fill:#FFFFFF;filter:url(#Adobe_OpacityMaskFilter_00000066502747963036696740000001163501811825622184_);}
	.st62{mask:url(#mask9_49_2_00000034790183305440332390000005957835354225891977_);}
	.st63{fill:#FFFFFF;filter:url(#Adobe_OpacityMaskFilter_00000147910101401233535300000003461650241476740504_);}
	.st64{mask:url(#mask10_49_2_00000037670349174979229880000001260211336210427792_);}
	.st65{fill-rule:evenodd;clip-rule:evenodd;fill:#BABABB;stroke:#1A171B;stroke-width:0.23;stroke-miterlimit:3.86;}
	.st66{fill:#BABABB;stroke:#1A171B;stroke-width:0.23;stroke-miterlimit:3.86;}
	.st67{fill:#B60027;stroke:#1A171B;stroke-width:0.23;stroke-miterlimit:3.86;}
	.st68{fill:#FFFFFF;filter:url(#Adobe_OpacityMaskFilter_00000158004709264315207850000002265600109183724465_);}
	.st69{mask:url(#mask11_49_2_00000078752421031157678460000005792374080514041231_);}
	.st70{fill:#A07E00;stroke:#1A171B;stroke-width:0.23;stroke-miterlimit:3.86;}
	.st71{fill-rule:evenodd;clip-rule:evenodd;fill:#B60027;stroke:#1A171B;stroke-width:0.23;stroke-miterlimit:3.86;}
	.st72{fill-rule:evenodd;clip-rule:evenodd;fill:#A07E00;stroke:#A07E00;stroke-width:0.12;stroke-miterlimit:3.86;}
	.st73{fill-rule:evenodd;clip-rule:evenodd;fill:#006F46;}
	.st74{fill-rule:evenodd;clip-rule:evenodd;fill:#D95AAF;stroke:#1A171B;stroke-width:0.17;stroke-miterlimit:3.86;}
	.st75{fill-rule:evenodd;clip-rule:evenodd;fill:#1A171B;stroke:#1A171B;stroke-width:0.12;stroke-miterlimit:3.86;}
	.st76{fill-rule:evenodd;clip-rule:evenodd;fill:#1A171B;stroke:#1A171B;stroke-width:2.000000e-02;stroke-miterlimit:3.86;}
	.st77{fill-rule:evenodd;clip-rule:evenodd;fill:#F7CC7E;stroke:#1A171B;stroke-width:0.23;stroke-miterlimit:3.86;}
	.st78{fill-rule:evenodd;clip-rule:evenodd;fill:#006F46;stroke:#1A171B;stroke-width:0.23;stroke-miterlimit:3.86;}
	.st79{fill:#F6DD21;stroke:#1A171B;stroke-width:0.17;stroke-miterlimit:3.86;}
	.st80{fill-rule:evenodd;clip-rule:evenodd;fill:#A07E00;stroke:#1A171B;stroke-width:0.23;stroke-miterlimit:3.86;}
	.st81{fill-rule:evenodd;clip-rule:evenodd;fill:#0044AE;stroke:#1A171B;stroke-width:0.23;stroke-miterlimit:3.86;}
	.st82{fill-rule:evenodd;clip-rule:evenodd;fill:#B60027;stroke:#1A171B;stroke-width:0.27;stroke-miterlimit:3.86;}
	.st83{fill-rule:evenodd;clip-rule:evenodd;fill:#0044AE;stroke:#1A171B;stroke-width:0.27;stroke-miterlimit:3.86;}
	.st84{fill-rule:evenodd;clip-rule:evenodd;fill:#A07E00;stroke:#1A171B;stroke-width:0.15;stroke-miterlimit:3.86;}
	.st85{fill:#A07E00;stroke:#1A171B;stroke-width:0.15;stroke-miterlimit:3.86;}
	.st86{fill:rgb(120, 120, 120);}
</style>
<g>
	<defs>
		<rect id="SVGID_1_" y="0" width="635" height="90"/>
	</defs>
	<clipPath id="SVGID_00000043434524411967902390000000872945658284746115_">
		<use xlink:href="#SVGID_1_"  style="overflow:visible;"/>
	</clipPath>
	<g style="clip-path:url(#SVGID_00000043434524411967902390000000872945658284746115_);">
		<path class="st1" d="M5.5,31.7c0,0-0.2,0-0.4-0.1s-0.5-0.5-0.5-0.5l-0.3-0.2L4,30.5c0,0-0.3-0.6-0.2-1c0.1-0.4,0.4-0.6,0.6-0.7
			c0.2-0.1,0.7-0.3,0.7-0.3s0.4-0.2,0.5-0.2c0.1,0,0.6-0.2,0.6-0.2s0.1-0.1,0.3-0.1c0.1,0,0.3,0,0.4-0.1c0.1,0,0.4-0.1,0.5-0.1
			c0.2,0,0.6,0,0.7,0s0.6,0,0.7,0c0.2,0,0.8-0.1,1-0.1c0.2,0,0.3,0,0.5,0c0.2,0,0.6,0.1,0.7,0.2c0.1,0,0.7,0.3,0.9,0.4
			c0.2,0.1,0.8,0.2,1.1,0.3c0.3,0.1,0.4,0.3,0.5,0.5c0.1,0.2,0.2,0.4,0.2,0.5c0.1,0.1,0.1,0.4,0,0.5c0,0.1-0.2,0.4-0.2,0.4l-0.3,0.5
			L13,31.5c0,0-0.2,0.3-0.5,0.2c-0.2,0-2.3-0.4-3.6-0.4C7.6,31.3,5.4,31.7,5.5,31.7L5.5,31.7z"/>
		<path class="st2" d="M8.3,28.6c0-0.7,0.3-1.2,0.6-1.2c0.3,0,0.6,0.5,0.6,1.2s-0.3,1.2-0.6,1.2C8.6,29.8,8.3,29.2,8.3,28.6z"/>
		<path class="st2" d="M8.6,28.6c0-0.6,0.1-1.1,0.3-1.1s0.3,0.5,0.3,1.1s-0.1,1.1-0.3,1.1S8.6,29.2,8.6,28.6z"/>
		<path class="st3" d="M8.5,27.3c0-0.2,0.2-0.4,0.4-0.4c0.2,0,0.4,0.2,0.4,0.4c0,0.2-0.2,0.4-0.4,0.4C8.7,27.7,8.5,27.5,8.5,27.3z"
			/>
		<path class="st4" d="M9.2,27.2v0.3H8.6v-0.3h0.2v-0.6H8.5v-0.3h0.3V26h0.3v0.3h0.3v0.3H9.1v0.6H9.2z"/>
		<defs>
			<filter id="Adobe_OpacityMaskFilter" filterUnits="userSpaceOnUse" x="8.3" y="25.9" width="1.3" height="1.6">
				<feColorMatrix  type="matrix" values="1 0 0 0 0  0 1 0 0 0  0 0 1 0 0  0 0 0 1 0"/>
			</filter>
		</defs>
		
			<mask maskUnits="userSpaceOnUse" x="8.3" y="25.9" width="1.3" height="1.6" id="mask0_49_2_00000067938414222010722600000016639561561088847795_">
			<path class="st5" d="M8.5,27.3c0-0.2,0.2-0.4,0.4-0.4c0.2,0,0.4,0.2,0.4,0.4c0,0.2-0.2,0.4-0.4,0.4C8.7,27.7,8.5,27.5,8.5,27.3z"
				/>
		</mask>
		<g class="st6">
			<path class="st4" d="M9.5,27.2v0.3H8.4v-0.3h0.4v-0.6H8.5v-0.3h0.3V26h0.3v0.3h0.3v0.3H9.1v0.6H9.5z"/>
		</g>
		<path class="st7" d="M9,26.9c0.2,0,0.3,0.2,0.3,0.4c0,0.2-0.2,0.4-0.4,0.4c-0.2,0-0.4-0.2-0.4-0.4c0-0.2,0.1-0.4,0.3-0.4"/>
		<path class="st2" d="M8.9,31.6H6.8l0-0.6l-0.1-0.6l-0.1-0.7c-0.6-0.8-1.2-1.4-1.3-1.3c0-0.1,0.1-0.3,0.2-0.3
			c0.5-0.3,1.6,0.5,2.5,1.8C7.9,30,8,30.2,8,30.3h1.8C9.9,30.2,10,30,10,29.9c0.8-1.3,1.9-2.1,2.4-1.8c0.1,0.1,0.2,0.2,0.2,0.3
			c-0.2-0.1-0.7,0.4-1.3,1.3l-0.1,0.7l-0.1,0.6l0,0.6H8.9L8.9,31.6z"/>
		<path class="st7" d="M5.3,28.5c0.4-0.3,1.4,0.5,2.1,1.8"/>
		<path class="st7" d="M12.6,28.5c-0.4-0.3-1.4,0.5-2.1,1.8"/>
		<path class="st2" d="M5.7,32.7c-0.1-0.3-0.3-0.5-0.3-0.5c0.9-0.3,2.1-0.5,3.5-0.5c1.4,0,2.6,0.2,3.5,0.5c0,0-0.1,0.2-0.2,0.4
			C12.1,32.7,12,33,12,33c-0.8-0.3-1.8-0.4-3.1-0.4c-1.3,0-2.5,0.2-3.1,0.4C5.8,33,5.8,32.8,5.7,32.7L5.7,32.7z"/>
		<path class="st2" d="M8.9,33.8c1.1,0,2.3-0.2,2.7-0.3c0.3-0.1,0.5-0.2,0.4-0.4c0-0.1-0.1-0.1-0.2-0.2c-0.7-0.2-1.8-0.4-3-0.4
			c-1.2,0-2.4,0.2-3,0.4c-0.1,0-0.2,0.1-0.2,0.2c0,0.2,0.1,0.3,0.4,0.4C6.6,33.7,7.8,33.8,8.9,33.8L8.9,33.8z"/>
		<path class="st2" d="M12.5,31.6l-0.3-0.3c0,0-0.2,0.2-0.6,0.1c-0.3-0.1-0.4-0.5-0.4-0.5s-0.4,0.3-0.6,0.3c-0.3,0-0.5-0.3-0.5-0.3
			s-0.3,0.2-0.6,0.2c-0.3,0-0.6-0.4-0.6-0.4s-0.3,0.4-0.6,0.4c-0.3,0-0.5-0.3-0.5-0.3s-0.1,0.3-0.5,0.3C7,31.4,6.7,31,6.7,31
			s-0.2,0.4-0.5,0.4c-0.2,0.1-0.6-0.1-0.6-0.1s-0.1,0.1-0.1,0.2c0,0.1-0.1,0.1-0.1,0.1l0.1,0.2c0.9-0.3,2.1-0.4,3.4-0.4
			c1.3,0,2.6,0.2,3.4,0.4L12.5,31.6L12.5,31.6z"/>
		<path class="st2" d="M8.9,30.4l0.1,0c0,0,0,0.1,0,0.2c0,0.3,0.2,0.5,0.5,0.5c0.2,0,0.4-0.1,0.5-0.3c0,0,0.1-0.2,0.1-0.2
			c0,0,0,0.2,0,0.2c0,0.2,0.2,0.4,0.5,0.4c0.3,0,0.5-0.2,0.5-0.5c0,0,0,0,0-0.1l0.2-0.2l0.1,0.2c0,0.1,0,0.1,0,0.2
			c0,0.3,0.2,0.5,0.5,0.5c0.2,0,0.3-0.1,0.4-0.2l0.1-0.1v0.2c0,0.2,0.1,0.3,0.2,0.3c0,0,0.2,0,0.4-0.2c0.2-0.2,0.4-0.4,0.4-0.4
			l0,0.2c0,0-0.2,0.4-0.4,0.5c-0.1,0.1-0.3,0.1-0.4,0.1c-0.2,0-0.2-0.2-0.3-0.3c-0.1,0.1-0.2,0.1-0.4,0.1c-0.3,0-0.5-0.2-0.6-0.4
			c-0.1,0.1-0.3,0.2-0.5,0.2c-0.2,0-0.4-0.1-0.6-0.3c-0.1,0.1-0.3,0.2-0.5,0.2c-0.2,0-0.5-0.1-0.6-0.3c-0.1,0.2-0.4,0.3-0.6,0.3
			c-0.2,0-0.4-0.1-0.5-0.2c-0.1,0.2-0.3,0.3-0.6,0.3c-0.2,0-0.4-0.1-0.5-0.2c-0.1,0.2-0.4,0.4-0.6,0.4c-0.1,0-0.3,0-0.4-0.1
			c0,0.1-0.2,0.3-0.3,0.3c-0.1,0-0.3-0.1-0.4-0.1c-0.2-0.1-0.5-0.5-0.5-0.5l0-0.2c0,0,0.1,0.2,0.4,0.4c0.2,0.2,0.4,0.2,0.4,0.2
			c0.2,0,0.2-0.2,0.2-0.3V31l0.1,0.1c0.1,0.1,0.2,0.2,0.4,0.2c0.3,0,0.5-0.2,0.5-0.5c0-0.1,0-0.1,0-0.2l0.1-0.2l0.2,0.2
			c0,0,0,0,0,0.1c0,0.3,0.2,0.5,0.5,0.5c0.2,0,0.5-0.2,0.5-0.4c0,0,0-0.2,0-0.2s0.1,0.2,0.1,0.2c0.1,0.2,0.3,0.3,0.5,0.3
			c0.3,0,0.5-0.2,0.5-0.5c0-0.1,0-0.1,0-0.2L8.9,30.4L8.9,30.4z"/>
		<path class="st2" d="M8.9,31.7c-1.4,0-2.6,0.2-3.5,0.4c-0.1,0-0.1,0-0.2-0.1c0-0.1,0-0.1,0.1-0.1c0.9-0.3,2.1-0.5,3.5-0.5
			c1.4,0,2.7,0.2,3.5,0.5c0.1,0,0.1,0.1,0.1,0.1c0,0.1-0.1,0.1-0.1,0.1C11.5,31.9,10.3,31.7,8.9,31.7z"/>
		<path class="st8" d="M7.6,32.2c0-0.1,0.1-0.2,0.2-0.2S8,32.1,8,32.2s-0.1,0.2-0.2,0.2S7.6,32.3,7.6,32.2z"/>
		<path class="st1" d="M8.9,32.3H8.5c-0.1,0-0.2-0.1-0.2-0.2c0-0.1,0.1-0.1,0.2-0.1h0.9c0.1,0,0.2,0.1,0.2,0.1
			c0,0.1-0.1,0.2-0.2,0.2H8.9L8.9,32.3z"/>
		<path class="st9" d="M6.7,32.4l-0.3,0c-0.1,0-0.2,0-0.2-0.1c0-0.1,0-0.1,0.1-0.2l0.3,0l0.3,0c0.1,0,0.2,0,0.2,0.1
			c0,0.1,0,0.2-0.1,0.2L6.7,32.4L6.7,32.4z"/>
		<path class="st1" d="M5.5,32.7l0.1-0.2l0.3,0.1l-0.2,0.3L5.5,32.7z"/>
		<path class="st8" d="M9.9,32.2c0-0.1,0.1-0.2,0.2-0.2c0.1,0,0.2,0.1,0.2,0.2s-0.1,0.2-0.2,0.2C9.9,32.4,9.9,32.3,9.9,32.2z"/>
		<path class="st9" d="M11.1,32.4l0.3,0c0.1,0,0.2,0,0.2-0.1c0-0.1,0-0.1-0.1-0.2l-0.3,0l-0.3,0c-0.1,0-0.2,0-0.2,0.1
			c0,0.1,0,0.2,0.1,0.2L11.1,32.4L11.1,32.4z"/>
		<path class="st1" d="M12.3,32.7l-0.1-0.2l-0.3,0l0.1,0.3L12.3,32.7z"/>
		<path class="st10" d="M8.9,33.6c-1.1,0-2.1-0.1-2.8-0.3c0.8-0.2,1.8-0.3,2.8-0.3c1.1,0,2.1,0.1,2.9,0.3C11,33.5,10,33.6,8.9,33.6z
			"/>
		<defs>
			
				<filter id="Adobe_OpacityMaskFilter_00000064341508871910849110000009413943192841956502_" filterUnits="userSpaceOnUse" x="6.3" y="32.3" width="3.5" height="1.8">
				<feColorMatrix  type="matrix" values="1 0 0 0 0  0 1 0 0 0  0 0 1 0 0  0 0 0 1 0"/>
			</filter>
		</defs>
		
			<mask maskUnits="userSpaceOnUse" x="6.3" y="32.3" width="3.5" height="1.8" id="mask1_49_2_00000078040565383821567740000013309958236182331322_">
			<path style="fill:#FFFFFF;filter:url(#Adobe_OpacityMaskFilter_00000064341508871910849110000009413943192841956502_);" d="
				M8.9,33.6c-1.1,0-2.1-0.1-2.8-0.3c0.8-0.2,1.8-0.3,2.8-0.3c1.1,0,2.1,0.1,2.9,0.3C11,33.5,10,33.6,8.9,33.6z"/>
		</mask>
		<g class="st12">
			<path class="st7" d="M9.8,32.3v1.8"/>
			<path class="st13" d="M9.4,32.3v1.8"/>
			<path class="st14" d="M9,32.3v1.8"/>
			<path class="st14" d="M8.6,32.3v1.8"/>
			<path class="st14" d="M8.3,32.3v1.8"/>
			<path class="st14" d="M8,32.3v1.8"/>
			<path class="st15" d="M7.7,32.3v1.8"/>
			<path class="st16" d="M7.4,32.3v1.8"/>
			<path class="st16" d="M7.1,32.3v1.8"/>
			<path class="st17" d="M6.8,32.3v1.8"/>
			<path class="st18" d="M6.5,32.3v1.8"/>
		</g>
		<path class="st7" d="M8.9,33.6c-1.1,0-2.1-0.1-2.8-0.3c0.8-0.2,1.8-0.3,2.8-0.3c1.1,0,2.1,0.1,2.9,0.3C11,33.5,10,33.6,8.9,33.6z"
			/>
		<path class="st2" d="M12.4,31c0-0.1,0-0.2-0.1-0.2c-0.1,0-0.1,0-0.2,0.1s0,0.2,0.1,0.2C12.3,31.2,12.4,31.1,12.4,31z"/>
		<path class="st2" d="M10.2,30.6c0-0.1,0-0.2-0.1-0.2c-0.1,0-0.1,0.1-0.1,0.2c0,0.1,0,0.2,0.1,0.2C10.1,30.8,10.2,30.7,10.2,30.6
			L10.2,30.6z"/>
		<path class="st2" d="M7.7,30.6c0-0.1,0-0.2,0.1-0.2s0.1,0.1,0.1,0.2c0,0.1,0,0.2-0.1,0.2C7.7,30.8,7.7,30.7,7.7,30.6L7.7,30.6z"/>
		<path class="st2" d="M5.5,31c0-0.1,0-0.2,0.1-0.2s0.1,0,0.2,0.1c0,0.1,0,0.2-0.1,0.2C5.6,31.2,5.5,31.1,5.5,31z"/>
		<path class="st2" d="M8.9,29.3l-0.4,0.2l0.3,0.7l0.1,0.1L9,30.2l0.3-0.7L8.9,29.3z"/>
		<path class="st2" d="M8.1,30.3l0.2,0.3l0.6-0.2l0.1-0.1l-0.1-0.1L8.3,30L8.1,30.3z"/>
		<path class="st2" d="M9.8,30.3l-0.2,0.3L9,30.3l-0.1-0.1L9,30.2L9.6,30L9.8,30.3z"/>
		<path class="st2" d="M6.4,29.6l-0.3,0.3l0.4,0.5l0.1,0l0.1-0.1l0.1-0.6L6.4,29.6z"/>
		<path class="st2" d="M5.8,30.7L6,30.9l0.6-0.3l0-0.1l-0.1-0.1l-0.6-0.1L5.8,30.7z"/>
		<path class="st2" d="M7.4,30.3l-0.1,0.3l-0.6-0.1l-0.1-0.1l0.1-0.1L7.2,30L7.4,30.3z"/>
		<path class="st2" d="M5.2,30.7l0,0.3l-0.6,0.1l-0.1-0.1l0-0.1l0.5-0.4L5.2,30.7z"/>
		<path class="st2" d="M6.4,30.5c0-0.1,0.1-0.2,0.2-0.2s0.2,0.1,0.2,0.2c0,0.1-0.1,0.2-0.2,0.2S6.4,30.6,6.4,30.5z"/>
		<path class="st2" d="M11.5,29.6l0.3,0.3l-0.4,0.5l-0.1,0l-0.1-0.1l-0.1-0.6L11.5,29.6z"/>
		<path class="st2" d="M12.1,30.7l-0.2,0.2l-0.6-0.3l0-0.1l0.1-0.1l0.6-0.1L12.1,30.7z"/>
		<path class="st2" d="M10.4,30.3l0.1,0.3l0.6-0.1l0.1-0.1l0-0.1L10.7,30L10.4,30.3z"/>
		<path class="st2" d="M12.6,30.7l0.1,0.3l0.6,0.1l0.1-0.1l0-0.1l-0.5-0.4L12.6,30.7z"/>
		<path class="st2" d="M8.7,30.3c0-0.1,0.1-0.2,0.2-0.2c0.1,0,0.2,0.1,0.2,0.2c0,0.1-0.1,0.2-0.2,0.2C8.8,30.5,8.7,30.4,8.7,30.3z"
			/>
		<path class="st2" d="M11,30.5c0-0.1,0.1-0.2,0.2-0.2s0.2,0.1,0.2,0.2c0,0.1-0.1,0.2-0.2,0.2S11,30.6,11,30.5z"/>
		<path class="st19" d="M4.3,31.1c0,0-0.2-0.2-0.3-0.4c-0.1-0.1-0.3-0.2-0.3-0.2c0,0,0.1-0.1,0.3-0.1c0.1,0,0.2,0,0.2,0.1l0-0.1
			c0,0,0.1,0,0.2,0.2c0.1,0.1,0,0.3,0,0.3S4.3,31.1,4.3,31.1z"/>
		<path class="st2" d="M4.3,31c0-0.1,0.2-0.1,0.2,0c0.1,0.1,0.1,0.2,0,0.2c-0.1,0.1-0.2,0.1-0.2,0C4.3,31.2,4.3,31.1,4.3,31z"/>
		<path class="st19" d="M13.5,31.1c0,0,0.2-0.2,0.3-0.4c0.1-0.1,0.3-0.2,0.3-0.2c0,0-0.1-0.1-0.3-0.1c-0.1,0-0.2,0-0.2,0.1l0-0.1
			c0,0-0.1,0-0.2,0.2c-0.1,0.1,0,0.3,0,0.3S13.4,31.1,13.5,31.1z"/>
		<path class="st2" d="M13.5,31c-0.1-0.1-0.2-0.1-0.2,0c-0.1,0.1-0.1,0.2-0.1,0.2c0.1,0.1,0.2,0.1,0.2,0
			C13.5,31.2,13.5,31.1,13.5,31z"/>
		<path class="st20" d="M14,33.7H3.9v2.8H14V33.7z"/>
		<path class="st21" d="M5,38.4c0.1,0,0.1,0,0.2,0h7.5c0.1,0,0.2,0,0.2,0c-0.3-0.1-0.4-0.3-0.4-0.6c0-0.3,0.2-0.6,0.5-0.6
			c-0.1,0-0.2,0-0.2,0H5.2c-0.1,0-0.2,0-0.2,0h0c0.3,0.1,0.4,0.3,0.4,0.6C5.4,38,5.2,38.3,5,38.4z"/>
		<path class="st21" d="M5.2,38.4h7.5c0.3,0,0.5,0.2,0.5,0.4c0,0.2-0.2,0.4-0.5,0.4H5.2c-0.3,0-0.5-0.2-0.5-0.4
			C4.7,38.5,4.9,38.4,5.2,38.4z"/>
		<path class="st21" d="M5.2,36.5h7.5c0.2,0,0.5,0.1,0.5,0.3c0,0.2-0.2,0.3-0.5,0.3H5.2c-0.3,0-0.5-0.1-0.5-0.3
			C4.7,36.7,4.9,36.5,5.2,36.5z"/>
		<path class="st22" d="M16,83.4c-0.7,0-1.3-0.2-1.8-0.4c-0.4-0.2-1.1-0.4-1.8-0.4s-1.3,0.2-1.8,0.4c-0.5,0.2-1.1,0.4-1.8,0.4
			c-0.7,0-1.3-0.2-1.8-0.4c-0.4-0.2-1-0.4-1.7-0.4S4.1,82.8,3.7,83c-0.5,0.3-1.1,0.4-1.8,0.4v1.2c0.7,0,1.3-0.2,1.8-0.4
			c0.5-0.2,1.1-0.4,1.7-0.4s1.3,0.1,1.7,0.4c0.5,0.3,1.1,0.4,1.8,0.4c0.7,0,1.3-0.2,1.8-0.4c0.5-0.2,1.1-0.4,1.8-0.4
			s1.3,0.1,1.8,0.4c0.5,0.3,1.1,0.4,1.8,0.4V83.4z"/>
		<path class="st23" d="M16,84.6c-0.7,0-1.3-0.2-1.8-0.4c-0.4-0.2-1.1-0.4-1.8-0.4s-1.3,0.1-1.8,0.4c-0.5,0.2-1.1,0.4-1.8,0.4
			c-0.7,0-1.3-0.2-1.8-0.4c-0.4-0.2-1-0.4-1.7-0.4s-1.3,0.1-1.7,0.4c-0.5,0.3-1.1,0.4-1.8,0.4v1.2c0.7,0,1.3-0.2,1.8-0.4
			s1.1-0.4,1.7-0.4s1.3,0.1,1.7,0.4c0.5,0.3,1.1,0.4,1.8,0.4c0.7,0,1.3-0.2,1.8-0.4c0.5-0.2,1.1-0.4,1.8-0.4s1.3,0.2,1.8,0.4
			c0.5,0.3,1.1,0.4,1.8,0.4V84.6z"/>
		<path class="st22" d="M16,85.7c-0.7,0-1.3-0.2-1.8-0.4c-0.4-0.2-1.1-0.4-1.8-0.4s-1.3,0.2-1.8,0.4c-0.5,0.2-1.1,0.4-1.8,0.4
			c-0.7,0-1.3-0.2-1.8-0.4c-0.4-0.2-1-0.4-1.7-0.4s-1.3,0.1-1.7,0.4c-0.5,0.3-1.1,0.4-1.8,0.4v1.2c0.7,0,1.3-0.2,1.8-0.4
			s1.1-0.4,1.7-0.4s1.3,0.1,1.7,0.4c0.5,0.3,1.1,0.4,1.8,0.4c0.7,0,1.3-0.2,1.8-0.4c0.5-0.2,1.1-0.4,1.8-0.4s1.3,0.2,1.8,0.4
			c0.5,0.3,1.1,0.4,1.8,0.4V85.7L16,85.7z"/>
		<path class="st23" d="M16,88c-0.7,0-1.3-0.2-1.8-0.4c-0.4-0.2-1.1-0.4-1.8-0.4c-0.7,0-1.3,0.2-1.8,0.4S9.6,88,8.9,88
			c-0.7,0-1.3-0.2-1.8-0.4c-0.4-0.2-1-0.4-1.7-0.4s-1.3,0.1-1.7,0.4C3.2,87.9,2.6,88,1.9,88v-1.1c0.7,0,1.3-0.2,1.8-0.4
			c0.5-0.2,1.1-0.4,1.7-0.4s1.3,0.1,1.7,0.4c0.5,0.3,1.1,0.4,1.8,0.4c0.7,0,1.3-0.2,1.8-0.4s1.1-0.4,1.8-0.4c0.7,0,1.3,0.2,1.8,0.4
			c0.5,0.3,1.1,0.4,1.8,0.4V88z"/>
		<path class="st22" d="M16,89.2c-0.7,0-1.3-0.2-1.8-0.4c-0.4-0.2-1.1-0.4-1.8-0.4c-0.7,0-1.3,0.2-1.8,0.4s-1.1,0.4-1.8,0.4
			c-0.7,0-1.3-0.2-1.8-0.4c-0.4-0.2-1-0.4-1.7-0.4s-1.3,0.1-1.7,0.4c-0.5,0.2-1.1,0.4-1.8,0.4V88c0.7,0,1.3-0.2,1.8-0.4
			s1.1-0.4,1.7-0.4s1.3,0.1,1.7,0.4C7.6,87.9,8.2,88,8.9,88c0.7,0,1.3-0.2,1.8-0.4s1.1-0.4,1.8-0.4c0.7,0,1.3,0.2,1.8,0.4
			c0.5,0.3,1.1,0.4,1.8,0.4V89.2L16,89.2z"/>
		<path class="st21" d="M5,78.7C5,78.8,5,78.9,5,79c0,0.7-0.6,1.2-1.3,1.2h10.4c-0.7,0-1.3-0.6-1.3-1.2c0-0.1,0-0.2,0-0.3
			c-0.1,0-0.1,0-0.2,0H5.2C5.1,78.7,5,78.7,5,78.7L5,78.7z"/>
		<path class="st21" d="M5.2,78h7.5c0.3,0,0.5,0.2,0.5,0.4c0,0.2-0.2,0.4-0.5,0.4H5.2c-0.3,0-0.5-0.2-0.5-0.4
			C4.7,78.1,4.9,78,5.2,78z"/>
		<path class="st20" d="M14.1,80.3H3.8V83h10.3V80.3z"/>
		<path class="st24" d="M3,68.1c-1,0.6-1.7,1.3-1.6,1.6c0.1,0.3,0.4,0.5,0.8,0.8c0.7,0.5,1.2,1.5,0.8,1.9c0.6-0.5,1-1.3,1-2.1
			S3.6,68.7,3,68.1L3,68.1z"/>
		<path class="st25" d="M12.6,39.5H5.3v38h7.3V39.5z"/>
		<defs>
			
				<filter id="Adobe_OpacityMaskFilter_00000136398753439713047910000007341652059659204792_" filterUnits="userSpaceOnUse" x="10.5" y="38.6" width="1" height="40">
				<feColorMatrix  type="matrix" values="1 0 0 0 0  0 1 0 0 0  0 0 1 0 0  0 0 0 1 0"/>
			</filter>
		</defs>
		
			<mask maskUnits="userSpaceOnUse" x="10.5" y="38.6" width="1" height="40" id="mask2_49_2_00000154394751109162144090000009321946828667322548_">
			<path style="fill:#FFFFFF;filter:url(#Adobe_OpacityMaskFilter_00000136398753439713047910000007341652059659204792_);" d="
				M12.6,39.5H5.3v38h7.3V39.5z"/>
		</mask>
		<g class="st27">
			<path class="st14" d="M10.6,38.6v40"/>
			<path class="st14" d="M11.4,38.6v40"/>
		</g>
		<path class="st14" d="M12.6,39.5H5.3v38h7.3V39.5z"/>
		<path class="st24" d="M20.1,53.8c-1.6-0.7-4.3-1.2-7.4-1.3c-1.1,0-2.3,0.1-3.5,0.3c-4.4,0.8-7.7,2.6-7.5,4.1c0,0,0,0.1,0,0.1
			c0,0-1.7-3.9-1.7-4.1c-0.3-1.7,3.4-3.7,8.3-4.6c1.5-0.3,3-0.4,4.3-0.4c3.1,0,5.8,0.4,7.5,1.1L20.1,53.8L20.1,53.8z"/>
		<path class="st24" d="M5.2,58.5c-2-0.2-3.4-0.7-3.6-1.6c-0.1-0.7,0.6-1.5,1.8-2.2c0.5,0.1,1.2,0.1,1.8,0.1L5.2,58.5L5.2,58.5z"/>
		<path class="st24" d="M12.6,55.6c1.3,0.2,2.2,0.5,2.7,1l0,0.1c0.2,0.5-0.9,1.5-2.8,2.7L12.6,55.6L12.6,55.6z"/>
		<path class="st24" d="M0.7,65.9c-0.2-0.6,1.8-1.8,4.6-2.9c1.3-0.5,2.3-1,3.6-1.6c3.9-1.8,6.8-3.9,6.4-4.7l0-0.1
			c0.2,0.2,0.5,3.9,0.5,3.9c0.4,0.7-2.3,2.8-5.9,4.6c-1.2,0.6-3.6,1.5-4.7,2c-2,0.8-4.1,2.2-3.9,2.7L0.7,65.9L0.7,65.9z"/>
		<path class="st3" d="M4.7,51.9c0.9-0.3,1.5-0.8,1.2-1.5c-0.2-0.5-0.6-0.6-1.3-0.3l-1.2,0.5l1.1,2.9c0.1-0.1,0.2-0.1,0.4-0.2
			c0.1,0,0.2-0.1,0.4-0.1L4.7,51.9L4.7,51.9z M4.2,50.5l0.3-0.1c0.3-0.1,0.6,0,0.7,0.4c0.1,0.3,0.1,0.5-0.2,0.7
			c-0.1,0.1-0.2,0.1-0.3,0.2L4.2,50.5z"/>
		<path class="st3" d="M7.6,49.3c-0.1,0-0.3,0.1-0.4,0.1s-0.3,0-0.4,0.1l0.6,3l2-0.4c0-0.1-0.1-0.1-0.1-0.2c0-0.1,0-0.1,0-0.2
			C9,51.8,8.6,51.9,8.1,52L7.6,49.3L7.6,49.3z"/>
		<path class="st3" d="M11.5,51.9c0.4-1.1,0.8-2.1,1.3-3.2c-0.1,0-0.2,0-0.2,0s-0.2,0-0.2,0c-0.2,0.8-0.5,1.5-0.8,2.3
			c-0.4-0.7-0.8-1.4-1.1-2.1c-0.1,0-0.3,0-0.5,0.1c-0.1,0-0.3,0-0.5,0c0.6,1,1.1,2,1.6,3c0.1,0,0.2,0,0.2,0
			C11.4,51.9,11.5,51.9,11.5,51.9z"/>
		<path class="st3" d="M15.7,49.6c0.1-0.1,0.1-0.3,0.2-0.4c-0.1-0.1-0.4-0.3-0.8-0.3c-0.8-0.1-1.3,0.3-1.3,0.8
			c-0.1,1.1,1.5,1,1.4,1.7c0,0.3-0.3,0.4-0.7,0.4c-0.4,0-0.6-0.2-0.7-0.6h-0.1c-0.1,0.2-0.1,0.4-0.2,0.5c0.2,0.2,0.5,0.2,0.8,0.3
			c0.8,0.1,1.5-0.3,1.5-0.8c0.1-1-1.5-1.1-1.5-1.7c0-0.2,0.2-0.4,0.6-0.4C15.3,49.2,15.5,49.3,15.7,49.6L15.7,49.6L15.7,49.6z"/>
		<path class="st1" d="M76.3,30.8c0,0-0.3,0.4-0.6,0.4c-0.2,0-0.5-0.2-0.5-0.2s-0.2,0.2-0.5,0.3c-0.3,0.1-0.6-0.3-0.6-0.3
			s-0.3,0.4-0.5,0.5s-0.5-0.1-0.5-0.1s-0.1,0.2-0.3,0.3c-0.1,0-0.2,0-0.2,0l-0.3-0.2L72,31.1L71.7,31c0,0-0.1-0.4-0.1-0.5
			c0-0.1,0-0.3,0-0.3c-0.1-0.3,0.4-0.7,1-0.8c0.4-0.1,0.7-0.1,0.9,0c0.3-0.2,0.8-0.4,1.4-0.4c0.6,0,1.1,0.1,1.4,0.3
			c0.3-0.2,0.8-0.3,1.4-0.3c0.6,0,1.2,0.2,1.4,0.4c0.2-0.1,0.6-0.1,0.9,0c0.6,0.1,1.1,0.5,1,0.8c0,0,0,0.2,0,0.3S80.9,31,80.9,31
			l-0.3,0.1l-0.3,0.3L80,31.6c0,0-0.1,0.1-0.2,0c-0.2-0.1-0.3-0.3-0.3-0.3s-0.3,0.2-0.5,0.1c-0.2-0.1-0.5-0.5-0.5-0.5
			s-0.4,0.4-0.6,0.3c-0.3-0.1-0.5-0.3-0.5-0.3s-0.3,0.3-0.6,0.2C76.6,31.2,76.3,30.8,76.3,30.8L76.3,30.8z"/>
		<path class="st2" d="M75.7,28.8c0-0.5,0.3-0.9,0.6-0.9c0.3,0,0.6,0.4,0.6,0.9c0,0.5-0.3,0.9-0.6,0.9C76,29.8,75.7,29.3,75.7,28.8z
			"/>
		<path class="st2" d="M76.1,28.8c0-0.5,0.1-0.9,0.3-0.9c0.2,0,0.3,0.4,0.3,0.9s-0.1,0.9-0.3,0.9C76.2,29.7,76.1,29.3,76.1,28.8z"/>
		<path class="st2" d="M73.1,32.7c-0.1-0.3-0.3-0.5-0.3-0.5c0.9-0.3,2.1-0.4,3.5-0.4c1.4,0,2.6,0.2,3.5,0.4c0,0-0.1,0.2-0.2,0.4
			c-0.1,0.1-0.2,0.4-0.2,0.4c-0.8-0.3-1.8-0.4-3.1-0.4c-1.3,0-2.5,0.2-3.1,0.4C73.2,33,73.2,32.8,73.1,32.7L73.1,32.7z"/>
		<path class="st2" d="M76.3,33.8c1.1,0,2.3-0.2,2.8-0.3c0.3-0.1,0.5-0.2,0.4-0.4c0-0.1-0.1-0.1-0.2-0.2c-0.7-0.2-1.8-0.4-3-0.4
			c-1.2,0-2.4,0.2-3,0.4c-0.1,0-0.2,0.1-0.2,0.2c0,0.2,0.1,0.3,0.4,0.4C74,33.7,75.2,33.8,76.3,33.8L76.3,33.8z"/>
		<path class="st28" d="M79.2,29.4c0.1,0,0.2-0.1,0.2-0.2c0-0.1-0.1-0.2-0.2-0.2c-0.1,0-0.2,0.1-0.2,0.2
			C79,29.3,79.1,29.4,79.2,29.4z"/>
		<path class="st29" d="M78.9,28.5c0-0.1,0.1-0.2,0.2-0.2s0.2,0.1,0.2,0.2c0,0.1-0.1,0.2-0.2,0.2S78.9,28.6,78.9,28.5z"/>
		<path class="st29" d="M78.4,28.1c0-0.1,0.1-0.2,0.2-0.2s0.2,0.1,0.2,0.2c0,0.1-0.1,0.2-0.2,0.2S78.4,28.2,78.4,28.1z"/>
		<path class="st29" d="M77.7,27.9c0-0.1,0.1-0.2,0.2-0.2s0.2,0.1,0.2,0.2c0,0.1-0.1,0.2-0.2,0.2S77.7,28,77.7,27.9z"/>
		<path class="st29" d="M77.1,27.9c0-0.1,0.1-0.2,0.2-0.2s0.2,0.1,0.2,0.2c0,0.1-0.1,0.2-0.2,0.2S77.1,28,77.1,27.9z"/>
		<path class="st30" d="M81,30.6c0.1-0.2,0.1-0.3,0.1-0.5c0-0.8-0.6-1.4-1.3-1.4c-0.2,0-0.4,0.1-0.6,0.2"/>
		<path class="st7" d="M78.7,29.7c0.1-0.1,0.1-0.3,0.1-0.4c0-0.6-0.5-1-1.2-1c-0.3,0-0.5,0.1-0.7,0.2"/>
		<path class="st29" d="M81.2,30c0-0.1,0.1-0.2,0.2-0.2s0.2,0.1,0.2,0.2s-0.1,0.2-0.2,0.2S81.2,30.1,81.2,30z"/>
		<path class="st29" d="M81.1,29.2c0-0.1,0.1-0.2,0.2-0.2c0.1,0,0.2,0.1,0.2,0.2s-0.1,0.2-0.2,0.2S81.1,29.4,81.1,29.2z"/>
		<path class="st29" d="M80.7,28.7c0-0.1,0.1-0.2,0.2-0.2s0.2,0.1,0.2,0.2c0,0.1-0.1,0.2-0.2,0.2S80.7,28.8,80.7,28.7z"/>
		<path class="st29" d="M80,28.4c0-0.1,0.1-0.2,0.2-0.2s0.2,0.1,0.2,0.2c0,0.1-0.1,0.2-0.2,0.2S80,28.5,80,28.4z"/>
		<path class="st29" d="M79.4,28.4c0-0.1,0.1-0.2,0.2-0.2c0.1,0,0.2,0.1,0.2,0.2s-0.1,0.2-0.2,0.2S79.4,28.5,79.4,28.4z"/>
		<path class="st2" d="M79.9,31.6l-0.3-0.3c0,0-0.2,0.2-0.6,0.1c-0.3,0-0.4-0.5-0.4-0.5s-0.4,0.3-0.7,0.3c-0.3,0-0.5-0.3-0.5-0.3
			s-0.3,0.2-0.6,0.2c-0.3,0-0.5-0.4-0.5-0.4s-0.3,0.4-0.6,0.4c-0.3,0-0.5-0.3-0.5-0.3s-0.1,0.3-0.5,0.4c-0.4,0.1-0.7-0.3-0.7-0.3
			s-0.2,0.4-0.5,0.4c-0.2,0.1-0.6-0.1-0.6-0.1s0,0.1-0.1,0.2c0,0.1-0.1,0.1-0.1,0.1l0.1,0.2c0.9-0.3,2.1-0.4,3.4-0.4
			c1.3,0,2.6,0.2,3.4,0.4L79.9,31.6L79.9,31.6z"/>
		<path class="st31" d="M73.2,29.2c0-0.1,0.1-0.2,0.2-0.2s0.2,0.1,0.2,0.2s-0.1,0.2-0.2,0.2S73.2,29.3,73.2,29.2z"/>
		<path class="st29" d="M73.3,28.5c0-0.1,0.1-0.2,0.2-0.2s0.2,0.1,0.2,0.2c0,0.1-0.1,0.2-0.2,0.2C73.4,28.7,73.3,28.6,73.3,28.5z"/>
		<path class="st29" d="M73.9,28.1c0-0.1,0.1-0.2,0.2-0.2c0.1,0,0.2,0.1,0.2,0.2c0,0.1-0.1,0.2-0.2,0.2S73.9,28.2,73.9,28.1z"/>
		<path class="st29" d="M74.5,27.9c0-0.1,0.1-0.2,0.2-0.2c0.1,0,0.2,0.1,0.2,0.2c0,0.1-0.1,0.2-0.2,0.2S74.5,28,74.5,27.9z"/>
		<path class="st29" d="M75.1,27.9c0-0.1,0.1-0.2,0.2-0.2s0.2,0.1,0.2,0.2c0,0.1-0.1,0.2-0.2,0.2S75.1,28,75.1,27.9z"/>
		<path class="st30" d="M71.6,30.6c-0.1-0.2-0.1-0.3-0.1-0.5c0-0.8,0.6-1.4,1.3-1.4c0.2,0,0.4,0.1,0.6,0.2"/>
		<path class="st7" d="M73.9,29.6c-0.1-0.1-0.1-0.3-0.1-0.4c0-0.6,0.5-1,1.2-1c0.3,0,0.5,0.1,0.7,0.2"/>
		<path class="st29" d="M71,30c0-0.1,0.1-0.2,0.2-0.2s0.2,0.1,0.2,0.2s-0.1,0.2-0.2,0.2S71,30.1,71,30z"/>
		<path class="st29" d="M71.1,29.2c0-0.1,0.1-0.2,0.2-0.2s0.2,0.1,0.2,0.2s-0.1,0.2-0.2,0.2S71.1,29.4,71.1,29.2z"/>
		<path class="st29" d="M71.6,28.7c0-0.1,0.1-0.2,0.2-0.2s0.2,0.1,0.2,0.2c0,0.1-0.1,0.2-0.2,0.2C71.7,28.9,71.6,28.8,71.6,28.7z"/>
		<path class="st29" d="M72.2,28.4c0-0.1,0.1-0.2,0.2-0.2s0.2,0.1,0.2,0.2c0,0.1-0.1,0.2-0.2,0.2S72.2,28.5,72.2,28.4z"/>
		<path class="st29" d="M72.8,28.4c0-0.1,0.1-0.2,0.2-0.2c0.1,0,0.2,0.1,0.2,0.2s-0.1,0.2-0.2,0.2C72.9,28.6,72.8,28.5,72.8,28.4z"
			/>
		<path class="st2" d="M76.3,30.4l0.1,0c0,0,0,0.1,0,0.2c0,0.3,0.2,0.5,0.5,0.5c0.2,0,0.4-0.1,0.5-0.3c0,0,0-0.2,0.1-0.2
			c0,0,0,0.2,0,0.2c0,0.2,0.2,0.4,0.5,0.4c0.3,0,0.5-0.2,0.5-0.5c0,0,0,0,0-0.1l0.2-0.2l0.1,0.2c0,0.1,0,0.1,0,0.2
			c0,0.3,0.2,0.5,0.5,0.5c0.2,0,0.3-0.1,0.4-0.2l0.1-0.1v0.2c0,0.2,0.1,0.3,0.2,0.3c0,0,0.2,0,0.4-0.2c0.2-0.2,0.4-0.4,0.4-0.4
			l0,0.2c0,0-0.2,0.4-0.4,0.5c-0.1,0.1-0.3,0.1-0.4,0.1c-0.2,0-0.2-0.2-0.3-0.3c-0.1,0.1-0.2,0.1-0.4,0.1c-0.3,0-0.5-0.2-0.6-0.4
			c-0.1,0.1-0.3,0.2-0.5,0.2c-0.2,0-0.4-0.1-0.6-0.3c-0.1,0.1-0.3,0.2-0.5,0.2c-0.2,0-0.5-0.1-0.6-0.3c-0.1,0.2-0.3,0.3-0.6,0.3
			c-0.2,0-0.4-0.1-0.5-0.2c-0.1,0.2-0.3,0.3-0.6,0.3c-0.2,0-0.4-0.1-0.5-0.2c-0.1,0.2-0.4,0.4-0.6,0.4c-0.1,0-0.3,0-0.4-0.1
			c-0.1,0.1-0.2,0.3-0.3,0.3c-0.1,0-0.3-0.1-0.4-0.1c-0.2-0.1-0.5-0.5-0.5-0.5l0-0.2c0,0,0.1,0.2,0.4,0.4c0.2,0.2,0.4,0.2,0.4,0.2
			c0.2,0,0.2-0.2,0.2-0.3V31l0.1,0.1c0.1,0.1,0.2,0.2,0.4,0.2c0.3,0,0.5-0.2,0.5-0.5c0-0.1,0-0.1,0-0.2l0.1-0.2l0.2,0.2
			c0,0,0,0,0,0.1c0,0.3,0.2,0.5,0.5,0.5c0.2,0,0.5-0.2,0.5-0.4c0,0,0-0.2,0-0.2c0,0,0.1,0.2,0.1,0.2c0.1,0.2,0.2,0.3,0.5,0.3
			c0.3,0,0.5-0.2,0.5-0.5c0-0.1,0-0.1,0-0.2L76.3,30.4z"/>
		<path class="st2" d="M76.3,31.7c-1.4,0-2.6,0.2-3.5,0.5c-0.1,0-0.1,0-0.2-0.1c0-0.1,0-0.1,0.1-0.1c0.9-0.3,2.1-0.5,3.5-0.5
			c1.4,0,2.7,0.2,3.5,0.5c0.1,0,0.1,0.1,0.1,0.1c0,0.1-0.1,0.1-0.2,0.1C78.9,31.9,77.7,31.7,76.3,31.7z"/>
		<path class="st8" d="M75,32.2c0-0.1,0.1-0.2,0.2-0.2s0.2,0.1,0.2,0.2s-0.1,0.2-0.2,0.2S75,32.3,75,32.2z"/>
		<path class="st1" d="M76.3,32.3h-0.4c-0.1,0-0.2-0.1-0.2-0.2c0-0.1,0.1-0.1,0.2-0.1h0.9c0.1,0,0.2,0.1,0.2,0.1
			c0,0.1-0.1,0.2-0.2,0.2H76.3L76.3,32.3z"/>
		<path class="st9" d="M74.2,32.4l-0.3,0c-0.1,0-0.2,0-0.2-0.1c0-0.1,0-0.1,0.1-0.2l0.3,0l0.3,0c0.1,0,0.2,0,0.2,0.1
			c0,0.1,0,0.2-0.1,0.2L74.2,32.4L74.2,32.4z"/>
		<path class="st1" d="M72.9,32.7l0.1-0.2l0.3,0.1l-0.2,0.3L72.9,32.7z"/>
		<path class="st8" d="M77.3,32.2c0-0.1,0.1-0.2,0.2-0.2s0.2,0.1,0.2,0.2s-0.1,0.2-0.2,0.2S77.3,32.3,77.3,32.2z"/>
		<path class="st9" d="M78.5,32.4l0.3,0c0.1,0,0.2,0,0.2-0.1c0-0.1,0-0.1-0.1-0.2l-0.3,0l-0.3,0c-0.1,0-0.2,0-0.2,0.1
			c0,0.1,0,0.2,0.1,0.2L78.5,32.4L78.5,32.4z"/>
		<path class="st1" d="M79.8,32.7l-0.1-0.2l-0.3,0l0.2,0.3L79.8,32.7z"/>
		<path class="st10" d="M76.3,33.6c-1.1,0-2.1-0.1-2.8-0.3c0.8-0.2,1.8-0.3,2.8-0.3c1.1,0,2.1,0.1,2.9,0.3
			C78.4,33.5,77.4,33.6,76.3,33.6z"/>
		<defs>
			
				<filter id="Adobe_OpacityMaskFilter_00000118367472288805300420000007854137251760489134_" filterUnits="userSpaceOnUse" x="73.8" y="32.3" width="3.5" height="1.8">
				<feColorMatrix  type="matrix" values="1 0 0 0 0  0 1 0 0 0  0 0 1 0 0  0 0 0 1 0"/>
			</filter>
		</defs>
		
			<mask maskUnits="userSpaceOnUse" x="73.8" y="32.3" width="3.5" height="1.8" id="mask3_49_2_00000026871012690338302970000016854820930259080086_">
			<path style="fill:#FFFFFF;filter:url(#Adobe_OpacityMaskFilter_00000118367472288805300420000007854137251760489134_);" d="
				M76.3,33.6c-1.1,0-2.1-0.1-2.8-0.3c0.8-0.2,1.8-0.3,2.8-0.3c1.1,0,2.1,0.1,2.9,0.3C78.4,33.5,77.4,33.6,76.3,33.6z"/>
		</mask>
		<g class="st33">
			<path class="st7" d="M77.2,32.3v1.8"/>
			<path class="st13" d="M76.8,32.3v1.8"/>
			<path class="st14" d="M76.4,32.3v1.8"/>
			<path class="st14" d="M76,32.3v1.8"/>
			<path class="st14" d="M75.7,32.3v1.8"/>
			<path class="st14" d="M75.4,32.3v1.8"/>
			<path class="st15" d="M75.1,32.3v1.8"/>
			<path class="st16" d="M74.8,32.3v1.8"/>
			<path class="st16" d="M74.5,32.3v1.8"/>
			<path class="st17" d="M74.2,32.3v1.8"/>
			<path class="st18" d="M73.9,32.3v1.8"/>
		</g>
		<path class="st7" d="M76.3,33.6c-1.1,0-2.1-0.1-2.8-0.3c0.8-0.2,1.8-0.3,2.8-0.3c1.1,0,2.1,0.1,2.9,0.3
			C78.4,33.5,77.4,33.6,76.3,33.6z"/>
		<path class="st2" d="M79.8,31.1c0-0.1,0-0.2-0.1-0.2c-0.1,0-0.1,0-0.2,0.1c0,0.1,0,0.2,0.1,0.2C79.7,31.2,79.8,31.1,79.8,31.1z"/>
		<path class="st2" d="M77.6,30.6c0-0.1,0-0.2-0.1-0.2s-0.1,0.1-0.1,0.2c0,0.1,0,0.2,0.1,0.2C77.5,30.8,77.6,30.7,77.6,30.6
			L77.6,30.6z"/>
		<path class="st2" d="M75.1,30.6c0-0.1,0-0.2,0.1-0.2c0.1,0,0.1,0.1,0.1,0.2c0,0.1,0,0.2-0.1,0.2C75.1,30.8,75.1,30.7,75.1,30.6
			L75.1,30.6z"/>
		<path class="st2" d="M72.9,31.1c0-0.1,0-0.2,0.1-0.2c0.1,0,0.1,0,0.2,0.1s0,0.2-0.1,0.2C73,31.2,72.9,31.1,72.9,31.1z"/>
		<path class="st2" d="M76.3,29.3l-0.4,0.2l0.3,0.7l0.1,0.1l0.1-0.1l0.3-0.7L76.3,29.3z"/>
		<path class="st2" d="M75.5,30.3l0.2,0.3l0.6-0.2l0.1-0.1l-0.1-0.1L75.7,30L75.5,30.3z"/>
		<path class="st2" d="M77.2,30.3L77,30.5l-0.6-0.2l-0.1-0.1l0.1-0.1L77,30L77.2,30.3z"/>
		<path class="st2" d="M73.8,29.6l-0.3,0.3l0.4,0.5l0.1,0l0.1-0.1l0.1-0.7L73.8,29.6z"/>
		<path class="st2" d="M73.2,30.7l0.2,0.2l0.6-0.3l0-0.1l-0.1-0.1l-0.6-0.1L73.2,30.7z"/>
		<path class="st2" d="M74.8,30.3l-0.1,0.3l-0.6-0.1L74,30.5l0-0.1l0.6-0.3L74.8,30.3z"/>
		<path class="st2" d="M72.6,30.7l-0.1,0.3l-0.6,0.1l-0.1-0.1l0-0.1l0.5-0.4L72.6,30.7z"/>
		<path class="st2" d="M73.8,30.5c0-0.1,0.1-0.2,0.2-0.2c0.1,0,0.2,0.1,0.2,0.2c0,0.1-0.1,0.2-0.2,0.2
			C73.9,30.7,73.8,30.6,73.8,30.5z"/>
		<path class="st2" d="M78.9,29.6l0.3,0.3l-0.4,0.5l-0.1,0l-0.1-0.1l-0.1-0.7L78.9,29.6z"/>
		<path class="st2" d="M79.5,30.7l-0.2,0.2l-0.6-0.3l0-0.1l0.1-0.1l0.6-0.1L79.5,30.7z"/>
		<path class="st2" d="M77.8,30.3l0.1,0.3l0.6-0.1l0.1-0.1l0-0.1L78.1,30L77.8,30.3z"/>
		<path class="st2" d="M80,30.7l0,0.3l0.6,0.1l0.1-0.1l0-0.1l-0.5-0.4L80,30.7z"/>
		<path class="st2" d="M76.1,30.3c0-0.1,0.1-0.2,0.2-0.2c0.1,0,0.2,0.1,0.2,0.2c0,0.1-0.1,0.2-0.2,0.2
			C76.2,30.5,76.1,30.4,76.1,30.3z"/>
		<path class="st2" d="M78.5,30.5c0-0.1,0.1-0.2,0.2-0.2c0.1,0,0.2,0.1,0.2,0.2c0,0.1-0.1,0.2-0.2,0.2
			C78.6,30.7,78.5,30.6,78.5,30.5z"/>
		<path class="st34" d="M76.3,28.2c0.2,0,0.4-0.2,0.4-0.4s-0.2-0.4-0.4-0.4c-0.2,0-0.4,0.2-0.4,0.4S76.1,28.2,76.3,28.2z"/>
		<path class="st4" d="M76.6,27.6v0.3H76v-0.3h0.2V27h-0.3v-0.3h0.3v-0.3h0.3v0.3h0.3V27h-0.3v0.6H76.6z"/>
		<defs>
			
				<filter id="Adobe_OpacityMaskFilter_00000110452957869204250840000004968432757390072241_" filterUnits="userSpaceOnUse" x="75.7" y="26.4" width="1.3" height="1.6">
				<feColorMatrix  type="matrix" values="1 0 0 0 0  0 1 0 0 0  0 0 1 0 0  0 0 0 1 0"/>
			</filter>
		</defs>
		
			<mask maskUnits="userSpaceOnUse" x="75.7" y="26.4" width="1.3" height="1.6" id="mask4_49_2_00000044148281880489318390000010559364179485694091_">
			<path style="fill:#FFFFFF;filter:url(#Adobe_OpacityMaskFilter_00000110452957869204250840000004968432757390072241_);" d="
				M76.3,28.2c0.2,0,0.4-0.2,0.4-0.4s-0.2-0.4-0.4-0.4c-0.2,0-0.4,0.2-0.4,0.4S76.1,28.2,76.3,28.2z"/>
		</mask>
		<g class="st36">
			<path class="st4" d="M76.9,27.6v0.3h-1.1v-0.3h0.4V27h-0.3v-0.3h0.3v-0.3h0.3v0.3h0.3V27h-0.3v0.6H76.9z"/>
		</g>
		<path class="st7" d="M76.5,27.3c0.2,0,0.3,0.2,0.3,0.4c0,0.2-0.2,0.4-0.4,0.4c-0.2,0-0.4-0.2-0.4-0.4c0-0.2,0.1-0.4,0.3-0.4"/>
		<path class="st19" d="M71.7,31.1c0,0-0.2-0.2-0.3-0.4c-0.1-0.1-0.3-0.2-0.3-0.2c0,0,0.1-0.1,0.3-0.1c0.1,0,0.2,0,0.2,0.1l0-0.1
			c0,0,0.1,0,0.2,0.2c0,0.1,0,0.3,0,0.3S71.7,31.1,71.7,31.1z"/>
		<path class="st2" d="M71.7,31c0-0.1,0.2,0,0.2,0c0.1,0.1,0.1,0.2,0,0.2c0,0.1-0.2,0-0.2,0C71.7,31.2,71.7,31.1,71.7,31z"/>
		<path class="st19" d="M80.9,31.1c0,0,0.2-0.2,0.3-0.4c0.1-0.1,0.3-0.2,0.3-0.2c0,0-0.1-0.1-0.3-0.1c-0.1,0-0.2,0-0.2,0.1l0-0.1
			c0,0-0.1,0-0.2,0.2c-0.1,0.1,0,0.3,0,0.3S80.8,31.1,80.9,31.1z"/>
		<path class="st2" d="M80.9,31c-0.1-0.1-0.2,0-0.2,0c-0.1,0.1-0.1,0.2,0,0.2c0,0.1,0.2,0,0.2,0C80.9,31.2,80.9,31.1,80.9,31z"/>
		<path class="st20" d="M81.4,33.7H71.3v2.8h10.1V33.7z"/>
		<path class="st21" d="M80.3,38.4c-0.1,0-0.1,0-0.2,0h-7.5c-0.1,0-0.1,0-0.2,0c0.3-0.1,0.4-0.3,0.4-0.6c0-0.3-0.2-0.6-0.5-0.6
			c0.1,0,0.1,0,0.2,0h7.6c0.1,0,0.2,0,0.2,0h0c-0.3,0.1-0.4,0.3-0.4,0.6C79.9,38,80,38.3,80.3,38.4z"/>
		<path class="st21" d="M72.6,38.4h7.5c0.3,0,0.5,0.2,0.5,0.4c0,0.2-0.2,0.4-0.5,0.4h-7.5c-0.2,0-0.5-0.2-0.5-0.4
			C72.1,38.5,72.3,38.4,72.6,38.4z"/>
		<path class="st21" d="M72.6,36.5h7.6c0.3,0,0.5,0.1,0.5,0.3c0,0.2-0.2,0.3-0.5,0.3h-7.6c-0.2,0-0.5-0.1-0.5-0.3
			C72.1,36.7,72.3,36.5,72.6,36.5z"/>
		<path class="st22" d="M69.3,83.4c0.7,0,1.3-0.2,1.8-0.4c0.5-0.2,1.1-0.4,1.8-0.4s1.3,0.2,1.8,0.4s1.1,0.4,1.8,0.4s1.3-0.2,1.8-0.4
			c0.5-0.2,1.1-0.4,1.7-0.4c0.7,0,1.3,0.1,1.7,0.4c0.5,0.3,1.1,0.4,1.8,0.4v1.2c-0.7,0-1.3-0.2-1.8-0.4c-0.5-0.2-1.1-0.4-1.7-0.4
			s-1.3,0.1-1.7,0.4c-0.5,0.3-1.1,0.4-1.8,0.4c-0.7,0-1.3-0.2-1.8-0.4c-0.5-0.2-1.1-0.4-1.8-0.4c-0.7,0-1.3,0.1-1.8,0.4
			c-0.5,0.3-1.1,0.4-1.8,0.4V83.4z"/>
		<path class="st23" d="M69.3,84.6c0.7,0,1.3-0.2,1.8-0.4c0.5-0.2,1.1-0.4,1.8-0.4s1.3,0.1,1.8,0.4s1.1,0.4,1.8,0.4s1.3-0.2,1.8-0.4
			c0.5-0.2,1.1-0.4,1.7-0.4c0.7,0,1.3,0.1,1.7,0.4c0.5,0.3,1.1,0.4,1.8,0.4v1.2c-0.7,0-1.3-0.2-1.8-0.4s-1.1-0.4-1.7-0.4
			s-1.3,0.1-1.7,0.4c-0.5,0.3-1.1,0.4-1.8,0.4c-0.7,0-1.3-0.2-1.8-0.4c-0.5-0.2-1.1-0.4-1.8-0.4c-0.7,0-1.3,0.2-1.8,0.4
			c-0.5,0.3-1.1,0.4-1.8,0.4V84.6z"/>
		<path class="st22" d="M69.3,85.7c0.7,0,1.3-0.2,1.8-0.4c0.5-0.2,1.1-0.4,1.8-0.4s1.3,0.2,1.8,0.4s1.1,0.4,1.8,0.4s1.3-0.2,1.8-0.4
			c0.5-0.2,1.1-0.4,1.7-0.4c0.7,0,1.3,0.1,1.7,0.4c0.5,0.3,1.1,0.4,1.8,0.4v1.2c-0.7,0-1.3-0.2-1.8-0.4s-1.1-0.4-1.7-0.4
			s-1.3,0.1-1.7,0.4c-0.5,0.3-1.1,0.4-1.8,0.4c-0.7,0-1.3-0.2-1.8-0.4c-0.5-0.2-1.1-0.4-1.8-0.4c-0.7,0-1.3,0.2-1.8,0.4
			c-0.5,0.3-1.1,0.4-1.8,0.4V85.7L69.3,85.7z"/>
		<path class="st23" d="M69.3,88c0.7,0,1.3-0.2,1.8-0.4c0.5-0.2,1.1-0.4,1.8-0.4s1.3,0.2,1.8,0.4c0.5,0.2,1.1,0.4,1.8,0.4
			s1.3-0.2,1.8-0.4c0.5-0.2,1.1-0.4,1.7-0.4c0.7,0,1.3,0.1,1.7,0.4c0.5,0.3,1.1,0.4,1.8,0.4v-1.1c-0.7,0-1.3-0.2-1.8-0.4
			c-0.5-0.2-1.1-0.4-1.7-0.4s-1.3,0.1-1.7,0.4c-0.5,0.3-1.1,0.4-1.8,0.4s-1.3-0.2-1.8-0.4c-0.5-0.2-1.1-0.4-1.8-0.4
			s-1.3,0.2-1.8,0.4c-0.5,0.3-1.1,0.4-1.8,0.4V88z"/>
		<path class="st22" d="M69.3,89.2c0.7,0,1.3-0.2,1.8-0.4s1.1-0.4,1.8-0.4s1.3,0.2,1.8,0.4c0.5,0.2,1.1,0.4,1.8,0.4s1.3-0.2,1.8-0.4
			c0.5-0.2,1.1-0.4,1.7-0.4c0.7,0,1.3,0.1,1.7,0.4c0.5,0.2,1.1,0.4,1.8,0.4V88c-0.7,0-1.3-0.2-1.8-0.4c-0.5-0.2-1.1-0.4-1.7-0.4
			s-1.3,0.1-1.7,0.4c-0.5,0.3-1.1,0.4-1.8,0.4s-1.3-0.2-1.8-0.4c-0.5-0.2-1.1-0.4-1.8-0.4s-1.3,0.2-1.8,0.4C70.6,87.9,70,88,69.3,88
			V89.2L69.3,89.2z"/>
		<path class="st21" d="M80.3,78.7c0,0.1-0.1,0.2-0.1,0.3c0,0.7,0.6,1.2,1.3,1.2H71.2c0.7,0,1.3-0.6,1.3-1.2c0-0.1,0-0.2,0-0.3
			c0.1,0,0.1,0,0.2,0h7.5C80.2,78.7,80.3,78.7,80.3,78.7L80.3,78.7z"/>
		<path class="st21" d="M72.6,78h7.5c0.3,0,0.5,0.2,0.5,0.4c0,0.2-0.2,0.4-0.5,0.4h-7.5c-0.2,0-0.5-0.2-0.5-0.4
			C72.1,78.1,72.3,78,72.6,78z"/>
		<path class="st20" d="M81.5,80.3H71.2V83h10.3V80.3z"/>
		<path class="st24" d="M82.3,68.1c1,0.6,1.7,1.3,1.6,1.6c-0.1,0.3-0.4,0.5-0.8,0.8c-0.7,0.5-1.2,1.5-0.8,1.9c-0.6-0.5-1-1.3-1-2.1
			S81.7,68.7,82.3,68.1L82.3,68.1z"/>
		<path class="st25" d="M80,39.5h-7.4v38H80V39.5z"/>
		<defs>
			
				<filter id="Adobe_OpacityMaskFilter_00000173858929260771990070000000568528108665455020_" filterUnits="userSpaceOnUse" x="77.9" y="38.6" width="1" height="40">
				<feColorMatrix  type="matrix" values="1 0 0 0 0  0 1 0 0 0  0 0 1 0 0  0 0 0 1 0"/>
			</filter>
		</defs>
		
			<mask maskUnits="userSpaceOnUse" x="77.9" y="38.6" width="1" height="40" id="mask5_49_2_00000063600289675573105190000000181769738141172115_">
			<path style="fill:#FFFFFF;filter:url(#Adobe_OpacityMaskFilter_00000173858929260771990070000000568528108665455020_);" d="
				M80,39.5h-7.4v38H80V39.5z"/>
		</mask>
		<g class="st38">
			<path class="st14" d="M78,38.6v40"/>
			<path class="st14" d="M78.8,38.6v40"/>
		</g>
		<path class="st14" d="M80,39.5h-7.4v38H80V39.5z"/>
		<path class="st24" d="M65.2,53.8c1.6-0.7,4.3-1.2,7.5-1.3c1.1,0,2.3,0.1,3.5,0.3c4.4,0.8,7.7,2.6,7.5,4.1c0,0,0,0.1,0,0.1
			c0,0,1.7-3.9,1.7-4.1c0.3-1.7-3.4-3.7-8.3-4.6c-1.5-0.3-3-0.4-4.3-0.4c-3.1,0-5.8,0.4-7.5,1.1L65.2,53.8L65.2,53.8z"/>
		<path class="st24" d="M80,58.5c2-0.2,3.4-0.7,3.6-1.6c0.1-0.7-0.6-1.5-1.8-2.2c-0.6,0.1-1.2,0.1-1.8,0.1L80,58.5L80,58.5z"/>
		<path class="st24" d="M72.7,55.6c-1.3,0.2-2.2,0.5-2.7,1l0,0.1c-0.2,0.5,0.9,1.5,2.8,2.7L72.7,55.6L72.7,55.6z"/>
		<path class="st24" d="M84.6,65.9c0.2-0.6-1.8-1.8-4.6-2.9c-1.3-0.5-2.3-1-3.7-1.6c-3.9-1.8-6.8-3.9-6.4-4.7l0-0.1
			c-0.2,0.2-0.5,3.9-0.5,3.9c-0.4,0.7,2.3,2.8,5.9,4.6c1.2,0.6,3.6,1.5,4.7,2c2,0.8,4.1,2.2,3.9,2.7L84.6,65.9z"/>
		<path class="st3" d="M69.7,52.1c0.3-1.1,0.6-2.2,1-3.3c-0.1,0-0.2,0-0.2,0c-0.1,0-0.2,0-0.2,0c-0.2,0.8-0.4,1.6-0.6,2.3
			c-0.4-0.7-0.9-1.3-1.3-2c-0.2,0-0.3,0.1-0.5,0.1c-0.2,0-0.3,0-0.5,0c0.7,0.9,1.3,1.9,1.9,2.8c0.1,0,0.1-0.1,0.2-0.1
			C69.6,52.1,69.7,52.1,69.7,52.1L69.7,52.1z"/>
		<path class="st3" d="M72.5,48.9c-0.1,0-0.3,0-0.4,0c-0.1,0-0.3,0-0.4,0l0,3.1l2,0c0-0.1,0-0.1,0-0.2c0-0.1,0-0.1,0-0.2
			c-0.4,0-0.8,0-1.2,0L72.5,48.9L72.5,48.9z"/>
		<path class="st3" d="M75.7,49.4c0.3,0,0.6,0.1,0.9,0.2c0-0.1,0-0.1,0-0.2c0-0.1,0-0.1,0-0.2L74,48.9c0,0.1,0,0.1,0,0.2
			c0,0.1,0,0.1,0,0.2c0.3,0,0.6,0,1,0l-0.2,2.8c0.1,0,0.3,0,0.4,0c0.1,0,0.3,0,0.4,0.1L75.7,49.4L75.7,49.4z"/>
		<path class="st3" d="M76.8,52.4c0.1,0,0.3,0,0.4,0.1s0.3,0.1,0.4,0.1l0.3-1.4h0c0.1,0.2,0.2,0.4,0.2,0.6l0.4,1.1
			c0.2,0,0.3,0.1,0.5,0.1c0.2,0,0.3,0.1,0.5,0.1l-0.1-0.3c-0.2-0.5-0.5-1-0.6-1.4c0.5,0,0.9-0.2,1-0.6c0.1-0.3,0-0.5-0.3-0.7
			c-0.2-0.1-0.6-0.2-0.8-0.3l-1.1-0.3L76.8,52.4L76.8,52.4z M78.3,49.8c0.3,0.1,0.7,0.1,0.7,0.5c0,0.1,0,0.2,0,0.2
			c-0.1,0.5-0.4,0.6-1,0.4L78.3,49.8L78.3,49.8z"/>
		<path class="st3" d="M82.1,53.3c0,0.3-0.1,0.6-0.1,1c0.1,0.1,0.3,0.1,0.4,0.2c0.1,0.1,0.3,0.2,0.4,0.2l0.3-3.5
			c-0.1,0-0.1-0.1-0.2-0.1c-0.1,0-0.1-0.1-0.2-0.1l-2.9,1.9c0.1,0,0.2,0.1,0.2,0.1c0.1,0,0.1,0.1,0.2,0.1c0.2-0.2,0.5-0.4,0.8-0.6
			L82.1,53.3L82.1,53.3z M81.2,52.5l1-0.7L82.1,53L81.2,52.5L81.2,52.5z"/>
		<path class="st39" d="M31.3,21.3c0-0.5,0.4-1,1-1c0.5,0,1,0.4,1,1c0,0.5-0.4,1-1,1C31.7,22.3,31.3,21.8,31.3,21.3z"/>
		<path class="st10" d="M42.4,12.8c3,0,5.7,0.5,7.4,1.2c1,0.5,2.3,0.8,3.8,1c1.1,0.2,2.2,0.2,3.1,0.1c1.2,0,3,0.4,4.8,1.2
			c1.5,0.7,2.7,1.5,3.5,2.3l-0.7,0.7l-0.2,1.9l-1.9,2.4l-1,0.9l-2.3,1.9l-1.2,0.1l-0.4,1.1l-14.9-1.8l-14.9,1.8l-0.4-1.1L26,26.4
			l-2.3-1.9l-1-0.9l-1.9-2.4l-0.2-1.9l-0.7-0.7c0.8-0.8,2.1-1.7,3.5-2.3c1.8-0.8,3.6-1.2,4.8-1.2c0.9,0.1,2,0,3.1-0.1
			c1.5-0.2,2.8-0.6,3.8-1C36.9,13.3,39.4,12.8,42.4,12.8L42.4,12.8z"/>
		<defs>
			
				<filter id="Adobe_OpacityMaskFilter_00000147178557024555124380000009759576213263293584_" filterUnits="userSpaceOnUse" x="21.8" y="20" width="40.7" height="6.8">
				<feColorMatrix  type="matrix" values="1 0 0 0 0  0 1 0 0 0  0 0 1 0 0  0 0 0 1 0"/>
			</filter>
		</defs>
		
			<mask maskUnits="userSpaceOnUse" x="21.8" y="20" width="40.7" height="6.8" id="mask6_49_2_00000174560944350619248420000015533898033466536354_">
			<path style="fill:#FFFFFF;filter:url(#Adobe_OpacityMaskFilter_00000147178557024555124380000009759576213263293584_);" d="
				M42.4,12.8c3,0,5.7,0.5,7.4,1.2c1,0.5,2.3,0.8,3.8,1c1.1,0.2,2.2,0.2,3.1,0.1c1.2,0,3,0.4,4.8,1.2c1.5,0.7,2.7,1.5,3.5,2.3
				l-0.7,0.7l-0.2,1.9l-1.9,2.4l-1,0.9l-2.3,1.9l-1.2,0.1l-0.4,1.1l-14.9-1.8l-14.9,1.8l-0.4-1.1L26,26.4l-2.3-1.9l-1-0.9l-1.9-2.4
				l-0.2-1.9l-0.7-0.7c0.8-0.8,2.1-1.7,3.5-2.3c1.8-0.8,3.6-1.2,4.8-1.2c0.9,0.1,2,0,3.1-0.1c1.5-0.2,2.8-0.6,3.8-1
				C36.9,13.3,39.4,12.8,42.4,12.8L42.4,12.8z"/>
		</mask>
		<g class="st41">
			<g>
				<defs>
					
						<filter id="Adobe_OpacityMaskFilter_00000169532119049332246800000016814496949384690572_" filterUnits="userSpaceOnUse" x="21.8" y="20" width="40.7" height="6.8">
						<feColorMatrix  type="matrix" values="1 0 0 0 0  0 1 0 0 0  0 0 1 0 0  0 0 0 1 0"/>
					</filter>
				</defs>
				
					<mask maskUnits="userSpaceOnUse" x="21.8" y="20" width="40.7" height="6.8" id="mask7_49_2_00000173124937920135856820000015078959029228366481_">
					<path style="fill:#FFFFFF;filter:url(#Adobe_OpacityMaskFilter_00000169532119049332246800000016814496949384690572_);" d="
						M62.6,20H21.8v7.3h40.8V20z"/>
				</mask>
				<g class="st43">
					<rect x="21.8" y="20" class="st44" width="40.7" height="6.8"/>
				</g>
			</g>
		</g>
		<path class="st7" d="M42.4,12.8c3,0,5.7,0.5,7.4,1.2c1,0.5,2.3,0.8,3.8,1c1.1,0.2,2.2,0.2,3.1,0.1c1.2,0,3,0.4,4.8,1.2
			c1.5,0.7,2.7,1.5,3.5,2.3l-0.7,0.7l-0.2,1.9l-1.9,2.4l-1,0.9l-2.3,1.9l-1.2,0.1l-0.4,1.1l-14.9-1.8l-14.9,1.8l-0.4-1.1L26,26.4
			l-2.3-1.9l-1-0.9l-1.9-2.4l-0.2-1.9l-0.7-0.7c0.8-0.8,2.1-1.7,3.5-2.3c1.8-0.8,3.6-1.2,4.8-1.2c0.9,0.1,2,0,3.1-0.1
			c1.5-0.2,2.8-0.6,3.8-1C36.9,13.3,39.4,12.8,42.4,12.8L42.4,12.8z"/>
		<path class="st21" d="M42.5,28.8c-5.6,0-10.6,0.8-14.2,1.9c0.3-0.1,0.3-0.5-0.1-1.5c-0.4-1.2-1.1-1.1-1.1-1.1
			c3.9-1.2,9.4-2,15.4-2c6.1,0,11.6,0.8,15.5,2c0,0-0.7-0.1-1.1,1.1c-0.4,1-0.4,1.4-0.1,1.5C53.3,29.5,48.1,28.8,42.5,28.8
			L42.5,28.8z"/>
		<path class="st21" d="M42.6,26c-6.1,0-11.5,0.8-15.4,2c-0.3,0.1-0.5,0-0.6-0.3s0.1-0.6,0.3-0.6c3.9-1.3,9.5-2.1,15.7-2.1
			c6.2,0,11.8,0.8,15.8,2.1c0.3,0.1,0.4,0.4,0.3,0.6C58.6,28,58.3,28.1,58,28C54.1,26.8,48.7,26,42.6,26L42.6,26z"/>
		<path class="st21" d="M42.6,33.6c-5.5,0-10.5-0.7-14-1.8c-0.3-0.1-0.4-0.3-0.4-0.6c0-0.2,0.1-0.5,0.4-0.6c3.5-1.1,8.5-1.8,14-1.8
			c5.5,0,10.5,0.7,14,1.8c0.2,0.1,0.4,0.3,0.4,0.6c0,0.3-0.1,0.5-0.4,0.6C53.1,32.9,48.1,33.6,42.6,33.6z"/>
		<path class="st10" d="M42.6,32.8c-5,0-9.5-0.6-13-1.6c3.4-0.9,8-1.5,13-1.5s9.5,0.6,13,1.5C52.1,32.2,47.6,32.8,42.6,32.8z"/>
		<defs>
			
				<filter id="Adobe_OpacityMaskFilter_00000005970976890544542710000009581273126285138101_" filterUnits="userSpaceOnUse" x="30" y="29" width="15.8" height="6.4">
				<feColorMatrix  type="matrix" values="1 0 0 0 0  0 1 0 0 0  0 0 1 0 0  0 0 0 1 0"/>
			</filter>
		</defs>
		
			<mask maskUnits="userSpaceOnUse" x="30" y="29" width="15.8" height="6.4" id="mask8_49_2_00000088106571679303004040000013799209824343025292_">
			<path style="fill:#FFFFFF;filter:url(#Adobe_OpacityMaskFilter_00000005970976890544542710000009581273126285138101_);" d="
				M42.6,32.8c-5,0-9.5-0.6-13-1.6c3.4-0.9,8-1.5,13-1.5s9.5,0.6,13,1.5C52.1,32.2,47.6,32.8,42.6,32.8z"/>
		</mask>
		<g class="st46">
			<path class="st47" d="M42.6,29.1v6.3"/>
			<path class="st29" d="M41.9,29.1v6.3"/>
			<path class="st7" d="M41.1,29.1v6.3"/>
			<path class="st13" d="M40.4,29.1v6.3"/>
			<path class="st14" d="M39.7,29.1v6.3"/>
			<path class="st15" d="M39.1,29.1v6.3"/>
			<path class="st15" d="M38.5,29.1v6.3"/>
			<path class="st16" d="M37.9,29v6.3"/>
			<path class="st16" d="M37.3,29v6.3"/>
			<path class="st17" d="M36.8,29v6.3"/>
			<path class="st17" d="M36.3,29v6.3"/>
			<path class="st17" d="M35.8,29v6.3"/>
			<path class="st48" d="M35.2,29v6.3"/>
			<path class="st49" d="M34.7,29v6.3"/>
			<path class="st50" d="M34.2,29v6.3"/>
			<path class="st51" d="M33.6,29v6.3"/>
			<path class="st51" d="M33.1,29v6.3"/>
			<path class="st52" d="M32.5,29v6.3"/>
			<path class="st53" d="M32,29v6.3"/>
			<path class="st54" d="M31.4,29v6.3"/>
			<path class="st55" d="M30.8,29v6.3"/>
			<path class="st56" d="M30.3,29v6.3"/>
			<path class="st57" d="M43.5,29.1v6.3"/>
			<path class="st57" d="M44.5,29.1v6.3"/>
			<path class="st57" d="M45.8,29.1v6.3"/>
		</g>
		<path class="st14" d="M42.6,32.8c-5,0-9.5-0.6-13-1.6c3.4-0.9,8-1.5,13-1.5s9.5,0.6,13,1.5C52.1,32.2,47.6,32.8,42.6,32.8z"/>
		<path class="st58" d="M38.2,27.5c0-0.3,0.2-0.5,0.5-0.5s0.5,0.2,0.5,0.5S39,28,38.7,28S38.2,27.7,38.2,27.5z"/>
		<path class="st24" d="M42.6,27.8h-1.5c-0.3,0-0.5-0.2-0.5-0.5c0-0.3,0.2-0.5,0.5-0.5h3c0.3,0,0.5,0.2,0.5,0.5
			c0,0.3-0.2,0.5-0.5,0.5H42.6L42.6,27.8z"/>
		<path class="st59" d="M35.1,28.3l-1.1,0.1c-0.3,0-0.5-0.2-0.6-0.4c0-0.3,0.2-0.5,0.4-0.6l1.1-0.1l1.1-0.1c0.3,0,0.5,0.2,0.5,0.4
			c0,0.3-0.2,0.5-0.4,0.6L35.1,28.3L35.1,28.3z"/>
		<path class="st58" d="M30.8,28.4c0-0.3,0.2-0.5,0.5-0.5c0.3,0,0.5,0.2,0.5,0.5s-0.2,0.5-0.5,0.5C31,28.9,30.8,28.7,30.8,28.4z"/>
		<path class="st24" d="M27.5,29.3l0.5-0.8l1.5,0.2l-1.2,0.9L27.5,29.3z"/>
		<path class="st59" d="M50,28.3l1.1,0.1c0.3,0,0.5-0.2,0.6-0.4c0-0.3-0.2-0.5-0.4-0.6l-1.1-0.1l-1.1-0.1c-0.3,0-0.5,0.2-0.5,0.4
			c0,0.3,0.2,0.5,0.4,0.6L50,28.3L50,28.3z"/>
		<path class="st58" d="M45.9,27.5c0-0.3,0.2-0.5,0.5-0.5c0.3,0,0.5,0.2,0.5,0.5S46.7,28,46.4,28C46.2,28,45.9,27.7,45.9,27.5z"/>
		<path class="st58" d="M53.4,28.4c0-0.3,0.2-0.5,0.5-0.5c0.3,0,0.5,0.2,0.5,0.5s-0.2,0.5-0.5,0.5C53.6,28.9,53.4,28.7,53.4,28.4z"
			/>
		<path class="st24" d="M57.7,29.3l-0.5-0.8l-1.5,0.2l1.2,0.9L57.7,29.3z"/>
		<path class="st14" d="M29,31.4c3.5-1,8.3-1.7,13.6-1.7c5.3,0,10.1,0.6,13.6,1.7"/>
		<path class="st21" d="M31.4,17l0.6,0.5l0.9-1.6c-1-0.7-1.7-1.8-1.7-3.1c0-0.2,0-0.3,0-0.4c0.1-2.1,2.5-3.8,5.5-3.8
			c1.6,0,3,0.5,4,1.2c0-0.3,0.1-0.6,0.1-0.9c-1.1-0.7-2.5-1.1-4.1-1.1c-3.5,0-6.2,2.1-6.3,4.6c0,0.1,0,0.3,0,0.4
			c0,1.3,0.6,2.5,1.5,3.3L31.4,17L31.4,17z"/>
		<path class="st21" d="M31.4,17c-1.2-0.9-1.9-2.2-1.9-3.6c0-1.6,1-3.1,2.5-4c-0.9,0.8-1.5,1.8-1.6,3c0,0.1,0,0.3,0,0.4
			c0,1.3,0.6,2.5,1.5,3.3L31.4,17L31.4,17z"/>
		<path class="st21" d="M20.9,18.6c-0.7-0.8-1.1-1.8-1.1-2.9c0-0.7,0.1-1.3,0.4-1.9c1-2.1,4-3.6,7.6-3.6c1,0,1.9,0.1,2.8,0.3
			c-0.2,0.2-0.3,0.5-0.5,0.7c-0.7-0.2-1.5-0.2-2.3-0.2c-3.3,0-6,1.4-6.8,3.2c-0.2,0.5-0.3,1-0.3,1.5c0,1.1,0.5,2.1,1.3,2.8l-1.2,2.1
			L20.1,20L20.9,18.6z"/>
		<path class="st21" d="M22.1,11.8c-0.9,0.6-1.5,1.3-1.9,2.1c-0.3,0.6-0.4,1.2-0.4,1.9c0,1.1,0.4,2.1,1.1,2.9l-0.7,1.2
			c-0.7-0.9-1.1-2-1.1-3.2C19.1,14.7,20.3,12.9,22.1,11.8L22.1,11.8z"/>
		<path class="st21" d="M42.5,7.4c0.8,0,1.5,0.6,1.6,1.3c0.1,0.7,0.2,1.4,0.2,2.2c0,0.1,0,0.2,0,0.2c0,0.1,0,0.2,0,0.3
			c0,1.7,0.3,3.2,0.6,4.1l-2.4,2.4l-2.5-2.4c0.3-0.9,0.6-2.4,0.6-4.1c0-0.1,0-0.2,0-0.3c0-0.1,0-0.2,0-0.2c0-0.8,0.1-1.5,0.2-2.2
			C41,7.9,41.7,7.4,42.5,7.4L42.5,7.4z"/>
		<path class="st21" d="M42.5,8.2c0.4,0,0.8,0.3,0.9,0.7c0.1,0.6,0.2,1.3,0.2,2.1c0,0.1,0,0.1,0,0.2c0,0.1,0,0.2,0,0.3
			c0,1.6,0.2,3,0.5,3.8l-1.6,1.6l-1.6-1.6c0.3-0.9,0.5-2.2,0.5-3.8c0-0.1,0-0.2,0-0.3c0-0.1,0-0.1,0-0.2c0-0.8,0.1-1.5,0.2-2.1
			C41.8,8.4,42.1,8.2,42.5,8.2L42.5,8.2z"/>
		<path class="st21" d="M53.7,17L53,17.5l-0.9-1.6c1-0.7,1.7-1.8,1.7-3.1c0-0.2,0-0.3,0-0.4c-0.1-2.1-2.5-3.8-5.5-3.8
			c-1.6,0-3,0.5-4,1.2c0-0.3,0-0.6-0.1-0.9c1.1-0.7,2.5-1.1,4.1-1.1c3.5,0,6.2,2.1,6.3,4.6c0,0.1,0,0.3,0,0.4c0,1.3-0.6,2.5-1.5,3.3
			L53.7,17L53.7,17z"/>
		<path class="st21" d="M53.6,17c1.2-0.9,1.9-2.2,1.9-3.6c0-1.6-1-3.1-2.5-4c0.9,0.8,1.5,1.8,1.6,3c0,0.1,0,0.3,0,0.4
			c0,1.3-0.6,2.5-1.5,3.3L53.6,17L53.6,17z"/>
		<path class="st21" d="M64.1,18.6c0.7-0.8,1.1-1.8,1.1-2.9c0-0.7-0.2-1.3-0.4-1.9c-1-2.1-4-3.6-7.6-3.6c-1,0-1.9,0.1-2.8,0.3
			c0.2,0.2,0.3,0.5,0.5,0.7c0.7-0.2,1.5-0.2,2.3-0.2c3.3,0,6,1.4,6.8,3.2c0.2,0.5,0.3,1,0.3,1.5c0,1.1-0.5,2.1-1.3,2.8l1.2,2.1
			l0.6-0.5L64.1,18.6z"/>
		<path class="st21" d="M62.9,11.8c0.9,0.6,1.5,1.3,1.9,2.1c0.3,0.6,0.4,1.2,0.4,1.9c0,1.1-0.4,2.1-1.1,2.9l0.7,1.2
			c0.7-0.9,1.1-2,1.1-3.2C65.9,14.7,64.7,12.9,62.9,11.8L62.9,11.8z"/>
		<path class="st14" d="M42.7,14.9L42.7,14.9"/>
		<path class="st58" d="M41.7,15.8c0-0.5,0.4-0.9,0.9-0.9c0.5,0,0.9,0.4,0.9,0.9c0,0.5-0.4,0.9-0.9,0.9
			C42.1,16.7,41.7,16.3,41.7,15.8z"/>
		<path class="st58" d="M41.7,14.1c0-0.5,0.4-0.9,0.9-0.9c0.5,0,0.9,0.4,0.9,0.9c0,0.5-0.4,0.9-0.9,0.9C42.1,15,41.7,14.6,41.7,14.1
			z"/>
		<path class="st58" d="M41.8,12.3c0-0.4,0.3-0.7,0.7-0.7s0.7,0.3,0.7,0.7c0,0.4-0.3,0.7-0.7,0.7S41.8,12.7,41.8,12.3z"/>
		<path class="st58" d="M42,10.7c0-0.3,0.2-0.5,0.5-0.5s0.5,0.2,0.5,0.5c0,0.3-0.2,0.5-0.5,0.5S42,11,42,10.7z"/>
		<path class="st58" d="M42.1,9.2c0-0.2,0.2-0.4,0.4-0.4c0.2,0,0.4,0.2,0.4,0.4c0,0.2-0.2,0.4-0.4,0.4C42.3,9.6,42.1,9.5,42.1,9.2z"
			/>
		<path class="st21" d="M42.6,21l0.6,0.1c-0.1,0.2-0.1,0.5-0.1,0.8c0,1.2,1,2.2,2.2,2.2c1,0,1.8-0.6,2.1-1.5c0,0,0.2-0.8,0.3-0.8
			c0.1,0,0.1,0.9,0.1,0.8c0.1,1.1,1.1,1.9,2.2,1.9c1.2,0,2.2-1,2.2-2.2c0-0.1,0-0.2,0-0.3l0.7-0.7l0.4,0.9c-0.2,0.3-0.2,0.6-0.2,1
			c0,1.2,0.9,2.1,2.1,2.1c0.7,0,1.4-0.4,1.8-0.9l0.5-0.6v0.7c0,0.7,0.3,1.4,1,1.5c0,0,0.8,0,1.8-0.8c1-0.9,1.6-1.6,1.6-1.6l0.1,0.9
			c0,0-0.9,1.4-1.8,2c-0.5,0.3-1.3,0.6-1.9,0.5c-0.6-0.1-1.1-0.7-1.4-1.3c-0.5,0.3-1,0.5-1.6,0.5c-1.3,0-2.4-0.7-2.9-1.8
			c-0.6,0.7-1.4,1.1-2.4,1.1c-1,0-1.9-0.5-2.5-1.2c-0.6,0.5-1.4,0.9-2.2,0.9c-1.1,0-2.1-0.6-2.7-1.5C42,24.5,41,25,39.9,25
			c-0.9,0-1.6-0.3-2.2-0.9c-0.6,0.7-1.5,1.2-2.5,1.2c-1,0-1.8-0.4-2.4-1.1c-0.4,1.1-1.6,1.8-2.9,1.8c-0.6,0-1.1-0.2-1.6-0.5
			c-0.2,0.6-0.7,1.2-1.4,1.3c-0.6,0.1-1.4-0.2-1.9-0.5c-0.9-0.6-1.8-2-1.8-2l0.1-0.9c0,0,0.6,0.7,1.6,1.6c1,0.9,1.8,0.8,1.8,0.8
			c0.7-0.1,1-0.8,1-1.5v-0.7l0.4,0.6c0.4,0.6,1,0.9,1.8,0.9c1.2,0,2.1-1,2.1-2.1c0-0.4-0.1-0.7-0.2-1l0.4-0.9L33,22
			c0,0.1,0,0.2,0,0.3c0,1.2,1,2.2,2.2,2.2c1.1,0,2.1-0.8,2.2-1.9c0,0,0-0.8,0.1-0.8c0.1,0,0.3,0.8,0.3,0.8c0.3,0.9,1.1,1.5,2.1,1.5
			c1.2,0,2.2-1,2.2-2.2c0-0.3,0-0.5-0.1-0.8L42.6,21L42.6,21z"/>
		<path class="st58" d="M57.9,23.9c0.1-0.4,0-0.8-0.3-0.9c-0.3-0.1-0.6,0.2-0.7,0.6c-0.1,0.4,0,0.8,0.3,0.9S57.7,24.3,57.9,23.9z"/>
		<path class="st58" d="M48.2,21.9c0-0.4-0.1-0.8-0.4-0.8c-0.3,0-0.6,0.3-0.6,0.7c0,0.4,0.1,0.8,0.4,0.8
			C47.9,22.7,48.1,22.4,48.2,21.9z"/>
		<path class="st58" d="M37,21.9c0-0.4,0.1-0.8,0.4-0.8c0.3,0,0.5,0.3,0.6,0.7c0,0.4-0.1,0.8-0.4,0.8C37.3,22.7,37,22.4,37,21.9z"/>
		<path class="st58" d="M27.3,23.9c-0.1-0.4,0-0.8,0.3-0.9s0.6,0.2,0.7,0.6c0.1,0.4,0,0.8-0.3,0.9C27.8,24.6,27.5,24.3,27.3,23.9z"
			/>
		<path class="st21" d="M31.5,17.1c0.5,0.3,0.9,0.9,1,1.5c0,0,0.1-0.1,0.3-0.3c0.3-0.2,0.5-0.1,0.5-0.1s-0.1,0.5-0.1,0.6
			c0,0.2,0,0.7-0.1,1.1c-0.1,0.5-0.3,0.8-0.3,0.8c-0.2-0.2-0.5-0.2-0.7-0.2c-0.3,0-0.5,0.2-0.6,0.4c0,0-0.3-0.3-0.5-0.7
			c-0.2-0.4-0.4-0.9-0.5-1c-0.1-0.1-0.3-0.6-0.3-0.6s0.2-0.1,0.5,0c0.3,0.1,0.4,0.2,0.4,0.2C31,18.2,31.2,17.6,31.5,17.1L31.5,17.1z
			"/>
		<path class="st20" d="M31.7,22c-0.1-0.1-0.3-0.3-0.3-0.5c0-0.2,0-0.4,0.1-0.6c0,0-0.4-0.2-0.8-0.3c-0.3-0.1-0.9-0.1-1.1-0.1
			c-0.2,0-0.5,0-0.5,0s0,0.1,0.1,0.3c0.1,0.2,0.2,0.4,0.2,0.4c-0.6,0.1-1.1,0.5-1.4,1c0.4,0.3,1,0.5,1.6,0.5c0,0,0,0.2-0.1,0.4
			c0,0.2,0,0.3,0,0.3s0.3-0.1,0.5-0.2c0.2-0.1,0.7-0.3,1-0.5C31.4,22.3,31.7,22,31.7,22L31.7,22z"/>
		<path class="st20" d="M33,21.7c0.1-0.2,0.1-0.4,0.1-0.6c0-0.2-0.2-0.4-0.3-0.5c0,0,0.3-0.3,0.7-0.6c0.3-0.2,0.8-0.4,1-0.5
			c0.2-0.1,0.5-0.2,0.5-0.2s0,0.1,0,0.3c0,0.2-0.1,0.4-0.1,0.4c0.6-0.1,1.2,0.1,1.6,0.5c-0.3,0.5-0.8,0.9-1.4,1c0,0,0.1,0.1,0.2,0.4
			c0.1,0.2,0.1,0.3,0.1,0.3s-0.4,0-0.5,0c-0.2,0-0.8,0-1.1-0.1C33.4,21.9,33,21.7,33,21.7L33,21.7z"/>
		<path class="st24" d="M31.3,21.3c0-0.5,0.4-1,1-1c0.5,0,1,0.4,1,1c0,0.5-0.4,1-1,1C31.7,22.3,31.3,21.8,31.3,21.3z"/>
		<path class="st21" d="M42.6,15.5c0.5,0.4,0.8,1.1,0.9,1.8c0,0,0.1-0.1,0.4-0.2c0.3-0.1,0.6-0.1,0.6-0.1s-0.2,0.5-0.2,0.7
			c-0.1,0.2-0.2,0.7-0.4,1.2s-0.5,0.8-0.5,0.8c-0.2-0.2-0.5-0.4-0.8-0.4c-0.3,0-0.6,0.1-0.8,0.4c0,0-0.3-0.4-0.5-0.8
			c-0.2-0.5-0.3-1-0.4-1.2c-0.1-0.2-0.2-0.7-0.2-0.7s0.2-0.1,0.6,0.1c0.3,0.1,0.4,0.2,0.4,0.2C41.7,16.7,42.1,16,42.6,15.5z"/>
		<path class="st20" d="M41.8,21c-0.1-0.2-0.2-0.4-0.2-0.6s0.1-0.5,0.2-0.6c0,0-0.4-0.3-0.9-0.5c-0.3-0.2-1-0.3-1.2-0.3
			c-0.2,0-0.6-0.1-0.6-0.1s0,0.1,0.1,0.3c0.1,0.3,0.2,0.4,0.2,0.4c-0.7,0-1.3,0.4-1.7,0.8c0.4,0.5,1.1,0.8,1.7,0.8
			c0,0-0.1,0.2-0.2,0.4c-0.1,0.2-0.1,0.3-0.1,0.3s0.4-0.1,0.6-0.1c0.2,0,0.8-0.1,1.2-0.3C41.4,21.3,41.8,21,41.8,21L41.8,21z"/>
		<path class="st20" d="M43.3,21c0.1-0.2,0.2-0.4,0.2-0.6s-0.1-0.5-0.2-0.6c0,0,0.4-0.3,0.9-0.5c0.3-0.2,1-0.3,1.2-0.3
			c0.2,0,0.6-0.1,0.6-0.1s0,0.1-0.1,0.3c-0.1,0.3-0.2,0.4-0.2,0.4c0.7,0,1.3,0.4,1.7,0.8c-0.4,0.5-1.1,0.8-1.7,0.8
			c0,0,0.1,0.2,0.2,0.4c0.1,0.2,0.1,0.3,0.1,0.3s-0.4-0.1-0.6-0.1c-0.2,0-0.8-0.1-1.2-0.3C43.7,21.3,43.3,21,43.3,21L43.3,21z"/>
		<path class="st21" d="M53.7,17.1c-0.5,0.3-0.9,0.9-1,1.5c0,0-0.1-0.1-0.3-0.3s-0.5-0.1-0.5-0.1s0.1,0.5,0.1,0.6
			c0,0.2,0,0.7,0.1,1.1c0.1,0.5,0.3,0.8,0.3,0.8c0.2-0.2,0.5-0.2,0.7-0.2c0.3,0,0.5,0.2,0.6,0.4c0,0,0.3-0.3,0.5-0.7
			c0.2-0.4,0.4-0.9,0.5-1c0.1-0.1,0.3-0.6,0.3-0.6s-0.2-0.1-0.5,0c-0.3,0.1-0.4,0.2-0.4,0.2C54.2,18.2,54,17.6,53.7,17.1L53.7,17.1z
			"/>
		<path class="st20" d="M53.5,22c0.1-0.1,0.3-0.3,0.3-0.5c0-0.2,0-0.4-0.1-0.6c0,0,0.4-0.2,0.8-0.3c0.3-0.1,0.9-0.1,1.1-0.1
			c0.2,0,0.5,0,0.5,0s0,0.1-0.1,0.3c-0.1,0.2-0.2,0.4-0.2,0.4c0.6,0.1,1.1,0.5,1.4,1c-0.5,0.3-1,0.5-1.6,0.5c0,0,0,0.2,0.1,0.4
			c0,0.2,0,0.3,0,0.3s-0.3-0.1-0.5-0.2c-0.2-0.1-0.7-0.3-1-0.5C53.8,22.3,53.5,22,53.5,22L53.5,22z"/>
		<path class="st20" d="M52.2,21.7c-0.1-0.2-0.2-0.4-0.1-0.6c0-0.2,0.2-0.4,0.3-0.5c0,0-0.3-0.3-0.7-0.6c-0.3-0.2-0.8-0.4-1-0.5
			c-0.2-0.1-0.5-0.2-0.5-0.2s0,0.1,0,0.3c0,0.2,0.1,0.4,0.1,0.4c-0.6-0.1-1.2,0.1-1.6,0.5c0.3,0.5,0.8,0.9,1.4,1
			c0,0-0.1,0.1-0.2,0.4c-0.1,0.2-0.1,0.3-0.1,0.3s0.3,0,0.5,0c0.2,0,0.8,0,1.1-0.1C51.8,21.9,52.2,21.7,52.2,21.7L52.2,21.7z"/>
		<path class="st24" d="M51.9,21.3c0-0.5,0.4-1,1-1c0.5,0,1,0.4,1,1c0,0.5-0.4,1-1,1C52.4,22.3,51.9,21.8,51.9,21.3z"/>
		<path class="st24" d="M62.9,23.5c-0.2-0.3-0.7-0.2-1.1,0.1c-0.4,0.3-0.5,0.8-0.2,1.1s0.7,0.2,1.1-0.1S63.1,23.7,62.9,23.5z"/>
		<path class="st20" d="M61.5,24.1c0-0.2,0.2-0.4,0.3-0.5c0.4-0.3,0.8-0.4,1.1-0.1c0,0,0.1,0.1,0.1,0.1c0,0,0.5-1,1.1-1.3
			c0.6-0.3,1.6-0.2,1.6-0.2c0-0.8-0.6-1.4-1.3-1.4c-0.5,0-0.9,0.2-1.1,0.5l-0.1-0.5c0,0-0.6,0.1-0.9,0.9s0,1.8,0,1.8
			s-0.1-0.5-0.4-0.8c-0.2-0.3-0.8-0.6-1.1-0.8c-0.3-0.1-0.6-0.4-0.6-0.4s0,0.1,0,0.3c0,0.2,0,0.4,0,0.4c-0.6-0.1-1.2,0-1.7,0.2
			c0.2,0.4,0.6,0.9,1.2,1.1c0,0-0.2,0.2-0.4,0.4C59,23.9,58.9,24,58.9,24s0.4,0.1,0.6,0.1c0.2,0,0.8,0.1,1.2,0.1
			C61,24.2,61.3,24.1,61.5,24.1L61.5,24.1z"/>
		<path class="st24" d="M22.3,23.5c0.2-0.3,0.7-0.2,1.1,0.1c0.4,0.3,0.5,0.8,0.2,1.1c-0.2,0.3-0.7,0.2-1.1-0.1
			C22.2,24.2,22.1,23.7,22.3,23.5z"/>
		<path class="st20" d="M23.7,24.1c0-0.2-0.2-0.4-0.3-0.5c-0.4-0.3-0.8-0.4-1.1-0.1c0,0-0.1,0.1-0.1,0.1c0,0-0.5-1-1.1-1.3
			c-0.6-0.3-1.6-0.2-1.6-0.2c0-0.8,0.6-1.4,1.4-1.4c0.4,0,0.9,0.2,1.1,0.5l0.1-0.5c0,0,0.6,0.1,0.9,0.9c0.3,0.7,0,1.8,0,1.8
			s0.1-0.5,0.4-0.8c0.2-0.3,0.8-0.6,1.1-0.8c0.3-0.1,0.6-0.4,0.6-0.4s0,0.1,0,0.3c0,0.2,0,0.4,0,0.4c0.6-0.1,1.2,0,1.7,0.2
			c-0.2,0.4-0.6,0.9-1.2,1.1c0,0,0.2,0.2,0.4,0.4c0.1,0.2,0.2,0.2,0.2,0.2s-0.4,0.1-0.6,0.1c-0.2,0-0.8,0.1-1.2,0.1
			C24.2,24.2,23.9,24.1,23.7,24.1L23.7,24.1z"/>
		<path class="st24" d="M41.6,20.4c0-0.5,0.4-1,1-1s1,0.4,1,1s-0.4,1-1,1S41.6,20.9,41.6,20.4z"/>
		<path class="st60" d="M40.5,5.5c0-1.1,0.9-2,2-2c1.1,0,2,0.9,2,2s-0.9,2-2,2C41.4,7.5,40.5,6.6,40.5,5.5z"/>
		<defs>
			
				<filter id="Adobe_OpacityMaskFilter_00000065768423109453856250000012114752601113072036_" filterUnits="userSpaceOnUse" x="40.3" y="-0.2" width="4.6" height="6.5">
				<feColorMatrix  type="matrix" values="1 0 0 0 0  0 1 0 0 0  0 0 1 0 0  0 0 0 1 0"/>
			</filter>
		</defs>
		
			<mask maskUnits="userSpaceOnUse" x="40.3" y="-0.2" width="4.6" height="6.5" id="mask9_49_2_00000034790183305440332390000005957835354225891977_">
			<path style="fill:#FFFFFF;filter:url(#Adobe_OpacityMaskFilter_00000065768423109453856250000012114752601113072036_);" d="
				M40.5,5.5c0-1.1,0.9-2,2-2c1.1,0,2,0.9,2,2s-0.9,2-2,2C41.4,7.5,40.5,6.6,40.5,5.5z"/>
		</mask>
		<g class="st62">
			<path class="st2" d="M44.9,5.2v1.1h-4.5V5.2H42V2h-1.1V1H42v-1.1h1.1V1h1.1V2h-1.1v3.2H44.9z"/>
		</g>
		<path class="st2" d="M44.2,5.2v1.1h-3.3V5.2H42V2h-1.1V1H42v-1.1h1.1V1h1.1V2h-1.1v3.2H44.2z"/>
		<defs>
			
				<filter id="Adobe_OpacityMaskFilter_00000020390583877672400650000004886404482841550261_" filterUnits="userSpaceOnUse" x="40.3" y="-0.2" width="4.6" height="6.5">
				<feColorMatrix  type="matrix" values="1 0 0 0 0  0 1 0 0 0  0 0 1 0 0  0 0 0 1 0"/>
			</filter>
		</defs>
		
			<mask maskUnits="userSpaceOnUse" x="40.3" y="-0.2" width="4.6" height="6.5" id="mask10_49_2_00000037670349174979229880000001260211336210427792_">
			<path style="fill:#FFFFFF;filter:url(#Adobe_OpacityMaskFilter_00000020390583877672400650000004886404482841550261_);" d="
				M40.5,5.6c0-1.1,0.9-2,2-2s2,0.9,2,2s-0.9,2-2,2S40.5,6.7,40.5,5.6z"/>
		</mask>
		<g class="st64">
			<path class="st2" d="M44.9,5.2v1.1h-4.5V5.2H42V2h-1.1V1H42v-1.1h1.1V1h1.1V2h-1.1v3.2H44.9z"/>
		</g>
		<path class="st7" d="M43.1,3.6c0.8,0.2,1.4,1,1.4,1.9c0,1.1-0.9,2-2,2c-1.1,0-2-0.9-2-2c0-0.9,0.6-1.7,1.5-1.9"/>
		<path class="st65" d="M42.7,89.9c-5.9,0-11.8-1.5-16.7-4.1c-3.6-1.9-6-5.7-6-10.1V59.9h45.4v15.9c0,4.4-2.4,8.2-6,10.1
			C54.4,88.4,48.6,89.9,42.7,89.9L42.7,89.9z"/>
		<path class="st66" d="M65.4,33.3H42.6v26.6h22.7V33.3z"/>
		<path class="st67" d="M42.6,33.3H20v26.6h22.7V33.3z"/>
		<path class="st10" d="M42.7,75.7c0,6.3-5,11.4-11.3,11.4S20,82,20,75.7V59.8h22.7V75.7z"/>
		<defs>
			
				<filter id="Adobe_OpacityMaskFilter_00000147928268115724630850000009695215521033340053_" filterUnits="userSpaceOnUse" x="19.8" y="59.2" width="23.1" height="29.7">
				<feColorMatrix  type="matrix" values="1 0 0 0 0  0 1 0 0 0  0 0 1 0 0  0 0 0 1 0"/>
			</filter>
		</defs>
		
			<mask maskUnits="userSpaceOnUse" x="19.8" y="59.2" width="23.1" height="29.7" id="mask11_49_2_00000078752421031157678460000005792374080514041231_">
			<path style="fill:#FFFFFF;filter:url(#Adobe_OpacityMaskFilter_00000147928268115724630850000009695215521033340053_);" d="
				M42.7,75.7c0,6.3-5,11.4-11.3,11.4S20,82,20,75.7V59.8h22.7V75.7z"/>
		</mask>
		<g class="st69">
			<path class="st70" d="M27.6,59.3h-2.7v29.4h2.7V59.3z"/>
			<path class="st70" d="M22.5,59.3h-2.7v29.4h2.7V59.3z"/>
			<path class="st70" d="M32.6,59.3H30v29.4h2.7V59.3z"/>
			<path class="st70" d="M37.7,59.3H35v29.4h2.7V59.3z"/>
			<path class="st70" d="M42.8,59.3h-2.7v29.4h2.7V59.3z"/>
		</g>
		<path class="st16" d="M42.7,75.7c0,6.3-5,11.4-11.3,11.4S20,82,20,75.7V59.8h22.7V75.7z"/>
		<path class="st71" d="M65.4,59.8v15.9c0,6.3-5.1,11.4-11.4,11.4S42.7,82,42.7,75.7V59.8H65.4L65.4,59.8z"/>
		<path class="st72" d="M55.1,82.8c0.6-0.1,1.2-0.3,1.7-0.5l0.4,0.7c-0.6,0.3-1.3,0.5-2,0.6c-0.1,0.6-0.6,1-1.2,1s-1.1-0.4-1.2-1
			c-0.8-0.1-1.5-0.3-2.1-0.6l0.4-0.7c0.6,0.3,1.2,0.4,1.9,0.5c0.1-0.3,0.4-0.6,0.7-0.7v-3.3h0.8v3.3C54.7,82.3,55,82.5,55.1,82.8
			L55.1,82.8z M52.9,72.7c0-0.1-0.1-0.1-0.1-0.2h-1.9v-0.8h1.9c0-0.1,0-0.1,0.1-0.2l-2.4-2.8l0.6-0.5l2.3,2.7c0,0,0.1,0,0.1-0.1
			v-3.7h0.8v3.6c0,0,0.1,0,0.1,0l2.3-2.7l0.6,0.5L55,71.4c0.1,0.1,0.1,0.2,0.1,0.3H57v0.8h-1.9c0,0.1-0.1,0.2-0.1,0.2l2.2,2.6
			l-0.6,0.5l-2.2-2.6c0,0-0.1,0-0.1,0v4.3h-0.8v-4.3c0,0-0.1,0-0.1,0l-2.2,2.6l-0.6-0.5L52.9,72.7L52.9,72.7z M46.8,64.4l2.8,3.4
			l0.6-0.5L47.4,64c0.1-0.1,0.1-0.2,0.1-0.3h2.1v-0.8h-2.1c-0.2-0.5-0.6-0.9-1.2-0.9c-0.7,0-1.2,0.5-1.2,1.2c0,0.5,0.3,1,0.8,1.2
			v2.6h0.8v-2.6C46.7,64.5,46.8,64.5,46.8,64.4L46.8,64.4z M49.9,81.7l-0.4,0.7c-0.6-0.4-1.2-0.9-1.7-1.5c-0.4,0.1-0.8,0.1-1.2-0.2
			c-0.5-0.4-0.6-1.2-0.1-1.7l0.1-0.1c-0.3-0.8-0.5-1.6-0.6-2.4h0.8c0.1,0.7,0.2,1.4,0.5,2.1c0.2,0,0.5,0,0.7,0.1l1.9-2.3l0.6,0.5
			L48.5,79c0.3,0.4,0.2,0.9,0,1.4C48.9,80.9,49.4,81.4,49.9,81.7L49.9,81.7z M46,75.2v-1.9c-0.5-0.2-0.9-0.6-0.9-1.2
			c0-0.6,0.4-1,0.9-1.2v-2.6h0.8v2.6c0.4,0.1,0.7,0.4,0.8,0.8h2.1v0.8h-2.1c-0.1,0.4-0.4,0.7-0.8,0.8v1.9L46,75.2L46,75.2z M47,79.3
			c0.2-0.2,0.5-0.2,0.8-0.1c0.2,0.2,0.2,0.5,0.1,0.8c-0.2,0.2-0.5,0.2-0.8,0.1C46.9,79.9,46.9,79.6,47,79.3z M46.1,77.1l-0.8-0.2
			l-0.1-2.1l0.8-0.3v1.2C46,76.2,46,76.7,46.1,77.1L46.1,77.1z M46.7,74.5l0.8,0.2c0,0,0,1.4,0,1.1c0-0.4,0.1,1.1,0.1,1.1l-0.8,0.3
			c-0.1-0.4-0.1-0.9-0.1-1.3L46.7,74.5L46.7,74.5z M49.3,81.3c0.7,0.5,1.4,1,2.3,1.3l0.2-0.8c-0.7-0.2-1.3-0.6-1.9-1L49.3,81.3z
			 M49,82c0.7,0.5,1.5,1,2.3,1.3l-0.6,0.6c-0.7-0.3-1.3-0.6-1.9-1L49,82L49,82z M50,77.3l0.8,0.3l1.4-1.6l-0.5-0.7L50,77.3L50,77.3z
			 M49.4,76.8L49,76.1l1.4-1.6l0.8,0.3L49.4,76.8z M45.8,72.1c0-0.3,0.2-0.5,0.5-0.5c0.3,0,0.5,0.2,0.5,0.5s-0.2,0.5-0.5,0.5
			C46,72.6,45.8,72.4,45.8,72.1z M57.9,81.7l0.4,0.7c0.6-0.4,1.2-0.9,1.7-1.5c0.4,0.1,0.8,0.1,1.2-0.2c0.5-0.4,0.6-1.2,0.1-1.7
			l-0.1-0.1c0.3-0.8,0.5-1.6,0.6-2.4h-0.8c-0.1,0.7-0.2,1.4-0.5,2.1c-0.2,0-0.4,0-0.7,0.1L58,76.3l-0.6,0.5l1.9,2.2
			c-0.3,0.4-0.2,0.9,0.1,1.4C59,80.9,58.5,81.4,57.9,81.7L57.9,81.7z M61.9,75.2v-1.9c0.5-0.2,0.9-0.6,0.9-1.2c0-0.6-0.4-1-0.9-1.2
			v-2.6h-0.8v2.6c-0.4,0.1-0.7,0.4-0.8,0.8h-2.1v0.8h2.1c0.1,0.4,0.4,0.7,0.8,0.8v1.9L61.9,75.2L61.9,75.2z M60.8,79.3
			c-0.2-0.2-0.5-0.2-0.8-0.1c-0.2,0.2-0.2,0.5-0.1,0.8c0.2,0.2,0.5,0.2,0.8,0.1C60.9,79.9,61,79.6,60.8,79.3z M61.8,77.1l0.8-0.2
			l0.1-2.1l-0.8-0.3v1.2C61.9,76.2,61.8,76.7,61.8,77.1L61.8,77.1z M61.1,74.5l-0.8,0.2c0,0,0,1.4,0,1.1c0-0.4-0.1,1.1-0.1,1.1
			l0.8,0.3c0.1-0.4,0.1-0.9,0.1-1.3L61.1,74.5L61.1,74.5z M61.9,64.5V67h-0.8v-2.6c-0.1,0-0.1-0.1-0.2-0.1l-2.8,3.4l-0.6-0.5
			l2.9-3.4c0,0,0-0.1-0.1-0.2h-2.1v-0.8h2.1c0.2-0.5,0.6-0.8,1.2-0.8c0.7,0,1.2,0.5,1.2,1.2C62.7,63.9,62.4,64.3,61.9,64.5
			L61.9,64.5z M54.3,64.5v1.6h-0.8v-1.6c-0.4-0.1-0.7-0.4-0.8-0.8h-1.9v-0.8h1.9c0.2-0.5,0.6-0.8,1.2-0.8s1,0.4,1.2,0.8H57v0.8h-1.9
			C55,64,54.7,64.3,54.3,64.5L54.3,64.5z M58.5,81.3c-0.7,0.6-1.4,1-2.3,1.3L56,81.8c0.7-0.2,1.3-0.6,1.9-1L58.5,81.3z M58.9,82
			c-0.7,0.5-1.5,1-2.3,1.3l0.6,0.6c0.7-0.3,1.3-0.6,1.9-1L58.9,82L58.9,82z M46,66.4l-0.8,0.2v2.1L46,69V66.4z M46.7,66.4l0.8,0.2
			v2.1L46.7,69V66.4z M61.1,66.4l-0.8,0.2v2.1l0.8,0.2V66.4z M61.9,66.4l0.8,0.2v2.1L61.9,69V66.4z M57.8,77.3l-0.8,0.3L55.7,76
			l0.4-0.7L57.8,77.3z M58.4,76.8l0.5-0.7l-1.4-1.6l-0.8,0.3L58.4,76.8z M49.8,66.8l0.8-0.3l1.4,1.6l-0.5,0.7L49.8,66.8L49.8,66.8z
			 M49.3,67.3L48.8,68l1.4,1.6l0.8-0.3L49.3,67.3z M57.9,66.8l-0.8-0.3l-1.4,1.6l0.5,0.7L57.9,66.8z M58.5,67.3l0.5,0.7l-1.4,1.6
			l-0.8-0.3L58.5,67.3z M49,71.7l0.2-0.8h2.1l0.2,0.8H49z M49,72.5l0.2,0.8h2.1l0.2-0.8H49z M45.8,63.3c0-0.3,0.2-0.5,0.5-0.5
			c0.3,0,0.5,0.2,0.5,0.5c0,0.3-0.2,0.5-0.5,0.5C46.1,63.8,45.8,63.6,45.8,63.3z M51.5,63.7l-0.2,0.8h-2.1l-0.2-0.8H51.5z
			 M51.5,62.9l-0.2-0.8h-2.1l-0.2,0.8H51.5z M61,72.1c0-0.3,0.2-0.5,0.5-0.5s0.5,0.2,0.5,0.5s-0.2,0.5-0.5,0.5S61,72.4,61,72.1z
			 M58.9,71.7L58.7,71h-2.1l-0.2,0.8H58.9z M58.9,72.5l-0.2,0.8h-2.1l-0.2-0.8H58.9z M53.4,83.4c0-0.3,0.2-0.5,0.5-0.5
			c0.3,0,0.5,0.2,0.5,0.5s-0.2,0.5-0.5,0.5C53.7,83.9,53.4,83.7,53.4,83.4z M54.3,79.5l0.8-0.2v-2.1l-0.8-0.2V79.5z M53.6,79.5
			l-0.8-0.2v-2.1l0.8-0.2V79.5z M61,63.3c0-0.3,0.2-0.5,0.5-0.5S62,63,62,63.3c0,0.3-0.2,0.5-0.5,0.5S61,63.6,61,63.3z M53.4,63.3
			c0-0.3,0.2-0.5,0.5-0.5c0.3,0,0.5,0.2,0.5,0.5c0,0.3-0.2,0.5-0.5,0.5C53.6,63.8,53.4,63.6,53.4,63.3z M56.3,63.7l0.2,0.8h2.1
			l0.2-0.8H56.3z M56.3,62.9l0.2-0.8h2.1l0.2,0.8H56.3z M53.6,65.4l-0.8,0.2v2.1l0.8,0.2V65.4z M54.3,65.4l0.8,0.2v2.1L54.3,68V65.4
			z"/>
		<path class="st73" d="M52.7,72.1c0-0.7,0.5-1.2,1.2-1.2c0.7,0,1.2,0.6,1.2,1.2c0,0.7-0.5,1.2-1.2,1.2
			C53.3,73.3,52.7,72.8,52.7,72.1z"/>
		<path class="st24" d="M54.2,39.8l0-0.3l0-0.2c0,0-0.7,0.1-1.1-0.1c-0.4-0.1-0.7-0.3-1.1-0.6c-0.4-0.3-0.5-0.5-0.8-0.6
			c-0.6-0.1-1.1,0.2-1.1,0.2s0.5,0.2,0.8,0.6c0.3,0.5,0.7,0.7,0.9,0.7c0.3,0.1,1.2,0,1.5,0C53.7,39.7,54.2,39.8,54.2,39.8L54.2,39.8
			z"/>
		<path class="st74" d="M57.6,38.7c0,0,0,0.3,0,0.7c0,0.3-0.1,0.6-0.1,0.8c0.1,0.2,0.1,0.3,0.1,0.4c0.1,0.1,0.1,0.5,0.1,0.5
			s-0.2-0.1-0.3-0.3c-0.2-0.1-0.3-0.2-0.3-0.2s0,0.3,0,0.5c0,0.1,0.1,0.4,0.2,0.6c0.1,0.2,0.4,0.4,0.5,0.6c0.1,0.2,0.1,0.7,0.1,0.7
			s-0.2-0.4-0.4-0.4c-0.2-0.1-0.6-0.3-0.6-0.3s0.4,0.4,0.4,0.7s-0.1,0.8-0.1,0.8s-0.2-0.3-0.4-0.5c-0.2-0.2-0.5-0.4-0.5-0.4
			s0.2,0.6,0.2,0.9c0,0.4-0.1,1.2-0.1,1.2s-0.2-0.3-0.4-0.5c-0.2-0.1-0.4-0.3-0.5-0.4C55.7,44,56,44.4,56,44.7
			c0,0.2,0.1,1.1,0.9,2.2c0.4,0.6,1.1,1.8,2.5,1.4c1.4-0.4,0.9-2.4,0.6-3.3c-0.3-0.9-0.4-2-0.4-2.3s0.3-1.4,0.2-1.6s-0.1-1,0.1-1.6
			c0.2-0.6,0.3-0.9,0.4-1.1c0.1-0.3,0.2-0.4,0.2-0.6c0-0.2,0-0.6,0-0.6s0.3,0.5,0.3,0.7s0.1,0.7,0.1,0.7s0-0.5,0.4-0.8
			c0.4-0.3,0.8-0.5,1-0.7c0.1-0.1,0.1-0.2,0.1-0.2s0,0.9-0.3,1.3c-0.2,0.2-0.8,1-0.8,1s0.3-0.1,0.6-0.2c0.2,0,0.4,0,0.4,0
			s-0.3,0.2-0.6,0.8c-0.4,0.5-0.2,0.6-0.5,1.1c-0.3,0.5-0.5,0.5-0.8,0.8c-0.5,0.4-0.2,2.1-0.2,2.3c0.1,0.2,0.9,2.3,0.9,2.8
			c0,0.5,0.1,1.6-0.7,2.3c-0.5,0.4-1.4,0.5-1.6,0.6c-0.2,0.1-0.6,0.5-0.6,1.4c0,0.8,0.3,1,0.5,1.2s0.5,0.1,0.6,0.3
			c0.1,0.2,0.1,0.3,0.2,0.4c0.1,0.1,0.2,0.2,0.1,0.4c0,0.2-0.4,0.6-0.5,0.9c-0.1,0.3-0.4,1.1-0.4,1.2s0,0.5,0.1,0.7
			c0,0,0.4,0.5,0.1,0.6c-0.2,0.1-0.4-0.1-0.4-0.1c-0.2,0.1-0.4,0.2-0.4,0.2c-0.2,0-0.2-0.1-0.2-0.4c0-0.2,0-0.3-0.1-0.3
			c-0.1,0-0.1,0.1-0.2,0.2c0,0.1,0,0.4-0.1,0.4c-0.1,0-0.3-0.2-0.4-0.3c-0.1,0-0.4-0.1-0.4-0.2c0-0.1,0.2-0.4,0.3-0.5
			s0.3-0.1,0.2-0.2c-0.1-0.1-0.2-0.1-0.3,0c-0.1,0.1-0.4,0-0.3-0.1c0-0.1,0-0.3,0-0.4c0-0.1-0.2-0.2,0-0.4c0.3-0.1,0.4,0.1,0.6,0.1
			c0.3,0,0.4-0.2,0.5-0.3c0.1-0.2,0.1-0.5-0.1-0.7c-0.2-0.2-0.4-0.2-0.4-0.4c-0.1-0.1-0.2-0.4-0.2-0.4s0,0.6,0,0.7
			c0,0.1,0,0.4,0,0.4s-0.2-0.2-0.3-0.4c-0.1-0.2-0.3-0.6-0.3-0.6s0,0.5,0,0.6s0.2,0.3,0.1,0.4s-0.4-0.3-0.5-0.4
			c-0.1-0.1-0.3-0.3-0.5-0.5c-0.1-0.2-0.2-0.6-0.2-0.7c0-0.1-0.1-0.6,0-0.8c0.1-0.2,0.2-0.5,0.2-0.5h-0.6c-0.3,0-0.6-0.1-0.7,0.1
			c-0.1,0.2-0.1,0.7,0.1,1.4c0.2,0.6,0.3,1,0.2,1.1c0,0.1-0.3,0.4-0.3,0.4c-0.1,0-0.3,0-0.4,0c-0.1-0.1-0.3-0.1-0.6-0.1
			c-0.3,0-0.5,0-0.6,0c-0.1,0-0.4-0.2-0.5-0.2c-0.1,0-0.4,0.2-0.3,0.3c0.1,0.3-0.1,0.4-0.2,0.3c-0.1,0-0.2-0.1-0.4-0.1
			c-0.2-0.1-0.4,0-0.4-0.2c0-0.2,0.1-0.2,0.2-0.4c0.1-0.2,0.1-0.2,0-0.2c-0.1,0-0.2,0-0.3,0c-0.1,0.1-0.2,0.2-0.3,0.2
			c-0.1-0.1-0.2-0.2-0.2-0.5c0-0.3-0.3-0.6,0-0.6c0.3,0,0.6,0.2,0.7,0.1c0.1-0.2,0-0.2-0.1-0.4c-0.2-0.1-0.3-0.2-0.1-0.4
			c0.2-0.2,0.3-0.2,0.3-0.3c0.1-0.1,0.2-0.4,0.3-0.3c0.3,0.1,0,0.3,0.3,0.7c0.3,0.3,0.5,0.5,0.9,0.4c0.5,0,0.6-0.1,0.6-0.3
			s0-0.4,0-0.5c0-0.1,0.1-0.5,0.1-0.5s-0.2,0.1-0.3,0.3s-0.2,0.4-0.2,0.4s-0.1-0.3,0-0.5c0-0.1,0.1-0.4,0-0.4c0-0.1-0.1-0.5-0.1-0.5
			s-0.1,0.4-0.1,0.5s-0.1,0.5-0.1,0.5s-0.3-0.3-0.2-0.7c0.1-0.4,0-0.8,0-1c0.1-0.2,0.3-0.8,0.9-0.8c0.6,0,1,0,1.2,0
			c0.2,0,0.9-0.2,0.9-0.2s-1.3-0.7-1.7-0.9c-0.3-0.2-0.8-0.8-0.9-1c-0.1-0.2-0.3-0.8-0.3-0.8s-0.2,0-0.5,0.1
			c-0.2,0.1-0.4,0.3-0.6,0.5c-0.1,0.2-0.3,0.5-0.3,0.5s0-0.5,0-0.6s0-0.4,0-0.4s-0.2,0.6-0.5,0.8c-0.3,0.2-0.7,0.5-0.7,0.5
			s0-0.3,0-0.4c0-0.1,0.1-0.5,0.1-0.5s-0.2,0.4-0.6,0.4c-0.3,0.1-0.8,0-0.9,0.3c0,0.2,0.1,0.5,0,0.7c-0.1,0.2-0.2,0.3-0.2,0.3
			s-0.2-0.2-0.4-0.2c-0.2,0-0.3,0.1-0.3,0.1s-0.1-0.2-0.1-0.3c0.1-0.1,0.3-0.3,0.2-0.4c-0.1-0.1-0.3,0-0.4,0.1
			c-0.1,0.1-0.4,0.1-0.4-0.1c0-0.2,0.1-0.3,0-0.5c-0.1-0.1,0-0.3,0.1-0.3c0.1,0,0.5,0,0.5-0.1c0-0.1-0.1-0.2-0.4-0.3
			s-0.4-0.2-0.3-0.4c0.1-0.1,0.2-0.2,0.2-0.3s0.1-0.4,0.3-0.2c0.2,0.1,0.2,0.4,0.4,0.5c0.2,0.1,0.9,0,1-0.1c0.1-0.1,0.5-0.4,0.7-0.5
			c0.1-0.1,0.7-0.5,0.7-0.5s-0.3-0.3-0.5-0.4c-0.1-0.1-0.4-0.4-0.5-0.5c-0.1-0.1-0.7-0.3-0.9-0.3C48.6,43.2,48,43,48,43
			s0.3-0.1,0.4-0.2c0.1-0.1,0.3-0.3,0.4-0.3c0.1,0,0.1,0,0.1,0s-0.5,0-0.7-0.1c-0.1,0-0.5-0.3-0.6-0.3s-0.4,0-0.4,0s0.3-0.2,0.6-0.3
			c0.3-0.1,0.5,0,0.5,0s-0.4-0.1-0.5-0.3c-0.1-0.2-0.2-0.4-0.3-0.5c-0.1-0.1-0.1-0.3-0.3-0.3c-0.1,0-0.4,0.2-0.5,0.2
			c-0.1,0-0.2-0.1-0.3-0.3s0-0.1,0-0.3c-0.1-0.1-0.3-0.4-0.1-0.5c0.2-0.1,0.6,0,0.6,0c0-0.1-0.2-0.3-0.4-0.4
			c-0.2-0.1-0.4-0.2-0.3-0.4s0.3-0.2,0.4-0.3c0.1-0.1,0.2-0.4,0.3-0.3c0.2,0.1,0.4,0.6,0.5,0.6c0.1,0,0.1-0.4,0.1-0.6
			c0-0.1,0-0.4,0.1-0.4c0.1,0,0.2,0.2,0.4,0.2c0.2,0,0.5,0,0.5,0.1c0,0.1-0.1,0.3-0.3,0.5c-0.1,0.2-0.2,0.5-0.1,0.7s0.3,0.6,0.5,0.7
			s0.6,0.2,0.8,0.4c0.2,0.2,0.8,0.6,1,0.7c0.2,0,0.4,0.2,0.4,0.2s0.2-0.1,0.5-0.1s1,0.1,1.2-0.1c0.2-0.1,0.6-0.3,0.5-0.5
			c-0.1-0.2-0.7-0.5-0.6-0.7c0-0.2,0.3-0.2,0.6-0.2c0.3,0,0.8,0.1,0.9-0.5c0.1-0.5,0.1-0.8-0.4-0.9c-0.5-0.1-0.8-0.1-0.9-0.5
			s-0.2-0.5-0.1-0.6c0.1-0.1,0.3-0.1,0.6-0.2c0.4,0,0.8,0,0.9-0.1c0.1-0.1,0.1-0.3,0.3-0.4c0.1-0.1,0.7-0.2,0.7-0.2s0.7,0.3,1.3,0.8
			C57.2,38.1,57.7,38.7,57.6,38.7L57.6,38.7z"/>
		<path class="st75" d="M52.9,38.4c0,0-0.1-0.2-0.1-0.3c0-0.1,0-0.1,0-0.1s0.4,0,0.4,0.1c0,0.1-0.1,0.1-0.2,0.2
			C53,38.3,52.9,38.4,52.9,38.4L52.9,38.4z"/>
		<path class="st76" d="M54.7,37.7l0-0.2c0,0,0.3,0,0.5,0.1c0.3,0.2,0.4,0.5,0.4,0.5c0,0-0.2-0.1-0.4-0.2c0,0-0.1,0-0.2,0
			c-0.1,0-0.2,0-0.2-0.1c0,0,0-0.1,0-0.1L54.7,37.7L54.7,37.7z"/>
		<path class="st7" d="M57.2,40.6c0,0-0.2-0.2-0.2-0.3c0-0.1-0.1-0.2-0.1-0.2"/>
		<path class="st24" d="M47.9,38.3c0,0,0.2,0.2,0.4,0.2c0.2,0,0.3,0,0.4,0c0,0,0.1-0.3,0-0.4c-0.1-0.6-0.6-0.7-0.6-0.7
			s0.2,0.4,0.1,0.5C48.1,38.1,47.9,38.3,47.9,38.3L47.9,38.3z"/>
		<path class="st24" d="M46.8,38.8c0,0-0.2-0.4-0.6-0.3s-0.7,0.4-0.7,0.4s0.5,0,0.6,0.1c0.2,0.1,0.2,0.4,0.2,0.4s0.2-0.1,0.3-0.3
			C46.7,39,46.8,38.8,46.8,38.8L46.8,38.8z"/>
		<path class="st24" d="M46.3,40.3c0,0-0.3,0-0.5,0.3c-0.2,0.2-0.2,0.7-0.2,0.7s0.2-0.3,0.4-0.3s0.5,0.1,0.5,0.1s-0.1-0.3-0.1-0.4
			S46.3,40.3,46.3,40.3L46.3,40.3z"/>
		<path class="st75" d="M52.9,40.2l0.2-0.3l0.1,0.2L52.9,40.2z"/>
		<path class="st75" d="M53.3,40.2l0.2-0.2l0.2,0.2L53.3,40.2z"/>
		<path class="st75" d="M53.1,38.7l0.4,0.1L53.2,39L53.1,38.7z"/>
		<path class="st75" d="M53.6,38.8l0.3,0.1l-0.3,0.2L53.6,38.8z"/>
		<path class="st14" d="M51.1,41.8c0,0-0.4,0.1-0.5,0.3c-0.2,0.3-0.2,0.5-0.2,0.5s0.3-0.3,0.7-0.1c0.4,0.1,0.4,0.1,0.6,0.1
			c0.2,0,0.6-0.2,0.6-0.2S52,42.8,52,43.1c0,0.3,0.1,0.4,0.1,0.5c0,0.3-0.3,0.8-0.3,0.8s0.1-0.1,0.5-0.2c0.3-0.1,0.6-0.2,0.8-0.4
			c0.2-0.1,0.4-0.5,0.4-0.5s-0.1,0.5,0,0.7c0.1,0.2,0.1,0.8,0.1,0.8s0.2-0.2,0.4-0.3c0.1,0,0.3-0.2,0.4-0.3c0.1-0.1,0.1-0.5,0.1-0.5
			s0,0.4,0.2,0.6c0.1,0.2,0.3,0.8,0.3,0.8s0.1-0.4,0.3-0.6c0.1-0.2,0.3-0.4,0.3-0.5c0-0.1,0-0.4,0-0.4l0.2,0.4"/>
		<path class="st14" d="M50.6,44.4c0,0,0.2-0.4,0.4-0.5c0.2-0.1,0.5-0.4,0.6-0.4c0.1,0,0.4-0.2,0.4-0.2"/>
		<path class="st14" d="M52.5,45.8c0,0,0.5-0.3,0.6-0.4c0.3-0.2,0.5-0.5,0.5-0.5"/>
		<path class="st24" d="M47.5,45.1c0,0-0.2-0.2-0.5-0.2c-0.3,0.1-0.5,0.5-0.5,0.5s0.3-0.1,0.5,0c0.2,0,0.3,0.2,0.3,0.2
			s0.2-0.1,0.2-0.2C47.4,45.3,47.5,45.1,47.5,45.1z"/>
		<path class="st24" d="M47.1,46.5c0,0-0.3-0.1-0.5,0.1c-0.2,0.2-0.3,0.6-0.3,0.6s0.2-0.2,0.4-0.2c0.2,0,0.4,0.1,0.4,0.1
			s0-0.2,0.1-0.3C47.2,46.7,47.1,46.5,47.1,46.5L47.1,46.5z"/>
		<path class="st24" d="M47.8,47.8c0,0,0,0.4,0.2,0.6c0.2,0.2,0.5,0.3,0.5,0.3s-0.1-0.2-0.1-0.4c0-0.2,0.2-0.4,0.2-0.4
			s-0.2-0.2-0.3-0.2C48,47.8,47.8,47.8,47.8,47.8L47.8,47.8z"/>
		<path class="st14" d="M55.3,48.5c0,0,0.9,0.6,0.9,1.1c0,0.5-0.5,1.2-0.5,1.2"/>
		<path class="st24" d="M51.1,51.2c0,0-0.2-0.3-0.5-0.3c-0.3,0-0.6,0.3-0.6,0.3s0.4,0,0.5,0.1c0.1,0.1,0.2,0.3,0.2,0.3
			s0.2-0.1,0.2-0.2C50.9,51.4,51.1,51.2,51.1,51.2L51.1,51.2z"/>
		<path class="st24" d="M50.1,52.5c0,0-0.4-0.1-0.6,0.2c-0.2,0.2-0.2,0.7-0.2,0.7s0.2-0.3,0.5-0.3c0.2,0,0.5,0.2,0.5,0.2
			s0-0.3-0.1-0.4C50.2,52.8,50.1,52.5,50.1,52.5L50.1,52.5z"/>
		<path class="st24" d="M51,54c0,0-0.2,0.3-0.1,0.5c0.2,0.2,0.5,0.4,0.5,0.4s-0.1-0.2-0.1-0.4c0-0.2,0.3-0.4,0.3-0.4L51,54L51,54z"
			/>
		<path class="st24" d="M56.6,54.5c0,0-0.4-0.1-0.6,0c-0.2,0.1-0.4,0.7-0.4,0.7s0.3-0.3,0.6-0.3c0.2,0,0.4,0.1,0.4,0.1s0-0.2,0-0.4
			C56.7,54.7,56.6,54.5,56.6,54.5L56.6,54.5z"/>
		<path class="st24" d="M56.8,56c0,0-0.3,0.3-0.2,0.6c0.1,0.3,0.3,0.5,0.3,0.5s0-0.4,0.1-0.5c0.2-0.2,0.5-0.2,0.5-0.2
			s-0.2-0.2-0.3-0.3C57.1,56.1,56.8,55.9,56.8,56L56.8,56z"/>
		<path class="st24" d="M58.2,56.4c0,0-0.1,0.4,0.1,0.6c0.3,0.2,0.5,0.3,0.5,0.3s-0.2-0.4-0.1-0.6s0.2-0.3,0.2-0.3s-0.3-0.1-0.4-0.1
			C58.5,56.3,58.2,56.4,58.2,56.4L58.2,56.4z"/>
		<path class="st77" d="M43.8,82.9c0.9,0.3,1.4,1,1.4,1.9c0,1.1-1,2-2.4,2c-1.3,0-2.4-0.9-2.4-2c0-0.9,0.4-1.8,1.4-1.9
			c0,0,0-0.1-0.1-0.2c-0.1-0.1-0.3-0.3-0.3-0.3s0.4-0.1,0.6,0c0.2,0.1,0.4,0.2,0.4,0.2s0.1-0.2,0.2-0.4c0.1-0.2,0.3-0.2,0.3-0.2
			s0.2,0.2,0.3,0.3c0.1,0.1,0.1,0.3,0.1,0.3s0.2-0.2,0.4-0.2c0.2-0.1,0.4-0.1,0.4-0.1s-0.1,0.2-0.1,0.3
			C43.9,82.7,43.8,82.9,43.8,82.9L43.8,82.9z"/>
		<path class="st78" d="M42.7,88c0,0-1.8-1.3-2.6-1.4c-1-0.2-2.1,0-2.6-0.1c0,0,0.6,0.4,0.8,0.7c0.2,0.3,1.1,0.8,1.5,0.9
			C41.3,88.5,42.7,88,42.7,88z"/>
		<path class="st78" d="M43.2,88.1c0,0,1.2-1.3,2.4-1.4c1.4-0.2,2.4,0.1,2.9,0.3c0,0-0.5,0.2-0.7,0.4c-0.2,0.2-0.9,0.8-1.9,0.8
			s-2.1-0.1-2.2-0.1S43.2,88.1,43.2,88.1z"/>
		<path class="st71" d="M42.8,86.6c-0.5-0.4-0.7-1.1-0.7-1.8c0-0.7,0.3-1.3,0.7-1.8c0.4,0.4,0.7,1.1,0.7,1.8
			C43.6,85.5,43.3,86.1,42.8,86.6z"/>
		<path class="st78" d="M42.4,89.2c0,0,0.3-0.7,0.3-1.3c0-0.5-0.1-1-0.1-1H43c0,0,0.2,0.6,0.2,1c0,0.5-0.1,1.1-0.1,1.1
			s-0.2,0-0.3,0.1C42.6,89.1,42.4,89.2,42.4,89.2z"/>
		<path class="st58" d="M65.1,20.5c0-0.3,0.2-0.5,0.5-0.5c0.3,0,0.5,0.2,0.5,0.5S65.9,21,65.6,21C65.3,21,65.1,20.7,65.1,20.5z"/>
		<path class="st58" d="M65.8,19.2c0-0.3,0.2-0.5,0.5-0.5c0.3,0,0.5,0.2,0.5,0.5c0,0.3-0.2,0.5-0.5,0.5C66,19.7,65.8,19.5,65.8,19.2
			z"/>
		<path class="st58" d="M66.2,17.7c0-0.3,0.2-0.5,0.5-0.5s0.5,0.2,0.5,0.5c0,0.3-0.2,0.5-0.5,0.5S66.2,18,66.2,17.7z"/>
		<path class="st58" d="M66.3,16.1c0-0.3,0.2-0.5,0.5-0.5s0.5,0.2,0.5,0.5c0,0.3-0.2,0.5-0.5,0.5S66.3,16.4,66.3,16.1z"/>
		<path class="st58" d="M65.9,14.6c0-0.3,0.2-0.5,0.5-0.5c0.3,0,0.5,0.2,0.5,0.5c0,0.3-0.2,0.5-0.5,0.5
			C66.1,15.1,65.9,14.9,65.9,14.6z"/>
		<path class="st58" d="M65.2,13.2c0-0.3,0.2-0.5,0.5-0.5s0.5,0.2,0.5,0.5s-0.2,0.5-0.5,0.5S65.2,13.5,65.2,13.2z"/>
		<path class="st58" d="M64.1,12c0-0.3,0.2-0.5,0.5-0.5s0.5,0.2,0.5,0.5s-0.2,0.5-0.5,0.5S64.1,12.3,64.1,12z"/>
		<path class="st58" d="M63,11.1c0-0.3,0.2-0.5,0.5-0.5c0.3,0,0.5,0.2,0.5,0.5s-0.2,0.5-0.5,0.5C63.2,11.6,63,11.4,63,11.1z"/>
		<path class="st58" d="M61.6,10.3c0-0.3,0.2-0.5,0.5-0.5s0.5,0.2,0.5,0.5s-0.2,0.5-0.5,0.5S61.6,10.6,61.6,10.3z"/>
		<path class="st58" d="M60.1,9.7c0-0.3,0.2-0.5,0.5-0.5c0.3,0,0.5,0.2,0.5,0.5c0,0.3-0.2,0.5-0.5,0.5C60.3,10.2,60.1,10,60.1,9.7z"
			/>
		<path class="st58" d="M58.5,9.4c0-0.3,0.2-0.5,0.5-0.5c0.3,0,0.5,0.2,0.5,0.5S59.2,9.9,59,9.9C58.7,9.9,58.5,9.7,58.5,9.4z"/>
		<path class="st58" d="M56.9,9.3c0-0.3,0.2-0.5,0.5-0.5s0.5,0.2,0.5,0.5s-0.2,0.5-0.5,0.5S56.9,9.6,56.9,9.3z"/>
		<path class="st58" d="M55.4,9.4c0-0.3,0.2-0.5,0.5-0.5c0.3,0,0.5,0.2,0.5,0.5c0,0.3-0.2,0.5-0.5,0.5C55.6,9.9,55.4,9.7,55.4,9.4z"
			/>
		<path class="st58" d="M53.9,9.4c0-0.3,0.2-0.5,0.5-0.5c0.3,0,0.5,0.2,0.5,0.5c0,0.3-0.2,0.5-0.5,0.5C54.1,9.9,53.9,9.7,53.9,9.4z"
			/>
		<path class="st58" d="M54.6,10.8c0-0.3,0.2-0.5,0.5-0.5c0.3,0,0.5,0.2,0.5,0.5c0,0.3-0.2,0.5-0.5,0.5C54.8,11.3,54.6,11,54.6,10.8
			z"/>
		<path class="st58" d="M54.9,12.3c0-0.3,0.2-0.5,0.5-0.5s0.5,0.2,0.5,0.5c0,0.3-0.2,0.5-0.5,0.5S54.9,12.6,54.9,12.3z"/>
		<path class="st58" d="M55,13.8c0-0.3,0.2-0.5,0.5-0.5c0.3,0,0.5,0.2,0.5,0.5c0,0.3-0.2,0.5-0.5,0.5C55.2,14.3,55,14.1,55,13.8z"/>
		<path class="st58" d="M54.5,15.2c0-0.3,0.2-0.5,0.5-0.5s0.5,0.2,0.5,0.5s-0.2,0.5-0.5,0.5S54.5,15.5,54.5,15.2z"/>
		<path class="st58" d="M53.7,16.5c0-0.3,0.2-0.5,0.5-0.5s0.5,0.2,0.5,0.5S54.5,17,54.2,17S53.7,16.7,53.7,16.5z"/>
		<path class="st58" d="M52.7,8.4c0-0.3,0.2-0.5,0.5-0.5c0.3,0,0.5,0.2,0.5,0.5c0,0.3-0.2,0.5-0.5,0.5C52.9,8.9,52.7,8.7,52.7,8.4z"
			/>
		<path class="st58" d="M51.3,7.6c0-0.3,0.2-0.5,0.5-0.5c0.3,0,0.5,0.2,0.5,0.5c0,0.3-0.2,0.5-0.5,0.5C51.6,8.1,51.3,7.9,51.3,7.6z"
			/>
		<path class="st58" d="M49.9,7.2c0-0.3,0.2-0.5,0.5-0.5c0.3,0,0.5,0.2,0.5,0.5c0,0.3-0.2,0.5-0.5,0.5C50.1,7.7,49.9,7.4,49.9,7.2z"
			/>
		<path class="st58" d="M48.3,6.9c0-0.3,0.2-0.5,0.5-0.5s0.5,0.2,0.5,0.5c0,0.3-0.2,0.5-0.5,0.5S48.3,7.2,48.3,6.9z"/>
		<path class="st58" d="M46.8,6.9c0-0.3,0.2-0.5,0.5-0.5s0.5,0.2,0.5,0.5c0,0.3-0.2,0.5-0.5,0.5S46.8,7.2,46.8,6.9z"/>
		<path class="st58" d="M45.2,7.2c0-0.3,0.2-0.5,0.5-0.5c0.3,0,0.5,0.2,0.5,0.5c0,0.3-0.2,0.5-0.5,0.5C45.4,7.7,45.2,7.5,45.2,7.2z"
			/>
		<path class="st58" d="M43.7,7.7c0-0.3,0.2-0.5,0.5-0.5c0.3,0,0.5,0.2,0.5,0.5s-0.2,0.5-0.5,0.5C44,8.2,43.7,8,43.7,7.7z"/>
		<path class="st58" d="M18.9,20.5c0-0.3,0.2-0.5,0.5-0.5s0.5,0.2,0.5,0.5S19.7,21,19.4,21S18.9,20.7,18.9,20.5z"/>
		<path class="st58" d="M18.3,19.2c0-0.3,0.2-0.5,0.5-0.5s0.5,0.2,0.5,0.5c0,0.3-0.2,0.5-0.5,0.5S18.3,19.5,18.3,19.2z"/>
		<path class="st58" d="M17.8,17.7c0-0.3,0.2-0.5,0.5-0.5s0.5,0.2,0.5,0.5c0,0.3-0.2,0.5-0.5,0.5S17.8,18,17.8,17.7z"/>
		<path class="st58" d="M17.8,16.1c0-0.3,0.2-0.5,0.5-0.5c0.3,0,0.5,0.2,0.5,0.5c0,0.3-0.2,0.5-0.5,0.5C18,16.6,17.8,16.4,17.8,16.1
			z"/>
		<path class="st58" d="M18.1,14.6c0-0.3,0.2-0.5,0.5-0.5c0.3,0,0.5,0.2,0.5,0.5c0,0.3-0.2,0.5-0.5,0.5
			C18.3,15.1,18.1,14.9,18.1,14.6z"/>
		<path class="st58" d="M18.9,13.2c0-0.3,0.2-0.5,0.5-0.5c0.3,0,0.5,0.2,0.5,0.5s-0.2,0.5-0.5,0.5C19.1,13.7,18.9,13.5,18.9,13.2z"
			/>
		<path class="st58" d="M19.9,12c0-0.3,0.2-0.5,0.5-0.5s0.5,0.2,0.5,0.5s-0.2,0.5-0.5,0.5S19.9,12.3,19.9,12z"/>
		<path class="st58" d="M21.1,11.1c0-0.3,0.2-0.5,0.5-0.5c0.3,0,0.5,0.2,0.5,0.5s-0.2,0.5-0.5,0.5C21.3,11.6,21.1,11.4,21.1,11.1z"
			/>
		<path class="st58" d="M22.5,10.3c0-0.3,0.2-0.5,0.5-0.5c0.3,0,0.5,0.2,0.5,0.5s-0.2,0.5-0.5,0.5C22.7,10.8,22.5,10.6,22.5,10.3z"
			/>
		<path class="st58" d="M24,9.7c0-0.3,0.2-0.5,0.5-0.5c0.3,0,0.5,0.2,0.5,0.5c0,0.3-0.2,0.5-0.5,0.5C24.2,10.2,24,10,24,9.7z"/>
		<path class="st58" d="M25.6,9.4c0-0.3,0.2-0.5,0.5-0.5c0.3,0,0.5,0.2,0.5,0.5s-0.2,0.5-0.5,0.5C25.8,9.9,25.6,9.7,25.6,9.4z"/>
		<path class="st58" d="M27.2,9.3c0-0.3,0.2-0.5,0.5-0.5s0.5,0.2,0.5,0.5s-0.2,0.5-0.5,0.5S27.2,9.6,27.2,9.3z"/>
		<path class="st58" d="M28.7,9.4c0-0.3,0.2-0.5,0.5-0.5s0.5,0.2,0.5,0.5c0,0.3-0.2,0.5-0.5,0.5S28.7,9.7,28.7,9.4z"/>
		<path class="st58" d="M30.2,9.4c0-0.3,0.2-0.5,0.5-0.5c0.3,0,0.5,0.2,0.5,0.5c0,0.3-0.2,0.5-0.5,0.5C30.4,9.9,30.2,9.7,30.2,9.4z"
			/>
		<path class="st79" d="M29.9,11.3c0.3,0,0.5-0.2,0.5-0.5c0-0.3-0.2-0.5-0.5-0.5c-0.3,0-0.5,0.2-0.5,0.5
			C29.4,11,29.7,11.3,29.9,11.3z"/>
		<path class="st58" d="M29.1,12.3c0-0.3,0.2-0.5,0.5-0.5c0.3,0,0.5,0.2,0.5,0.5c0,0.3-0.2,0.5-0.5,0.5
			C29.3,12.8,29.1,12.6,29.1,12.3z"/>
		<path class="st58" d="M29.1,13.8c0-0.3,0.2-0.5,0.5-0.5c0.3,0,0.5,0.2,0.5,0.5c0,0.3-0.2,0.5-0.5,0.5
			C29.3,14.3,29.1,14.1,29.1,13.8z"/>
		<path class="st58" d="M29.5,15.2c0-0.3,0.2-0.5,0.5-0.5c0.3,0,0.5,0.2,0.5,0.5s-0.2,0.5-0.5,0.5C29.7,15.7,29.5,15.5,29.5,15.2z"
			/>
		<path class="st58" d="M30.4,16.5c0-0.3,0.2-0.5,0.5-0.5c0.3,0,0.5,0.2,0.5,0.5S31.1,17,30.9,17C30.6,17,30.4,16.7,30.4,16.5z"/>
		<path class="st58" d="M31.4,8.4c0-0.3,0.2-0.5,0.5-0.5c0.3,0,0.5,0.2,0.5,0.5c0,0.3-0.2,0.5-0.5,0.5C31.6,8.9,31.4,8.7,31.4,8.4z"
			/>
		<path class="st58" d="M32.7,7.6c0-0.3,0.2-0.5,0.5-0.5c0.3,0,0.5,0.2,0.5,0.5c0,0.3-0.2,0.5-0.5,0.5C32.9,8.1,32.7,7.9,32.7,7.6z"
			/>
		<path class="st58" d="M34.2,7.2c0-0.3,0.2-0.5,0.5-0.5c0.3,0,0.5,0.2,0.5,0.5c0,0.3-0.2,0.5-0.5,0.5C34.4,7.7,34.2,7.4,34.2,7.2z"
			/>
		<path class="st58" d="M35.8,6.9c0-0.3,0.2-0.5,0.5-0.5c0.3,0,0.5,0.2,0.5,0.5c0,0.3-0.2,0.5-0.5,0.5C36,7.4,35.8,7.2,35.8,6.9z"/>
		<path class="st58" d="M37.3,6.9c0-0.3,0.2-0.5,0.5-0.5c0.3,0,0.5,0.2,0.5,0.5c0,0.3-0.2,0.5-0.5,0.5C37.5,7.4,37.3,7.2,37.3,6.9z"
			/>
		<path class="st58" d="M38.9,7.2c0-0.3,0.2-0.5,0.5-0.5c0.3,0,0.5,0.2,0.5,0.5c0,0.3-0.2,0.5-0.5,0.5C39.1,7.7,38.9,7.5,38.9,7.2z"
			/>
		<path class="st58" d="M40.3,7.7c0-0.3,0.2-0.5,0.5-0.5c0.3,0,0.5,0.2,0.5,0.5s-0.2,0.5-0.5,0.5C40.5,8.2,40.3,8,40.3,7.7z"/>
		<path class="st80" d="M37.8,56.2H24.9v-3.4h1.8v-7h-0.9v-3.1h1.4v-2.2h-0.6v-1.6h0.6v0.5h0.6v-0.5h0.7v0.5h0.6v-0.5h0.6v1.6h-0.7
			v2.2h1.3V38h-0.8v-1.8h0.5v0.5h0.7v-0.5h0.9v0.5h0.7v-0.5h0.6V38h-0.8v4.7h1.2v-2.2h-0.6v-1.6h0.6v0.5h0.6v-0.5h0.7v0.5h0.6v-0.5
			H36v1.6h-0.7v2.2h1.5v3.1H36v7h1.8V56.2z"/>
		<path class="st81" d="M28.1,48.1c0-0.3,0.2-0.6,0.5-0.6s0.6,0.3,0.6,0.6v1.4h-1.1V48.1z"/>
		<path class="st81" d="M33.6,48.1c0-0.3,0.2-0.6,0.6-0.6c0.3,0,0.6,0.3,0.6,0.6v1.4h-1.1V48.1z"/>
		<path class="st81" d="M30.2,54.1c0-0.7,0.5-1.2,1.2-1.2s1.2,0.5,1.2,1.2v2.1h-2.4V54.1z"/>
		<path class="st82" d="M35.4,59.7c0-4.8,3.3-8.7,7.3-8.7s7.3,3.9,7.3,8.7s-3.3,8.7-7.3,8.7S35.4,64.6,35.4,59.7z"/>
		<path class="st83" d="M37.5,59.7c0-3.5,2.3-6.4,5.2-6.4s5.2,2.9,5.2,6.4c0,3.5-2.3,6.4-5.2,6.4S37.5,63.2,37.5,59.7z"/>
		<path class="st84" d="M40.3,55.3c0,0-0.6,0.7-0.6,1.4s0.3,1.2,0.3,1.2c-0.1-0.3-0.3-0.4-0.6-0.4c-0.4,0-0.7,0.3-0.7,0.7
			c0,0.1,0.1,0.3,0.1,0.4l0.2,0.5c0.1-0.2,0.2-0.3,0.4-0.3c0.3,0,0.5,0.2,0.5,0.5c0,0,0,0.1,0,0.1h-0.5v0.5h0.5l-0.4,0.8l0.5-0.2
			l0.4,0.4l0.4-0.4l0.5,0.2l-0.4-0.8h0.5v-0.5h-0.5c0,0,0-0.1,0-0.1c0-0.3,0.2-0.5,0.5-0.5c0.2,0,0.4,0.1,0.4,0.3l0.2-0.5
			c0-0.1,0.1-0.3,0.1-0.4c0-0.4-0.3-0.7-0.7-0.7c-0.3,0-0.5,0.2-0.6,0.5c0,0,0.3-0.5,0.3-1.2S40.2,55.3,40.3,55.3L40.3,55.3z"/>
		<path class="st85" d="M41.3,59.3h-2v0.5h2V59.3z"/>
		<path class="st84" d="M45.1,55.3c0,0-0.6,0.7-0.6,1.4s0.3,1.2,0.3,1.2c-0.1-0.3-0.3-0.4-0.6-0.4c-0.4,0-0.7,0.3-0.7,0.7
			c0,0.1,0.1,0.3,0.1,0.4l0.2,0.5c0.1-0.2,0.2-0.3,0.5-0.3c0.3,0,0.5,0.2,0.5,0.5c0,0,0,0.1,0,0.1h-0.5v0.5h0.5l-0.4,0.8l0.5-0.2
			l0.4,0.4l0.4-0.4l0.5,0.2l-0.4-0.8H46v-0.5h-0.5c0,0,0-0.1,0-0.1c0-0.3,0.2-0.5,0.5-0.5c0.2,0,0.4,0.1,0.4,0.3l0.2-0.5
			c0-0.1,0.1-0.3,0.1-0.4c0-0.4-0.3-0.7-0.7-0.7c-0.3,0-0.5,0.2-0.6,0.5c0,0,0.3-0.5,0.3-1.2S45,55.3,45.1,55.3L45.1,55.3z"/>
		<path class="st85" d="M46.1,59.3h-2v0.5h2V59.3z"/>
		<path class="st84" d="M42.7,59.7c0,0-0.6,0.7-0.6,1.4s0.3,1.2,0.3,1.2c-0.1-0.3-0.3-0.4-0.6-0.4c-0.4,0-0.7,0.3-0.7,0.7
			c0,0.1,0.1,0.3,0.1,0.4l0.2,0.5c0.1-0.2,0.2-0.3,0.4-0.3c0.3,0,0.5,0.2,0.5,0.5c0,0,0,0.1,0,0.1h-0.5v0.5h0.5l-0.4,0.8l0.5-0.2
			l0.4,0.4l0.4-0.4l0.5,0.2l-0.4-0.8h0.5v-0.5h-0.5c0,0,0-0.1,0-0.1c0-0.3,0.2-0.5,0.5-0.5c0.2,0,0.4,0.1,0.4,0.3l0.2-0.5
			c0-0.1,0.1-0.3,0.1-0.4c0-0.4-0.3-0.7-0.7-0.7c-0.3,0-0.5,0.2-0.6,0.5c0,0,0.3-0.5,0.3-1.2S42.6,59.7,42.7,59.7L42.7,59.7z"/>
		<path class="st85" d="M43.7,63.7h-2v0.5h2V63.7z"/>
		<path class="st2" d="M57.4,36.7h-0.1c0,0-0.1,0.1-0.1,0.2c-0.1,0.1-0.3,0.1-0.4,0c0,0-0.1-0.1-0.1-0.2c-0.1,0-0.2,0-0.2,0
			c-0.1-0.1-0.2-0.2-0.1-0.4c0,0,0-0.1,0-0.1v-0.1l-0.2,0l0,0.1c-0.1,0.1-0.2,0.2-0.3,0.1c0,0-0.1-0.1-0.1-0.1c0,0,0,0-0.1,0
			c-0.2,0.1-0.3-0.5-0.4-0.6l-0.1,0.1c0,0,0.1,0.3,0,0.6c0,0.3-0.1,0.6-0.1,0.6c0.3,0.1,0.8,0.4,1.3,0.8s0.9,0.9,1.1,1.2
			c0,0,0.3-0.1,0.5-0.2c0.3-0.1,0.6-0.1,0.6-0.1l0.1-0.1c-0.1,0-0.7,0-0.7-0.2c0,0,0-0.1,0-0.1s-0.1,0-0.1,0c-0.1-0.1-0.1-0.2,0-0.3
			l0.1-0.1v-0.2l-0.2,0c0,0,0,0-0.1,0.1c-0.1,0.1-0.3,0.1-0.4,0c-0.1-0.1-0.1-0.1,0-0.2c-0.1,0-0.1,0-0.2,0c-0.1-0.1-0.1-0.2,0-0.4
			c0-0.1,0.1-0.1,0.1-0.1L57.4,36.7L57.4,36.7z"/>
		<path class="st76" d="M56.4,37c0,0,0.1,0,0.1,0c0,0,0,0.1,0,0.1C56.5,37.1,56.4,37.1,56.4,37C56.3,37.1,56.3,37,56.4,37L56.4,37z"
			/>
		<path class="st76" d="M56.8,37.4l-0.1-0.1c0,0,0-0.1,0-0.1s0,0,0.1,0L56.8,37.4l0.2,0c0,0,0,0.1,0,0.1s0,0-0.1,0L56.8,37.4z"/>
		<path class="st76" d="M56,36.8l-0.1-0.1c0,0,0-0.1,0-0.1c0,0,0,0,0.1,0L56,36.8l0.2,0c0,0,0,0,0,0.1c0,0-0.1,0-0.1,0L56,36.8z"/>
		<path class="st76" d="M55.5,36.5c0,0,0.1,0,0.1,0c0,0,0,0.1,0,0.1C55.6,36.6,55.6,36.6,55.5,36.5C55.5,36.6,55.5,36.5,55.5,36.5
			L55.5,36.5z"/>
		<path class="st76" d="M57.3,37.8C57.3,37.8,57.3,37.7,57.3,37.8c-0.1-0.1-0.1-0.1-0.1-0.1c0,0,0,0.1,0,0.1
			C57.2,37.8,57.2,37.8,57.3,37.8z"/>
		<path class="st76" d="M57.5,38.1l0.1,0.1c0,0,0.1,0,0.1,0s0,0,0-0.1L57.5,38.1l0-0.2c0,0-0.1,0-0.1,0S57.4,37.9,57.5,38.1
			L57.5,38.1z"/>
		<path class="st76" d="M57.9,38.4c0,0,0-0.1,0-0.1c0,0-0.1,0-0.1,0s0,0.1,0,0.1C57.9,38.5,57.9,38.5,57.9,38.4z"/>
		<path class="st2" d="M56.7,35.6h-0.3l0,0.4l0,0.1h0.1l0.3-0.2L56.7,35.6z"/>
		<path class="st2" d="M56,35.8V36l0.4,0.1l0.1,0l0-0.1l-0.2-0.3L56,35.8z"/>
		<path class="st2" d="M56.8,36.3l-0.2,0.1l-0.2-0.3l0-0.1l0.1,0l0.4,0L56.8,36.3z"/>
		<path class="st2" d="M56.3,36c0-0.1,0.1-0.1,0.2,0s0.1,0.1,0,0.2c0,0.1-0.1,0.1-0.2,0C56.3,36.1,56.3,36,56.3,36z"/>
		<path class="st19" d="M55.3,35.6c0,0-0.1-0.2-0.1-0.3c0-0.1-0.2-0.2-0.2-0.2c0,0,0.2-0.1,0.4,0C55.6,35.2,55.4,35.5,55.3,35.6
			C55.4,35.5,55.4,35.5,55.3,35.6L55.3,35.6z"/>
		<path class="st2" d="M55.8,35.7l-0.2,0.2l-0.3-0.3l0,0l0-0.1l0.4,0L55.8,35.7z"/>
		<path class="st2" d="M55.3,35.5c0-0.1,0.1-0.1,0.1-0.1c0,0,0.1,0.1,0,0.2c0,0.1-0.1,0.1-0.1,0.1C55.3,35.7,55.2,35.6,55.3,35.5z"
			/>
		<path class="st2" d="M57.7,36.2l-0.3,0l-0.1,0.4l0,0.1l0.1,0l0.4-0.2L57.7,36.2z"/>
		<path class="st2" d="M57,36.4l0,0.2l0.4,0.1l0.1,0l0-0.1l-0.2-0.4L57,36.4z"/>
		<path class="st2" d="M57.8,37l-0.2,0.1l-0.2-0.4l0-0.1l0.1,0l0.4,0.1L57.8,37z"/>
		<path class="st2" d="M57.3,36.6c0-0.1,0.1-0.1,0.2,0c0.1,0,0.1,0.1,0,0.2c0,0.1-0.1,0.1-0.2,0C57.2,36.8,57.2,36.7,57.3,36.6z"/>
		<path class="st2" d="M58.6,37.1l0,0.3l-0.4,0.1l-0.1,0l0-0.1l0.2-0.4L58.6,37.1z"/>
		<path class="st2" d="M58.5,37.9l-0.2,0.1l-0.1-0.4l0-0.1l0.1,0l0.4,0.2L58.5,37.9z"/>
		<path class="st2" d="M57.9,37.1l-0.1,0.2l0.4,0.2l0.1,0l0-0.1l-0.1-0.4L57.9,37.1z"/>
		<path class="st2" d="M58.3,37.6c0.1-0.1,0.1-0.1,0-0.2c0-0.1-0.1-0.1-0.2,0c0,0,0,0.1,0,0.2C58.2,37.7,58.2,37.7,58.3,37.6z"/>
		<path class="st19" d="M58.9,38.5c0,0,0.2,0,0.4,0c0.1,0,0.2,0.1,0.2,0.1c0,0,0-0.2-0.1-0.4C59.2,38.1,59,38.4,58.9,38.5
			C59,38.4,58.9,38.4,58.9,38.5z"/>
		<path class="st2" d="M58.7,38l-0.1,0.2l0.4,0.2l0,0l0,0l0-0.4L58.7,38z"/>
		<path class="st2" d="M59,38.5c0.1,0,0.1-0.1,0.1-0.2c0,0-0.1,0-0.2,0c-0.1,0-0.1,0.1-0.1,0.1C58.8,38.5,58.9,38.6,59,38.5z"/>
		<path class="st86" d="M114.8,33.2h1.4v10.5h-1.5v-8.2l-3.3,4.1h-0.3l-3.3-4.1v8.2h-1.5V33.2h1.4l3.6,4.3L114.8,33.2z"/>
		<path class="st86" d="M118.6,33.2h1.5v10.5h-1.5V33.2z"/>
		<path class="st86" d="M131,33.2h1.5v10.5h-1.3l-7.1-8.1v8.1h-1.4V33.2h1.2l7.2,8.2L131,33.2z"/>
		<path class="st86" d="M134.7,33.2h1.5v10.5h-1.5V33.2z"/>
		<path class="st86" d="M141.3,39.3l-1.2-0.7c-0.7-0.4-1.2-0.9-1.6-1.3c-0.3-0.4-0.5-0.9-0.5-1.5c0-0.8,0.3-1.5,0.9-2
			c0.6-0.5,1.3-0.8,2.3-0.8c0.9,0,1.7,0.2,2.5,0.7v1.7c-0.8-0.7-1.6-1.1-2.5-1.1c-0.5,0-0.9,0.1-1.2,0.3c-0.3,0.2-0.5,0.5-0.5,0.9
			c0,0.3,0.1,0.6,0.4,0.9c0.2,0.3,0.6,0.6,1.1,0.9l1.2,0.7c1.3,0.8,2,1.7,2,2.9c0,0.8-0.3,1.5-0.9,2.1c-0.6,0.5-1.3,0.8-2.2,0.8
			c-1.1,0-2-0.3-2.9-1V41c0.8,1,1.8,1.5,2.9,1.5c0.5,0,0.9-0.1,1.2-0.4c0.3-0.3,0.5-0.6,0.5-1C142.7,40.5,142.2,39.9,141.3,39.3z"/>
		<path class="st86" d="M144.9,33.2h8.9v1.3h-3.7v9.2h-1.5v-9.2h-3.7V33.2z"/>
		<path class="st86" d="M155.2,33.2h6.1v1.3h-4.5v3.2h4.4v1.3h-4.4v3.3h4.7v1.3h-6.2L155.2,33.2L155.2,33.2z"/>
		<path class="st86" d="M163.1,43.7V33.2h2.7c1.1,0,1.9,0.3,2.6,0.8c0.6,0.5,1,1.2,1,2.1c0,0.6-0.2,1.1-0.5,1.6
			c-0.3,0.4-0.8,0.8-1.3,1c0.3,0.2,0.7,0.5,1,0.9c0.3,0.4,0.8,1,1.4,2c0.4,0.6,0.7,1,0.9,1.3l0.6,0.8h-1.8l-0.5-0.7
			c0,0,0-0.1-0.1-0.1l-0.3-0.4l-0.5-0.8l-0.5-0.8c-0.3-0.4-0.6-0.8-0.9-1c-0.3-0.3-0.5-0.4-0.7-0.6c-0.2-0.1-0.6-0.2-1.1-0.2h-0.4
			v4.6L163.1,43.7z M165.1,34.5h-0.5v3.3h0.6c0.8,0,1.3-0.1,1.6-0.2c0.3-0.1,0.5-0.3,0.7-0.6c0.2-0.3,0.2-0.6,0.2-0.9
			c0-0.3-0.1-0.6-0.3-0.9c-0.2-0.3-0.4-0.5-0.8-0.6C166.4,34.6,165.9,34.5,165.1,34.5z"/>
		<path class="st86" d="M172.5,33.2h1.5v10.5h-1.5V33.2z"/>
		<path class="st86" d="M181.7,33.1c1.6,0,3,0.5,4.1,1.5c1.1,1,1.6,2.3,1.6,3.9c0,1.6-0.6,2.8-1.7,3.9c-1.1,1-2.5,1.5-4.2,1.5
			c-1.6,0-2.9-0.5-4-1.5c-1.1-1-1.6-2.3-1.6-3.8c0-1.6,0.5-2.9,1.6-3.9C178.7,33.6,180,33.1,181.7,33.1z M181.8,34.5
			c-1.2,0-2.2,0.4-3,1.1c-0.8,0.8-1.2,1.7-1.2,2.9c0,1.1,0.4,2.1,1.2,2.8c0.8,0.8,1.8,1.1,3,1.1c1.2,0,2.2-0.4,3-1.2
			c0.8-0.8,1.2-1.7,1.2-2.9c0-1.1-0.4-2.1-1.2-2.8C183.9,34.9,182.9,34.5,181.8,34.5z"/>
		<path class="st86" d="M106.3,60V49.5h3.6c1.5,0,2.6,0.2,3.4,0.6c0.8,0.4,1.5,1.1,2,1.9c0.5,0.8,0.7,1.7,0.7,2.7
			c0,0.7-0.1,1.4-0.4,2c-0.3,0.6-0.7,1.2-1.2,1.7c-0.5,0.5-1.1,0.9-1.8,1.1c-0.4,0.2-0.8,0.3-1.1,0.3c-0.3,0.1-1,0.1-1.9,0.1
			L106.3,60z M109.8,50.9h-1.9v7.8h2c0.8,0,1.4-0.1,1.8-0.2c0.4-0.1,0.8-0.2,1.1-0.4c0.3-0.2,0.5-0.4,0.8-0.6
			c0.8-0.8,1.1-1.7,1.1-2.9c0-1.1-0.4-2.1-1.2-2.8c-0.3-0.3-0.6-0.5-1-0.7c-0.4-0.2-0.7-0.3-1.1-0.3
			C111.1,50.9,110.5,50.9,109.8,50.9z"/>
		<path class="st86" d="M118.1,49.5h6.1v1.3h-4.5v3.2h4.4v1.3h-4.4v3.3h4.7V60h-6.2L118.1,49.5z"/>
		<path class="st86" d="M130.3,49.5h6.1v1.3h-4.5v3.2h4.4v1.3h-4.4v3.3h4.7V60h-6.2L130.3,49.5z"/>
		<path class="st86" d="M147.3,57.6v1.7c-1.1,0.6-2.4,0.9-3.9,0.9c-1.2,0-2.2-0.2-3-0.7c-0.8-0.5-1.5-1.1-2-2
			c-0.5-0.8-0.7-1.7-0.7-2.7c0-1.5,0.6-2.8,1.7-3.9c1.1-1,2.5-1.6,4.1-1.6c1.1,0,2.4,0.3,3.7,0.9v1.6c-1.2-0.7-2.5-1.1-3.7-1.1
			c-1.2,0-2.2,0.4-3,1.1c-0.8,0.8-1.2,1.7-1.2,2.9c0,1.2,0.4,2.1,1.2,2.8c0.8,0.7,1.8,1.1,3.1,1.1C144.8,58.8,146.1,58.4,147.3,57.6
			z"/>
		<path class="st86" d="M154.4,49.4c1.7,0,3,0.5,4.1,1.5c1.1,1,1.6,2.3,1.6,3.9c0,1.6-0.6,2.8-1.7,3.9c-1.1,1-2.5,1.5-4.2,1.5
			c-1.6,0-3-0.5-4-1.5c-1.1-1-1.6-2.3-1.6-3.8c0-1.6,0.5-2.9,1.6-3.9C151.4,49.9,152.8,49.4,154.4,49.4z M154.5,50.8
			c-1.2,0-2.2,0.4-3,1.1c-0.8,0.8-1.2,1.7-1.2,2.9c0,1.1,0.4,2.1,1.2,2.8c0.8,0.8,1.8,1.1,3,1.1c1.2,0,2.2-0.4,3-1.2
			c0.8-0.8,1.2-1.7,1.2-2.9c0-1.1-0.4-2.1-1.2-2.8C156.6,51.2,155.6,50.8,154.5,50.8z"/>
		<path class="st86" d="M170.6,49.5h1.5V60h-1.3l-7.1-8.1V60h-1.4V49.5h1.2l7.2,8.2L170.6,49.5z"/>
		<path class="st86" d="M179.5,49.4c1.6,0,3,0.5,4.1,1.5c1.1,1,1.6,2.3,1.6,3.9c0,1.6-0.6,2.8-1.7,3.9c-1.1,1-2.5,1.5-4.2,1.5
			c-1.6,0-3-0.5-4-1.5c-1.1-1-1.6-2.3-1.6-3.8c0-1.6,0.5-2.9,1.6-3.9C176.5,49.9,177.9,49.4,179.5,49.4z M179.6,50.8
			c-1.2,0-2.2,0.4-3,1.1c-0.8,0.8-1.2,1.7-1.2,2.9c0,1.1,0.4,2.1,1.2,2.8c0.8,0.8,1.8,1.1,3,1.1c1.2,0,2.2-0.4,3-1.2
			c0.8-0.8,1.2-1.7,1.2-2.9c0-1.1-0.4-2.1-1.2-2.8C181.7,51.2,180.8,50.8,179.6,50.8z"/>
		<path class="st86" d="M195.7,49.5h1.4V60h-1.5v-8.2l-3.3,4.1H192l-3.3-4.1V60h-1.5V49.5h1.4l3.6,4.3L195.7,49.5z"/>
		<path class="st86" d="M199.4,49.5h1.5V60h-1.5V49.5z M202.3,46.5l-1.7,2.3h-0.9l1-2.3H202.3z"/>
		<path class="st86" d="M206.7,49.5h1.1l4.8,10.6H211l-1.4-3.1h-4.6l-1.3,3.1h-1.6L206.7,49.5z M209,55.6l-1.7-3.8l-1.6,3.8H209z"/>
		<path class="st86" d="M213.4,61.9v-0.3c0.2-0.2,0.4-0.4,0.5-0.7c0.1-0.2,0.1-0.5,0.2-0.9c-0.5-0.2-0.8-0.5-0.8-1
			c0-0.3,0.1-0.5,0.3-0.7c0.2-0.2,0.4-0.3,0.7-0.3c0.3,0,0.6,0.1,0.8,0.4c0.2,0.3,0.3,0.6,0.3,1c0,0.6-0.2,1-0.5,1.5
			C214.4,61.4,213.9,61.7,213.4,61.9z"/>
		<path class="st86" d="M229.4,57.6v1.7c-1.1,0.6-2.4,0.9-3.9,0.9c-1.2,0-2.2-0.2-3-0.7c-0.8-0.5-1.5-1.1-2-2
			c-0.5-0.8-0.7-1.7-0.7-2.7c0-1.5,0.6-2.8,1.7-3.9c1.1-1,2.5-1.6,4.1-1.6c1.1,0,2.4,0.3,3.7,0.9v1.6c-1.2-0.7-2.5-1.1-3.7-1.1
			c-1.2,0-2.2,0.4-3,1.1c-0.8,0.8-1.2,1.7-1.2,2.9c0,1.2,0.4,2.1,1.2,2.8c0.8,0.7,1.8,1.1,3.1,1.1C226.9,58.8,228.2,58.4,229.4,57.6
			z"/>
		<path class="st86" d="M236.5,49.4c1.6,0,3,0.5,4.1,1.5c1.1,1,1.6,2.3,1.6,3.9c0,1.6-0.6,2.8-1.7,3.9c-1.1,1-2.5,1.5-4.2,1.5
			c-1.6,0-3-0.5-4-1.5c-1.1-1-1.6-2.3-1.6-3.8c0-1.6,0.5-2.9,1.6-3.9C233.5,49.9,234.9,49.4,236.5,49.4z M236.6,50.8
			c-1.2,0-2.2,0.4-3,1.1c-0.8,0.8-1.2,1.7-1.2,2.9c0,1.1,0.4,2.1,1.2,2.8c0.8,0.8,1.8,1.1,3,1.1c1.2,0,2.2-0.4,3-1.2
			c0.8-0.8,1.2-1.7,1.2-2.9c0-1.1-0.4-2.1-1.2-2.8C238.7,51.2,237.8,50.8,236.6,50.8z"/>
		<path class="st86" d="M252.7,49.5h1.4V60h-1.5v-8.2l-3.3,4.1H249l-3.3-4.1V60h-1.5V49.5h1.4l3.6,4.3L252.7,49.5z"/>
		<path class="st86" d="M256.4,49.5h6.1v1.3h-4.5v3.2h4.4v1.3h-4.4v3.3h4.7V60h-6.2L256.4,49.5z"/>
		<path class="st86" d="M264.3,60V49.5h2.7c1.1,0,1.9,0.3,2.6,0.8c0.6,0.5,1,1.2,1,2.1c0,0.6-0.2,1.1-0.5,1.6
			c-0.3,0.4-0.8,0.8-1.3,1c0.3,0.2,0.7,0.5,1,0.9c0.3,0.4,0.8,1,1.4,2c0.4,0.6,0.7,1,0.9,1.3l0.6,0.8h-1.8l-0.5-0.7
			c0,0,0-0.1-0.1-0.1l-0.3-0.4l-0.5-0.8l-0.5-0.8c-0.3-0.4-0.6-0.8-0.9-1c-0.3-0.3-0.5-0.4-0.7-0.6c-0.2-0.1-0.6-0.2-1.1-0.2h-0.4
			V60L264.3,60z M266.3,50.8h-0.5v3.3h0.6c0.8,0,1.3-0.1,1.6-0.2c0.3-0.1,0.5-0.3,0.7-0.6c0.2-0.3,0.2-0.6,0.2-0.9
			c0-0.3-0.1-0.6-0.3-0.9c-0.2-0.3-0.4-0.5-0.8-0.6C267.6,50.9,267,50.8,266.3,50.8z"/>
		<path class="st86" d="M282.9,57.6v1.7c-1.1,0.6-2.4,0.9-3.9,0.9c-1.2,0-2.2-0.2-3-0.7c-0.8-0.5-1.5-1.1-2-2
			c-0.5-0.8-0.7-1.7-0.7-2.7c0-1.5,0.6-2.8,1.7-3.9c1.1-1,2.5-1.6,4.1-1.6c1.1,0,2.4,0.3,3.7,0.9v1.6c-1.2-0.7-2.5-1.1-3.7-1.1
			c-1.2,0-2.2,0.4-3,1.1c-0.8,0.8-1.2,1.7-1.2,2.9c0,1.2,0.4,2.1,1.2,2.8c0.8,0.7,1.8,1.1,3.1,1.1C280.4,58.8,281.7,58.4,282.9,57.6
			z"/>
		<path class="st86" d="M284.8,49.5h1.5V60h-1.5V49.5z"/>
		<path class="st86" d="M294,49.4c1.6,0,3,0.5,4.1,1.5c1.1,1,1.6,2.3,1.6,3.9c0,1.6-0.6,2.8-1.7,3.9c-1.1,1-2.5,1.5-4.2,1.5
			c-1.6,0-3-0.5-4-1.5c-1.1-1-1.6-2.3-1.6-3.8c0-1.6,0.5-2.9,1.6-3.9C290.9,49.9,292.3,49.4,294,49.4z M294,50.8
			c-1.2,0-2.2,0.4-3,1.1c-0.8,0.8-1.2,1.7-1.2,2.9c0,1.1,0.4,2.1,1.2,2.8c0.8,0.8,1.8,1.1,3,1.1c1.2,0,2.2-0.4,3-1.2
			c0.8-0.8,1.2-1.7,1.2-2.9c0-1.1-0.4-2.1-1.2-2.8C296.2,51.2,295.2,50.8,294,50.8z"/>
		<path class="st86" d="M112.8,65.8h1.9l-3.9,5v5.6h-1.6v-5.6l-3.9-5h1.8l2.9,3.6L112.8,65.8z"/>
		<path class="st86" d="M120.1,65.8h6.1v1.3h-4.5v3.2h4.4v1.3h-4.4V75h4.7v1.3h-6.2L120.1,65.8z"/>
		<path class="st86" d="M136.5,65.8h1.4v10.5h-1.5v-8.2l-3.3,4.1h-0.3l-3.3-4.1v8.2h-1.5V65.8h1.4l3.6,4.3L136.5,65.8z"/>
		<path class="st86" d="M140.1,76.3V65.8h3.4c1,0,1.8,0.3,2.4,0.8c0.6,0.5,0.9,1.3,0.9,2.2c0,0.6-0.2,1.2-0.5,1.6
			c-0.3,0.5-0.7,0.8-1.3,1c-0.5,0.2-1.3,0.3-2.3,0.3h-1.1v4.6H140.1z M143.2,67.1h-1.6v3.3h1.7c0.6,0,1.1-0.1,1.4-0.4
			c0.3-0.3,0.5-0.7,0.5-1.2C145.3,67.7,144.6,67.1,143.2,67.1z"/>
		<path class="st86" d="M148.2,76.3V65.8h2.7c1.1,0,1.9,0.3,2.6,0.8c0.6,0.5,1,1.2,1,2.1c0,0.6-0.2,1.1-0.5,1.6
			c-0.3,0.4-0.8,0.8-1.3,1c0.3,0.2,0.7,0.5,1,0.9c0.3,0.4,0.8,1,1.4,2c0.4,0.6,0.7,1,0.9,1.3l0.6,0.8h-1.8l-0.5-0.7
			c0,0,0-0.1-0.1-0.1l-0.3-0.4l-0.5-0.8l-0.5-0.8c-0.3-0.4-0.6-0.8-0.9-1c-0.3-0.3-0.5-0.4-0.7-0.6c-0.2-0.1-0.6-0.2-1.1-0.2h-0.4
			v4.6L148.2,76.3z M150.2,67.1h-0.5v3.3h0.6c0.8,0,1.3-0.1,1.6-0.2c0.3-0.1,0.5-0.3,0.7-0.6c0.2-0.3,0.2-0.6,0.2-0.9
			c0-0.3-0.1-0.6-0.3-0.9c-0.2-0.3-0.4-0.5-0.8-0.6C151.5,67.2,151,67.1,150.2,67.1z"/>
		<path class="st86" d="M157.6,65.8h6.1v1.3h-4.5v3.2h4.4v1.3h-4.4V75h4.7v1.3h-6.2L157.6,65.8L157.6,65.8z"/>
		<path class="st86" d="M168.1,71.9l-1.2-0.7c-0.7-0.4-1.2-0.9-1.6-1.3c-0.3-0.4-0.5-0.9-0.5-1.5c0-0.8,0.3-1.5,0.9-2
			s1.3-0.8,2.3-0.8c0.9,0,1.7,0.2,2.5,0.7v1.7c-0.8-0.7-1.6-1.1-2.5-1.1c-0.5,0-0.9,0.1-1.2,0.3c-0.3,0.2-0.5,0.5-0.5,0.9
			c0,0.3,0.1,0.6,0.4,0.9c0.2,0.3,0.6,0.6,1.1,0.9l1.2,0.7c1.3,0.8,2,1.7,2,2.9c0,0.8-0.3,1.5-0.9,2.1c-0.6,0.5-1.3,0.8-2.2,0.8
			c-1.1,0-2-0.3-2.9-1v-1.9c0.8,1,1.8,1.5,2.9,1.5c0.5,0,0.9-0.1,1.2-0.4c0.3-0.3,0.5-0.6,0.5-1C169.5,73.1,169.1,72.5,168.1,71.9z"
			/>
		<path class="st86" d="M176.1,65.8h1.1l4.8,10.6h-1.6l-1.4-3.1h-4.6l-1.3,3.1h-1.6L176.1,65.8z M178.3,71.9l-1.7-3.8l-1.6,3.8
			H178.3z"/>
	</g>
</g>
</svg>
