<svg xmlns="http://www.w3.org/2000/svg" width="249" height="37" viewBox="0 0 249 37" fill="none">
<path fill-rule="evenodd" clip-rule="evenodd" d="M96.24 26.0972H94.4144C94.284 26.0972 94.1536 25.9683 94.1536 25.8394V20.5563C94.1536 19.1389 94.284 17.8503 94.284 16.8195C94.284 16.6906 94.4144 16.3041 94.284 16.3041C94.1536 16.3041 94.1536 16.5618 94.1536 16.5618C93.7635 17.0772 93.2408 17.8503 92.98 18.4946L88.2866 24.9374H88.0247L83.3303 18.4946C83.0695 17.8503 82.5478 16.9483 82.1566 16.5618C82.0262 16.4329 82.0262 16.3041 82.0262 16.3041C81.8958 16.4329 81.8958 16.6906 81.8958 16.8195C82.0262 17.8503 82.0262 19.01 82.0262 20.5563V25.8394C82.0262 25.9683 82.0262 26.0972 81.8958 26.0972H80.0702C79.9398 26.0972 79.9398 25.9683 79.9398 25.8394V10.3767C79.9398 10.2478 80.0702 10.1189 80.2006 10.2478C81.6361 12.3095 86.9815 19.912 88.0247 21.3295C88.0247 21.4583 88.1562 21.4583 88.2866 21.3295C89.3298 19.912 94.6763 12.3095 96.1096 10.2478C96.24 10.1189 96.5008 10.2478 96.5008 10.3767V25.8394C96.5008 25.9683 96.3704 26.0972 96.24 26.0972Z" fill="rgb(120, 120, 120)"/>
<path fill-rule="evenodd" clip-rule="evenodd" d="M112.54 26.4836C108.367 26.4836 106.15 24.0353 106.15 19.6542V10.7631C106.15 10.6343 106.281 10.5054 106.411 10.5054H107.976C108.106 10.5054 108.237 10.6343 108.237 10.7631V19.6542C108.237 22.7468 109.671 24.293 112.54 24.293C115.41 24.293 116.843 22.7468 116.843 19.6542V10.7631C116.843 10.6343 116.974 10.5054 117.104 10.5054H118.8C118.93 10.5054 118.93 10.6343 118.93 10.7631V19.6542C118.93 23.9065 116.584 26.4836 112.54 26.4836Z" fill="rgb(120, 120, 120)"/>
<path fill-rule="evenodd" clip-rule="evenodd" d="M138.099 17.7217C137.969 17.5928 137.839 17.3351 138.099 17.2063C138.882 16.562 139.534 15.5311 139.534 14.3714C139.534 12.052 137.708 10.5057 134.97 10.5057H129.883C129.754 10.5057 129.623 10.6346 129.623 10.7635V25.8397C129.623 25.9685 129.754 26.0974 129.883 26.0974H135.36C138.489 26.0974 140.577 24.2934 140.577 21.4585C140.577 19.6546 139.403 18.366 138.099 17.7217ZM131.84 12.6963C131.84 12.5674 131.969 12.4386 132.1 12.4386H134.579C136.274 12.4386 137.446 13.3406 137.446 14.6291C137.446 15.9177 136.143 16.8197 134.579 16.8197H132.1C131.969 16.8197 131.84 16.6909 131.84 16.4331V12.6963ZM135.229 24.1645H132.1C131.969 24.1645 131.84 24.0357 131.84 23.778V18.8814C131.84 18.7526 131.969 18.6237 132.1 18.6237H135.1C136.926 18.6237 138.23 19.7834 138.23 21.4585C138.23 23.0048 137.056 24.1645 135.229 24.1645Z" fill="rgb(120, 120, 120)"/>
<path fill-rule="evenodd" clip-rule="evenodd" d="M178.914 10.5055H173.177C173.048 10.5055 172.916 10.6344 172.916 10.7632V25.8394C172.916 25.9683 173.048 26.0972 173.177 26.0972H179.045C183.609 26.0972 186.999 22.7469 186.999 18.3658C186.999 13.8558 183.609 10.5055 178.914 10.5055ZM179.045 24.0355H175.394C175.264 24.0355 175.134 23.9066 175.134 23.7777V12.8249C175.134 12.6961 175.264 12.5672 175.394 12.5672H178.914C182.305 12.5672 184.783 15.0155 184.783 18.3658C184.783 22.1026 181.914 24.0355 179.045 24.0355Z" fill="rgb(120, 120, 120)"/>
<path fill-rule="evenodd" clip-rule="evenodd" d="M226.641 26.0972H216.602C216.471 26.0972 216.471 25.9683 216.471 25.8394V10.7632C216.471 10.6344 216.471 10.5055 216.602 10.5055H218.426C218.558 10.5055 218.688 10.6344 218.688 10.7632V23.7777C218.688 23.9066 218.688 24.0355 218.817 24.0355H227.425C227.554 24.0355 227.685 24.1643 227.685 24.2932L226.902 25.9683C226.772 25.9683 226.772 26.0972 226.641 26.0972Z" fill="rgb(120, 120, 120)"/>
<path fill-rule="evenodd" clip-rule="evenodd" d="M164.31 26.0972H162.353L162.224 25.9683L161.05 23.52L160.92 23.3912H154.139C153.877 23.3912 153.877 23.2623 153.877 23.2623L154.79 21.5872C154.79 21.4583 154.79 21.4583 154.92 21.4583H159.746C159.876 21.4583 160.007 21.3295 159.877 21.2006L156.486 14.1135H156.356L150.487 25.9683C150.487 26.0972 150.487 26.0972 150.356 26.0972H148.53C148.4 26.0972 148.27 25.9683 148.4 25.8394L156.225 10.119C156.356 9.99009 156.486 9.99009 156.616 10.119L164.441 25.8394C164.57 25.9683 164.441 26.0972 164.31 26.0972Z" fill="rgb(120, 120, 120)"/>
<path fill-rule="evenodd" clip-rule="evenodd" d="M209.038 26.0972H207.211C207.081 26.0972 207.081 25.9683 207.081 25.9683L205.778 23.52C205.778 23.52 205.778 23.3912 205.648 23.3912H198.867C198.736 23.3912 198.605 23.2623 198.736 23.2623L199.518 21.5872C199.518 21.4583 199.648 21.4583 199.648 21.4583H204.604C204.734 21.4583 204.734 21.3295 204.734 21.2006L201.214 14.1135H201.083L195.345 25.9683C195.345 26.0972 195.214 26.0972 195.084 26.0972H193.258C193.128 26.0972 193.128 25.9683 193.128 25.8394L200.953 10.119C201.084 9.99009 201.214 9.99009 201.344 10.119L209.298 25.8394C209.298 25.9683 209.167 26.0972 209.038 26.0972Z" fill="rgb(120, 120, 120)"/>
<mask id="mask0_1179_3132" style="mask-type:alpha" maskUnits="userSpaceOnUse" x="232" y="10" width="17" height="17">
<path d="M232.847 10.0223H248.994V26.0972H232.847V10.0223Z" fill="rgb(120, 120, 120)"/>
</mask>
<g mask="url(#mask0_1179_3132)">
<path fill-rule="evenodd" clip-rule="evenodd" d="M248.81 26.0972H246.984C246.854 26.0972 246.724 25.9683 246.724 25.9683L245.55 23.52C245.55 23.52 245.55 23.3912 245.42 23.3912H238.639C238.508 23.3912 238.378 23.2623 238.378 23.2623L239.291 21.5872C239.291 21.4583 239.421 21.4583 239.421 21.4583H244.246C244.376 21.4583 244.507 21.3295 244.376 21.2006L240.986 14.1135H240.855L234.987 25.9683C234.987 26.0972 234.857 26.0972 234.857 26.0972H233.03C232.901 26.0972 232.771 25.9683 232.901 25.8394L240.725 10.119C240.855 9.99009 240.986 9.99009 241.116 10.119L248.94 25.8394C249.071 25.9683 248.94 26.0972 248.81 26.0972Z" fill="rgb(120, 120, 120)"/>
</g>
<path fill-rule="evenodd" clip-rule="evenodd" d="M56.6207 18.3173C56.4903 20.5079 59.62 19.6059 60.5328 19.0905C61.576 18.4462 62.0976 18.0596 62.6192 17.0288C63.7928 15.2248 62.6192 14.1939 61.8368 14.0651C61.3152 14.0651 60.272 14.1939 59.4896 15.6113C59.0984 16.3845 58.9679 17.2865 58.9679 18.0596C57.7943 18.7039 57.7943 17.4153 57.7943 16.8999C57.7943 16.6422 57.7943 16.1268 57.9247 15.7402C57.9247 14.8382 57.6639 14.9671 57.0119 15.6113C56.6207 15.9979 53.7519 18.3173 49.1878 20.7656C44.6238 23.085 38.1037 25.5333 27.802 27.8527C15.5443 30.6876 3.54734 30.0433 1.59132 26.9507C-0.234301 23.8582 9.285 18.3173 10.0674 17.9308C10.589 17.5442 9.93701 17.4153 9.41541 17.5442C9.41541 17.5442 -1.92952 23.7293 0.287305 28.1104C2.63453 32.6204 14.2403 32.4926 26.6284 29.9144C47.1014 25.5333 55.5775 18.0596 56.4903 17.4153C57.0119 17.1576 56.7511 17.673 56.6207 18.3173Z" fill="#00B1B0"/>
<path fill-rule="evenodd" clip-rule="evenodd" d="M46.0584 10.1998C43.3189 10.4575 41.7552 10.9729 40.9717 11.2306C40.1904 11.4884 39.5384 11.8749 39.5384 12.2615C39.5384 12.3904 39.6688 12.5192 40.4512 12.3904C41.364 12.2615 45.7976 11.4884 48.4046 11.4884C51.6646 11.4884 53.4913 11.8749 54.1423 12.7769C54.9247 13.6789 52.0569 17.2869 41.7552 20.766C30.8004 24.5029 22.3254 25.9203 10.9805 26.8223C10.198 26.9511 9.80684 27.3377 11.2402 27.4666C13.1973 27.8531 23.7587 28.1109 37.4509 23.7297C51.2745 19.3486 56.621 14.4521 55.0551 12.0038C54.4041 10.8441 51.5353 9.68437 46.0584 10.1998Z" fill="#00B1B0"/>
<path fill-rule="evenodd" clip-rule="evenodd" d="M24.1509 5.68962C26.3677 4.14334 31.7142 2.59706 36.9303 5.17419C44.4935 8.78217 47.2309 17.5444 43.3199 24.5027C39.4079 31.0744 33.4094 31.7186 31.1915 31.8475C29.2366 31.9763 25.3245 31.7186 23.3685 31.4609C22.4557 31.3321 22.4557 31.8475 22.9773 31.9763C25.4549 32.7495 32.4966 34.6823 39.0167 30.9455C46.3181 26.8221 47.884 20.2504 46.1888 13.421C44.2317 5.94733 37.3215 1.82392 30.1494 2.21049C25.9765 2.33935 23.7597 4.52991 23.4989 5.30305C23.2381 5.94733 23.6293 5.94733 24.1509 5.68962Z" fill="#00B1B0"/>
<path fill-rule="evenodd" clip-rule="evenodd" d="M20.7603 8.13768C21.4123 7.49339 21.6731 7.10683 21.9339 6.84911C22.1947 6.72026 21.5427 6.20483 20.2387 6.84911C19.0651 7.62225 15.9354 11.2302 15.153 15.4825C14.1098 21.0233 17.1091 25.9199 18.9347 27.4662C20.7603 29.0124 20.8907 28.1104 20.4995 27.8527C20.2387 27.4662 17.7611 24.889 16.9787 21.0233C16.3267 18.0596 16.4571 16.1268 17.3699 13.4208C18.1523 11.1014 20.3691 8.52425 20.7603 8.13768Z" fill="#00B1B0"/>
<path fill-rule="evenodd" clip-rule="evenodd" d="M39.9289 13.8077C34.3216 10.7151 27.28 8.78227 23.2375 8.13799C22.3247 8.00913 21.6727 8.91113 22.5855 9.03998C28.584 10.1997 32.7568 11.2305 39.9289 14.3231C39.9289 14.452 40.1897 14.452 40.3201 14.3231C40.3201 14.0654 40.1897 13.9365 39.9289 13.8077Z" fill="#00B1B0"/>
<path fill-rule="evenodd" clip-rule="evenodd" d="M43.4501 17.9309C35.3652 13.6786 24.8027 12.0035 20.3691 11.488C19.4562 11.3592 18.9346 12.39 19.8475 12.5189C30.5404 13.8075 37.7125 15.8692 43.1893 18.4463C43.3197 18.4463 43.4501 18.5752 43.5805 18.4463C43.7109 18.3174 43.7109 18.0597 43.4501 17.9309Z" fill="#00B1B0"/>
<path fill-rule="evenodd" clip-rule="evenodd" d="M19.1955 16.5137C27.802 16.7714 36.5378 18.7042 39.7979 19.6062C40.0598 19.7351 40.1902 19.6062 40.1902 19.4774C40.1902 19.3485 40.1902 19.2197 39.7979 19.0908C28.5844 15.7405 20.8908 15.4828 19.3259 15.4828C18.4131 15.4828 17.8915 16.5137 19.1955 16.5137Z" fill="#00B1B0"/>
<path fill-rule="evenodd" clip-rule="evenodd" d="M31.1926 3.3701L31.5838 3.24124V2.98353V2.85468H31.4534C29.6278 2.85468 27.8022 4.2721 26.2374 6.84923C24.4117 9.68407 23.3685 13.6786 23.2381 18.0597C22.9773 27.724 25.9765 36.2285 29.4974 36.2285C30.4102 36.2285 31.4534 35.7142 31.7142 34.4245C31.7142 34.2957 31.7142 33.7802 31.4534 33.7802C31.323 33.7802 31.1926 34.038 31.0622 34.2957C30.8014 34.9399 30.1494 35.0688 29.4974 35.0688C28.3238 35.0688 27.0198 33.3937 26.1069 29.9145C25.0637 26.1777 24.2813 21.9254 24.5421 17.5443C24.9333 8.26665 28.715 3.24124 31.1926 3.3701Z" fill="#00B1B0"/>
<path fill-rule="evenodd" clip-rule="evenodd" d="M38.6247 32.8782C38.6247 32.7494 38.4953 32.4927 38.3649 32.4927H38.2345C38.1041 32.4927 38.1041 32.6205 38.1041 32.8782C37.9727 33.3937 37.8423 33.7802 37.3217 33.9091C37.1913 33.9091 36.9294 33.9091 36.799 33.7802C35.1049 32.6205 32.3654 26.0488 31.4526 18.1886C30.4094 9.42635 32.6262 3.75666 34.1921 3.37009L34.4518 3.11238V2.98352C34.3214 2.98352 34.1921 3.11238 34.0617 3.11238L33.9313 2.98352C31.3222 3.75666 29.3662 10.7149 30.5409 19.9926C31.4526 27.8528 34.0617 33.3937 36.1481 34.6833C36.4089 34.9399 36.799 35.0688 37.0609 35.0688H37.4521C38.1041 34.8111 38.6247 34.0379 38.6247 32.8782Z" fill="#00B1B0"/>
<path fill-rule="evenodd" clip-rule="evenodd" d="M37.5816 20.1215C37.5816 19.8638 37.4523 19.735 37.3219 18.9618C36.4091 15.6116 35.6256 10.4573 36.4091 6.59161V6.3339C36.4091 6.07618 36.4091 5.94733 36.2787 5.94733C36.1483 5.94733 35.8864 6.07618 35.8864 6.3339V6.46275C34.9747 10.4573 35.4952 16.3847 36.6688 20.3793C36.9296 21.4101 37.8424 20.8947 37.5816 20.1215Z" fill="#00B1B0"/>
<path fill-rule="evenodd" clip-rule="evenodd" d="M21.934 4.52992C21.8036 3.88563 21.282 3.37021 20.63 3.37021C19.978 3.37021 19.4564 4.01449 19.5868 4.65877C19.5868 5.30306 20.1084 5.81848 20.7604 5.81848C21.4124 5.68963 21.934 5.1742 21.934 4.52992Z" fill="#00B1B0"/>
<path fill-rule="evenodd" clip-rule="evenodd" d="M58.0555 23.0854C58.0555 22.4412 57.5339 22.0546 56.8819 22.0546C56.2288 22.0546 55.7083 22.4412 55.7083 23.0854C55.7083 23.7297 56.2288 24.374 56.8819 24.374C57.5339 24.374 58.0555 23.7297 58.0555 23.0854Z" fill="#00B1B0"/>
<mask id="mask1_1179_3132" style="mask-type:alpha" maskUnits="userSpaceOnUse" x="21" y="0" width="4" height="4">
<path d="M21.2817 0.277649H24.4114V3.24156H21.2817V0.277649Z" fill="rgb(120, 120, 120)"/>
</mask>
<g mask="url(#mask1_1179_3132)">
<path fill-rule="evenodd" clip-rule="evenodd" d="M24.4114 1.56644C24.4114 0.664443 23.629 0.149017 22.7162 0.149017C21.9337 0.277874 21.2817 0.922156 21.2817 1.6953C21.4121 2.59729 22.0641 3.24157 22.977 3.24157C23.7594 3.24157 24.4114 2.46843 24.4114 1.56644Z" fill="#00B1B0"/>
</g>
<path fill-rule="evenodd" clip-rule="evenodd" d="M62.2282 28.626C61.9674 27.8528 61.1849 26.5643 59.8809 25.4046C59.0985 24.8891 58.4465 25.2757 59.0985 25.7911C59.7505 26.3066 64.1842 30.9454 57.9249 31.333C55.8385 31.333 51.795 31.0743 43.972 28.8837C43.5807 28.7548 43.0581 28.626 42.5375 28.4971C41.8844 28.3683 41.2335 28.1105 40.5815 27.9817C39.6687 27.5951 38.6244 27.3374 37.5812 26.9508C36.6684 26.5643 35.6263 26.3066 34.583 25.7911C33.931 25.5334 33.2779 25.4046 32.7574 25.1469C32.627 25.1469 32.4966 25.018 32.4966 25.018C31.975 24.7603 31.4534 24.6314 30.9318 24.3737C30.671 24.2449 30.4102 24.2449 30.1483 24.116C28.4542 23.3429 26.4982 22.4409 24.6725 21.5389C24.1509 21.2812 23.6282 21.0234 23.1077 20.7657C20.8909 19.606 18.5437 18.4463 16.5877 17.0289C15.9356 16.7712 15.414 16.3846 14.8924 15.998C13.8481 15.2249 12.2844 14.0652 11.2412 13.4209C4.19952 7.49351 11.1108 7.49351 18.5437 8.3955C19.0653 8.3955 19.5869 8.52436 20.1085 8.65322L20.7605 7.49351C20.3682 7.36465 19.9781 7.36465 19.5869 7.23579C13.9796 6.46265 10.0676 6.84922 8.50276 7.75122C7.32806 8.52436 6.02514 10.4572 10.4588 14.3229C11.6324 15.3538 13.1972 16.5135 14.762 17.5443C15.414 17.9309 15.9356 18.4463 16.5877 18.8329C18.5437 20.1214 20.8909 21.41 23.2381 22.6986C23.7597 22.9563 24.2813 23.214 24.8029 23.6006C25.5854 23.8583 26.3678 24.2449 27.1502 24.6314C27.9326 25.018 28.715 25.4046 29.4974 25.7911C30.1483 26.0488 30.671 26.3066 31.323 26.4354C31.323 26.5643 31.4534 26.5643 31.4534 26.5643C31.975 26.822 32.4966 26.9508 33.0182 27.2086C33.4083 27.3374 33.931 27.5951 34.4516 27.8528C35.8871 28.3683 37.3215 28.8837 38.7548 29.2703C39.4079 29.528 40.0599 29.6568 40.5815 29.9145C41.2335 30.0434 41.8844 30.3022 42.5375 30.43C51.5352 32.7494 56.4905 33.136 59.3582 32.4927C59.4886 32.4927 62.7487 31.7185 62.2282 28.626Z" fill="#00B1B0"/>
</svg>