<svg xmlns="http://www.w3.org/2000/svg" fill="rgb(120, 120, 120)" id="Capa_1" data-name="Capa 1" viewBox="0 0 135 50"><defs><style>.cls-1{fill:#c10230;}</style></defs><path d="M26.27,16.88l.05,0c0-.21,0-.43,0-.63a.52.52,0,0,0-.31-.44,2.07,2.07,0,0,1-.33.47l-.13.12h0l-1.76,2.08.08.12,1.17-.7c.17.28.3.51.45.77l-.45.15-.56.23c.94.1,1.53-.16,1.67-.82a4,4,0,0,0,.09-.48H26.2a.45.45,0,0,1-.48-.44.71.71,0,0,1,.19-.41.41.41,0,0,1,.34-.17S26.24,16.86,26.27,16.88Z"/><path d="M31.57,21.45c-.29-.41-.54-.85-.84-1.25-.67-.85-1.37-1.67-2-2.53a2.52,2.52,0,0,1-.64-1.12,16.63,16.63,0,0,1,.18-2.42l.86.29c-.5-.91-.6-2-1.59-2.69.28.7.51,1.29.74,1.88l-.12.05-1.5-1.43a1.87,1.87,0,0,0-.06.63.63.63,0,0,1-.23.38.34.34,0,0,1-.34-.09,2,2,0,0,0-1.89-.8l.21-.15a6.09,6.09,0,0,1,2.87-.61c.51-.07.63-.25.38-.69a4.37,4.37,0,0,0-.82-1.12,16.49,16.49,0,0,1-3.16-3.71,1.68,1.68,0,0,0-1.42-.89,22.65,22.65,0,0,0-3.78.07c-1.92.29-3.81.77-5.7,1.23A6.94,6.94,0,0,0,8.36,8.9a11.85,11.85,0,0,1-2.23,2c-.92.77-2.07,1.2-2.82,2.21a3.07,3.07,0,0,0-.64,2.57,6.42,6.42,0,0,0,2.06,3.38,8.26,8.26,0,0,1,2.15,2.4c.35.74.93,1.42,2,1a1.86,1.86,0,0,1,.58,0,4.85,4.85,0,0,0,.55-.08c0-.17-.09-.34-.14-.52s-.1-.27-.06-.29a.53.53,0,0,1,.35-.1c.38,0,.76.09,1.14.1a1.59,1.59,0,0,0,.45-.15c-.06-.15-.11-.31-.17-.47s-.13-.31-.19-.47h0a3.78,3.78,0,0,1,.51-.3,10.28,10.28,0,0,0,1.36-.44c.79-.4,1.54-.89,2.3-1.34.85-.79,1.67-1.61,2.54-2.38.63-.57,1.31-1.08,2-1.65-.23,1.08-.44,2-.65,3l-.15,0c0-.39-.09-.78-.13-1.17-.26,1.1.26,2.31-.64,3.29a1.38,1.38,0,0,0,1.29-1.28c.11-.82.16-1.64.24-2.47,0,0,.05-.07.11-.15,0,.18,0,.29,0,.39l1.19-1,.2.32c.2-.27.39-.51.59-.75l.24.23.66-.84.1.45a1.54,1.54,0,0,1,.05.26l1-.83c0,.1.09.19.16.34l1-.89,1.42,1.22c.12-.27.22-.51.32-.75.57.17.86.43.7,1.07a11.71,11.71,0,0,0-.17,1.45,1.6,1.6,0,0,0,.55,1.53c1.35,1.06,2.07,2.61,3.1,3.91A1.21,1.21,0,0,1,31,23.33a2.23,2.23,0,0,1-.79.1c.14-.28.21-.43.29-.61-.14,0-.25-.11-.32-.08a6.5,6.5,0,0,0-.94.5.79.79,0,0,1-1.14-.13c-.22-.42-.06-.74.38-.93,0,0,.07-.08.11-.12a1.3,1.3,0,0,1-.1-.15c-.24.16-.58.27-.7.5A14,14,0,0,0,27.18,24l.08,0,.42-.47a4.51,4.51,0,0,0,1.23.13,3.56,3.56,0,0,0,.94-.55c.06.18.08.37.14.38.34.09.74.27,1,.16A1.48,1.48,0,0,0,31.57,21.45Z"/><path d="M23.18,39.24c-.35,0-.47.29-.42.74l0,0-.15.28A1.94,1.94,0,0,1,21.44,40a25.45,25.45,0,0,0-6.73-2.37,27.43,27.43,0,0,0-7.17-.73c-.07,0-.13,0-.27-.1.8-.63,3.61-2.64,3.61-2.64a28.44,28.44,0,0,1,3.23-1l-.69-1,2.31.68h0l-1.5-1.56,2.25.48h0l.1,0-.07-.08h0L15.2,30.2l2.15.54-.87-1.46,2.55.87h.32a2.83,2.83,0,0,1,.77.16l1,.55a2.5,2.5,0,0,0,1.48.37,2,2,0,0,1,1.62.42,7.6,7.6,0,0,1-1.07,0L22,31.5a1.6,1.6,0,0,0,.68.27c.63.1,1.27.17,1.9.27a.87.87,0,0,1,.78,1.26l-.18.6.23.06c.17-.59.35-1.18.51-1.73l2.35-.8-.2-.13-.27.1a3.62,3.62,0,0,1-3.1,0c-.78-.33-1.62-.51-2.43-.77a8,8,0,0,1-1.41-.47c-1.05-.56-1.8-1.54-2.87-2.13A2.87,2.87,0,0,0,16,27.49a10.21,10.21,0,0,1-1.45,2c-1,.91-2,2-3.7,1.63l.86.73a24.19,24.19,0,0,1-1.88,2.3C9,35,8,35.65,7.16,36.45a4,4,0,0,1-1.42.95,2.31,2.31,0,0,0-.93.66,10.88,10.88,0,0,0-1.59,2.12,3.1,3.1,0,0,1-.37.57s0,0,0,0c-.24.09-.42.35-.62.5-.41.29-.09.6.11.84a17.93,17.93,0,0,0,4.95,4A25.38,25.38,0,0,0,16.44,49,19.94,19.94,0,0,0,26,47.69a11.21,11.21,0,0,0,1.16-.56,5.15,5.15,0,0,1,.76-.24C26.66,44.32,26.12,41.2,23.18,39.24Z"/><path d="M25.86,38.54c-.24-.17-.3-.64-.38-1s0-.54-.05-.8c-.29-1.44.5-2.54,1.14-3.68.05-.11.21-.16.33-.22.5-.21,1-.43,1.51-.63,1.47-.57,2.51-2.36,1.48-3.75a.68.68,0,0,1-.05-.63c.58-.54,1-1.09.54-1.92.5-.9-.25-1.51-.52-2.23a2.6,2.6,0,0,0,.18,1c.29.8,0,1.22-.89,1.22a5.86,5.86,0,0,0-1.21.23,2.33,2.33,0,0,1,.07.25,2,2,0,0,1,.63-.14c.48.05,1.09,0,1.39.3s-.27.58-.49.84c0,0-.06,0-.09.06a.45.45,0,0,1,0-.11l-1.17-.12a4.59,4.59,0,0,1,.83.62,4.43,4.43,0,0,1,.36.76,1.76,1.76,0,0,1,.25,1.82A2.81,2.81,0,0,1,28.05,32a4,4,0,0,0-1.74.88,8.06,8.06,0,0,0-1.16,1.8,1,1,0,0,0-.13.49c0,.93,0,1.86,0,2.79s-.24,1.21-1.14.94c0,0,0,0,0,0,2.1,1.47,3.38,4.66,5,7.48a.41.41,0,0,0,0-.09c0-.06.09-.21.17-.24a3.78,3.78,0,0,0,1.81-1.41c-.8-1-1.61-2-2.41-3.06A13.47,13.47,0,0,0,25.86,38.54Z"/><path d="M8.73,25.89h0Z"/><path d="M7,28.83c-.06,0-.16.13-.31.26.76-.05.72,0,1.67.47a6.67,6.67,0,0,0,1.87.35l0-.19-.9-.2V29.4l.56-.15-1-.95L10.54,28a3.12,3.12,0,0,1-2.3-1.3l-.14.11c.14.57.27,1.13.41,1.7-1,.18-1.35,0-1.69-.78h1.1l-1-1.33.13-.15.66,0,.1-.09-.58-.31.12-.14c.34.13.67.29,1,.39.1,0,.25-.08.37-.14-1.06-.07-1.44-1-2.12-1.78V25.5L6,25.26l.55,1.15-.7-.21a.64.64,0,0,1-.1.13l.85.93L5.7,27Z"/><path d="M9.59,22.84h0l-1.19.78,1.21.5-.8.33,1.57,1.23-.37.14c1.8.62,2.17.62,3.08.07H11.43c.21-.34.37-.59.51-.84s.25-.48.37-.72c-1.36,1.27-1.45,1.11-2.24.3l.52-.83-1.12-.15c0-.07,0-.13-.05-.2l1-.95-.85.34Z"/><path d="M26.68,15.14l-.85-.08a3.79,3.79,0,0,0-3.29,1.6c-.36.64-.66,1.31-1.07,1.91-.27.4-.22.68-.17.73a3,3,0,0,1,1.52-1.13l-.54-.2a5.42,5.42,0,0,1,.58-.59,11,11,0,0,1,2.08-1.7,1.38,1.38,0,0,1,1.74.33Z"/><path d="M16,22.9a2.12,2.12,0,0,0,1.71-1.48c-.81,1-1.65,1.33-2.21,1,.15-.63.3-1.24.45-1.86H15.9c-.25.45-.39,1-.76,1.31a3.8,3.8,0,0,1-1.41.34A2.13,2.13,0,0,0,16,22.9Z"/><path d="M12.18,21.7H10l1.2,1.11c-.31.16-.57.29-.87.46a3.19,3.19,0,0,0,2.78.58l-1.75-.44.52-1.1-.12-.06-.37.32C11.2,22.29,11.2,22.29,12.18,21.7Z"/><path d="M6.16,23.29a8.65,8.65,0,0,0,1.13.87,6.75,6.75,0,0,0,1.27.42l0-.07-1.17-.84,2.15-.83-2.48-.2C7.3,23.24,6.84,23.34,6.16,23.29Z"/><path d="M14,19.91l.52-.41c-.69.28-1.39.58-2.11.82a5,5,0,0,1-1,.15,3.2,3.2,0,0,0,3.56.83c-.82,0-1.66.2-2.35-.48.25-.14.48-.26.71-.4S13.77,20.09,14,19.91Z"/><path d="M10.49,30.87a7.51,7.51,0,0,0,1.71-.25,3.29,3.29,0,0,0,2.37-2.06c-1.77,1.8-3.36,2.3-4.86,1.58C9.76,30.64,10,30.92,10.49,30.87Z"/><path d="M18.67,24.85c-.4.24-.63.77-1.19.63.07-.52.13-1,.2-1.49l-.16,0c-.17.91-.43,1.73-1.6,1.75a1.58,1.58,0,0,0,1.62.3A2,2,0,0,0,18.67,24.85Z"/><path d="M19.86,22.55c-.37.89-1,1.1-1.69.57l.76-1.27-.08,0-1.57,1.23a1.46,1.46,0,0,0,1.86.61C19.67,23.5,19.86,23.2,19.86,22.55Z"/><path d="M16.6,25a1.83,1.83,0,0,0,.28-1.77c-.12,1.25-.26,1.46-1,1.64,0-.33-.05-.66-.07-1l-.63.58h0l0,0c0,.28-.07.57-.1.9A1.36,1.36,0,0,0,16.6,25Z"/><path d="M11.18,27.56,10,27.11l.06-.14,1.06-.42,0-.16c-.31,0-.62,0-.93,0s-.68-.14-1.06-.22C9.43,27.36,10.28,27.92,11.18,27.56Z"/><path d="M13.87,28.27c-.82.49-1,.43-1.58-.33a.83.83,0,0,1-.09-.2c-.06.56-.12,1.06-.17,1.54a3.82,3.82,0,0,0,2.78-1.63C14.43,27.9,14.16,28.1,13.87,28.27Z"/><path d="M11.78,29.59l-.86-.34,1-1.75-.15-.1A2.26,2.26,0,0,1,10,28.74,1.48,1.48,0,0,0,11.78,29.59Z"/><polygon points="15.54 18.39 15.54 18.38 15.54 18.39 15.54 18.39"/><path d="M15.07,20.21c1.3-.07,2.13-1.48,1.77-2.23-.24.43-.52.91-.79,1.38l-.18-.07-.33-.9c0,.09-.12.2-.1.27A1.17,1.17,0,0,1,15.07,20.21Z"/><path d="M15.2,26.08a1.61,1.61,0,0,1-1.58.75c.08-.31.15-.57.23-.86L12.67,27a1.71,1.71,0,0,0,1.82,0C15,26.75,15.22,26.48,15.2,26.08Z"/><path d="M18.51,16c-.16.67-.31,1.34-.51,2.19l-.53-1.1c-.2,1,.11,1.43,1.34,1.72A2.66,2.66,0,0,1,18.72,16Z"/><path d="M14.71,25.93a2,2,0,0,1-.34-.14c-.23-.22-.44-.45-.66-.67a3.28,3.28,0,0,1,.64-.55,2.55,2.55,0,0,1,.74-.12c-.19-.08-.42-.24-.56-.19-.57.19-1.1.47-1.69.73C14.16,26,14.16,26,14.71,25.93Z"/><path d="M16.05,27.48Z"/><path d="M17.16,26.37l-.87.65.18-.51c-.47.41-.93.83-1.39,1.25l1-.28,1.22-1A.69.69,0,0,0,17.16,26.37Z"/><path d="M17.18,18.71c-.08.5,0,1-.11,1.51a7.13,7.13,0,0,1-.58,1.36C17.38,21.12,17.52,20.63,17.18,18.71Z"/><polygon points="8.75 25.89 8.74 25.89 8.74 25.89 8.75 25.89"/><path d="M7.79,24.66a1.46,1.46,0,0,0,1,1.23l.7-.28A1.71,1.71,0,0,1,7.79,24.66Z"/><path d="M18.09,19.61l1.07,1.48c0-.32-.24-.55-.26-.8s.19-.4.26-.53Z"/><path d="M14.23,23.14l-1.13-.28C13.3,23.42,13.58,23.5,14.23,23.14Z"/><path class="cls-1" d="M71.88,15.45a1.85,1.85,0,0,1,.55.06.23.23,0,0,1,.17.23.69.69,0,0,1-.06.24l-1.33,3.45L70,16.37c-.09-.25-.15-.4-.18-.47a.71.71,0,0,1,0-.2.2.2,0,0,1,.14-.19,2.34,2.34,0,0,1,.51-.06v-.1H68.6v.1a1.75,1.75,0,0,1,.4,0,.45.45,0,0,1,.2.19,4,4,0,0,1,.24.52L71,20.05h.19l1.46-3.81a2.94,2.94,0,0,1,.24-.52.49.49,0,0,1,.22-.21,1.32,1.32,0,0,1,.36-.06v-.1H71.88Z"/><path class="cls-1" d="M58,15.45a1.69,1.69,0,0,1,.52.1.35.35,0,0,1,.21.22,1.51,1.51,0,0,1,0,.44v3l-3-3.86h-1.1v.1a1.41,1.41,0,0,1,.69.25V19a2,2,0,0,1,0,.5.43.43,0,0,1-.18.24,1.73,1.73,0,0,1-.47.13v.1h1.67v-.1a1.37,1.37,0,0,1-.54-.11.41.41,0,0,1-.22-.25,1.32,1.32,0,0,1,0-.45V15.84L58.81,20H59V16.25a1.34,1.34,0,0,1,.06-.46.4.4,0,0,1,.2-.22,2.74,2.74,0,0,1,.45-.12v-.1H58Z"/><path class="cls-1" d="M80.09,19.47a.45.45,0,0,1-.29.24,1.8,1.8,0,0,1-.54.05h-.67a.88.88,0,0,1-.34,0,.23.23,0,0,1-.12-.17,4.25,4.25,0,0,1,0-.47V17.66h1a.88.88,0,0,1,.37.05.27.27,0,0,1,.18.18,1.56,1.56,0,0,1,.08.43h.1V16.91h-.1a2.32,2.32,0,0,1,0,.33.5.5,0,0,1-.11.18.48.48,0,0,1-.18.06h-1.3v-2H79a4.05,4.05,0,0,1,.63,0,.36.36,0,0,1,.26.22,2.9,2.9,0,0,1,.15.62h.1l-.06-1H76.87v.1a2.08,2.08,0,0,1,.54.09.27.27,0,0,1,.19.18,1.17,1.17,0,0,1,0,.38v3a1.7,1.7,0,0,1,0,.47.27.27,0,0,1-.2.17,2.2,2.2,0,0,1-.56.09v.1h3.44l.11-1.13H80.3A2.1,2.1,0,0,1,80.09,19.47Z"/><path class="cls-1" d="M63.25,15.45a1.61,1.61,0,0,1,.47.08.27.27,0,0,1,.16.2,2.14,2.14,0,0,1,0,.53V19.1a2.55,2.55,0,0,1,0,.49.25.25,0,0,1-.17.19,1.28,1.28,0,0,1-.46,0v.1h1.82v-.1a1.33,1.33,0,0,1-.39,0,.31.31,0,0,1-.2-.12.44.44,0,0,1-.08-.2,3.23,3.23,0,0,1,0-.35V16.18a3.56,3.56,0,0,1,0-.37.41.41,0,0,1,.08-.19.43.43,0,0,1,.2-.12,2.9,2.9,0,0,1,.39-.05v-.1H63.25Z"/><path class="cls-1" d="M49.5,15.45a1.76,1.76,0,0,1,.47.09.38.38,0,0,1,.21.18,1.3,1.3,0,0,1,0,.4v2.12a1.68,1.68,0,0,1-.2.86,1.29,1.29,0,0,1-.53.53,1.54,1.54,0,0,1-.75.18,1.43,1.43,0,0,1-1.08-.39,1.61,1.61,0,0,1-.37-1.12V16a1.21,1.21,0,0,1,0-.3.32.32,0,0,1,.19-.17,1.25,1.25,0,0,1,.47-.09v-.1H46.13v.1a2.3,2.3,0,0,1,.48.08.34.34,0,0,1,.19.15,1,1,0,0,1,0,.29v2.46a1.91,1.91,0,0,0,.11.64,1.29,1.29,0,0,0,.33.5,1.37,1.37,0,0,0,.55.33,2.26,2.26,0,0,0,.77.12,2.39,2.39,0,0,0,.73-.1,1.47,1.47,0,0,0,.57-.33,1.4,1.4,0,0,0,.38-.58,2.56,2.56,0,0,0,.13-.84v-2a1,1,0,0,1,.12-.52c.08-.13.28-.2.57-.22v-.1H49.5Z"/><path class="cls-1" d="M87.66,19.3a5.6,5.6,0,0,1-.31-.49l-.24-.42c0-.06-.1-.18-.21-.35s-.19-.29-.22-.35a1.39,1.39,0,0,0,.43-.23,1.21,1.21,0,0,0,.33-.38,1,1,0,0,0,.13-.52,1.1,1.1,0,0,0-.1-.47,1,1,0,0,0-.31-.4,1.55,1.55,0,0,0-.56-.28,2.71,2.71,0,0,0-.8-.11l-.74,0-1,0v.1a.92.92,0,0,1,.59.14.45.45,0,0,1,.13.36v3.26a1.06,1.06,0,0,1-.05.36.33.33,0,0,1-.2.18,1.94,1.94,0,0,1-.47.08v.1h2v-.1a3.65,3.65,0,0,1-.57-.08.33.33,0,0,1-.22-.16,1.08,1.08,0,0,1,0-.32V17.83h.33a5.71,5.71,0,0,0,.64,0,.76.76,0,0,1,.1.15l.13.2.39.64a6.39,6.39,0,0,0,.37.55,1.65,1.65,0,0,0,.33.37,1.27,1.27,0,0,0,.41.23,2.28,2.28,0,0,0,.58.09v-.1a.74.74,0,0,1-.44-.19A2.4,2.4,0,0,1,87.66,19.3Zm-2.07-1.63h-.36V15.5l.54,0a1.48,1.48,0,0,1,.72.15,1,1,0,0,1,.4.41,1.26,1.26,0,0,1,.12.55.93.93,0,0,1-.39.84A1.89,1.89,0,0,1,85.59,17.67Z"/><path class="cls-1" d="M94.18,17.75c-.16-.12-.38-.27-.65-.44s-.51-.32-.66-.43a1.32,1.32,0,0,1-.34-.32.66.66,0,0,1-.12-.38.68.68,0,0,1,.09-.33.75.75,0,0,1,.28-.28.85.85,0,0,1,.48-.12,1.25,1.25,0,0,1,.42.08,1.38,1.38,0,0,1,.6.53,1.58,1.58,0,0,1,.16.35h.09l-.12-1h-.09c0,.11,0,.17-.1.17l-.1,0a2.81,2.81,0,0,0-.43-.21,1.63,1.63,0,0,0-.45-.07,1.19,1.19,0,0,0-.64.16,1,1,0,0,0-.55.89,1,1,0,0,0,.29.7,4.64,4.64,0,0,0,.87.66,6.35,6.35,0,0,1,.63.41,1.29,1.29,0,0,1,.36.38.76.76,0,0,1,.13.44.87.87,0,0,1-.13.46,1,1,0,0,1-.36.34.92.92,0,0,1-.49.13,1.37,1.37,0,0,1-.49-.11,1,1,0,0,1-.43-.33,2.37,2.37,0,0,1-.36-.69H92l.18,1.17h.07c0-.11.07-.17.13-.17l.32.14.38.13a1.06,1.06,0,0,0,.33,0,1.23,1.23,0,0,0,.69-.19,1.38,1.38,0,0,0,.49-.47,1.12,1.12,0,0,0,.18-.58,1.1,1.1,0,0,0-.17-.59A1.91,1.91,0,0,0,94.18,17.75Z"/><path class="cls-1" d="M124.71,16.65a2.1,2.1,0,0,0-.55-.71,2.59,2.59,0,0,0-.87-.47,3.67,3.67,0,0,0-1.13-.17h-1.48l-.67,0v.1a3,3,0,0,1,.42,0,.64.64,0,0,1,.22.11.56.56,0,0,1,.09.22,4,4,0,0,1,0,.41V19a2.43,2.43,0,0,1,0,.57.27.27,0,0,1-.18.21,1.58,1.58,0,0,1-.53.1v.1l1,0h.76a4.91,4.91,0,0,0,1.59-.2,2.56,2.56,0,0,0,.84-.51,2.42,2.42,0,0,0,.55-.77,2.26,2.26,0,0,0,.19-.92A2.12,2.12,0,0,0,124.71,16.65Zm-.45,1.51a2,2,0,0,1-.18.5,1.84,1.84,0,0,1-.3.43,2.54,2.54,0,0,1-.35.32,2.25,2.25,0,0,1-.41.21,2.37,2.37,0,0,1-.51.13,4.09,4.09,0,0,1-.63,0,1.56,1.56,0,0,1-.44-.05.32.32,0,0,1-.18-.16,1.27,1.27,0,0,1,0-.32V15.5a5.41,5.41,0,0,1,.59,0,3.06,3.06,0,0,1,1.49.31,1.88,1.88,0,0,1,.79.79,2.38,2.38,0,0,1,.23,1A2.12,2.12,0,0,1,124.26,18.16Z"/><path class="cls-1" d="M115.89,19.54a2.1,2.1,0,0,1-.21-.48l-1.32-3.79h-.5l.07.18L112.7,19a2.08,2.08,0,0,1-.23.51.48.48,0,0,1-.22.21,1.32,1.32,0,0,1-.38.09v.1h1.7v-.1a3.57,3.57,0,0,1-.51-.06.53.53,0,0,1-.25-.11.21.21,0,0,1-.07-.17,1.78,1.78,0,0,1,.11-.41l.42-1.23h1.49l.46,1.31a1.15,1.15,0,0,1,.09.36.2.2,0,0,1-.06.15.34.34,0,0,1-.19.09,3.77,3.77,0,0,1-.47.07v.1h2v-.1a2.37,2.37,0,0,1-.46-.11A.38.38,0,0,1,115.89,19.54Zm-2.56-1.85.68-2,.7,2Z"/><path class="cls-1" d="M108,15.94a2.41,2.41,0,0,0-.87-.47A3.67,3.67,0,0,0,106,15.3h-1.47l-.67,0v.1a3.32,3.32,0,0,1,.42,0,.51.51,0,0,1,.21.11.37.37,0,0,1,.09.22,4,4,0,0,1,0,.41V19a3.49,3.49,0,0,1,0,.57.27.27,0,0,1-.18.21,1.64,1.64,0,0,1-.53.1v.1l1,0h.77a5,5,0,0,0,1.59-.2,2.56,2.56,0,0,0,.84-.51,2.39,2.39,0,0,0,.54-.77,2.28,2.28,0,0,0,.2-.92,2.13,2.13,0,0,0-.2-.91A2,2,0,0,0,108,15.94Zm.11,2.22a2,2,0,0,1-.18.5,2.24,2.24,0,0,1-.31.43,2.07,2.07,0,0,1-.35.32,2.15,2.15,0,0,1-.4.21,2.37,2.37,0,0,1-.51.13,4.09,4.09,0,0,1-.63,0,1.51,1.51,0,0,1-.44-.05.27.27,0,0,1-.18-.16,1.19,1.19,0,0,1,0-.32V15.5a5.74,5.74,0,0,1,.6,0,3,3,0,0,1,1.48.31,1.82,1.82,0,0,1,.79.79,2.38,2.38,0,0,1,.23,1A2.62,2.62,0,0,1,108.06,18.16Z"/><path class="cls-1" d="M98.41,15.45a1.61,1.61,0,0,1,.47.08.27.27,0,0,1,.16.2,3.08,3.08,0,0,1,0,.53V19.1a2.77,2.77,0,0,1,0,.49.27.27,0,0,1-.17.19,1.28,1.28,0,0,1-.46,0v.1h1.82v-.1a1.33,1.33,0,0,1-.39,0,.31.31,0,0,1-.2-.12.44.44,0,0,1-.08-.2,3.23,3.23,0,0,1,0-.35V16.18a3.56,3.56,0,0,1,0-.37.4.4,0,0,1,.07-.19.47.47,0,0,1,.21-.12,2.9,2.9,0,0,1,.39-.05v-.1H98.41Z"/><path d="M69.16,37.85a1.62,1.62,0,0,1-.91.78,7.1,7.1,0,0,1-1.72.15H64.42a3,3,0,0,1-1.1-.13.68.68,0,0,1-.36-.53,9.66,9.66,0,0,1-.08-1.51v-4.5h3.21a3.51,3.51,0,0,1,1.18.16,1,1,0,0,1,.56.58,5.07,5.07,0,0,1,.25,1.36h.3V29.73h-.3a4.42,4.42,0,0,1-.17,1.06,1,1,0,0,1-.35.56,1.11,1.11,0,0,1-.56.2,8.73,8.73,0,0,1-1,0H62.88V25.35h2.68a10.17,10.17,0,0,1,2,.13,1.21,1.21,0,0,1,.82.67,8.23,8.23,0,0,1,.48,2h.3L69,24.81H59v.31a6.1,6.1,0,0,1,1.72.29,1,1,0,0,1,.6.56,5,5,0,0,1,.11,1.23v9.49a6,6,0,0,1-.12,1.47.9.9,0,0,1-.62.56,7.86,7.86,0,0,1-1.78.28v.31H69.75l.36-3.57h-.3A7.44,7.44,0,0,1,69.16,37.85Z"/><path d="M131.91,38.65a1.42,1.42,0,0,1-.65-.57,8.83,8.83,0,0,1-.66-1.54l-4.19-12h-1.58l.23.56-3.89,11.3a7.11,7.11,0,0,1-.72,1.62,1.71,1.71,0,0,1-.73.68,5.35,5.35,0,0,1-1.19.28v.31h5.38V39a10.1,10.1,0,0,1-1.61-.21,1.78,1.78,0,0,1-.78-.33.73.73,0,0,1-.23-.54,5.26,5.26,0,0,1,.34-1.29l1.35-3.9h4.72l1.45,4.14a4,4,0,0,1,.28,1.13.66.66,0,0,1-.18.49,1.37,1.37,0,0,1-.62.29,14.83,14.83,0,0,1-1.5.22v.31h6.21V39A7.68,7.68,0,0,1,131.91,38.65Zm-8.75-6.44,2.16-6.3,2.2,6.3Z"/><path d="M51.77,25.12a5.44,5.44,0,0,1,1.64.32,1.16,1.16,0,0,1,.67.69,4.83,4.83,0,0,1,.15,1.41V37L44.6,24.81H41.14v.31a4.35,4.35,0,0,1,2.17.79V36.25a6,6,0,0,1-.14,1.58,1.16,1.16,0,0,1-.57.73,4.54,4.54,0,0,1-1.46.44v.31H46.4V39a4.38,4.38,0,0,1-1.69-.35,1.33,1.33,0,0,1-.71-.79,5.19,5.19,0,0,1-.16-1.44v-10L54.27,39.59h.49V27.66A4.1,4.1,0,0,1,55,26.2a1.25,1.25,0,0,1,.65-.7A6.68,6.68,0,0,1,57,25.12v-.31H51.77Z"/><path d="M98.79,37.3a15,15,0,0,1-1-1.55l-.74-1.3q-.17-.3-.69-1.14c-.34-.55-.57-.92-.67-1.1A4.24,4.24,0,0,0,97,31.5a4,4,0,0,0,1.07-1.23,3.33,3.33,0,0,0,.41-1.64,3.66,3.66,0,0,0-.32-1.49,3.36,3.36,0,0,0-1-1.27A5.05,5.05,0,0,0,95.44,25a8.79,8.79,0,0,0-2.54-.33l-2.33.05-3.25.1v.31a3.07,3.07,0,0,1,1.86.43,1.51,1.51,0,0,1,.42,1.14V37a3.08,3.08,0,0,1-.16,1.16,1,1,0,0,1-.63.56,6,6,0,0,1-1.49.27v.31h6.41V39a9.22,9.22,0,0,1-1.81-.27,1,1,0,0,1-.7-.49,3,3,0,0,1-.13-1V32.66h1c.52,0,1.19,0,2-.12l.32.47.39.62c.13.19.54.87,1.25,2,.45.74.84,1.33,1.15,1.76a5.74,5.74,0,0,0,1,1.14,3.91,3.91,0,0,0,1.32.75,6.25,6.25,0,0,0,1.84.28v-.3a2.52,2.52,0,0,1-1.41-.62A7.34,7.34,0,0,1,98.79,37.3Zm-6.57-5.15H91.09V25.29a14,14,0,0,1,1.71-.11,4.53,4.53,0,0,1,2.28.5A3,3,0,0,1,96.35,27a4,4,0,0,1,.38,1.74,2.9,2.9,0,0,1-1.25,2.65A6,6,0,0,1,92.22,32.15Z"/><path d="M103.7,25.12a5,5,0,0,1,1.51.26.86.86,0,0,1,.51.64,9.87,9.87,0,0,1,.1,1.68v9a6.59,6.59,0,0,1-.12,1.53.82.82,0,0,1-.53.61,4.21,4.21,0,0,1-1.47.17v.31h5.79V39a5,5,0,0,1-1.25-.12,1.17,1.17,0,0,1-.64-.39,1.42,1.42,0,0,1-.24-.64,9.51,9.51,0,0,1,0-1.1V27.44a10.22,10.22,0,0,1,0-1.16,1.24,1.24,0,0,1,.23-.61,1.3,1.3,0,0,1,.66-.38,5.87,5.87,0,0,1,1.24-.17v-.31H103.7Z"/><path d="M112,25.12a5.83,5.83,0,0,1,1.64.29.91.91,0,0,1,.57.61,6.17,6.17,0,0,1,.11,1.4V39.61a11.11,11.11,0,0,1-.07,1.54,3.11,3.11,0,0,1-.32,1,1.69,1.69,0,0,1-.56.69,1.17,1.17,0,0,1-.66.23,1.48,1.48,0,0,1-1-.44,5.11,5.11,0,0,0-.6-.49.48.48,0,0,0-.31-.1.68.68,0,0,0-.42.15,1.24,1.24,0,0,0-.29.36.71.71,0,0,0-.11.37c0,.24.17.47.52.68a2.35,2.35,0,0,0,1.23.32,3.3,3.3,0,0,0,1.73-.52,4,4,0,0,0,1.4-1.48,6.36,6.36,0,0,0,.76-1.91,9.8,9.8,0,0,0,.16-1.87V27.24A4.79,4.79,0,0,1,115.9,26a.87.87,0,0,1,.53-.53,8.22,8.22,0,0,1,1.58-.36v-.31h-6Z"/><path d="M83.77,32.61a4,4,0,0,0-1.11-.95,6,6,0,0,0-1.6-.66,4,4,0,0,0,2-1.09A2.68,2.68,0,0,0,83.73,28a3.07,3.07,0,0,0-.39-1.41,3.45,3.45,0,0,0-1.61-1.35,8.05,8.05,0,0,0-3.46-.6l-1.26,0-2,0-1.29,0-1.27,0v.31a9.2,9.2,0,0,1,1.75.25.81.81,0,0,1,.58.54,5.5,5.5,0,0,1,.12,1.4v9A7.86,7.86,0,0,1,74.77,38a1.08,1.08,0,0,1-.65.72,6,6,0,0,1-1.81.31v.31h6.5a7.78,7.78,0,0,0,3.13-.57,4.38,4.38,0,0,0,2-1.58,4,4,0,0,0,.67-2.27,3.61,3.61,0,0,0-.19-1.16A3.56,3.56,0,0,0,83.77,32.61Zm-7.38-7.3.6-.06.8-.06h.57a5.67,5.67,0,0,1,1.74.24,3.28,3.28,0,0,1,1.19.64A2.68,2.68,0,0,1,82,27a3,3,0,0,1,.22,1.14,2.39,2.39,0,0,1-.84,1.93,4,4,0,0,1-2.63.72H76.39Zm6,11.53a3.24,3.24,0,0,1-1.35,1.4,5,5,0,0,1-2.47.54,3.39,3.39,0,0,1-1.52-.25,1.1,1.1,0,0,1-.58-.73,7.1,7.1,0,0,1-.11-1.53v-5H78a5.35,5.35,0,0,1,3.6,1A3.37,3.37,0,0,1,82.81,35,4.31,4.31,0,0,1,82.42,36.84Z"/></svg>