<svg width="134" height="33" viewBox="0 0 134 33" fill="none" xmlns="http://www.w3.org/2000/svg">
	<path d="M49.095 12.462v7.635l-7.48 12.014v-7.635l5.096-8.185-.006-.011-5.09-8.169V.476l7.48 11.986zm26.797 3.79c0 5.894-4.527 10.779-10.91 10.779s-10.854-4.857-10.854-10.723c0-5.867 4.527-10.751 10.91-10.751s10.854 4.8 10.854 10.694zm-3.178.084c0-4.435-3.205-8.113-7.732-8.113s-7.676 3.621-7.676 8.057c0 4.435 3.205 8.112 7.732 8.112s7.676-3.621 7.676-8.056zm20.33-7.804H80.672v6.316H91.75v2.723H80.67v6.512h12.542v2.723H77.635V5.78h15.409v2.751zm19.908 14.905c-2.222 2.218-4.64 3.706-8.464 3.706-6.102 0-10.6-4.772-10.6-10.835 0-6.007 4.47-10.892 10.685-10.892 3.852 0 6.129 1.32 8.238 3.313l-1.996 2.245c-1.828-1.684-3.684-2.75-6.271-2.75-4.358 0-7.563 3.564-7.563 8.056 0 4.49 3.233 8.112 7.563 8.112 2.756 0 4.471-1.067 6.411-2.891l1.997 1.936zm19.795-7.157c0 5.922-4.555 10.526-11.191 10.526h-7.592V5.78h7.592c6.608 0 11.191 4.576 11.191 10.499zm-3.177.056c0-4.491-3.178-7.776-8.014-7.776h-4.555v15.467h4.555c4.836 0 8.014-3.2 8.014-7.691zM27.163 9.125c-.105-.04-.045-.093.033-.146a.25.25 0 0 1-.107-.065c.003.014.003.03-.01.04-.141.112.14.252-.057.196-.056 0 .028.084.14-.026zM16.112 21.163c-.008 0-.008-.006-.011-.009 0 .006.003.009.011.009zm2.025 1.656c.028.028.028.056 0 0zM22.472 6.6a.253.253 0 0 1 .051-.006.381.381 0 0 1-.037-.042.14.14 0 0 1-.014.048zm-17.467.163c0-.003 0-.003-.003-.003-.014.028-.022.053.003.003zm22.748 18.358c-.028-.028 0-.028 0 0zm-10.418-4.37c-.022-.029-.02-.023 0 0zm9.993-12.613c-.01.056-.02.118-.033.143.02-.03.042-.059.062-.084a.192.192 0 0 1-.029-.059zm.793-.76-.008-.017c-.008.01-.003.017.008.017zm-25.14.48c-.113.056-.028.168 0 0zm25.081 3.817-.028.028c.028 0 .028-.028.028-.028zM3.15 7.83c0 .029-.028.057 0 .085 0-.028.029-.056 0-.085zm25.386 10.333c.003.009.005.014.005.025 0-.016-.002-.022-.005-.025zm1.44 1.373c-.029.028 0 .028 0 0zm-2.138 6.007c.029.112.085.056.085-.028-.056-.028 0 .112-.085.028zm1.8-3.032-.073.16c.101-.07.126-.323.073-.16zm-1.659 3.116a.128.128 0 0 0-.045.008c-.023.04-.04.07-.04.048-.002.003 0 .006-.002.009 0 .008 0 .01.003.02 0-.029.084-.029.084-.085zM1.575 10.497v.028s.028-.028 0-.028zm28.428 2.526c0 .029.028.029 0 0zm-.057-.308s.028-.028 0-.028v.028zm0 .337c0-.029.028 0 0 0zm-.056-.31c-.225.17-.169.394-.31.506.17.112.282.056.366.084-.197.14.028.112.028-.028.057.028-.056.28.057.112.028 0-.028.057 0 .085.168-.197-.028-.113-.028-.225.14-.084.028-.056 0-.028 0-.056.084-.14 0-.14-.029 0-.085.028-.141-.028-.028 0 .028-.169-.028-.057-.14.029.197-.336.056-.28zm.084.983v-.028c-.028 0-.028 0 0 .028zm-.028 0c.028 0 .028.028 0 0zm-.337-.056c-.113.14-.113.253.056.168-.056-.084-.028-.084-.056-.168zm.003-3.652c.005-.005.014-.014 0 0zm-.903-1.4c-.13 0-.045-.051-.022-.16a.243.243 0 0 0 .219.078.818.818 0 0 0-.253-.309c-.006.011-.009.023-.011.034-.093-.062-.31-.008-.158.079-.112-.085-.084-.057-.028.056-.056-.113-.084-.056-.084.028.084.112.028.084-.057.084.113.14-.056.365.028.168-.337-.252.254-.673-.168-.617-.14.14-.45.42-.085.59-.224-.057-.224.055-.028.168.028-.056.057-.028.057.056.112.028.112.056.309.168-.197-.308.337.31.197-.056-.056-.14.14.028.084.169.028-.029.169.196.056.196.028.084.169-.056.113.056.084.112.197.253.056.477-.197.028-.028.225-.169.225-.365-.168-.393.225-.028.14.169.028.085.197.253.393.253.281.422.337.169-.056-.112-.168.056 0 .056 0 .085.056.085.056.169.197a.226.226 0 0 0 .056-.138c.003.025.025.045 0-.003a.392.392 0 0 0-.056-.255c-.056-.028-.197-.477-.113-.253.085-.056 0-.224.113-.028.028.056.084-.056.028.056.169-.084.028 0 .028.056.028.057.14.281.113.057-.029-.14.084.084.056-.057.084.085-.028-.056.056 0 0-.028-.084-.084-.028-.056-.028-.084.084.056.028-.056.056.028-.028-.14-.056-.056l-.011-.03.01.002c0-.017-.01-.011-.01-.006-.02-.045-.043-.064-.065-.11.008-.008-.009-.024-.009-.024v.002a.56.56 0 0 1-.028-.117c-.056.084-.056.084-.028 0-.084.14 0-.057-.14-.085.084 0 .056-.028 0-.028-.056-.084-.028-.028-.085-.112.197.084-.056-.14.169-.028.056 0-.225-.197-.028-.112.056 0 0-.057 0-.085-.056-.056-.056.085-.14.057.14-.057.056-.085 0-.057.224-.084.056-.14 0-.168-.057.056-.085.168-.057.028-.028 0-.084.056-.028-.028.174-.042-.04-.037-.05-.07.008.003.008-.003.005-.014a.423.423 0 0 1 .045-.026c.056.085.056-.056.028-.056-.056-.112-.056 0-.084.056.028-.14-.085.029 0-.112-.14.056.056-.056-.056-.056-.057.112-.057.056-.029 0-.112 0 .029-.028.029-.056-.225-.028.084-.028-.113-.168-.197-.197-.056.14-.112.028-.029-.028-.029-.057-.057-.085 0 .057.057.113 0 .057 0 .14-.056-.197-.056-.029zm.675 2.217c.028 0 .028.028.028-.028l-.028.028zm0 .14c0-.028-.028-.056-.028-.056 0 .028 0 .028.028.056zm-.056 0c0 .028.028.028.028.056.056-.028 0-.084-.028-.056zm-.225.113c-.085.14.084.028 0 0zm-.113.252v-.028c0 .028-.028.028 0 .028zm-.03-.688c0-.01-.006-.014-.026-.014.006 0 .017.006.025.014.003.006.003.006.003.014.042.043.023.009-.003-.013zm-.307-.07c0 .028.028.056.056.028-.028 0-.028-.028-.056-.028zm-.197-.224c.028.028.028.084.056.084.028-.056-.028-.084-.056-.084zm0-.084c-.028.028.028.028 0 0zm.113-.983c-.057.084.14-.028.056-.056 0 .056-.085 0-.056.056zm.14.197c-.056.084-.112.196.028.196.085 0 .113-.253-.028-.196zm0-.197c0-.056.056 0 0 0zm-.056-.112h-.028c-.028.028.028.028.028 0zm-.084.196c-.029.028.028.028 0 0zm-.029.056c.029-.028.029 0 0 0zm-.056-.336s.028.084.028.056c.085 0 0-.056-.028-.056zm.338.505c0 .028.084.112.084.028-.028-.028-.056-.084-.084-.028zm.028-.084s0-.085-.028-.085c0 .029 0 .057.028.085zm-.478.87c-.029 0 .028.056.028.084.112 0 0-.112-.028-.084zm-.057-1.348c0 .029.028.029.028.029 0-.029-.028-.029-.028-.029zm-.618-.982c.169.112.197.028.337-.112 0-.084-.197-.169-.31-.169 0 .113-.14.085-.111.31-.113.252.196.14.084-.029zm-.113-.505c0 .028.057 0 0 0zm.282.112c.056-.084.056-.253-.085-.253-.056.057-.112.14.085.253zm-.113-.309c-.028.056.028.056 0 0zm.113 0c-.029.113.056-.028 0 0zm-.141.253.028.028s0-.028-.028-.028zm-.028-.225s0 .056.028.028c.028 0 0-.056-.028-.028zm.363.53c-.014-.013-.006-.005 0 0zm.705-.08c.028 0 .057.028.028-.029.057-.028-.028 0-.028.028zm-.056.168c0 .056.028.028.056.056 0-.028 0-.084-.056-.056zm-.506-.842s0 .03.011.059c-.003.003 0 .008.017.025.112 0 0-.168-.028-.084zm0 .14c.028.028 0 .084.056.112-.028-.028 0-.112-.056-.112zm-.084.056-.006.009c-.031-.05-.07-.076-.138-.048a.059.059 0 0 0-.011-.014c.059-.087.03-.227-.098-.227-.043.084.025.151.098.227-.006.008-.008.02-.014.025.008-.005.017-.008.025-.011.02.022.042.045.06.067 0 .253-.113.281.027.393.113.085.085-.056.113.113.084 0 .337.224.31.028.084.337.365.028.112-.14-.197-.057-.282-.057-.394-.141-.028-.028-.028-.14-.14-.14.056-.057 0-.085.112 0-.02-.04-.037-.082-.054-.115a.078.078 0 0 0 .026.002s0-.028-.028-.028zm0-.28c0-.057-.197-.225-.197-.085.056.028.112.113.197.085zm-.029-.169v-.056c0 .028-.028.056 0 .056zm-.509-.328c-.005.011.003.014.009.008.042.037.163.087.163.124.056.224.124.174.146.075.023.085.076.16.163.093 0 0-.107-.34-.163-.23-.003-.009-.003-.017-.005-.023-.057-.084-.17-.28-.253-.28-.057.056.168.28-.028.196-.04.009-.046.02-.032.037zm.088.44c-.028-.056-.028 0 0 0zm-.085-.308c.029.028.029.056.057.056.084.028-.057-.197-.057-.056zm.029.252h-.085c-.056.028.056.028.085 0zm-.17.197c-.196.084.113.056.17.14-.085 0-.17-.028-.113.056-.084.056.14.14.197 0 .084-.112.084-.308-.113-.337-.084.029.057.113-.028.197-.028-.084-.084-.253-.084-.112-.028 0 0 .112-.028.056zm.138.396c-.014.014-.005.005 0 0zm-.23-.458c-.028.008-.06.034-.02.034.028.028.14-.028.056-.028.031-.012.015-.026-.008-.034a.039.039 0 0 0 .037-.022c.028-.029-.085-.085-.113-.029 0 .014.017.031.04.043-.029-.003-.043.005.008.036zm.065-.303s-.029-.028-.029 0h.029zm.028-.028c-.028-.028-.028-.253-.056-.14 0 .056-.057.14.056.14zm-.113.14c0 .028.028.084.056.084.029-.056-.028-.168-.056-.084zm-.28-.617c.112.028.112.056.168.112.281.056-.085-.253-.169-.112zm.14.898c-.028.028-.028.084.056.056.028-.028 0-.112-.056-.056zm-.225-.786c-.113.168.253.28.168.112.197-.056-.056-.14-.168-.112zm-.085-.084c.029 0 0 .056.029.084.084.028.028-.169-.029-.084zm-.112.252s.056.085.084.056c-.028-.056-.056-.056-.084-.056zm-.534-.028a.22.22 0 0 0 .028.079c-.057.017-.107.045-.057.062 0 .081.254-.093.155-.085.042-.047.093-.115.155-.14a.688.688 0 0 0-.028.138c-.065.005-.037.064.056.087-.14-.028-.225 0-.056.084-.478-.028.056.196.028.168.028.056.225 0 .197.084-.422-.112-.253.225.028.085.14-.028.281.14.365.028.225-.169.028-.253-.084-.169.028-.056.113-.393-.056-.28-.113.112.056.336-.197.224 0-.11-.031-.267-.183-.328.056-.06.121-.138.155-.149.056-.14-.056-.056-.225-.112-.056.112-.394.084-.394.168-.028.028.084.14.113.056zm.815 1.853c-.028 0 0 .028 0 .028 0 .056.028-.028 0-.028zm-.31-.926c0 .028.029 0 .029.028.028-.028 0-.028-.028-.028zm-1.518-.113c.113.028.057.169.085.281.14-.056.112-.056.197 0 .112 0 .112-.225.224-.14.057-.169.507-.057.478-.225 0-.224-.337-.393-.562-.393-.056.253-.225.365-.422.477zm-.196.477c-.029 0 0-.028 0 0zm-1.322-.336c0 .028.028.028.056.028 0 0-.028-.028-.056-.028zm-3.374 1.01c-.028-.028.028-.112 0-.14.028.028 0 .112.056.056.084-.028 0-.112-.056-.056-.085.056-.085.084 0 .14zm-.675-.449c.028.084.197.028.14.197.282 0-.056-.337-.14-.197zm0 .954c0 .169.281.113.14 0-.056.028-.084.028-.14 0zm0 1.376c0-.028.028 0 0 0zm-.084 0c0 .028.028.028 0 0-.029.028 0 .028 0 0zm.112 10.554c0-.028-.14-.224-.112-.14 0 .056.056.112.112.14zm-.112.084c0 .057.056.085.112.085 0-.056-.084-.085-.112-.085zm-.085-.056c.085-.028-.084-.056-.112-.084-.028.056.056.056.112.084zm-.084.197c-.028.056.056.056.056.028-.028 0-.028-.028-.056-.028zm.056-.309c-.028.028 0 .028 0 0zm.028-10.358c0-.028.028 0 0 0zM19.458 20.8c0-.084-.084-.112-.14-.112.056.028.084.112.14.112zM19.29 10.44c.141 0 .253-.112.057-.084-.029-.056-.17.14-.057.084zm-.028 10.358c.028 0 .028.028 0 0zm-.084-.028c.028 0 .028 0 .028.028.084.056-.028-.14-.028-.028zm0-.028c0-.028-.028-.028-.028 0h.028zm-.028-10.274c.028 0 .028.028 0 0zm-.056.028c0 .028.028.028.056.028-.028-.028-.056-.056-.056-.028zm0 10.05c-.029.027.084.111.112.084-.028-.029-.056-.029-.112-.085zm.028.14c-.028.028 0 .028 0 .028.028 0 0-.028 0-.028zM15.915 6.455c-.028.056.113.112.14.056.029-.084-.084-.112-.14-.056zm-.618.253c0 .028.028.028.028.028 0-.056-.028-.056-.028-.028zm-.113-.31c0 .029.028.029 0 0zm-.169.029c-.028-.028 0-.028 0 0zm-2.249-.898c0 .252.59.168.366 0-.141 0-.254.056-.366 0zm.225.786c-.056-.085-.197-.197-.31-.113-.112.281.085.113.31.113zm-.45-1.123s.056-.056.028-.056c0 .028-.056.028-.028.056zm-.478.786c.281.168.225-.112.478-.14.03-.012.04-.02.037-.026.005-.003.014 0 .02-.003.112-.196-.029-.252-.226-.252-.059.02-.008.154.082.222-.045-.009-.09-.026-.11-.054 0-.112-.168-.252-.168-.168-.057.056.084.196-.141.084-.281-.225-.169.337.028.337zm.506.112c-.112 0-.028.112.028.14.028-.056 0-.084-.028-.14zm-.45.197c0 .056.085.056.14.056-.055-.028-.112-.028-.14-.056zm-.393-.478c.028.057.084.14.14.169 0-.112-.084-.14-.14-.169zm-.507.843c0 .028 0 .028.029.028.028-.028 0-.057-.029-.028zm-.28.308c0 .028.056.056.056.028s-.029-.056-.057-.028zm-1.716-.758c0 .028.028.028.028.057.028 0 .028-.085-.028-.057zm-.225-.168c.084 0 .169-.084.056-.056 0 .014-.017.014-.033.02.014-.031.016-.06-.023-.02 0 .028-.028.028 0 .056zm-.534-.253c.056.028-.056.113.056.197-.112.084.028.42.113.168.506-.168-.085-.42-.17-.365zm.028 1.01c.084.029.084-.111.028-.027-.028-.028-.112.028-.028.028zm-.028-.14c0 .057.028-.056 0-.028-.028.029-.056.057 0 .029zm.084-.112c-.028 0-.028 0-.028.028.028 0 .028 0 .028-.028zm0 .056c-.028 0 0 0 0 .028.028 0 0-.028 0-.028zm-.084.028c.028-.084 0-.084-.056-.028-.085.085 0 .057.056.028zm-.113.029c0 .028-.028 0-.028.028.028 0 .085 0 .028-.028zm-.534-.702c.478.28.787-.028.281-.28.028.055.028.14-.028.14.056-.337-.281 0-.253.14zm.197.561c-.028 0 0 .028 0 0zm-.084.926v.029c.028.028.056-.029 0-.029zm0 .113c.028 0 .028.028 0 0zm0-.225c-.057 0 .028.028.028.028.028-.028 0-.084-.028-.028zm-.057.14c0 .029.028.029 0 0zm-.056-.87v.057c.056 0 .056-.085 0-.057zm.028.786c-.056.028 0 .028 0 0zm-.005.113c.002-.003.025-.009.005-.028-.025 0-.05.025-.005.028zm.033-1.797c.17-.056-.225-.393-.253-.224-.197.224.028.505.253.224zm-.14.14c-.028.029-.085 0-.113.029-.084.028.225.056.057.112.056.056.196-.14.056-.14zm0 1.797c.028 0 .056 0 .056-.028-.028 0-.056 0-.056.028zm-.056 0c.028 0 .028 0 .028-.028-.028 0-.028.028-.028.028zm-.17-.309c0 .084.057-.112-.027-.056.028.028-.057.056.028.056zm.085.73c0-.056-.084-.196-.084-.056-.056.028.056.084.084.056zm-.112-.898s.056 0 .056-.028c-.028 0-.056-.028-.056.028zm-.057.028s.029.028.057 0c-.028 0-.057-.056-.057 0zm.085.954c.056-.056-.085-.056-.056 0-.085.084.028.028.056 0zm-.169-2.554c.028.028.113-.056.056-.056 0 0-.056 0-.056.056zm.028 1.965c0 .028 0 .028.028.028.028-.028 0-.056-.028-.028zm-.112.449s.056.028.056 0c-.028 0-.056-.028-.056 0zM7.17 7.97c.029-.028.085-.084.029-.056-.029.028-.029.028-.029.056zm-.028.14c.057.028.028 0 .028-.056-.028-.028-.056.028-.028.056zm-.337.028c.112.028.084-.196-.028-.112-.028.056 0 .14.028.112zm0 .927v.028c.028-.028.028-.057 0-.028zm-.928-1.6-.337.449c.028.028.14.056.056.056-.085.084.084.028-.028.112.112.028 0 .028-.057.169-.084.084.17-.057.113 0-.197.056.028.14.084.056.169.112.056-.365.281-.45-.112-.168.703-.56.31-.673-.169.028-.225.337-.422.28zm.281 1.656c.169.028-.028-.169-.112-.169-.057.14.084.084.112.169zm-.03.07c-.01-.009-.018-.014-.026-.014.011 0 .02.008.025.014.017.014.031.034.031.014-.014 0-.022-.009-.03-.014zm-.054-.014c.028-.028.028 0 0 0zm-.056.196c0-.028.028 0 .056-.028-.028-.028-.085 0-.056.028zm-.113-.42c-.31-.253-.14-.702-.365-.59-.17.056-.085.196-.085.224.056.028-.225.169 0 .253.085-.112.169 0 .14.112.226 0 .17.056.31 0zm-.056.392s.028.028.028 0h-.028zm-.056.113c-.029 0-.029 0-.029.028.029 0 .057-.028.029-.028zm-.057.028c.028 0 .028.028 0 0zm-.168-.534c0-.056-.057-.14-.085-.056.028 0 .057.028.085.056zm-.085.562c0-.028.028 0 .028-.028 0 0-.056 0-.028.028zm-.28-2.583c.027 0 .055-.056 0-.056 0 0-.029.056 0 .056zm.027-.14c0 .056.028.028 0 0zm.14 2.667c.029-.085.029-.14-.112-.113-.056.113.028.225.113.113zm-.112-2.64c0 .029-.028.029 0 .029s.028-.028 0-.028zm.028 0c0-.027 0-.055-.028-.027 0 0 0 .028.028.028zm.17-.083c.027.112.027.168.084.056.056-.056-.029-.056-.085-.056zm.084.168c0 .028.028.028.028 0H5.54zm-.085-.196c-.028 0-.028.028 0 0 0-.028.028-.028 0 0zm0-.14s0 .055-.028.055c.028.029.056-.028.028-.056zm-.056.224a.04.04 0 0 0-.031.014c.003-.006.003-.006.003-.014-.028 0-.028 0-.028.028.01 0 .014 0 .02-.003-.015.028-.012.067.008.087.084 0 .084-.112.028-.112zM5.37 6.68c-.028 0-.028.028-.056.028 0 .056.14 0 .056-.028zm-.056.168c0 .056.056 0 0 0zm0-.056c0 .028-.029.028 0 .028 0 0 .028-.028 0-.028zm.59 2.554c0 .028.028.028 0 0zm-.281-2.442c.056-.056-.028-.084-.056-.028.028 0 .028.028.056.028zm.112.73c-.028 0-.028 0-.056.028 0 .028.056 0 .056-.028zm.141-1.039c0-.112.084-.14-.028-.196-.056.084-.085.224.028.196zm-.14-.252c.084-.028 0-.028-.029 0-.028 0 0 .028.028 0zm-.057.365c0-.034.017-.085.023-.127l.005-.014c.014 0 .006-.005-.005-.014 0-.02-.006-.033-.023-.042-.056.056-.253.253 0 .197zm-.169-.225c.029 0 .029-.028 0-.028 0 .028-.028.028 0 .028zm-.056-.056c.028-.028.056-.112 0-.056-.028 0-.028.056 0 .056zm-.056.056c-.056.084.169-.028 0 0zm-.028.028c-.028.056.056 0 0 0zm-.04.149c0 .003.003.003.006.003.037.008.073.017.093.017.014-.023-.006-.04-.034-.054.011-.008.017-.02.025-.028.003 0 .006-.005.009-.011.008-.014.014-.025.014-.034.025 0 .053-.025-.011-.042-.012.014-.012.023-.012.031-.025.008-.036.014-.042.022-.025-.005-.05-.008-.062.003.02-.008.04-.003.057.009-.003.011 0 .025-.009.039a.347.347 0 0 0-.107-.02c-.053.017.003.045.073.065zm-.045.048c.057 0 .029-.028-.028-.028-.084 0-.028.056.028.028zm-.112.14c0-.028.028-.056 0 0zm-.112.168c-.085.029 0 .057.056.029-.028-.029-.085-.113-.056-.029zm-.057-.308v-.056c0 .028-.028.028 0 .056zm-.084.168c-.056.056-.169.028-.056.084-.14.113 0 .085.028.113.084-.057 0-.14.112-.14-.056-.085.169-.113 0-.17.031-.078.012-.036-.003-.002-.078-.048 0 .087-.081.115zm.056.084c0 .028 0 .056.028.056 0-.028.057-.056-.028-.056zm-.197 0c-.112-.168.282-.056.028-.14-.224.112-.084.196-.028.14zm-.843.506c0 .028.112-.113.056-.057l-.056.057zm-.197.393c-.008.005-.011.008-.017.01-.03.02-.025.012 0 0a.106.106 0 0 1 .045-.01c.056 0-.028-.029-.028 0zm-.056-.337c.028-.028.028 0 0 0zm-.338-.028c.028-.028.028 0 0 0-.056-.028 0-.028 0 0zm-.112.112c-.028.084.028.028 0 0-.028.028 0 .028 0 0zm.14.084c-.225.225.141.225.282-.056.028-.14-.197-.14-.197-.028v-.084c-.056-.028 0 .224-.056.056-.057.112-.057-.084-.113-.028 0 .112-.225.309.084.14zm.225.253c.028-.056.028 0 0 0 .028.056.057.028 0 0zm-.225.42c.141-.168.057-.14.029-.28a.197.197 0 0 0-.029.023c.02-.045.031-.11-.028-.051-.056-.028-.056.14 0 .084-.07.104-.09.28 0 .169.085-.085-.056.14.028.056zm-.073 1.065c.042-.009.04-.05-.011-.026 0 .017.008.023.011.026-.005 0-.005.002-.011.002.011 0 .014 0 .011-.002zm-.067.03c.028-.028.084-.084 0-.056 0 .028-.085.028 0 .057zm0 .029c-.028 0 0 .028 0 0zm.028-.028c0 .056.056 0 0 0zm0-1.544c0 .028 0 .056.028.028s0-.028-.028-.028zm.169 1.403c.056.028.056.028.056-.028-.028 0-.056 0-.056.028zm-.619-1.32c0 .113.084-.027.056.029 0 .14-.028.112.028.225.057.112.113-.169.113-.169 0 .112.028.112.056 0 .028.084 0 .056-.084.14-.028.057-.14.113-.085.14.029 0 .197-.111.141-.055-.112.056-.253.224-.056.224.028.365.14-.533.31-.505-.057-.084-.17-.337-.198-.253-.084.085.028.281-.084.225 0-.028.056-.197-.028-.14-.085-.029-.113.056-.169.14zm.281 1.545c0 .028-.028.056.028.056 0-.028 0-.056-.028-.056zm-.056 0c-.028 0 0 .056.028.056 0-.028-.028-.028-.028-.056zm-.056.056c-.028 0-.028.028 0 .028.056 0 .028-.056 0-.028zm0 .056-.056.056c0 .028.084-.028.056-.056zm-.113.056c-.028.056-.056.084-.028.112.028-.028.113-.084.028-.112zm-.084-1.516c-.028.057.028.057.028.113.028-.056-.056-.253-.028-.113zm-.028 1.657s.056-.057.028-.085c0 .028-.056.056-.028.085zm-.085.056c.017.02.034.014.043.005-.037.11.12-.011.07-.061.028-.029.028 0 0 0-.028.112-.028 0-.056.028-.003.005-.003.005-.003.01-.003-.013-.017-.019-.054.018zm-.056.14s.028-.028.028-.056c-.028.028-.028.056-.028.056zm-.056.056c0-.028.028-.056 0-.028v.028zm-.056.365s.028-.028 0-.056v.056zm-.057.168c0 .028.029 0 0 0zm-.056.057c.028 0 .028 0 .028-.029 0 0-.028 0-.028.029zm-.168.252c0-.028.028 0 0 0zm-.029-.028c0 .028.029 0 0 0 .029-.028.029 0 0 0zm-.025.11c.006-.006.014-.014 0 0zm-.171.17c.028-.027.028 0 0 0zm-.703-.111c.225 0 .421-.365.562-.421-.028-.113.056-.169.056-.225-.084.028 0-.168-.028-.197-.112.14-.028 0-.112 0 0 .169-.197.057-.169.197 0 .112-.028-.056-.028-.084-.085 0-.056.224-.113.084.028-.112-.168.421-.112.112.084-.112 0-.224-.028-.112.028.056-.085.084-.085.196-.056.057.057-.028.085-.028-.085.14.028.056-.056.113-.254.056.112.168-.113.252-.056.197.113-.028.14.113zm.309 1.684c.028-.14-.084-.056-.14-.197.112 0-.141-.365-.141-.309.225-.364-.056-.084.028-.364-.14-.028-.113.308-.169.168-.056.112.085.028 0 .14.085-.056-.028.225 0 .169.028-.084.028-.056.056-.113 0 .14-.084.281.057.169 0 .028-.057.14.028.112-.085.169-.085.225-.169.365.028.028.113.056.169 0-.056.084-.14.112-.197.225-.113.112.281-.113.422-.14.084-.085-.057-.085.056-.225zm-.197.28c0 .029.028.029 0 0zm-.253-1.01c0 .028.028 0 0 0zm.028-.028c.028-.028.028-.112 0-.028-.028-.028-.028.056 0 .028zm-.028.225c-.028.084.084-.029 0 0zm.028.084s.028-.028 0-.028c0 0-.028.028 0 .028zm-.028 0c0 .028 0 .028.028.028-.028-.028 0-.028-.028-.028zm.084.196c0 .028-.028.056-.028.056.028 0 .028-.028.028-.056zm0 .169c-.028 0 0 .028 0 0zm-.028-.337c-.028 0 0 .028 0 .056v-.056zm.14-.505c0-.029.029-.029 0 0zm-.224.224c0 .028.028.028 0 0zm0 .084v-.028s-.028.028 0 .028zm-.281.786c0 .084.084-.056.197-.056.056-.196.196-.477.028-.449-.028.028-.113.168-.169.197 0 .027 0 .084.028.112-.084.084 0 .056-.028.084-.056.028-.084.112-.056.112zm1.18 6.54v.029s.029-.028 0-.028zm.198-.336c.028-.028-.029-.113-.029-.028-.028 0 0 .028.029.028zm4.11 2.498c.04-.278.026-.516-.061-.561-.057.196-.141.252-.225.393-.085 0-.253 0-.338.224.169.337-.28.702.113.954.253-.05.444-.567.509-.996.005-.011.014-.014.002-.014zm-.174-.421c0-.028.028-.028 0 0zm.928-.982-.028-.029c-.028.029 0 .056.028.029zm2.812-1.657c-.028.113-.084.253.028.45.337-.029.113-.45-.028-.45zm.056-.056h-.028c0 .028.056.028.028 0zm.056.028c0-.028-.028-.028-.028 0 .028.028.085.028.028 0zm.844-1.572v.028s.028-.028 0-.028zm.281-.112c0 .028 0 .056.028.028.028 0 0-.056-.028-.028zm-9.448-1.965v.056c.028 0 .028-.056 0-.056zm.14-.084c-.027 0-.055 0-.055.028.028.028.028 0 .056-.028zm.057-.028c-.056 0 0 .028 0 0zm.366-.225c.112.085.084-.337.056-.168-.084 0-.028.112-.056.168zm.14-.196c.028-.028 0 0-.028 0h.028zm.422.814c0-.056.084-.253 0-.197-.31 0-.225.085 0 .197zm-.056.112c0 .028.028.056.028 0-.028 0-.028-.028-.028 0zm.197-.954h.028c.028-.028 0-.028-.028 0zm.028-.056h-.028c-.028 0 .028.028.028 0zm.253.477c0 .056.084.084 0 0zm.084.168c.028-.028.028 0 0 0zm0 .028c-.028.056-.028.028 0 .056-.028.028.028.057.028.028 0-.028 0-.028-.028-.028.056.028.028-.056 0-.056zm.366-.337c.028 0 .028.029 0 0zm.003-.002c.005-.006.014-.014 0 0zm-.003.255c.028 0 .028.028.028.028 0-.028 0-.028-.028-.028zm.112-.168H3.74c0 .056.028.028.056 0zm-.028.393c.028 0 .028.028 0 0zm-.112.196c-.17.084.337.112.168.028-.056-.028-.112.028-.168-.028zm.143-.171c.006-.006.014-.014 0 0zm.138-.082c0-.028-.056-.028-.056 0 .028 0 .028.029.056 0zm-.028.113c-.028 0-.028.028 0 0zm-.028-.337c-.057 0-.057.084 0 0-.057.112.056 0 0 0zm-.057.112c0 .112.085-.056 0 0zm-.112.225c-.028 0-.028.028 0 0zm.028-.113c0-.028-.028-.028-.028-.028l.028.028zm-.197-.14c.084 0 .113.112.169.14-.028-.056-.085-.224-.169-.14zm0 .28c0 .029 0 .057.028.057 0-.028 0-.028-.028-.056zm.534 0c-.028 0-.028.029-.056.029 0 .084.056 0 .056-.028zm-1.237-1.01c-.028-.028-.028 0 0 0zm-.084-.084c-.028-.084.028-.028 0 0 0 0 0 .028.028.028l-.028-.028zm-.574-2.027c.054-.061.208-.154.068-.106-.028.084-.169.084-.085.14 0-.005.003-.014.012-.022.008.003.01-.006.005-.012zm.124.259v.056c0-.028.028-.056 0-.056zm.028.056c.028.028.084 0 .084-.028-.056.028-.084-.028-.084.028zm0-.421c0 .028.028 0 0 0zm.028.337c.056.084.113-.113.056-.113-.028.085-.084 0-.056.113zm.563-.337c-.029.112.112-.169 0-.113-.029.057-.029.085 0 .113zm.084-.14c-.028.027.028 0 0 0zm.056-.366c0-.028.028-.084-.028-.084 0 .056-.028.056.028.084zm.253.169c-.056-.028-.056 0-.084.028.028-.028.056.028.084-.028zm-.112.084v.112c.056-.084.168-.168 0-.112zm4.92-3.228v.056c0 .084.029 0 0-.056zm-.084-.87s0-.028-.028-.028c0 0 0 .028.028.028zm4.78-.73s-.028.028-.056.028c0 .056.112 0 .056-.028zm5.511 14.232c0-.14-.337-.253-.365-.59-.197-.168-.984-.674-1.21-.477-.45.365-.168-.197-.562-.225-.28.113 0 .253.197.225-.084.14-.281-.056-.14.168.036.124.095.009.118-.053.225.194.613.253.613.53-.057.057.393.337.506.169a.277.277 0 0 1-.104-.059c.52-.216.222.087.947.312zm-.79-.306c-.014.014-.005.005 0 0zm-.306.278c0 .028.028.028 0 0zm-.29-.318c.028-.028.037-.061-.02-.075-.056 0-.084.084-.112.112.037.011.081-.003.115-.025 0 .005-.003.014-.003.025h.029c0-.02-.006-.031-.009-.037zm-.104 1.132c.028.028.028-.028.056-.028 0-.029-.084-.029-.056.028zm-.281-.702c0-.028.028-.028 0-.056.028.028-.028.028 0 .056zm-.113-.702s-.028 0-.028.028c.029.056.057 0 .029-.028zm0 .056c-.028.028 0 .028 0 0zm-.056.028c-.056.028.028.056.028 0-.028-.028-.056-.056-.028 0zm.028-.028c0-.028 0-.028-.028-.028l.028.028zm0-.056c.057 0 .057-.028 0-.056-.028.028 0 .028 0 .056zm-.168 0c.028 0 .028-.056.028-.056-.028 0-.028.028-.028.056zm-.394.73c-.113-.084 0 .084.112 0 .029-.084-.196-.056-.112 0zm0-.477c.028-.028 0-.028-.028-.028 0 .028.028.028.028.028zm.14-.505c.029-.085-.14-.14-.196-.113-.338.028.056.056.197.113zm-.28-.029c-.057 0-.057 0-.057.029 0 .027.056 0 .056-.029zm-.17.506c0-.028.029-.028 0 0zm-.084-.562c-.112 0 0 .113.085.085.084-.029-.028-.113-.085-.085zm-.393 1.516c-.028.028 0 .028 0 0zm0 .084v-.028c-.028 0-.028.028 0 .028zm.337-.898c.169-.084-.337 0-.084-.028-.534.168-.253.253.084.028zm-.45.197c0 .028-.028.028-.056.056.028.028.112-.028.056-.056zm.028-.029c-.028 0-.028.029 0 0zm0-.252c-.056.14-.28-.084-.365.056.056.084.534.028.365-.056zm-.197.309c0 .028.029 0 0 0zm-.59-.281c0 .028-.028.028-.028.028.056.084.14-.084.028-.028zm.028-.534s.028-.084 0-.084c0 .028-.028.056 0 .084zm.028-.027s.028-.029 0-.029c0 0-.028.029 0 .029zm-.056-.029c.113-.168.113-.533.31-.533.084-.056-.141-.224-.141-.365.337-.337.225-.056-.056-.42-.226.308-.647.56-.957.785.057.042.076.126.099.21-.014-.01-.023-.013-.042-.013 0 .025.022.028.045.028h-.017c0 .036.014.044.028.036.03.11.076.202.225.188.056.056.056.084.225.028.084.028.14.169.281.056zm-.14.562c-.141-.028.027.112.084.028.028 0-.056-.056-.085-.028zm.056-.169h-.028c0 .029.028.029.028 0zm-.31.029c.029.027.113.027.14 0-.027 0-.14-.057-.14 0zm-.365-.787c0-.028-.028-.028-.028-.028-.028.029 0 .029.028.029zm-.085.14c-.028 0 .029.029 0 0zm.057-2.582c.084.113.309-.224.14-.224-.14-.056-.309.168-.14.224zm.168-.337s-.056-.027-.056 0h.056zm.732-.336c0-.028-.029-.028-.029 0h.028zm0 2.02c-.029 0 0 .057 0 .057 0-.028.028-.056 0-.056zm.028.085c0 .028.028.028 0 0zm.056-.14c.168-.028.337-.421.225-.31 0 .085-.169.197-.225.31zm.14-2.302c.028 0 .028.028 0 0zm.225.533c-.028-.14.197-.42 0-.505-.14.14-.168.421 0 .505zm.028-1.179c-.028-.028-.056-.028-.056-.028 0 .028.028.028.056.028zm.141 2.106v.056c.028-.028.028-.113 0-.056zm-.056-.45c-.394-.112-.113.646-.085.59.17.028.282 0 .394.14.085.028-.056-.196-.084-.168-.085-.112-.197.084-.225-.14.028-.085.112-.422 0-.422zm.225-2.386c0 .057.028 0 0 0zm.028 1.572c.028-.028.028 0 0 0zm.169 1.572c-.113-.028.056.169.084.169.056.028 0-.225-.084-.169zm.14-3.087c0-.029.028-.029 0 0 .028-.029.028 0 0 0zm0 .196c0 .028.028.056.028.028s0-.028-.028-.028zm.028 3.256c0-.056.028-.028 0 0zm0-3.565v.056s.028-.056 0-.056zm-.056 3.481v.084c-.028.197-.14.169-.281.169-.085.028-.197.308-.056.084.337 0 .028.112.309.253.169.056 0-.113.084-.197.113.309.113-.28-.056-.309.056 0 .028-.084 0-.084zm.113-2.218c0-.056.028-.056 0 0-.057.057-.029.057 0 0zm0 3.032c.028 0 .028-.056 0-.056-.029.028-.029.056 0 .056zm-.085.73c-.028 0-.112 0-.084.028.028 0 .056 0 .084-.028zm-.056.056.028.028c0-.028 0-.028-.028-.028zm0-.674c0-.028 0-.056-.028-.056 0 0 0 .028.028.056zm-.113.197c-.084.224-.421-.056-.506.112-.253.169-.14.477-.14.758.225.14.056-.505.225-.28-.056.055.112.28.112.196.31-.113-.056-.028.056-.197-.151-.134-.07-.162.023-.213-.003.014.042.036.062.017.056-.028 0-.028-.028-.028-.014 0-.017.003-.023.005a.274.274 0 0 0 .107-.09c-.169.029-.59.169-.366-.14.085.056.703.028.479-.14zm-.084 1.235c0 .028-.028 0-.028.028.028 0 .056 0 .028-.028zm-.056 0c-.028 0-.028.028-.056.028.056.028.084-.056.056-.028zm-.14-.45c-.029.029-.029.057-.057.057.056.056.113-.056.056-.056zm-.085.057v.028c.028.056.056-.028 0-.028zm-.169.084v.056c0-.028.028-.056 0-.056zm-.056-2.274c0 .028.056.057.056.028 0-.028-.028-.056-.056-.028zm.056-.196s0-.028-.028-.028c0 .028.028.028.028.028zm-.028.421h.028c0-.028-.028-.028-.028 0zm0-.14c.028-.028.028-.028 0-.028s-.028 0 0 .028zm-.056.814c.028 0 .056 0 .056-.028-.028 0-.028.028-.056.028zm.197-.899c.14-.028 0-.224-.085-.168.057.028.057.112.085.168zm-.056.814h.056c0-.028-.056-.028-.056 0zm.224-.842c.028-.028.028 0 0 0zm-.056.085c.085.056-.056.252.14.084.085-.056-.112-.113-.14-.084zm.197-.113c0 .028.028.028 0 0zm-.056 0c.028.056-.028.084.028.056.14.113.084-.028-.028-.056zm.112.365c0 .056.056.028.085.028.028-.112-.057-.084-.085-.028zm.113-.056c.14 0-.085-.253-.056-.084.056-.028.028.084.056.084zm-.113.112.028.028c0-.028 0-.028-.028-.028zm-.028-.14c0 .056-.028.084-.028.14.056-.056.112-.337.028-.14zm-.09.152c-.003.008.006.01.014.008.009.003.011.006.02.008 0-.056.056-.224-.028-.224-.05.1-.101.157-.006.208zm-.05-.152c.028 0 .028 0 .028-.028-.028 0-.057 0-.028.028zm.084-.309c0-.028 0-.056-.028-.056-.028.056 0 .056.028.056zm-.14.028s-.029.028-.029.056c.028.057.028-.028.028-.056zm-.029-.084c0-.028 0-.056-.028-.056 0 .028 0 .056.028.056zm0 .842h-.028c-.056 0 .028.056.028 0zm.366 1.067c-.028 0-.113-.028-.113.028.028 0 .113 0 .113-.028zm-.113.814c.023 0 .04-.006.048-.017-.017.006-.048-.006-.048.017zm.028-2.47c.028 0 .057-.028.028-.028 0 0-.028 0-.028.028zm0-1.825c-.028.028.028.028 0 0zm-.028 1.488c-.028.056.028.056.028 0 0-.028-.028-.056-.028 0zm0-2.835c-.028 0-.084 0-.084.028.028.028.084 0 .084-.028zm-.562.337c0-.028-.028-.028-.056-.028 0 .028.056.028.056.028zm-.056 5.361v-.028c0-.028-.028.028 0 .028zm-.197.028c.11.014.152-.02.146-.05.02.014.02 0 0-.003-.008-.031-.065-.06-.146-.031.197.028-.338.084 0 .084zm.056.056c.056.028.169.113.225.084-.028-.084-.169-.14-.225-.084zm.619-.505c-.028-.028 0-.197-.028-.056-.029.084-.057.112.028.056zm.365.28c-.056-.027-.112.057-.028.029.056.028.113-.056.028-.028zm.113-.841c.028-.029.028 0 0 0zm0-.057c.028 0 .028.029 0 0zm.084-4.519c0-.28.056.393.084.197 0-.085.057.028.028.084.085 0-.028-.112.057-.084 0-.225.028-.31-.113-.393.186-.062.31-.183.43-.121-.002.017.003.036.02.036v-.025a.395.395 0 0 1 .113.138c.168-.14-.029-.281.168-.225.085.112.31-.337.282-.056.126-.126.047-1.008-.116-1.072.009-.017 0-.02-.053.005.02-.014.036-.01.053-.005-.008.017-.04.047-.053.062-.028-.057-.056-.085-.056 0-.029.14.112.336-.029.589-.168.28-.225-.168-.253.309-.225.056-.59.224-.618.533-.028-.028 0 .028.056.028zm.731-3.284c-.365-.393-.478-.982-.703-1.095 0 .113.14.562.338.87.14.393.112.84.362.649.031.05.043.064.003-.003 0 .003-.003.003-.003.003-.1-.169-.427-.747.003-.424zm.366.926c.028-.196-.057.056-.17-.028-.14-.028-.224-.28-.337-.196.226.393-.168.42.057.73.253-.169-.197-.14.112-.253.225.14.169.084.281-.084.17-.028.17-.085.057-.169zm.112-.112c-.084-.028-.056.056-.084.112.028.056.056-.084.084-.112zm-.45 1.572c.056-.028-.028-.14 0-.028.028 0 0 0 0 .028zm-.112-.814c0 .056.028 0 .028-.028l-.028.028zm-.422 1.15c.028-.027.028 0 0 0zm.703 5.222c.028.028.112.056.14 0-.028.028-.084.028-.14 0zm.056-.056c.113.028 0-.085-.056-.056.028.028.056 0 .056.056zm-.14 0c0-.028.028-.028 0 0zm-.478.028c.028 0 .028 0 .028-.056 0 0-.028.028-.028.056zm0-.169c.084.084.112 0 0 0-.085.056.056.084 0 0zm.028-4.746c.003-.026.025-.026 0 0-.009.002-.017.002-.028.002-.085.057-.225.085-.057.225-.028-.081.335-.239.085-.227zm-.14 4.999c0 .028.055.028.055 0 0-.056-.056-.028-.056 0zm-.085-4.407v-.056c-.028.028-.028.056 0 .056zm-.057.028c0 .028 0 .028.029.028 0-.028-.029-.056-.029-.028zm0 4.098c-.084-.056.085-.252-.112-.084 0-.028.084-.225-.028-.112-.028.112-.028.28.084.337-.056-.085-.112-.197.056-.14zm-.14-3.705c0 .028 0 .028.028.028l-.028-.028zm0-.73v.056c.028-.028 0-.056 0-.056zm.056.702c0-.028.056-.084 0-.056-.028 0-.056.056 0 .056zm.084 3.509c0-.056-.028-.028-.056-.028 0 .028.028.028.056.028zm-.112.365c0-.029-.028-.029-.028-.057-.056 0 0 .057.028.057zm.056.112c-.028-.056-.084-.056-.084-.028s.056.028.084.028zm-.084.786c0 .028.056.028.056 0h-.056zm.394 0c.028 0 .028 0 .028-.028.028.056.112-.084.056-.084-.028.028-.056.056-.056.084 0 .028-.028.028-.028.028zm.9-7.832c.027 0 .027 0 .027-.028-.028 0-.028 0-.028.028zm.027-.168c0-.028.225-.28.085-.169-.056-.028-.14.225-.085.169zm.253-.365c-.028.028-.028.056-.056.084-.056.14.14-.084.056-.084zm.141-.197v.056s.028-.056 0-.056zm.14-.73c-.055.029-.055.113 0 .113.057-.056.029-.253 0-.112zm.057-.056c.028 0-.028-.056-.028-.028s0 .028.028.028zm-.084.31v-.057c-.029.028-.029.056 0 .056zm-.029.027c.029 0 .029.028 0 0 0 .028.029.028 0 0zm0 .085v.028c.029 0 0-.028 0-.028zm-.028-.422h.029c.028-.028-.029-.028-.029 0zm.31 6.653c.028 0 .028-.028.028-.056-.028 0-.056.028-.028.056zm.112-.28c.028-.029.028 0 0 0zm.031 2.551c.006-.006.014-.014 0 0zm.166-.362h-.056c-.085 0 .056.056.056 0zm.084.477c0-.028-.028-.056-.028-.028l.028.028zm.169-10.133c0-.056-.112-.085-.112-.14-.141 0 .056.14.112.14zm0 10.61c.028-.028 0-.056-.028-.028 0 .028.028.028.028.028zm.056 0c.028 0 0-.028-.028-.028 0 .028 0 .028.028.028zm.056.028c-.028.028-.028 0-.056 0 .028.028.056.056.056 0zm.226-.701c-.141.14-.197.196-.422.168-.113.197.618.056.422-.169zm-.282-.337c0-.028-.028-.028-.028-.028 0 .028.028.028.028.028zm.028.449c.029 0 .029-.028 0-.028-.028 0 0 .028 0 .028zm0-.309c0 .028 0 .028.029.028.028-.028 0-.028-.029-.028zm.141-9.74c-.056 0-.084-.056-.14-.056.027.028.084.084.14.056zm-1.012-.814c-.028.056.14-.197.028-.197-.113.084 0 .084-.028.197zM15.1 11.058c0-.027.028-.027.028-.056-.028-.028-.056.028-.028.056zm.028-.196c-.028.028-.056-.084-.085 0-.056.056.113.084.085 0zm0 .112s.028-.028 0-.028v.028zm-.169-.112c0 .056.028 0 .056.028-.028-.056-.028-.056-.056-.028zM13.3 19.283c.028-.028-.028-.084-.056-.028.028 0 .028.028.056.028zm-.084.786c0 .056-.028.028 0 .084.084 0 .112-.056 0-.084zm-.14.056c.084.084-.029-.168-.085-.168-.056.056-.028.084.084.168zm-.113-.758c.056 0 .056.028 0 0zm-.14-.87c.027-.028 0-.056-.029-.056 0 .028 0 .056.028.056zm-.029 1.123s-.028 0-.028.028c.028 0 .056-.028.028-.028zm.056.028c.028.028.028-.056 0-.056-.056.028-.028.028 0 .056zm0 .168c-.028 0 0 .057 0 0zm.028-.028c.085.056-.028-.056-.028 0h.028zm-.28-1.544c-.029 0-.029.029 0 0zm-.254.337v-.028c-.028 0 0 .028 0 .028zm-.056.477c0 .029 0 .029.028.029 0-.029 0-.029-.028-.029zm-.225-.308c0 .028.028.056 0 0zm-.59-.702c-.029.028-.029.112-.029.14.057 0 .028-.112.028-.14zm-.029.337c-.028 0-.028.028-.028.056.028.028.028-.056.028-.056zm0-.14v.112c0-.028.028-.169 0-.113zm.057.505c.028 0 .028-.028 0-.028v.028zm.028.084c-.028 0 0-.028 0 0zm.028.084c0-.028 0-.112-.028-.056 0 .028.028.028.028.056zm.281.505c-.028-.028-.056-.056-.056 0h.056zm.113.169.084.084c.028-.028-.028-.112-.085-.084zm.14.224c0 .029.028.057 0 0zm.028.113c.028 0 .028.056.085.056.028-.056-.057-.14-.085-.056zm.028-.169c.028-.028-.028-.028-.028 0h.028zm.113.281c-.028 0 0 .028 0 0zm.084.112s0-.056-.028-.028c0 .028.028.056.028.028zm.588.281c.222-.059.005-.421-.318-.76a.15.15 0 0 0 .037.002c.084.056-.057-.14-.057-.028 0 .011.006.014.012.017l-.028-.028c.036-.04.01-.042-.04-.042 0 0 .003 0 .003.003l-.05-.051c.01-.003.022-.014.022-.04h-.056l.002.01c-.258-.24-.548-.436-.733-.459.393.365.787 1.432 1.206 1.376zm1.043.421c-.084-.337-.675-.309-.984-.337-.113.253.703.197.984.337zm-.084 1.516v.028s.028-.028 0-.028zm-.338.645c-.028.029 0 .057 0 .057v-.057zm2.728 1.6c-.056.029-.056-.028-.085-.028-.225.028 0 .085.085.028zm.534.73c0-.028-.056-.084-.028 0-.056.056.028.084.028 0zm.253.281c-.225-.084-.281-.168-.253.14-.059.25.042.298.157.247 0 .003.003.006.012.006-.003-.006-.003-.008-.003-.011a.433.433 0 0 0 .228-.326c.112-.14-.085-.112-.14-.056zm-.225-.14s.028-.028 0-.028v.028c.028.028 0 .028 0 0 .028.028.028 0 0 0zm.366 0h.056c.028-.028-.056-.028-.056 0zm.028-.085c-.028 0-.028.028 0 .056.056 0 .056-.056 0-.056zm1.102-2.296c.02-.039.062-.078.023-.118.016.031-.012.065-.029.096-.05-.149-.123-.278-.168-.433-.085.085-.197-.336-.31-.392-.225-.085-.196-.422-.196-.646-.338-.084-.225-.309-.366-.505-.225.196 0 .87-.394.898-.365-.28-.618-.365-.253-.73-.135 0-.326.025-.542-.129.002-.006.008-.011.008-.011-.008 0-.011.005-.014.008l-.014-.008c-.14 0 .14.056 0 .14-.14-.028-.225.028-.281.112-.225.253.112.225-.253.225-.057.112.028-.28-.31-.056-.112 0-.084.337-.28.224 0 .028.083.113.027.113 0 .196-.084-.197-.112-.028a.75.75 0 0 1-.76.477c-.112.028-.365.308-.309.14-.196.14 0 .87-.14.505-.028.113.084.197-.056.113.14.252.28.87.056 1.01-.028.814 2.334-1.038 2.362.309.253-.169.534-.45.14.084.253-.14.225-.14.169.056.253-.028-.084.393.45.59.365-.337.169.28.506-.084.337.028.366-.337.562-.618.225-.28.394-.533.535-.926a1.038 1.038 0 0 0-.051-.416zM16.59 21.53c-.028-.028 0-.056-.056-.028-.028.056.084.056.056.028zm0 .196c-.028.028 0 .028 0 0zm-.084-.224c0-.028.028-.028 0 0zm1.94-.674c0-.028 0-.028-.028-.028l.028.028zm.112.056s-.028 0-.028-.028c-.028.028.028.028.028.028zm.029.28c0 .029.028.029.028.029.056 0 0-.028-.028-.028zm.056-.841c.168.056-.14-.281-.225-.225.084.084.253.084.225.225zm.056.814c0 .028-.028.028-.028.028.028 0 .028 0 .028-.028zm.056-10.527c0 .056-.084.085-.112.113.084.028.28-.169.112-.113zm.197-.056c.028 0-.084.084-.14.084.14.113.337-.196.14-.084zm-.056 9.853s0-.056-.028-.028c0 0 0 .028.028.028zm.14.168c0-.056-.112-.14-.14-.14 0 .084.056.224.14.14zm-.028 6.26c.028.056-.084.112-.028.084.084 0 .14-.084.028-.084zm1.125-.982c-.113.14-.084-.169-.197-.057-.197.478-.787.534-.928.87.085.422.45-.027.675-.252.197-.056.169-.169.45-.393-.056-.084.056-.112 0-.168zm-.394-3.425c.085.14.14.224.281.28-.028-.084-.28-.42-.28-.28zm.281-.028c0 .028 0 .028-.028.028.057.028.085-.028.028-.028zm.113.112c-.084.028 0-.14 0 0zm-.028 3.312c0-.028.028-.028.028-.028-.028-.028-.028.028-.028.028zm.028-4.715c-.028-.028-.056-.028-.056 0 .028.028.028 0 .056 0zm.028.505c-.028.14-.028-.084-.056.028 0 .112.112.084.056-.028zm.056.954s-.028-.028-.056-.028c0 .056.028.056.056.028zm0-.701c.057.028 0-.113-.028-.085.028.028.028.056.028.085zm.563 3.424c.028-.112-.225.112-.282-.28.029.28-.112-.057-.028-.14.029-.141-.084-.113-.112-.226-.028.281.112.337.056.618.028.14-.197.197-.225.309.281.112-.056.28 0 .337.31-.085.422-.421.59-.618zm-.535-3.453c0 .029.057.029.057 0 0-.028-.028-.028-.057 0zm0-.14c.029.028.057 0 0 0zm.057.197c0-.028-.028-.028-.028 0h.028zm-.028.112c0 .028.028.056.028.028s0-.056-.028-.028zm.084.196c0-.028 0-.028-.028-.056 0 .028 0 .056.028.056zm.197-12.014s-.028 0-.028.028c.028 0 .056-.028.028-.028zm.028 14.821v-.028c-.028.028-.028.028 0 .028zM21.96 9.683c0 .028-.028 0-.028.028.028 0 .056-.028.028-.028zm.618.814v.056c.028 0 .028-.084 0-.056zm.197.702c-.225.196.056 0-.14-.028-.085.112.028.477.056.393-.028-.197 0-.169.084-.365zm-.112-.421c.056 0 .168-.197.028-.169.028.085-.028.085-.028.169zm.084 0c-.028 0-.028.028-.028.028.028 0 .056-.028.028-.028zm-.056.252c0 .029 0 .057.028.057 0 0-.028-.113-.028-.056zm-.028-.56c-.029.083-.057.14-.029.224 0 .084.085-.197.029-.225zm.112.28a.68.68 0 0 0 0 .337c.084-.056.056-.253 0-.337zm0-.169c.028.056-.028.169.056.14-.028-.056.085-.112-.056-.14zm.084.197s-.028 0-.028.028c.028 0 .028-.028.028-.028zm0 .028v.028c.029.028.029-.028 0-.028zm0 .196v.028c.057.029.029-.028 0-.028.029 0 .029-.028 0-.028-.028 0 0 0 0 .028zm0 .085c0-.028.029-.028 0 0zm0 .196h.057c.028-.028-.057-.056-.057 0zm.029-.112c.028-.028.028 0 0 0zm-.029.14c-.028.056.029.056.029.112.056 0-.029-.084-.029-.112zm4.809 14.12c-.017.02-.012.036 0 .053v.003h.003c.008.008.016.02.025.028.028-.028 0-.085-.028-.085zm.028-.45c-.028 0 0 .028 0 0zm.028.758c0-.028.028-.056 0-.056s-.028.028 0 .056zm-.056-.196c0 .056 0 .028.028.028.028-.056 0-.056-.028-.028zm0 .084c.028-.028.028 0 0 0zm.028.112c.028 0 .028.079.056.028.009.009.011.012 0 0-.014-.008-.04-.028-.056-.028zm.056 0c-.028-.028.056 0 0 0zm0 .084c.028 0-.056-.056-.028 0-.056.029.028.029.028 0zm-.028.057c.056-.028.056.056 0 0-.028.056 0 .028 0 0zm.14.168c-.056 0-.14-.056-.112 0 .028 0 .084.028.113 0-.057.028-.057.028 0 .056.028.028.084-.028 0-.056zm-.084-.084c.056.028.028-.028 0-.056.028.028.028.028 0 .056zm.028-.056c-.028-.028-.028-.056-.028-.056 0 .028 0 .056.028.056zm.225.112c-.028 0-.028.056 0 0 0-.084.028.028 0 0zm.169-.253c-.028 0-.028.028-.028.028s.028 0 .028-.028zm0-.028s-.028 0-.028.028c.028 0 .028-.028.028-.028zm2.533-4.971c.006-.006.014-.014 0 0zm1.01-4.46c0 8.758-7.086 15.831-15.859 15.831S.028 25.037.028 16.308C.028 7.578 7.142.476 15.888.476c8.744 0 15.858 7.074 15.858 15.832zM18.558 7.016c-.028-.112-.028-.084-.14-.112.056-.14-.056-.14-.085-.224-.168 0 .17-.113.029-.197.028-.14-.394-.309-.394-.084-.197-.084 0 .028 0 .14.225.056-.113.084-.197-.168-.169-.112-.056.028-.197-.056-.394.056-.73-.225-1.209-.085-.534.057-.253.085-.056.422-.14.112-.31-.113-.478-.197 0 .225-.281.112-.45.197l-.006.03c-.005-.002-.01-.002-.022-.002 0 0 .003.014.017.022-.04.177-.02.07-.045.174-.113-.224-.281 0-.31-.196-.253-.534-.815.168-.956-.085-.084-.084-.084.028-.168.057 0-.085-.028-.14-.056-.029-.029-.084-.029-.084-.141-.056 0-.112.14-.028.028-.14-.36-.219-.337.539-.39.13.07-.026.12-.06-.004-.018.003.009.003.011.003.017-.076.025-.174.042-.115-.045.281-.028-.506-.056-.478.197.197.056.028.028.197.168.14.14-.338 0-.057.168 0 .085-.337-.14-.365.085-.366-.028-.197-.084-.169.28-.281-.056-.337-.168-.534-.28.337.028-.084-.169-.056-.281-.956-.14-.169.197-.731.28-.282 0-.225-.196-.563-.055-.056 0 .028.196-.056 0-.169-.14.028.028-.113.028-.112.028-.196-.169-.252.028.28-.028-.17.28-.197.393 0-.225.163-.466.233-.674 0 .022.006.042.02.028.196.112.14-.224 0-.084-.003 0-.003.005-.009.003.034-.135.017-.256-.135-.343.45.084-.562-.477-.534 0-.197.112 0-.084-.112-.196-.141.056-.141 0-.197.056-.085-.028.168-.14-.197-.112-.281.393.337.505-.056.477-.225.056.225.056.028.196.028-.224-.14 0-.169-.028-.084.112-.169-.056-.337.084-.028.14.084-.028.084.057-.14.056-.225.168-.31.196-.14.225-.056.084-.112.28-.14-.112-.028.057.085.057-.197.028.028.084.112.112-.028.084-.028.253-.112.14.14-.252-.253.057-.394.085-.113.028.084.168.084.28.45-.056.31.674.675.562.24.081-.264.11-.306-.14.025 0 .025-.026 0-.026v-.028c-.09.166-.062.05-.065-.064l.008.008V8.42c-.005 0-.005.003-.008.003-.006-.093-.042-.174-.188-.087-.253-.169-.394-.169-.282.056-.393-.056.029.14.141.196-.281.028-.31-.028-.45-.365.113.169-.169.393.113.478.084.28.028.449.337.336.225 0 .14.225.253.31.197 0-.056.083-.056-.029-.45-.73-.028.786-.703.421.028-.14.225.028.253-.028.056-.112.169-.393-.056-.561-.14-.28-.14-.73-.394-.87-.197 0-.197.112-.14.308-.029.14-.17.225-.029.337 0 .309.31.225.282.477-.057 0-.872-.477-.732-.056.141.056-.112.337-.112.084-.928.618.056-.336-.9.45.056.168-.14.224-.225.084.056-.112.169-.197-.028-.225-.225-.028.056.309 0 .534-.422-.31-.169.589-.59.224-.113.14.337.253 0 .253-.225-.056-.113-.28-.253-.421-.085.028-.254-.281 0-.056.309.14.815-.113.393-.421 0 .084-.225-.169-.365-.169-.14.028-.14.056-.197 0-.113-.028.028 0 .028-.056-.113-.056-.169.14-.253 0-.169.028.337-.14.028-.112.056-.085-.112.028-.056-.056-.169.112-.085.084-.085-.057-.112-.028-.112.337-.14.057-.197.42 0 0-.085.028-.056-.057-.112.168-.14.196-.056-.112-.14-.056-.084.056-.029-.056-.113-.028-.085.056-.112.169 0-.168-.056 0-.028.085.028-.084-.028-.028-.056.028.028.085 0 .113-.056-.113-.085.056-.169.14-.056 0 .14.056 0 .028-.056.084-.028 0-.112.112.084.085-.085.056.028.14-.253.141-.113.31-.281.506-.141.056-.17.337-.029.084-.028.225-.084.084-.168.14 0 .057-.113.029-.028.113-.141-.085.056.084-.085-.028-.112 0 .14.084-.084.084-.056.084-.31.056-.281.14.168.028.056 0-.028.056.056.028.056 0 0 .056-.029.113.168-.056.14 0 .113-.084-.056.14-.028.029-.197.028-.084.056-.084.14-.028.112.112-.168.056.028-.028-.056-.056.056-.028.056-.028.028-.113.056-.056.112.028-.084.084.113.028.057-.14.168.28.168.253-.085-.056-.14.056.14.028 0 .084.056 0-.168.056-.112-.028.28.14.393.14.702.029.028 0 0 0 .056.02.02.04-.045.029-.065.13-.028.208-.134.247-.258.003.006 0 .014.006.014 0-.056.056-.14.028-.168l-.003.02c.003-.029.003-.051.003-.076-.084-.085.281-.197-.028-.197.22-.042.205-.079.155-.137.005-.009.014-.017.014-.031-.009 0-.017.008-.026.017-.047-.057-.11-.13-.059-.242-.05-.25.169-.278.256-.443-.003.002-.003.008-.003.022.028 0 .028 0 .028-.028-.014 0-.022 0-.025.003a.186.186 0 0 0 .025-.06c.029-.14.029-.42.338-.252-.118.351-.428.469-.301.809-.003 0-.006.002-.008.005.005 0 .008-.003.01-.003.026.068.065.14.13.228.225-.14.394-.225.506-.112.113.14-.337.112-.478.224.225.674-.084.112-.168.365-.113.168 0 .253.112.337-.337.224-.394-.056-.76.252-.14-.196-.252.113-.337-.14-.016-.076.037-.123.076-.174l.009.006c.025-.011.025-.034.017-.054.002-.01.01-.02.01-.03-.112-.085-.196-.028-.196.084.113.337.197.252-.056.337-.338.168-.169.365-.478.561-.056.197-.113-.14-.169.168-.281-.028-.169.14 0 .197.197.898-.31.253-.506.617-.056.562-.084 1.095.562.646 0-.337.253-.449.31-.786.168 0 .28.028.421-.168.225.196.366.477.59.561 0 .365.142.337.085.056.338-.224-.14-.14-.309-.561-.197-.056.056-.421.028-.169.056.113.028-.056.084-.056.057.281.282.225.394.45.056.112.113.533.281.477.225.112-.056-.028-.084.056.056.14.225.28.169.056.028 0 .196-.084.028-.169-.037.02-.014-.056 0-.081.003.011.005.02 0 .025.011-.036.005-.039 0-.025-.02-.062-.121-.2-.028-.2.112.225.028-.084.168-.055.14-.029.506.112.253-.225.057-.168.141-.561.338-.617.14-.057-.056.056 0 .028.14.084.197 0 .112.168.085.14.422.028.31-.056-.043.062-.082.017-.113-.034.031.06.065.112 0 .006-.112-.084-.112-.028.028-.14-.028.112.225-.169.394-.14-.14.111-.056.224-.197.308.056.14.534.224.506.505-.393.337-.562-.224-1.237.14.169.169-.197.028-.253.197.112.112.084.14.028.253.197.14.056.168.253.196.113.112.113 0 .253-.028.169.168.31 0 .478-.028 0 .13-.014.303-.056.457-.003-.002-.011.003-.028.02-.085 0-.31.084-.113.112.051 0 .116-.075.135-.112-.05.171-.143.309-.303.309-.113-.197-.225.084-.45-.028-.338 0-.816-.45-.788.14-.28 0-.562-.337-.815-.365-.127-.1.042-.34-.048-.446.068-.073.113-.264-.008-.312-.073.073-.062.169-.04.284-.331.132-.638-.028-.916.278-.338-.084-.31.056-.563.337 0 .477-.421.701-.45 1.179.029.589-.028 1.066.225 1.46.225.87.844.252 1.322.448.028.225.225.169.337.14.225.253-.056.506.057.702.759.955.168 1.123.393 1.937.253.477.31 1.01.563 1.432.056.309.056.533.421.393.732.224.872-.842 1.238-1.095-.085-.42-.057-.59.45-.814.14-.196.084-.337.056-.617-.675-1.067 1.18-1.628 1.153-2.667-.253.056-1.013.337-.872-.084-.478-.393-.647-.843-.9-1.404 0-.056-.562-1.039-.225-.561.14.196.085-.085.14-.14-.027.28.282.533.423.757.056.31.28.534.478.786.056.197 0 .59.28.506.591-.281 1.716-.646 1.491-1.292-.253-.084-.31-.308-.365-.393-.422.646-.563.056-.9-.337-.056-.477.31.057.506.169.14.14.281.084.45.028.084.253.365.224.59.253.76-.14.506.224.984.308.141-.056-.084.14-.14.056.112.225.422.31.393 0 .057.197.17.843.394 1.264.478 1.066.563.168.647-.421.225-.169.59-.45.675-.73.197-.14.14-.028.309-.056 0-.028-.028-.056 0-.085 0 .172.065-.02.062-.053.177.062.171.236.247.329v.033c.009 0 .014-.005.017-.014a.177.177 0 0 0 .124.042c.028.056 0 .085-.056.056.028.113.084.029.112.056.068.051.054.228.056.32-.005 0-.017.006-.028.017 0 .028 0 .028.028.028l.006-.014c.006.031.017.037.05-.014.029.31.31-.449.422.253.113.225.141.505.057.702.197.168.28.59.478.814.365.393.225-.225.028-.45-.281-.168-.506-.42-.338-.841 0-.337.478.336.535.28.168.169-.029.337.28.084.507-.252.31-.589-.112-1.066-.28-.169.14-.562.338-.45 0 0 0 .225.112.113-.084-.168.506-.28.675-.337.028-.056.084-.14.169-.14.084-.056-.085-.028 0-.056.112-.056.056-.113.14-.169-.028-.112.057-.28.197-.393-.112-.056.085-.196 0-.168-.14.056.085-.056-.084-.112-.281.112.393-.281-.366-.253.113-.112.253.028.394.028-.169-.14-.197-.365-.422-.45-.084-.336.478-.336.281-.476-.197-.056-.225-.028-.337.084-.14-.112-.394-.28-.112-.365.252-.561.393-.225.28.028.844-.477.197.28.647.14.113.197.057.197.113.393-.056.253.112.056.253.085.31-.562-.506-.421-.169-1.151.056-.45.366-.113.506-.393.366-.534.31-1.32.14-1.825-.083-.196-.449-.477-.42-.14.027-.169-.142.14-.085-.084-.14.056-.14.028-.169-.14-.394.14-.028-.225-.056-.366.112-.28.084-.533.225-.786.253-.056.337-.084.506-.112.197.028 0-.224.31-.112.084-.028.252 0 .084.084.005.006.01.006.016.008-.005.009.006.023.009.003.115.048.126-.095.256-.095.028.056.084-.028.084-.084-.084-.057-.112.056-.14-.085.084-.168-.057-.505.168-.561.14-.028.253-.14.253.112.056.113.225.113.169-.14.225-.056-.14-.225.028-.309.225-.056.056.028.113.14.056.14.168.281.084.365-.253 1.01-.281 1.32.394 2.302.168.14.14-.337.056-.393.028-.056.225-.028.112-.112-.168-.168.028-.28.113-.337-.14-.084-.225-.337-.14-.421 0-.112.027.225.084.056 0-.168-.253-.112-.17-.337-.112-.14-.084-.028-.14 0-.084-.084-.14-.337-.084-.365-.113-.084-.113-.336.056-.224 0-.14.084-.197.14-.028 0-.337.254-.253.45-.14-.056-.337.057-.87.422-.843.254-.112-.506-.505-.534-.59-.14.141-.197 0-.056-.027-.281-.169.197.14.225-.056.056-.393-.366-.365-.169-.562.113.309.197.084.281.028.14.085.31.085.478.056zM30.79 20.153c.337-.365 0-.926-.394-.758.056.107-.256-.46-.405.006 0-.034-.017-.059-.062-.037.043-.028.2-.148.13-.193-.197-.056-.31.309-.225 0 .281-.28-.084-.814-.45-.646a.746.746 0 0 0-.174-.222c0-.01-.003-.014-.012-.01-.087-.077-.174-.138-.236-.217-.056-.196-.59.112-.759-.28-.169.027.084.14-.056.084-.197.028-.028.224-.169.28-.084-.14.14-.337.028-.393-.253.14-.478.365-.562.506-.085-.169-.253-.197-.394-.057-.703-.196.31-.982-.76-.814-.168-.084.648-1.122-.196-.59-.028.45-.703.366-.76-.14 0-.168-.027-.701.198-.926.168-.084.28-.196.562-.14.028.14.169.028.197.056.14.056 0 0 0-.056.028-.168.422-.14.506 0 .366-.225.169.898.478.477-.169-.645.028-.898.478-1.15-.028.027-.028-.057 0-.085.028.084.113-.14.056-.028-.14-.112 0 0 .028-.14-.112-.14.057-.085-.084-.225-.056-.14.084.14.056-.112.056-.197 0 .477.113.14.056-.056 0-.337.028-.196.197.112.028-.337.562-.31-.197-.083.085-.42.253-.392.197 0-.028-.112.14-.084.029 0 .254-.14.113 0 .085-.028.141.056.057 0-.17-.028-.225.28-.113.224.113-.112.169-.112.338-.196.084-.056-.113-.056-.197-.14-.113-.057.028-.31-.113-.253-.056-.084-.112-.084.028-.056.225-.113-.028-.253-.225-.113-.45.393-.28.197 0-.084.225-.252.422-.056.703-.084.085-.14.338-.112.338-.253 0-.112-.056-.42-.281-.196-.113.028 0-.085.197-.14-.141-.085-.113-.14-.226-.113a.39.39 0 0 0-.112-.252c.113-.085 0-.169 0-.281-.112-.084 0-.14-.112-.393.028-.197-.113.14-.141.252 0-.112-.14.057-.169.085.028-.225-.056.112-.028-.169-.14-.056-.028-.252-.056-.309.112-.14-.14-.14-.169-.252-.028-.225-.197-.169-.281-.225-.281-.224-.113.505-.225.534-.225.112.084.336 0 .561-.194.219-.323.202-.332.508-.003-.003-.003-.003-.005-.003 0 .006.003.011.005.011-.003.09.003.203.023.354-.14-.224-.056.112-.253-.224-.14-.14.14-.506-.056-.534-.338-.084-.591-.59-.816-.477.225-.505-.281-.14 0-.702.169-.28.366-.28.31-.477.393.253-.057-.224-.029-.224.14.14.31.28.281.056.028.028.17.14.253-.056.197-.085-.506-.534-.056-.225.197.337.225-.168.338-.112.056.168.197.056.056-.084.112-.029.028.252.14.14.197-.028.141-.225.141-.337-.056-.14.028 0 .084-.056.028-.112-.084-.197-.056-.225-.11-.11-.171-.134-.202-.087-.017-.002.003-.025-.023-.025-.059 0-.014.037.014.045a.437.437 0 0 0-.014.123c-.056-.056-.225.393-.253.253-.028-.954-.14.112-.197-.505.14.028-.028-.056-.084-.084.076-.104.174-.374-.008-.57a.241.241 0 0 0 .036-.132s.028-.028 0-.028c.028 0 .028-.056 0-.056v.056c-.003 0 0 .003-.003.003a.057.057 0 0 0-.025-.031c-.157-.13.287-.115-.048-.247.037.008.09.008.104-.006 0-.056-.056-.028-.112-.028-.028.008-.028.017-.017.025a.88.88 0 0 0-.068-.025c.085.056-.084-.056-.056.028a.21.21 0 0 0 .014.045c-.005-.008-.028-.03-.07-.017.084.169.084.028.028.197-.337-.337-.084.084-.056.28.042.099.064.113.078.087-.07.107-.11.236.034.363.144.016.034.08-.02.117-.002-.002-.002-.005-.008-.005v.011c-.02.014-.022.022.028.014l.006.006c-.003.005-.006.01-.006.022.009-.005.012-.008.014-.014.026.031 0 .067-.042.101a.22.22 0 0 0-.025-.09c-.028-.056-.056-.252-.113-.112-.1.048-.123.104-.11.154-.033-.033-.078-.061-.112-.053.006-.014-.003-.028-.03-.042 0 .028-.026.053-.003.081a.234.234 0 0 0 .002.087c-.033-.045-.073-.087-.028.031-.084-.056-.253-.028-.31-.084-.14-.118-.185-.182-.227-.314.101-.026.166-.028.256.061-.084.057.197.113.253.113.028-.197-.056-.084-.084-.14.028-.085.056.027.14-.057 0 .028.028.113.057.028.028-.028-.029.14.056.056.028-.224-.281-.308-.14-.533a.876.876 0 0 0 .019-.36.194.194 0 0 1 .008.023c.14-.112.169-.196-.028-.252-.053.014-.056.053-.04.1-.039-.019-.095.04-.157.236 0 .113-.028.253-.084.14-.028-.083.112-.42-.056-.364.056.168-.028.084-.169.056-.056-.028.197-.028.028-.168-.562.112.169-.169-.337-.113-.31.085-.366.253-.338.337.028 0 .338.084.197.056-.084 0-.478.056-.112.197.225-.056.506.337.197.14-.45-.224-.422.14-.141.28-.14.225.112.141.253.225.042-.008.076-.02.11-.028h.003c0-.002 0-.002.002-.002a1.78 1.78 0 0 0 .088-.026c-.026.037-.136.118-.206.085-.112.14-.028.252-.112.28.028.253-.028 0-.057-.084.057-.14-.028-.028 0-.14-.084-.169-.365.028-.506-.197.394-.224 0-.168-.28-.505.027-.309-.45.056-.254-.169.028-.196-.169 0-.112.057-.17.056 0-.478-.113-.337 0 .168-.337.112-.45.168-.05-.028-.287.155-.2.06.029 0 .063-.02.085-.046.253-.067.607-.23.084-.126a.365.365 0 0 0-.28.137v-.025c-.029.028-.029.031-.029.056a.464.464 0 0 0-.056.113c-.085-.281-.422-.646-.703-.758-.281-.169-.31-.225-.506-.337.056-.028-.028-.253-.169-.169.02-.008.037-.014.056-.028.068-.064-.076-.132-.053-.07-.02 0-.05.017-.087.042a.713.713 0 0 1 .047.068c-.154.028-.278-.121-.3.045-.113.112-.085-.057-.197.028-.253.224-.844.168-.816.393.056.42.14.477.281.673-.224.028-.14-.393-.196-.056.225.056-.085.14-.225.028.112-.309-.169-.084-.338-.084-.253.056-.112.168.028.28-.168-.14-.309.085-.084.225.478.056.506-.224.366.225-.282.168-.563.112-.788.309-.197.168-.084.393.085.28-.085.056 0 .169-.113.085-.31-.113-.028.533.169.112.084.028-.366.645.028.42-.028.085.056.029.056.141-.028.169.113-.168.113-.056-.085.169.365-.084.028.169-.062.272-.506.404-.76.524v-.02c0-.027-.027 0-.027.029.002 0 .002 0 .005.003-.07.036-.126.073-.146.11.07.07.138-.049.208-.08-.006.009-.011.015-.011.023.014-.014.028-.02.04-.028.005 0 .01-.003.016 0-.084.084.225-.056.197.028.149-.132.374-.239.582-.354.006.006.003.011.008.017.14 0-.084.112.14-.028.052-.053.217-.104.119-.154.006-.006.017-.009.023-.014.224-.056-.057-.197.168-.253.113.028.338-.337.647-.309-.14.056-.056.14-.169.14-.084-.168-.422.337-.225.225-.365.253.197.056.225-.028.023.118.183-.02.152-.101.017-.014.028-.028.017-.04l-.028.023a.059.059 0 0 0-.028-.022c.078-.026.11-.098.112.003-.008 0-.014-.003-.028-.003 0-.028.028-.056 0 0 .011.005.02.005.028.008v.02a.093.093 0 0 1 .014-.017c.011 0 .014-.003.006-.006.04-.036.05.04.123-.033.057 0-.112.056.029.084-.225-.028.084.084.056.14.169 0-.056.084.084.084.253 0 .169.169.366.14.14-.055-.056.085 0 .113.084.112.112-.028.112.112a.136.136 0 0 0 .04.124c-.051.048.017.303.017.073.028.028.028.084.056.084.028-.056-.028-.056-.056-.14.106.104.115.02.067-.017a.197.197 0 0 0-.04-.067c0-.113.113.056.085.14.003.003.008.003.011.003-.03.117-.093.247.017.137.025-.092.084-.07.04-.16.073-.1.067-.426.044.048.155.129.037.177.043.27-.003-.006-.009-.012-.014-.018-.029 0-.057.029-.029.057-.028.028-.056 0-.056.028.028.028.056 0 .056-.028.029 0 .043-.006.045-.017a.188.188 0 0 0 .04.073c.02.05.025.078.022.1a.035.035 0 0 0-.022-.016c-.113.028-.028.084-.056.112 0 .023.01.026.025.017a.562.562 0 0 0-.025.068c.253-.253.028.14.112.112-.098.098-.017.042.04-.037-.015.068.1-.09-.012.065-.03.034-.084.087-.098.154-.012-.025-.028-.042-.042-.042 0 .02.016.056.036.084a.204.204 0 0 0 .048.113l.008-.012c.009.014.026.023.048.012-.05.104.037-.026-.011-.05.062-.035.104.123.011.078 0 0-.028.028 0 .028 0 0 .003-.006.009-.011.061.134-.057.283.104.148.168-.084-.085.056.056.056-.056-.028 0 .169-.056 0-.085.029-.197.197-.057.085.113.056-.028-.028-.028.056-.112.028.028.056 0 .084h-.005c-.045-.04-.093-.062-.135-.056-.057.14.168.252.225.421.264.222.146-.112-.026-.303.034.008.07.005.11-.034-.14.112 0 .14.056.028-.084.28.056.197.14.477.029.085-.168.365-.084.197.029-.084-.028-.084-.196-.197-.029.506 0 .45-.253 1.01-.113.506.056.843.056.955.056.253.112.505.393.562.113.309.197.59.338.842-.197.084 0 .14.14.252-.056.225.45.646.225.281-.14-.168-.14-.561-.365-.786-.113-.449.197-.28.197.056.168.421.759.758.618 1.235.14.31.928.702 1.153.534.085-.056.506.477.816.337.14.393.225.449.59.561.028.197.084-.056.14-.14.197-.028.226.308.226.533.028.224-.338.45-.394.674-.056.252.225.056.056.28-.31.197.056.365.14.59.141.252.198.645.423.758.843.365.14 2.105.14 2.75.028.253-.14.394.085.45-.034.104-.04.222-.057.348-.005-.003-.014.011-.028.045-.014.045-.022.106-.011.134-.006.023-.008.043-.017.062-.028-.056-.056-.112-.14.028-.057.169.028-.028.112.056-.056.085-.028.085.056.113-.112 0-.056.084-.056.196s.056-.14.028.028c-.056.02-.025.087-.014.14-.014-.014-.03-.02-.042 0 .028.029.028.029.028.057a.114.114 0 0 1 .022.036.065.065 0 0 0-.022.02c0 .056-.028.168.028.112.011.053.02.037.025 0 .017.076.043.118.172-.028l-.017.037c-.028.01-.048.03-.042.059-.04.092.115-.012.087-.093.028-.028.056-.056.084-.112.028.084-.14.14-.056.168.113-.112-.084.084.028.056.14.028-.028.028-.084.028.056.056-.028 0-.056 0-.085.028.028.028.028.028-.085.085-.028 0 0 .085-.028-.029.112-.14.084-.057-.028 0-.028 0-.056.056.056.029.028-.056.112-.028-.056-.112-.028-.028.085-.084-.085-.056.253-.14.056-.14-.225-.084-.084-.477.169-.758.056-.084-.253-.225-.029-.337.141-.084.029-.224.197-.337-.14-.084.113.028.057-.084.056-.112-.085.084-.057 0-.056 0-.056-.168 0-.168.282.168.141-.253.253-.281.479-.056.366-.393.282-.674.177.331.374-.036.489-.289.079-.036.13-.163.157-.244a.979.979 0 0 0 .17-.505c.224-.31.308-.31.505-.506.197-.449.197-.898.394-1.263zM13.328 6.54c.003.009.003.011.003.017.07-.025.121-.059-.003-.017zm-9.87 8.003c.004.011.006.02 0 .025.012-.036.006-.039 0-.025zm19.346-3.792c.028.028.056 0 .056-.028-.028.028-.056 0-.056.028zm-1.043-1.207c0-.028.028-.056 0 0zm5.767-1.628v.056c.028 0 .028-.056 0-.056zm-4.133 4.547c-.028 0-.028.056 0 .084 0-.028-.028-.056 0-.084zm-.45-.898c0-.028 0-.056-.028-.056.028.028.028.056.028.056zm.056.14c-.028.028.028.028.028 0h-.028zm0-.028c.028-.028.028 0 0 0zm0 .14v-.056c-.028 0-.028.056 0 .056zm-.028-.224c0-.028.056-.028 0 0zm-.084-.814v.028c.028 0 .028-.028 0-.028zM20.16 9.515c0 .028-.028 0-.028.056.028 0 .056-.028.028-.056zm.45-1.18c.028-.055-.028-.055-.028-.027.028 0 .028.028.028.028zm6.338.4c.003.008-.011.022-.011.022.025.05.045-.009.01-.023 0-.002-.002-.005-.01-.005.005 0 .008.003.01.005zm-.068-.062c.057 0 .029-.085 0-.028.029 0 0 .028 0 .028zm-.14.112c-.028.028-.056.028 0 .056 0-.028.028-.056 0-.056zm1.274 2.877c-.006.011-.009.028-.009.07.028 0 .113-.028.056-.112-.014.042-.025.036-.036.036l.008-.008c-.028 0-.056 0-.056.028a.059.059 0 0 0 .037-.014zm.075-1.221c-.112-.028-.112-.028-.196.028 0 .14.168.056.197-.028zm0 1.263c.029 0 .029-.028.029-.028l-.029.028zm.113-1.375c.169-.14-.113-.085-.028-.14-.085-.225-.225-.337-.281-.422-.113.225-.225.534 0 .534.168-.253.112-.085.309.028zm-.31 2.077c0-.028.029 0 0 0zm-.14-.197c-.084.029.028.056.084.056 0-.056-.084-.112-.084-.056zm.225-2.386c0-.028.028-.084 0-.084-.028.028-.028.084 0 .084zm.056 0c-.028-.112.028-.084 0 0 .028.029.113.029 0 0zm.085-.084c.028 0 .028.028 0 0zm.056.926c.084.113.14-.224 0-.084v.085zm1.293 3.06c-.112.056-.14-.14-.168-.056.056.056.112.168.168.056zm-.112 4.295v.028c.028 0 .028-.028 0-.028zm.056-4.968c-.028-.085-.14-.169-.225-.14.056.083.113.14.225.14zm-.197 4.94s.028-.056 0-.056c0 0-.028.028 0 .056zm0-.253c-.056.056.056.028 0 0zm.028.14c.029 0 0-.084-.028-.056 0 .029.028.057.028.057zm-.056-.168c0-.028.028-.056-.028-.056 0 0 .028.028.028.056zm-.028.45c.028 0 .028-.029.028-.029-.028 0-.056 0-.028.028zm0-.534c.028.056.056 0 0 0zm-.028-.056c0-.028.028 0 0 0zm0-.084c0 .028.028 0 0 0zm-.084-.056h-.029c.029.056.029 0 .029 0zm-.254.027h.029c0-.027-.029 0-.029 0zm-.14-.056c-.113.113.225.085.112 0h-.112zm.028-3.003c-.028-.028-.028 0-.028 0h.028zm-.197 3.031c.028 0 .028.029 0 0zm.113-.028c-.029-.112-.085-.084-.254-.168-.45-.028.085.253-.337.14.113.197.337 0 .59.028zm-.563-.196c-.168-.168-.506-.337-.815-.393-.14.028-.394.225-.197.168.253-.196.45.056.731.169-.169.14.169.056.281.056zm-.506.224c.028.113.14.085.225.057-.056-.085-.14-.085-.225-.056zm-.365-.42c-.057 0 0 .027.028 0 0-.029-.085-.057-.028 0zm.562-.253c.028 0 .028-.056 0-.056s-.028.056 0 .056zm0-.084c0-.028 0-.085-.028-.085 0 .056-.028.056.028.085zm-.056-.31c-.056-.027-.056.029 0 0 .084-.027.084 0 0 0zm.112.113c.056-.056.056-.14-.028-.14.056.028.028.084.028.14zm-.028.112h.028c.028-.028-.028-.028-.028 0zm.152.009c.003-.009 0-.014-.003-.023-.006-.022-.02-.042-.034-.042a.223.223 0 0 1 .034.042c.003.009.003.017.003.023-.003.005-.006.014-.011.02.008 0 .01-.009.01-.02zm.065.194c-.009.014.014.05.036.05-.017 0-.03-.028-.036-.05.002-.003.002-.006.008-.006-.014-.028-.014-.014-.008.006zm.008-.062c0-.056-.056-.14-.028-.056 0 .028-.028.056.028.056zm.056.112c0 .028.028.028.028.028 0-.028 0-.028-.028-.028zm0-.14c.028 0 .028.028 0 0zm0 .224c.056 0 .085-.028.056-.056-.028 0-.028.056-.056.056zm.169 0c-.028 0-.028-.028-.056 0h.056zm-.028.28c0 .029.028.029.056.029-.028-.028-.056-.056-.056-.028zm-.028-.14c-.028-.027-.085.057-.028.029.028.028.056-.056.028-.029zm-.028.281s.028 0 .028.028c.028-.028 0-.056-.028-.028zm.337-2.891c-.028 0-.14 0-.113.056.085-.028.254-.084.113-.056zm-2.784 1.909v-.056s-.028.028 0 .056zM1.266 10.89c0 .028-.029.028 0 .056 0-.028.056-.056 0-.056zm21.167-4.255c.011-.003.023-.006.034-.012l.005-.022c-.036.008-.039.025-.039.034zM33.827.476v7.635l5.09 8.169.005.01-5.095 8.186v7.635l7.48-12.014v-7.635L33.826.476z" fill="#101d40"></path>
</svg>