<?xml version="1.0" encoding="utf-8"?>
<!-- Generator: Adobe Illustrator 22.0.1, SVG Export Plug-In . SVG Version: 6.00 Build 0)  -->
<svg version="1.1" id="Capa_1" xmlns="http://www.w3.org/2000/svg" xmlns:xlink="http://www.w3.org/1999/xlink" x="0px" y="0px"
	 viewBox="0 0 1885.557 841.588" style="enable-background:new 0 0 1885.557 841.588;" xml:space="preserve">
<style type="text/css">
	.st0{fill:none;stroke:#22B573;stroke-width:32;stroke-linecap:round;stroke-linejoin:round;stroke-miterlimit:40;}
	.st1{fill:none;}
	.st2{fill:#DC0031;}
	.st3{fill:#FDD700;}
	.st4{fill:rgb(220, 220, 220);}
</style>
<line class="st0" x1="-3401.874" y1="-1511.502" x2="-3401.874" y2="-1016.502"/>
<g>
	<rect x="0.127" y="0.498" class="st1" width="1885" height="841"/>
	<g>
		<g>
			<path class="st2" d="M1335.31,315.783c-7.346-5.606-10.987,0.795-11.866,2.002c-0.179-1.06-2.122-2.975-3.46-3.997
				c-0.595-0.454-2.231-1.17-3.813-1.416l0.166-0.219c0.782-1.074-0.258-3.222-2.322-4.798c-0.738-0.563-2.986-1.532-4.849-1.633
				l1.038-1.38c0.782-1.074,0.067-2.974-1.597-4.244c-0.917-0.7-4.891-1.959-6.258-0.082l-48.335,66.388
				c-0.782,1.074-0.067,2.974,1.597,4.244c1.358,1.036,2.927,1.332,3.884,0.823l-1.051,1.444c-0.782,1.074,0.258,3.222,2.322,4.798
				c1.457,1.112,3.035,1.641,4.112,1.479l-0.24,0.329c-0.782,1.074,0.183,3.165,2.155,4.67c3.157,2.409,6.272,2.367,7.657,1.658
				l-2.869,4.288c-0.891,1.223,0.436,3.778,2.962,5.707s5.297,2.5,6.188,1.276l57.539-75.63
				C1339.163,320.266,1337.837,317.711,1335.31,315.783z"/>
			<path class="st3" d="M1390.382,317.228c-7.041-5.647-10.847,0.65-11.754,1.835c-0.14-1.053-1.987-2.975-3.27-4.004
				c-0.571-0.458-2.157-1.187-3.707-1.451l0.171-0.215c0.807-1.055-0.143-3.196-2.122-4.783c-0.707-0.567-2.888-1.556-4.719-1.679
				l1.07-1.354c0.807-1.055,0.168-2.946-1.427-4.226c-0.879-0.705-4.749-2.003-6.16-0.159l-49.877,65.181
				c-0.807,1.055-0.168,2.946,1.427,4.226c1.302,1.044,2.837,1.357,3.797,0.864l-1.084,1.417c-0.807,1.055,0.143,3.196,2.122,4.783
				c1.397,1.12,2.932,1.664,3.999,1.517l-0.247,0.323c-0.807,1.055,0.071,3.138,1.962,4.655c3.026,2.427,6.095,2.425,7.483,1.739
				l-2.972,4.213c-0.919,1.201,0.299,3.75,2.721,5.692c2.422,1.943,5.131,2.544,6.05,1.343l59.259-74.224
				C1394.022,321.719,1392.804,319.171,1390.382,317.228z"/>
			<path class="st2" d="M1445.945,318.568c-6.932-5.807-10.857,0.403-11.786,1.567c-0.12-1.056-1.93-3.02-3.193-4.078
				c-0.562-0.47-2.133-1.236-3.678-1.536l0.176-0.211c0.827-1.036-0.082-3.199-2.031-4.831c-0.696-0.583-2.858-1.622-4.686-1.786
				l1.095-1.329c0.827-1.036,0.224-2.942-1.346-4.257c-0.865-0.725-4.71-2.111-6.155-0.3l-51.11,64.03
				c-0.827,1.036-0.224,2.942,1.346,4.257c1.281,1.073,2.811,1.421,3.779,0.951l-1.111,1.392c-0.827,1.036,0.082,3.199,2.031,4.831
				c1.375,1.152,2.9,1.731,3.969,1.608l-0.254,0.318c-0.827,1.036,0.011,3.139,1.872,4.698c2.979,2.496,6.048,2.563,7.449,1.909
				l-3.052,4.145c-0.942,1.18,0.228,3.756,2.612,5.753c2.385,1.997,5.081,2.66,6.023,1.48l60.662-72.857
				C1449.499,323.141,1448.33,320.565,1445.945,318.568z"/>
		</g>
		<g>
			<path class="st4" d="M1018.538,485.328c0-5.12-0.167-10.241-7.045-10.241h-95.835c-7.558,0-7.558,3.968-7.558,7.935v40.653
				c0,5.951,0.847,10.253,7.391,10.253h95.668c7.38,0,7.38-4.14,7.38-8.592V485.328z M1050.932,528.969
				c0,23.631-15.607,37.021-39.44,37.021h-95.835c-23.165,0-39.608-14.209-39.608-37.021v-50.087
				c1.84-19.837,17.112-35.211,39.774-35.211h95.668c26.007,0,39.44,16.043,39.44,38.855V528.969z"/>
			<path class="st4" d="M1582.627,532.946l-0.022,33.377h-129.23c-22.348,0-38.214-14.071-38.214-36.652v-86.07h30.927
				l-0.045,78.793c0,7.289,0.762,10.552,7.365,10.552H1582.627z"/>
			<path class="st4" d="M813.767,534.117v32.201H681.498c-22.399,0-38.301-14.278-38.301-37.182v-50.296
				c1.788-19.917,16.558-35.187,38.467-35.187h131.781v31.37H681.498c-7.307,0-7.307,3.99-7.307,7.969v40.838
				c0,5.974,0.821,10.287,7.151,10.287H813.767z"/>
			<rect x="828.801" y="443.653" class="st4" width="31.141" height="122.664"/>
			<path class="st4" d="M542.788,502.897l14.464-27.806l14.177,27.806H542.788z M603.759,566.317h33.897l-47.302-94.362
				c-7.563-15.305-16.706-28.487-33.102-28.487c-17.18,0-24.909,12.687-32.948,28.487l-47.931,94.362h33.423l16.551-31.819h61.192
				L603.759,566.317z"/>
			<path class="st4" d="M1308.93,503.102l14.464-27.806l14.177,27.806H1308.93z M1369.901,566.521h33.897l-47.302-94.362
				c-7.563-15.305-16.706-28.487-33.102-28.487c-17.18,0-24.909,12.687-32.948,28.487l-47.931,94.362h33.423l16.551-31.819h61.192
				L1369.901,566.521z"/>
			<path class="st4" d="M302.627,473.126c0-15.661,14.728-27.967,30.612-27.967c8.999,0,17.02,3.667,24.873,11.187l82.327,75.806
				v-86.947l30.779-0.012v88.516c0,18.856-14.249,32.603-30.779,32.603c-8.999,0-14.895-3.356-33.383-19.179l-73.817-70.328v89.507
				h-30.612V473.126z"/>
			<path class="st4" d="M1068.794,473.169c0-15.661,14.619-27.967,30.385-27.967c8.933,0,16.894,3.667,24.689,11.187l81.718,75.806
				v-86.947l30.551-0.012v88.516c0,18.856-14.144,32.603-30.551,32.603c-8.933,0-14.784-3.356-33.136-19.179l-73.271-70.328v89.507
				h-30.385V473.169z"/>
		</g>
		<g>
			<path class="st4" d="M614.236,316.226c0-5.184-0.153-10.361-6.466-10.361h-87.961c-6.936,0-6.936,4.011-6.936,8.021v41.104
				c0,6.016,0.772,10.361,6.778,10.361h87.808c6.778,0,6.778-4.181,6.778-8.69V316.226z M643.969,360.337
				c0,23.894-14.327,37.428-36.199,37.428h-87.961c-21.263,0-36.357-14.372-36.357-37.428v-50.632
				c1.691-20.048,15.712-35.586,36.51-35.586h87.808c23.875,0,36.199,16.207,36.199,39.269V360.337z"/>
			<path class="st4" d="M813.559,364.177l-0.021,33.587H693.783c-20.703,0-35.405-14.159-35.405-36.886v-86.625h28.654
				l-0.037,79.309c0,7.329,0.708,10.616,6.82,10.616H813.559z"/>
			<path class="st4" d="M1033.502,365.356v32.408h-121.87c-20.634,0-35.289-14.365-35.289-37.421v-50.62
				c1.644-20.048,15.252-35.416,35.443-35.416h121.421v31.575H911.632c-6.73,0-6.73,4.011-6.73,8.016v41.098
				c0,6.016,0.751,10.361,6.582,10.361H1033.502z"/>
			<rect x="829.085" y="274.302" class="st4" width="30.367" height="123.463"/>
			<path class="st4" d="M1159.708,333.088l13.402-28.355l13.138,28.355H1159.708z M1216.207,397.763h31.408l-43.827-96.221
				c-7.01-15.618-15.485-29.053-30.679-29.053c-15.923,0-23.082,12.931-30.531,29.053l-44.414,96.221h30.975l15.332-32.444h56.706
				L1216.207,397.763z"/>
			<path class="st4" d="M332.081,303.298H439.19v19.713H332.081V303.298z M437.182,274.433c-0.328,0-0.645,0.019-0.973,0.03
				c-1.2-0.067-2.437-0.115-3.759-0.115H302.676v123.415h29.066v-45.467H432.45c1.253,0,2.432-0.043,3.579-0.109v0.079
				c0.38,0.018,0.766,0.036,1.153,0.036c19.08,0,34.554-17.435,34.554-38.934C471.735,291.862,456.261,274.433,437.182,274.433"/>
			<g>
				<rect x="1050.924" y="275.499" class="st4" width="30.367" height="123.463"/>
				<g>
					<polygon class="st4" points="1050.924,263.68 1050.924,263.684 1081.291,263.684 1081.291,243.474 					"/>
				</g>
			</g>
		</g>
	</g>
</g>
</svg>
