<svg xmlns="http://www.w3.org/2000/svg" viewBox="0 0 74 30" class="web" aria-labelledby="title-1229998371"><path fill="rgb(180, 20, 20)" d="M54.623 29.431H46.58V26.62a2.1 2.1 0 0 0-.181.159 8.632 8.632 0 0 1-5.594 3.036c-2.788.372-5.524.187-8.152-.884-1.847-.752-3.389-1.899-4.417-3.642-.303-.512-.52-1.076-.776-1.613-.346.449-.7.933-1.08 1.395-2.146 2.596-4.886 4.153-8.222 4.672-2.85.444-5.676.35-8.428-.563-4.638-1.536-7.598-4.742-9-9.375a16.345 16.345 0 0 1 .2-10.302c1.336-3.81 3.896-6.535 7.6-8.107 4.113-1.747 8.31-1.893 12.487-.218 3.195 1.28 5.465 3.596 7.027 6.635l.243.477a9.89 9.89 0 0 1 1.103-2.7c1.19-1.962 2.91-3.296 4.992-4.199A16.33 16.33 0 0 1 39.719.125c2.573-.192 5.127-.072 7.644.528 1.684.4 3.26 1.044 4.602 2.173a7.173 7.173 0 0 1 2.53 4.532c.088.595.132 1.196.13 1.798.008 6.635.008 13.265 0 19.891v.386Zm-27.405-8.276c.028-.278.052-.506.072-.734.197-2.264 1.186-4.066 3.103-5.33 1.47-.967 3.098-1.586 4.789-2.019 2.64-.67 5.296-1.266 7.943-1.91.806-.196 1.61-.415 2.397-.672 1.298-.42 1.196-1.842.577-2.524A3.737 3.737 0 0 0 44.45 6.91c-1.963-.63-3.942-.597-5.914-.026-1.465.426-2.392 1.427-2.792 2.898-.144.522-.23 1.06-.346 1.611-.075-.03-.162-.062-.247-.098-2.214-.949-4.43-1.894-6.635-2.85a.52.52 0 0 0-.477.013c-1.737.799-3.475 1.594-5.216 2.386l-1.586.72c-.395-.707-.729-1.41-1.154-2.05-1.471-2.197-3.886-3.158-6.393-2.54-1.827.45-3.127 1.604-3.925 3.271-1.324 2.732-1.393 5.584-.474 8.435 1.24 3.853 4.804 5.093 8.01 4.274 1.626-.416 2.747-1.496 3.605-2.885.25-.404.462-.83.703-1.27l5.61 2.356Zm19.35-5.39c-.088.016-.145.023-.198.037-2.287.614-4.578 1.218-6.861 1.847-.806.198-1.596.453-2.366.763-1.774.774-1.865 3.146-.405 4.167.316.23.663.416 1.031.55 1.86.628 3.735.565 5.578-.051 1.843-.616 2.968-1.897 3.159-3.861.096-.987.047-1.99.062-2.985.001-.154-.002-.298-.002-.467h.002Zm16.855 13.667h-8.069V.068h8.06v4.367l.056.05C65.738.576 69.2-.454 73.411.265V8.29c-.596-.086-1.177-.189-1.763-.25-1.475-.143-2.942-.143-4.39.245-1.875.5-3.017 1.715-3.498 3.58-.237.987-.35 2-.337 3.016-.01 4.724-.01 9.448 0 14.17v.382Z"></path><title id="title-1229998371">Revista Car</title></svg>